<?xml version="1.0" encoding="UTF-8"?>
<!-- Created with Inkscape (http://www.inkscape.org/) -->
<svg width="110.08mm" height="105.96mm" version="1.1" viewBox="0 0 110.08 105.96" xml:space="preserve" xmlns="http://www.w3.org/2000/svg"><g transform="translate(35.34 -77.471)"><path d="m21.883 182.07c-1.8751-2.4146-1.9784-2.7502-1.069-3.4738 1.3838-1.101 2.2386-1.55 2.2386-1.1757 0 0.18797 0.60978 1.2073 1.3551 2.2651l1.3551 1.9233-0.89205 0.77605c-1.6498 1.4353-1.6266 1.4377-2.9877-0.31497zm4.3373-1.764c-1.195-1.439-2.6385-3.4511-2.6385-3.6777 0-0.29939 2.1996-1.9386 2.6014-1.9386 0.14624 0 0.53516 0.44648 0.86427 0.99218 0.3291 0.54571 0.93413 1.426 1.3445 1.9563 0.41037 0.53026 0.74149 1.066 0.73581 1.1906-9e-3 0.19504-2.1983 1.9463-2.4333 1.9463-0.0465 0-0.2599-0.21109-0.47414-0.46909zm-26.406-0.96322c-0.46123-0.64226-0.8386-1.2392-0.8386-1.3266 0-0.38417 1.8202-1.7654 2.8631-2.1726l1.1433-0.4464 0.64263 0.69305c0.35344 0.38118 0.64263 0.86733 0.64263 1.0803 0 0.35045-3.0947 3.336-3.4609 3.3388-0.0845 5.3e-4 -0.53096-0.52429-0.99219-1.1665zm19.018-1.7498c-0.35668-0.57817-0.74363-1.0512-0.8599-1.0512s-0.21139-0.17859-0.21139-0.39688c0-0.55076-0.0935-0.51887-1.5524 0.52917-1.1654 0.83728-1.4584 0.92604-3.0564 0.92604-1.9487 0-3.132-0.453-3.9902-1.5275-1.2708-1.5912-1.4876-1.7837-1.6276-1.4458-0.14531 0.35058-2.4604 2.0328-2.5796 1.8744-0.038-0.0504-0.51027-0.68013-1.0496-1.3994l-0.9806-1.3077 2.2687-2.0205 0.72048 0.86278c0.39627 0.47453 0.72369 0.95208 0.72761 1.0612 4e-3 0.10914 0.11749 0.19844 0.2524 0.19844 0.29138 0-1.1658-2.478-2.2001-3.7413-0.97195-1.1872-1.2099-1.5025-2.1774-2.8851-1.9055-2.723-2.4057-3.4182-3.4745-4.8302-0.61846-0.81698-1.1245-1.558-1.1245-1.6468 0-0.0888-0.35438-0.59986-0.78751-1.1358-1.0838-1.3411-4.2396-5.6032-4.2396-5.726 0-0.055-1.0716-1.5288-2.3812-3.2751-1.3097-1.7463-2.3812-3.3028-2.3812-3.4589s-0.23812-0.43257-0.52916-0.61433c-0.29105-0.18176-0.52917-0.42609-0.52917-0.54296 0-0.11686-0.29766-0.53349-0.66146-0.92584-0.3638-0.39234-0.66146-0.81084-0.66146-0.93 0-0.20033-1.3087-1.977-2.0332-2.7604-0.17236-0.18636-0.38875-0.57625-0.48085-0.86643s-0.26102-0.5276-0.37539-0.5276c-0.18303 0-1.8805-2.3408-3.2865-4.5321-0.26805-0.41777-0.59547-0.75959-0.7276-0.75959-0.13212 0-0.24023-0.12094-0.24023-0.26875 0-0.27507-2.0513-3.2497-2.7339-3.9646-0.20844-0.21828-0.72038-0.93706-1.1376-1.5973s-1.1754-1.7318-1.6847-2.3812-1.0451-1.3715-1.1906-1.6045-0.90795-1.3256-1.6943-2.4279c-2.1761-3.0506-2.7292-5.1433-1.985-7.5096 0.59939-1.9056 1.0859-2.2791 12.677-9.7321 1.6017-1.0299 3.3876-2.2022 3.9687-2.6052 0.58114-0.40294 1.89-1.2686 2.9087-1.9237 1.0186-0.65509 1.8402-1.3065 1.8256-1.4475-0.0678-0.65679-0.13963-0.76067-0.635-0.91789-0.7298-0.23163-0.66566-0.43377 0.35901-1.1314 0.81373-0.55401 1.7577-0.58581 1.7577-0.05922 0 0.37122-0.72079 0.4963-1.0371 0.17997-0.23407-0.23407-0.36764-0.21326-0.55736 0.08682-0.35037 0.5542-0.31711 0.79154 0.11095 0.79154 0.20272 0 0.43748 0.17956 0.52169 0.39903 0.12584 0.32792 0.39022 0.25314 1.4835-0.41957 1.3531-0.83259 1.5921-1.1623 0.99966-1.3795-0.26407-0.09683-0.26427-0.19172-1e-3 -0.47085 0.27207-0.28845 0.38776-0.27169 0.66146 0.09579 0.30442 0.4087 0.43206 0.37976 1.5505-0.35157 0.99142-0.64825 1.1966-0.91328 1.0996-1.4205-0.0879-0.45993-0.25154-0.58896-0.6235-0.49169-0.79008 0.20661-0.59304-0.43312 0.28778-0.93433 0.43564-0.24789 0.79283-0.54001 0.79375-0.64915 7.9e-4 -0.10914 0.12073-0.19844 0.26625-0.19844s0.26459 0.17859 0.26459 0.39688c0 0.21828 0.19843 0.39688 0.44097 0.39688 0.24253 0 0.35739 0.08358 0.25523 0.18574-0.10216 0.10216-0.59645 0.15808-1.0984 0.12427l-0.91268-0.06146 1.3442 1.3442 1.1522-0.79271c0.86075-0.59222 1.1181-0.92284 1.0176-1.3072-0.074-0.283-0.3076-0.58094-0.5191-0.6621-0.2115-0.08116-0.31688-0.03809-0.23419 0.09571 0.0827 0.1338 0.0418 0.31034-0.0908 0.39232-0.13265 0.08198-0.31319-0.0386-0.4012-0.26794-0.23619-0.61568-0.21842-0.6383 0.50151-0.6383 0.36381 0 0.66146 0.09042 0.66146 0.20094s0.23107 0.34524 0.51348 0.52162c0.40258 0.25141 0.64556 0.25087 1.125-0.0024 1.2919-0.68279 1.8115-1.179 1.6567-1.5822-0.0859-0.22396-0.0291-0.4858 0.12637-0.58187 0.15544-0.09607 0.28262-0.04858 0.28262 0.10553 0 0.46516 0.61487 0.31828 1.6706-0.39907 0.75742-0.51468 0.96031-0.80318 0.83734-1.1906-0.17562-0.55333 0.35719-0.71544 0.82242-0.25021 0.1718 0.1718 0.59724 0.03276 1.2435-0.40641 0.9741-0.66192 1.1316-1.0102 0.8218-1.8175-0.25545-0.6658-0.63315-0.48575-0.63315 0.30169v0.72033l-0.42392-0.60524c-0.39351-0.5618-0.38876-0.63188 0.0661-0.9765 0.26953-0.20419 0.62897-0.37505 0.79875-0.37968 0.16977-0.0046 0.36325-0.15724 0.42994-0.33914 0.097-0.26458 0.19139-0.26458 0.47184 0 0.28871 0.27236 0.2712 0.33073-0.0992 0.33073-0.28101 0-0.44979 0.20918-0.44979 0.55747 0 0.37568 0.12385 0.50995 0.37978 0.41174 0.20888-0.08015 0.42303-0.016 0.47588 0.14255 0.16923 0.50769 2.315-0.9097 2.3173-1.5307 3e-3 -0.75065 0.28603-0.9765 0.63734-0.50818 0.24873 0.33158 0.45429 0.28319 1.4224-0.33484 0.91766-0.58579 1.1044-0.83502 0.98715-1.3177-0.10187-0.41954-0.0259-0.59531 0.25736-0.59531 0.22106 0 0.40192 0.11906 0.40192 0.26458 0 0.45117 0.57336 0.29368 1.4978-0.4114 0.71328-0.54404 0.85458-0.80226 0.7239-1.3229-0.13219-0.52666-0.0628-0.64693 0.37343-0.64693 0.29469 0 0.5897 0.14883 0.65557 0.33073 0.0932 0.25724 0.25973 0.24611 0.74966-0.05009 0.34643-0.20945 1.1623-0.66661 1.813-1.0159 0.6507-0.3493 1.5437-0.89231 1.9844-1.2067 0.65558-0.46765 1.1621-0.56916 2.7856-0.55826 1.0914 0.0073 2.1863 0.12751 2.4331 0.26708 0.54773 0.30977 5.5044 5.1244 5.5044 5.3466 0 0.08733 0.56555 0.7175 1.2568 1.4004 0.69123 0.68287 2.2093 2.2908 3.3734 3.5733 2.4716 2.7227 5.7618 6.2937 6.7305 7.3048 1.1448 1.1951 2.9308 3.1258 5.9561 6.4387 1.5933 1.7448 2.9625 3.2331 3.0427 3.3073 0.26079 0.24122 3.7845 4.0244 6.7617 7.2597 1.6 1.7386 3.2067 3.4825 3.5705 3.8753 0.3638 0.39273 1.6735 1.8097 2.9104 3.1489 1.2369 1.3392 2.8443 3.0605 3.5719 3.8253 1.6994 1.7861 2.249 2.9613 2.249 4.8092 0 2.3317-0.68026 4.2477-1.9119 5.3849l-1.0584 0.97729 1.2867 1.2373c1.252 1.2039 1.2724 1.2482 0.75755 1.641-0.29104 0.22203-0.79796 0.63702-1.1265 0.9222-0.32853 0.28519-0.65959 0.51852-0.73569 0.51852-0.2153 0-1.8241-1.8788-1.9917-2.326-0.11935-0.31845-0.30931-0.24384-0.93683 0.36796-0.43292 0.42207-0.66915 0.67811-0.52497 0.56897 0.4839-0.3663 0.81285-0.19482 1.719 0.89613l0.90125 1.085-1.0335 0.88465c-0.56845 0.48655-1.1526 0.87904-1.2981 0.87218-0.14553-7e-3 -0.67547-0.48984-1.1777-1.0733l-0.91307-1.0608 0.64849-0.5142c0.57901-0.45911 0.52802-0.45358-0.47599 0.0516-0.61847 0.3112-1.1245 0.60001-1.1245 0.64181s0.53578 0.61947 1.1906 1.2837c0.65485 0.66424 1.1906 1.2617 1.1906 1.3277 0 0.066-0.60775 0.55659-1.3506 1.0902-1.2726 0.91425-1.3703 0.94242-1.6926 0.48784-0.18815-0.26534-0.59243-0.76854-0.89841-1.1182-0.30597-0.34969-0.55632-0.73664-0.55632-0.8599 0-0.37911-0.72809-0.24768-0.8844 0.15966-0.14589 0.3802 1.4923 2.2621 1.9692 2.2621 0.5241 0 0.18007 0.54131-0.9136 1.4375-0.63345 0.51907-1.2744 0.94376-1.4243 0.94376s-0.67344-0.5321-1.1634-1.1824c-0.48993-0.65034-1.0326-1.1861-1.2059-1.1906-0.73854-0.0192-0.54753 0.57296 0.56871 1.763 1.2461 1.3285 1.423 1.6676 0.87089 1.6696-0.1819 8e-4 -0.71123 0.35786-1.1763 0.79375-0.81298 0.76201-1.4021 1.0112-1.4046 0.59409-7.9e-4 -0.10914-0.35785-0.57893-0.79375-1.044-0.43588-0.46505-0.79252-0.97107-0.79252-1.1245 0-0.34113-0.27113-0.35037-0.78284-0.0267-0.31441 0.19887-0.17006 0.50019 0.77852 1.6252l1.1645 1.381-0.91081 0.77048c-1.5839 1.3399-1.6611 1.3441-2.5854 0.14146-0.46142-0.60036-0.83894-1.1787-0.83894-1.2852 0-0.10648 0.49971-0.56109 1.1105-1.0102s0.97707-0.81664 0.81405-0.81664c-0.16303 0-0.63297 0.27299-1.0443 0.60665-0.41135 0.33367-1.0753 0.81266-1.4755 1.0644-0.79534 0.50039-0.95628 0.97474-0.33073 0.97474 0.21828 0 0.39687 0.0925 0.39687 0.20562 0 0.11309 0.36 0.59976 0.79999 1.0815l0.79999 0.87588-0.711 0.57215c-1.3191 1.0615-2.2119 1.5628-2.2119 1.2419 0-0.16952-0.32209-0.73049-0.71575-1.2466-0.69279-0.9083-0.69966-0.95015-0.21401-1.3053 0.27595-0.20178 0.60506-0.36687 0.73136-0.36687 0.12629 0 0.15604-0.11907 0.0661-0.26459-0.0899-0.14552-0.0374-0.26458 0.11667-0.26458 0.15411 0 0.2802-0.12106 0.2802-0.26901 0-0.40812-3.7816 2.3336-7.2137 5.23-0.90528 0.76398-1.7168 1.3891-1.8033 1.3891-0.20089 0-2.3601 2.0478-2.3601 2.2384 0 0.31801 0.44263 0.10547 1.1539-0.55408l0.75165-0.69696 2.1758 2.1758-0.57439 0.53513c-0.31592 0.29433-0.64389 0.53513-0.72881 0.53513-0.0849 0-0.41165 0.23965-0.72604 0.53255l-0.57162 0.53254-0.60145-0.73098c-0.3308-0.40204-0.7525-1.0584-0.93712-1.4586-0.37466-0.81215-0.77583-0.91991-1.2587-0.3381-0.25861 0.3116-0.23783 0.47493 0.10389 0.81665 0.59499 0.59499 1.7421 2.1176 1.7421 2.3124 0 0.18755-2.3792 2.0383-2.6177 2.0363-0.0882-7.9e-4 -0.5728-0.64616-1.0769-1.4342-0.76507-1.1962-0.99453-1.3911-1.3891-1.18-0.68485 0.36652-0.60398 0.58163 0.70314 1.8703 0.64665 0.63752 1.0931 1.2774 0.99219 1.4221-0.10095 0.14461-0.67693 0.64681-1.28 1.116-1.0859 0.84492-1.6817 1.0661-1.6817 0.62433 0-0.1258-0.35529-0.63181-0.78953-1.1245-0.43424-0.49266-0.79142-0.98504-0.79375-1.0942-2e-3 -0.10914-0.18655-0.19844-0.4094-0.19844-0.83526 0-0.63529 0.73945 0.54164 2.003l1.2149 1.3043-0.74184 0.60879c-0.40802 0.33483-1.0537 0.83789-1.4349 1.1179l-0.69306 0.50911-0.62985-0.82907c-0.34642-0.456-0.77868-0.98032-0.96058-1.1652s-0.33073-0.46364-0.33073-0.61955c0-0.4103-0.41095-0.34785-0.80061 0.12166-0.27466 0.33094-0.2636 0.4642 0.0604 0.7276 0.21816 0.17736 0.72642 0.76923 1.1295 1.3153 0.83734 1.1344 0.80245 1.2198-1.0388 2.5421-1.0689 0.76764-1.3041 0.82114-1.2502 0.28443 8e-3 -0.0822-0.33455-0.55844-0.76179-1.0583s-0.77708-0.99819-0.77742-1.1073c-2.6e-4 -0.10914-0.16464-0.19844-0.3651-0.19844-0.49585 0-1.1237 0.78594-0.80868 1.0124 0.44174 0.31752 1.9669 2.1746 1.9669 2.395 0 0.11768-0.5792 0.70235-1.2871 1.2993l-1.2871 1.0853-1.028-1.4351c-0.56539-0.78928-1.1698-1.4376-1.3431-1.4408-0.72913-0.0132-0.5914 0.63354 0.42027 1.9735l1.077 1.4265-1.2525 1.0736c-0.6889 0.59047-1.3716 1.0712-1.5171 1.0682-0.14552-3e-3 -0.55641-0.47845-0.91308-1.0566zm18.664-17.123c-0.18349-0.18349-0.68545 0.18932-0.68545 0.50908 0 0.17545 0.15181 0.15538 0.40327-0.0533 0.22179-0.18408 0.34878-0.38917 0.28218-0.45577zm-13.65-4.9136c0-0.13553 0.1786-0.0982 0.39688 0.083 0.2742 0.22756 0.39687 0.23758 0.39687 0.0324 0-0.16334 0.1871-0.29698 0.41578-0.29698 0.37797 0 0.37797-0.0378 0-0.41577-0.22868-0.22868-0.41578-0.53336-0.41578-0.67708 0-0.14371-0.11386-0.19092-0.25303-0.10491-0.13916 0.086-0.18595 0.33116-0.10398 0.54478 0.10198 0.26574-0.027 0.3884-0.40843 0.3884-0.31914 0-0.55747 0.16967-0.55747 0.39687 0 0.4802-0.43816 0.52825-0.60319 0.0661-0.065-0.1819-0.21306-0.24216-0.32911-0.13391-0.11604 0.10825 0.0123 0.44356 0.28524 0.74514 0.46869 0.51789 0.51509 0.52252 0.83622 0.0833 0.187-0.25574 0.34-0.57586 0.34-0.71139zm2.6458-1.2221c0-0.28443-1.0293-0.66423-1.2371-0.45647-0.0764 0.0764-0.0604 0.26583 0.0356 0.42104 0.21448 0.34702 1.2015 0.37613 1.2015 0.0354zm1.0633-0.94985c0.18388-0.22156 0.52588-0.34334 0.76-0.27062 0.23411 0.0727 0.55341 0.0456 0.70955-0.0602 0.80374-0.54473 0.91863-2.5424 0.11774-2.0474-0.21419 0.13238-0.20759 0.2877 0.0241 0.56687 0.24678 0.29736 0.24773 0.45594 4e-3 0.69949-0.24355 0.24355-0.34998 0.18102-0.46944-0.2758-0.085-0.32491-0.25263-0.59075-0.37259-0.59075-0.41611 0-0.55783 0.55434-0.23973 0.93763 0.2534 0.30533 0.2444 0.38907-0.0434 0.40352-0.19971 0.01-0.69054 0.0614-1.0907 0.11424-0.40019 0.0528-0.72761-0.0149-0.72761-0.15052 0-0.13559 0.13891-0.24653 0.30868-0.24653 0.16978 0 0.23219-0.0765 0.13869-0.17s-0.34349-0.026-0.55554 0.14998c-0.33586 0.27874-0.32911 0.38586 0.0524 0.83145 0.52751 0.61609 0.93588 0.64815 1.3836 0.10863zm-0.79871-0.14193c0-0.15411 0.11906-0.20661 0.26458-0.11668 0.14552 0.0899 0.26459 0.21603 0.26459 0.2802 0 0.0642-0.11907 0.11668-0.26459 0.11668s-0.26458-0.12609-0.26458-0.2802zm24.905-0.71199c0.32911-0.41964 0.31975-0.429-0.0999-0.0999-0.44073 0.34564-0.58088 0.56291-0.36312 0.56291 0.0549 0 0.2633-0.20836 0.46302-0.46302zm-29.006-0.59531c0.0899-0.14552 0.36491-0.26458 0.61104-0.26458 0.24614 0 0.98155-0.48815 1.6342-1.0848l1.1867-1.0848-0.60551-0.49031c-0.59883-0.4849-0.61871-0.48023-1.8024 0.42331-1.6503 1.2597-2.5306 1.224-3.8432-0.15585-1.5301-1.6085-1.35-2.8778 0.58152-4.0971 1.1557-0.72953 1.2114-0.85748 0.686-1.5759-0.34827-0.47628-0.40176-0.46948-1.5214 0.1933-1.832 1.0845-2.6156 2.2803-2.6156 3.9914 0 1.754 0.84322 3.1414 2.4492 4.0297 0.72311 0.39997 3.0131 0.48168 3.2393 0.11558zm7.9496-2.0605c-0.0724-0.0724-0.31452 0.0202-0.53812 0.20581-0.32247 0.26763-0.34046 0.417-0.087 0.72242 0.27244 0.32828 0.35176 0.29794 0.53811-0.20581 0.12021-0.32496 0.15935-0.65005 0.087-0.72242zm1.5754 0.20841c0.0899-0.14552-0.0221-0.26459-0.24897-0.26459s-0.41249-0.17859-0.41249-0.39687-0.11906-0.39688-0.26458-0.39688c-0.36501 0-0.33237 0.62014 0.0529 1.0054 0.38689 0.38689 0.65662 0.40323 0.87313 0.0529zm1.0032-1.2568c-0.094-0.25467-0.29513-0.54585-0.44705-0.64708-0.60307-0.40183 0.12279-0.50745 0.88258-0.12841 0.85312 0.42559 1.0074 0.31132 0.4711-0.34899-0.37614-0.46316-1.3721-0.51128-1.7966-0.0868-0.21669 0.21669-0.17505 0.47758 0.15713 0.98455 0.51124 0.78026 0.9919 0.92897 0.7328 0.22673zm-4.2957-1.3098c1.0104-0.8502 1.5397-1.9847 1.3613-2.9179-0.0712-0.37249-0.58856-1.1363-1.1497-1.6974-0.83076-0.83075-1.2095-1.0202-2.0394-1.0202-1.2722 0-2.6422 0.88298-3.3216 2.1407-0.62309 1.1536-0.44949 2.0058 0.66784 3.2784 0.74255 0.84571 0.94613 0.93089 2.2248 0.93089 1.1432 0 1.567-0.13418 2.2566-0.71448zm-3.0221-1.673c-0.83592-0.99343-0.86565-1.3466-0.16662-1.9792 0.43383-0.39261 0.64777-0.42631 1.1766-0.18534 0.84658 0.38573 1.5311 1.4548 1.4224 2.2215-0.0661 0.46664-0.28095 0.62954-0.91104 0.69088-0.6526 0.0635-0.96978-0.0924-1.5214-0.74791zm9.8769 1.473c0.17586-0.2119 0.23506-0.52232 0.13155-0.6898-0.13044-0.21106 5e-3 -0.25597 0.44024-0.14633 0.34565 0.087 0.47962 0.0898 0.29772 6e-3 -0.1819-0.0835-0.33073-0.32057-0.33073-0.52672 0-0.20616-0.11906-0.37483-0.26458-0.37483s-0.26459 0.12201-0.26459 0.27113-0.29765 0.3843-0.66146 0.52262c-0.3638 0.13832-0.65205 0.40326-0.64056 0.58876 0.0164 0.26535 0.0494 0.26675 0.15433 7e-3 0.0734-0.1819 0.30213-0.33073 0.50828-0.33073 0.4628 0 0.49776 0.70005 0.0441 0.8831-0.20781 0.0839-0.21985 0.14122-0.0324 0.15434 0.16409 0.0115 0.44223-0.15249 0.61809-0.36439zm1.969-2.0934c-0.23506-0.76612-0.33327-0.84072-0.66716-0.50683-0.40698 0.40697-0.0388 1.4081 0.44899 1.2209 0.26076-0.10006 0.33352-0.33819 0.21817-0.7141zm18.871 0.46679c-0.0879-0.0879-0.31612-0.0973-0.50712-0.0209-0.21106 0.0845-0.14837 0.14716 0.15985 0.15985 0.27892 0.0115 0.43519-0.051 0.34727-0.13896zm-23.807-1.1481c0.32742-0.27315 0.59345-0.59661 0.59118-0.7188-2e-3 -0.1222-0.47666-0.75796-1.0542-1.4128-1.1444-1.2976-1.2941-1.9468-0.62045-2.6912 0.40817-0.45102 0.40539-0.51975-0.041-1.013-0.81373-0.89916-1.4552-0.53973-1.4552 0.81539 0 0.53464-0.3885 0.68459-0.65529 0.25292-0.20305-0.32853-1.4614 0.22637-1.4614 0.64445 0 0.1677 0.35711 0.64705 0.79359 1.0652 0.43647 0.41817 1.2984 1.3929 1.9154 2.1662 0.617 0.77323 1.1826 1.4019 1.2569 1.3971 0.0743-5e-3 0.40301-0.23229 0.73043-0.50543zm6.1516 0.28205c0-0.32769-0.77512-0.93297-0.95912-0.74897-0.16897 0.16897 0.4469 0.95518 0.76069 0.97109 0.10914 6e-3 0.19843-0.0944 0.19843-0.22212zm0.79375-0.44817c0-0.27863-0.75225-0.90715-1.0857-0.90715-0.20164 0-0.13187 0.19951 0.17953 0.51345 0.50561 0.50969 0.90619 0.68373 0.90619 0.3937zm0.93601-1.3702c-0.14489-0.58665-0.11457-0.66353 0.15652-0.39687 0.51671 0.50827 0.69877 0.39663 0.5576-0.34189-0.11763-0.61533-0.16699-0.63787-0.57946-0.26459-0.24798 0.22442-0.59033 0.40804-0.76077 0.40804s-0.3099 0.11906-0.3099 0.26458 0.1786 0.26459 0.39688 0.26459c0.48056 0 0.52683 0.43263 0.0661 0.61852-0.18735 0.0756-0.11757 0.14251 0.16097 0.15434 0.40603 0.0173 0.46039-0.1059 0.31201-0.70672zm1.9744-1.0921c0-0.32769-0.77512-0.93297-0.95913-0.74897-0.16896 0.16897 0.44691 0.95518 0.76069 0.97109 0.10914 6e-3 0.19844-0.0944 0.19844-0.22212zm-4.7636-1.2627 0.8332-0.7011-0.53389-0.53389c-0.4522-0.4522-0.59864-0.48017-0.95699-0.18277-0.36442 0.30244-0.56824 0.20941-1.4696-0.67078-1.173-1.1455-1.245-1.3726-0.58703-1.8536 0.43408-0.31741 0.4317-0.36673-0.0429-0.89121-0.46854-0.51773-0.5349-0.52584-0.98321-0.12013-0.44937 0.40668-0.51542 0.39386-1.0118-0.19629l-0.53102-0.63138-0.5269 0.66146c-0.60855 0.76397-0.67852 1.2318-0.20793 1.3901 0.2538 0.0854 0.25889 0.19842 0.0219 0.48581-0.42601 0.51658 0.21916 1.399 0.88473 1.2101 0.34058-0.0967 0.75478 0.20001 1.4085 1.0089 1.5174 1.8776 2.3995 2.1217 3.703 1.0248zm6.2188 0.17193c0.0899-0.14552-0.0221-0.26458-0.24897-0.26458-0.5408 0-0.52252-0.25286 0.0505-0.69909 0.44097-0.34338 0.44097-0.35421 0-0.2276-1.4001 0.40199-1.3733 0.37248-0.83295 0.9177 0.5791 0.58427 0.80271 0.64358 1.0314 0.27357zm19.536-1.0443c-0.058-0.065-0.42926 0.22237-0.82503 0.6387l-0.71958 0.75697 0.82502-0.63871c0.45377-0.35129 0.77758-0.69192 0.71959-0.75696zm-18.313 0.19803c-0.2565-0.6934-0.8261-0.9551-0.8261-0.37955 0 0.31586 0.60283 0.90001 0.98367 0.95319 0.0317 4e-3 -0.0392-0.25371-0.15757-0.57364zm-18.752-0.0512c0.58505-0.44412 0.5845-0.76265-2e-3 -1.2937-0.42667-0.38613-0.5194-0.38024-1.1177 0.071-0.64153 0.4839-0.64411 0.50125-0.15517 1.0415 0.57822 0.63892 0.65721 0.65014 1.2751 0.1811zm13.62-1.1794c0.73386-0.21426 2.4534-1.8136 2.4534-2.2819 0-0.68076-0.86482-0.69909-1.5644-0.0332-0.7385 0.70294-2.1485 1.0133-2.325 0.51182-0.0597-0.16955 0.10646-0.37893 0.36913-0.46528 0.26267-0.0863 0.95383-0.56172 1.5359-1.0564l1.0583-0.89939-0.63763-0.68181c-0.70021-0.74873-2.0209-1.1083-3.0876-0.84056-2.638 0.66208-2.6389 4.447-1e-3 5.5954 0.88754 0.38644 1.2973 0.41462 2.1993 0.15128zm-2.7439-3.3504c-0.21519-0.56077 0.38036-1.1872 1.1286-1.1872 0.82201 0 0.80978 0.61448-0.0231 1.1602-0.80441 0.52708-0.91265 0.52972-1.1055 0.0271zm9.2588 2.1109c-0.87454-0.66254-1.0667-0.42593-0.71633 0.88209l0.16296 0.6084 0.5215-0.55977c0.50596-0.54308 0.50691-0.57083 0.0319-0.93072zm-39.16 0.80308c1.2139-0.50721 2.696-1.9858 2.9317-2.9248 0.26335-1.0492-0.2858-2.1313-1.3341-2.6288-0.87897-0.41709-1.3964-0.38891-2.6807 0.14602-2.308 0.96129-2.6373 1.0538-3.1089 0.8728-0.6416-0.24621-0.45655-1.0755 0.37158-1.6652 0.86477-0.61577 1.3686-0.6856 1.8041-0.25007 0.21977 0.21976 0.51915 0.13901 1.15-0.31017l0.85285-0.60729-0.59719-0.48358c-1.2272-0.99375-3.5621-0.40257-5.0349 1.2748-1.0472 1.1927-1.0543 2.2567-0.022 3.2891 0.93803 0.93803 1.5317 0.95569 3.5922 0.10688 0.87313-0.35967 1.9187-0.6545 2.3234-0.65518 1.4813-2e-3 1.0544 1.3904-0.70517 2.3002-0.63739 0.32961-0.87048 0.33836-1.4042 0.0527-0.54-0.289-0.75021-0.27558-1.3461 0.086-0.97566 0.592-1.0073 0.8991-0.14112 1.3687 0.95565 0.51805 2.1514 0.528 3.3484 0.0279zm40.486-0.79398c-0.0883-0.23011-5e-3 -0.39688 0.19939-0.39688 0.22217 0 0.13625-0.21544-0.23334-0.58502-0.43295-0.43296-0.6623-0.50774-0.88234-0.28771-0.22003 0.22004-0.16921 0.47311 0.1955 0.97359 0.54385 0.74629 0.959 0.91679 0.72079 0.29602zm-17.472-0.69947c0.20148-0.32152 0.16172-0.54565-0.15252-0.85989-0.51216-0.51217-0.71379-0.51879-1.3401-0.044-0.41448 0.31422-0.43264 0.44131-0.13229 0.92609 0.39684 0.64052 1.2167 0.62931 1.6249-0.0222zm18.955-1.2849c0.15021 0 0.27311-0.23812 0.27311-0.52916 0-0.29105-0.11906-0.52917-0.26458-0.52917s-0.26459 0.25201-0.26459 0.56002c0 0.42977-0.12308 0.52784-0.52916 0.42165-0.59803-0.15639-0.69257 0.18705-0.19844 0.72089 0.27504 0.29713 0.36271 0.27298 0.52064-0.14346 0.10445-0.27542 0.31281-0.50077 0.46302-0.50077zm-5.3015 0.24085c0.59925-0.49882 0.62013-0.59872 0.30644-1.4662-0.36222-1.0017-0.24092-1.3916 0.30087-0.96722 0.67185 0.52627 1.6191 0.58104 2.3706 0.13709 0.41231-0.24357 0.71356-0.55116 0.66943-0.68355-0.0441-0.1324-0.81356-0.46583-1.7098-0.74097l-1.6296-0.50026-0.17895-1.5817c-0.0984-0.86995-0.26188-1.5817-0.36324-1.5817s-0.45477 0.28791-0.78535 0.63981c-0.48212 0.51319-0.56395 0.80879-0.4135 1.4938 0.177 0.80589 0.15238 0.84315-0.43725 0.66175-1.3553-0.41696-1.7069-0.39825-2.3208 0.12345-0.75987 0.64577-0.58506 0.83824 1.1605 1.2777 1.4751 0.37134 1.7147 0.61521 1.7257 1.7567 9e-3 0.96369 0.26551 1.9876 0.49432 1.9756 0.0922-5e-3 0.45696-0.24968 0.81065-0.5441zm6.1523-0.29817c-0.18985-0.18986-0.31309-0.20548-0.31309-0.0397 0 0.15037 0.0794 0.35278 0.17639 0.44979 0.097 0.097 0.23791 0.11487 0.31309 0.0397 0.0752-0.0752-4e-3 -0.27759-0.17639-0.44979zm-16.387-1.1047c0.56162-0.42633 0.57611-0.61473 0.085-1.1058-0.47316-0.47316-0.71243-0.47404-1.3539-5e-3 -0.50054 0.36601-0.50072 0.38333-0.01 0.92605 0.5817 0.64277 0.66011 0.6541 1.2784 0.18475zm-18.872-1.4595 0.64146-0.49308-0.90605-1.1465c-0.49832-0.63057-1.4716-1.7938-2.1628-2.5849-0.69123-0.79113-1.2568-1.5133-1.2568-1.6048s0.32742-0.36729 0.7276-0.61286c1.5887-0.97491 1.5447-0.90916 1.0068-1.5035-0.27143-0.29992-0.605-0.54532-0.74127-0.54532s-1.1198 0.62508-2.1856 1.3891c-1.0658 0.76398-2.1975 1.5676-2.5148 1.7859-1.446 0.99461-1.4044 0.93513-1.0795 1.5423 0.16906 0.3159 0.4553 0.57437 0.63608 0.57437 0.36637 0 1.5271-0.74222 1.838-1.1753 0.20564-0.28645 0.94192 0.42053 3.501 3.3616 0.72636 0.8348 1.4407 1.5152 1.5875 1.5119 0.14676-3e-3 0.5555-0.22777 0.90831-0.49897zm22.924-1.6399c0.0985-0.15942-0.0529-0.5219-0.33653-0.80552-0.51117-0.51117-0.52124-0.51116-1.1543 1e-3 -0.62631 0.50715-0.62909 0.52765-0.14459 1.063 0.50162 0.55429 1.2013 0.44351 1.6354-0.25894zm-18.463-1.6307 0.5641-0.60045-1.6964-1.847c-1.7064-1.8579-2.115-2.5016-1.2578-1.9815 1.3907 0.8438 3.211 1.8866 3.9475 2.2614 0.77771 0.39581 0.88915 0.39368 1.5346-0.0293 0.46847-0.30695 0.63908-0.59465 0.52185-0.87994-0.0958-0.23314-0.47476-1.2573-0.84213-2.276-0.36738-1.0186-0.77019-1.9821-0.89515-2.141-0.12495-0.15892-0.15654-0.35959-0.0702-0.44594 0.0864-0.0864 0.93464 0.75806 1.8851 1.8764 0.95045 1.1184 1.8015 2.0334 1.8912 2.0334 0.38472 0 1.4034-0.9094 1.3152-1.1741-0.0531-0.15942-1.2808-1.6463-2.7282-3.3042l-2.6316-3.0144-1.1373 0.78248c-0.62552 0.43037-1.1373 0.86774-1.1373 0.97195 0 0.22755 0.82403 2.4304 1.4382 3.8446 0.24287 0.55925 0.40558 1.1133 0.36159 1.2312-0.044 0.11791-1.1903-0.42896-2.5474-1.2153-1.3571-0.78629-2.6098-1.4296-2.784-1.4296s-0.76226 0.36734-1.307 0.81633l-0.99035 0.81633 1.6312 1.8956c0.89714 1.0426 2.1193 2.4598 2.716 3.1494 0.59666 0.68957 1.2129 1.2551 1.3694 1.2568 0.15654 2e-3 0.53845-0.26722 0.84871-0.59747zm21.629-0.7318c0.47452-0.52434 0.47265-0.5532-0.0713-1.0972-0.52714-0.52714-0.58422-0.53313-1.0112-0.10614-0.38866 0.38866-0.40384 0.54353-0.10753 1.0972 0.41949 0.78382 0.56504 0.7968 1.1901 0.10614zm-1.3125-1.427c0.47683-0.47683 0.47349-0.62265-0.0257-1.1218-0.76061-0.76061-1.8532 0.27313-1.1408 1.0793 0.44777 0.50668 0.69338 0.51563 1.1665 0.0425zm2.9962 0.13604c0.44117-0.27934 0.21275-1.0265-0.3838-1.2554-0.55811-0.21417-1.242 0.48861-1.0252 1.0535 0.18497 0.48202 0.8224 0.57337 1.409 0.20191zm-1.2953-1.4779c0.26379-0.31785 0.25881-0.48906-0.025-0.85989-0.19492-0.25466-0.37777-0.5023-0.40632-0.55031-0.0285-0.048-0.3637 0.11701-0.74478 0.3667-0.65582 0.42971-0.669 0.48036-0.24653 0.94718 0.53986 0.59655 0.98262 0.62653 1.4226 0.0963zm-11.648-3.7003c1.2104-0.76409 1.5936-1.3682 1.5936-2.512 0-1.087-1.0265-2.122-2.1046-2.122-0.71656 0-0.80578-0.0867-0.80578-0.78344 0-1.9147-2.5126-2.5271-4.3053-1.0494-0.8276 0.68218-0.98632 0.97718-0.98632 1.8332 0 0.59166 0.18178 1.202 0.43278 1.453 0.61104 0.61104 0.99557 0.12591 0.59575-0.75161-0.42239-0.92703-4e-3 -1.8567 1.0899-2.4224 0.9269-0.47931 1.7261-0.3288 2.1152 0.39838 0.32062 0.59908-0.0683 1.7926-0.65781 2.0189-0.48198 0.18496-0.53835 0.89446-0.0701 0.88255 0.1819-5e-3 0.56184-0.18323 0.84432-0.39688 1.3642-1.0318 3.265-0.0799 2.9257 1.4651-0.31661 1.4415-2.7572 2.4349-3.5716 1.4537-0.43777-0.52748-1.0583-0.5058-1.0583 0.037 0 1.2419 2.3209 1.5325 3.9626 0.49606zm5.8059-4.2372c1.7705-1.2659 2.3106-1.9844 1.4919-1.9844-0.2097 0-0.45783 0.12389-0.55141 0.2753-0.0936 0.15142-0.6635 0.58675-1.2665 0.9674-0.60299 0.38065-1.264 0.85973-1.4689 1.0646-0.62843 0.62844-0.90178 2e-3 -0.55869-1.2815 0.17034-0.63697 0.42125-1.2944 0.55758-1.4608 0.13632-0.16649 0.31946-0.90727 0.40697-1.6462 0.1498-1.2648 0.1089-1.3904-0.69858-2.1447-1.0544-0.98492-2.2061-1.0499-3.4746-0.19602-1.2641 0.85092-1.6792 1.8054-1.2934 2.9742 0.20615 0.62466 0.46587 0.91852 0.81178 0.91852 0.54107 0 0.68466-0.38915 0.24407-0.66146-0.44731-0.27645-0.30015-1.8702 0.2158-2.3371 1.34-1.2126 3.3297-0.54173 3.2829 1.1069-0.0131 0.46249-0.26995 1.4985-0.57067 2.3022-0.61101 1.6331-0.67281 2.3984-0.2776 3.4379 0.2424 0.63755 0.32034 0.67214 0.78416 0.34795 0.28325-0.19798 1.3476-0.95528 2.3652-1.6829zm-34.904-2.1167c0.18116-0.21828 0.4325-0.39688 0.55854-0.39688s0.43888-0.17214 0.69521-0.38254c0.25632-0.21041 1.4185-1.016 2.5827-1.7901 1.7-1.1305 2.1167-1.537 2.1167-2.0648 0-0.64297-0.0653-0.66408-3.0032-0.97043-2.4496-0.25544-3.1911-0.43756-4.0231-0.9881-1.3472-0.89157-1.8324-2.3239-1.2009-3.5452 0.51353-0.99306 1.4674-1.7059 8.8885-6.6419 3.1287-2.081 5.7292-3.8211 5.779-3.8669 0.14974-0.13779-0.57872-1.9749-0.78309-1.9749-0.22039 0-14.707 9.6478-15.35 10.223-0.39443 0.35274-0.39704 0.5285-0.0301 2.027 0.221 0.90245 0.49729 1.8789 0.61396 2.17 0.22244 0.55484 0.83544 2.6984 1.4754 5.1594 0.81981 3.1524 0.91402 3.4396 1.1285 3.4396 0.1221 0 0.37021-0.17859 0.55137-0.39687zm10.148-3.8902c0.17926-0.2842 0.0144-1.1877-0.55097-3.0201-0.44371-1.438-1.0083-3.329-1.2545-4.2021-0.59878-2.1228-0.97303-3.0786-1.1693-2.9865-0.0892 0.0419-0.69799 0.46136-1.3528 0.93221-0.65485 0.47084-2.0144 1.4233-3.0212 2.1167-2.0763 1.4298-2.61 2.0724-2.0244 2.4376 0.20807 0.12975 1.5178 0.31384 2.9104 0.40907 3.2232 0.22039 4.1013 0.50067 4.9163 1.5692 0.6777 0.8885 0.90936 2.6116 0.39396 2.9301-0.14552 0.0899-0.26459 0.34961-0.26459 0.57705 0 0.3665 0.0661 0.36968 0.58073 0.0279 0.31939-0.21207 0.69582-0.56806 0.8365-0.79108zm19.399-1.9967c0.25035-0.40018 0.48016-0.76615 0.51068-0.81326 0.0305-0.0471 0.43281 0.10947 0.89399 0.34795 0.76766 0.39697 0.89267 0.39811 1.4798 0.0134 0.7218-0.47294 0.84336-1.3914 0.24273-1.834-0.31886-0.23501-0.34532-0.47859-0.13229-1.218 0.61291-2.1275-0.0558-2.3674-1.8698-0.67065-0.73169 0.68441-1.4905 1.1829-1.6863 1.1078-2.0232-0.7764-3.3214-0.83744-3.3214-0.15617 0 0.16464 0.42267 0.72201 0.93927 1.2386 0.656 0.656 0.85548 1.0231 0.66146 1.2171-0.37757 0.37756-0.3503 0.59086 0.13796 1.0791 0.65616 0.65616 1.6266 0.515 2.1439-0.31183zm-14.906-0.87446c0.82405-0.59009 1.4983-1.1372 1.4983-1.2157 0-0.223-1.0742-3.8671-1.3142-4.4583-0.11816-0.29104-0.41998-1.3031-0.67071-2.249-0.53717-2.0264-0.94065-3.175-1.1154-3.175-0.0691 0-0.82683 0.44648-1.6838 0.99219-1.0793 0.6873-1.5113 1.1141-1.4058 1.3891 0.0838 0.21828 0.38065 1.2898 0.6597 2.3812 0.27904 1.0914 0.62544 2.1911 0.76978 2.4438s0.26244 0.63576 0.26244 0.85127c0 0.59617 1.1389 4.1133 1.332 4.1133 0.0932 0 0.8436-0.48281 1.6677-1.0729zm13.654 67.316c-0.50096-0.67384-1.149-1.627-1.44-2.1182l-0.52917-0.893 0.79375-0.66446c0.43657-0.36546 1.1212-0.84409 1.5214-1.0636 0.6382-0.35013 0.7276-0.35113 0.7276-8e-3 0 0.21504 0.53578 1.1574 1.1906 2.0942 0.65484 0.93677 1.1885 1.8057 1.1858 1.9309-6e-3 0.27776-1.9844 1.9475-2.3078 1.9475-0.1273 0-0.64132-0.55132-1.1423-1.2252zm-31.236-0.16316c-0.17264-0.32783-0.38812-0.65559-0.47884-0.72835-0.0907-0.0728-0.36342-0.44465-0.60601-0.82642-0.44014-0.69265-0.43845-0.69601 0.79949-1.5875 0.68231-0.49135 1.6295-1.0288 2.1049-1.1943 0.80894-0.28166 0.90502-0.24904 1.498 0.5086 0.59824 0.76441 0.61012 0.8476 0.21291 1.4916-0.49681 0.80546-1.2206 1.5172-2.3759 2.3364l-0.84062 0.59605zm10.349 0.0939c0-0.17836-0.11907-0.25071-0.26459-0.16077-0.14552 0.0899-0.26458 0.0374-0.26458-0.11668 0-0.15411 0.11203-0.2802 0.24897-0.2802 0.32666 0 0.64225 0.51989 0.43898 0.72316-0.0873 0.0873-0.15878 0.0129-0.15878-0.16551zm-0.79375-1.0868c0-0.14552 0.11906-0.26459 0.26458-0.26459s0.26458 0.11907 0.26458 0.26459-0.11906 0.26458-0.26458 0.26458-0.26458-0.11906-0.26458-0.26458zm25.334-1.1799c-0.40018-0.48241-0.7276-1.0096-0.7276-1.1715s-0.12514-0.29442-0.27809-0.29442c-0.36302 0-1.1113-1.795-0.89454-2.1458 0.22551-0.36488 2.2533-1.823 2.5352-1.823 0.12369 0 0.22489 0.19324 0.22489 0.42942s0.53578 1.1803 1.1906 2.0979c0.65485 0.91768 1.187 1.7662 1.1824 1.8857-8e-3 0.21231-2.1886 1.9556-2.399 1.9179-0.0585-0.0105-0.43382-0.4138-0.834-0.89621zm-38.013-2.1866-0.90516-1.2292 1.0959-0.94327c0.60274-0.51879 1.5458-1.0881 2.0958-1.2652 0.94745-0.30506 1.0309-0.28425 1.5919 0.39688 0.66222 0.80404 0.58809 1.3949-0.29397 2.3435-0.62162 0.66846-2.3012 1.9531-2.5323 1.9369-0.0809-6e-3 -0.55435-0.56347-1.0522-1.2395zm6.5144-0.63349c-0.55292-0.74449-0.96963-1.3762-0.92604-1.4039 0.0436-0.0276 0.57264-0.43043 1.1757-0.89506 0.60303-0.46463 1.1589-0.84478 1.2352-0.84478 0.0763 0 0.4101 0.44648 0.7417 0.99218 0.33162 0.54571 0.68066 1.0517 0.77566 1.1245 0.56973 0.43635 0.33067 0.97741-0.72872 1.6492-0.63483 0.4026-1.1799 0.73187-1.2112 0.73172-0.0313-1.6e-4 -0.50934-0.60941-1.0623-1.3539zm34.451-0.44678c-0.66834-0.82848-1.2832-1.8635-1.3663-2.3001-0.13313-0.69909-0.0167-0.8963 0.97647-1.6536 1.2772-0.97395 1.7373-1.0747 1.7373-0.38041 0 0.26372 0.55889 1.2316 1.242 2.1508l1.242 1.6713-1.1758 1.0163c-0.6467 0.55896-1.2354 1.0131-1.3081 1.0092-0.0728-4e-3 -0.67912-0.68498-1.3475-1.5135zm-42.573-1.3106c0-0.11062-0.30248-0.52734-0.67217-0.92604-0.36969-0.39869-0.59324-0.7249-0.49677-0.7249 0.0965 0 0.0374-0.16631-0.13133-0.36958-0.2449-0.29509-0.10597-0.53506 0.68935-1.1906 0.54784-0.45158 1.2666-0.82105 1.5972-0.82105 0.33065 0 0.60118-0.11906 0.60118-0.26458 0-0.44256 0.94831-0.29553 1.4142 0.21927 0.24083 0.26612 0.43788 0.72093 0.43788 1.0107 0 0.50487-1.3026 2.2096-1.6883 2.2096-0.10225 0-0.4415 0.23813-0.75389 0.52917-0.5853 0.54529-0.99738 0.68081-0.99738 0.32802zm1.5158-1.2816c-0.0879-0.0879-0.31613-0.0973-0.50712-0.0209-0.21107 0.0845-0.14837 0.14716 0.15985 0.15985 0.27892 0.0115 0.43519-0.051 0.34727-0.13896zm0.9977-1.4276c-0.26339-0.29104-0.57834-0.52917-0.69988-0.52917s-0.0171 0.23813 0.2321 0.52917 0.56414 0.52917 0.69988 0.52917c0.13573 0 0.0313-0.23813-0.2321-0.52917zm-0.59532-0.96898c-0.1819-0.0734-0.47955-0.0734-0.66145 0s-0.0331 0.13345 0.33073 0.13345c0.3638 0 0.51263-0.06 0.33072-0.13345zm44.286 2.6629c-0.82778-0.99575-1.754-2.6763-1.754-3.1825 0-0.30953 2.3901-2.2156 2.7783-2.2156 0.10661 0 0.13945 0.28446 0.073 0.63213-0.0885 0.46301 0.22434 1.0763 1.1693 2.2924 0.70958 0.91312 1.1966 1.7366 1.0822 1.8299-0.88362 0.7208-2.1954 1.5923-2.3731 1.5766-0.11885-0.0105-0.5579-0.43027-0.97567-0.93281zm-39.854 0.20805c0-0.11808-0.21788-0.44856-0.48418-0.73439-0.2663-0.28584-0.69671-0.84407-0.95647-1.2405-0.37961-0.57936-0.3983-0.72081-0.0952-0.72081 0.20739 0 0.77535-0.38695 1.2621-0.8599 0.53301-0.51785 0.92797-0.73478 0.99292-0.54536 0.0593 0.173 0.51593 0.82784 1.0147 1.4552 0.49875 0.62737 0.90798 1.2142 0.90939 1.304 4e-3 0.22057-2.0333 1.5565-2.373 1.5565-0.14864 0-0.27026-0.0966-0.27026-0.2147zm43.295-2.8051c-0.37887-0.49673-0.86065-1.0749-1.0706-1.2849-0.20996-0.20996-0.45785-0.78735-0.55084-1.2831-0.1812-0.96583 0.16225-1.4304 1.8206-2.4629l0.76376-0.47551-0.15988 0.63704c-0.11264 0.44879 0.016 0.82899 0.43519 1.2866 0.3273 0.35724 0.94122 1.1069 1.3643 1.666l0.76919 1.0165-1.0421 0.89184c-0.57315 0.4905-1.1768 0.8963-1.3414 0.90176-0.16463 5e-3 -0.60931-0.39647-0.98818-0.8932zm-52.886-0.8689c-0.40018-0.52745-0.7276-1.1127-0.7276-1.3006 0-0.18786 0.53578-0.71019 1.1906-1.1607 0.65484-0.45055 1.1906-0.74023 1.1906-0.64374 0 0.0965 0.28194-9e-3 0.62654-0.2351 0.55719-0.36509 0.68897-0.36679 1.1906-0.0154 0.57947 0.40587 0.81672 1.9526 0.2995 1.9526-0.14552 0-0.26479 0.20836-0.26505 0.46302-5.3e-4 0.42906-1.9994 1.9306-2.5408 1.9086-0.13026-5e-3 -0.56426-0.4412-0.96444-0.96865zm2.9766-2.0361c0-0.20271-0.17685-0.43643-0.393-0.51938-0.32872-0.12614-0.33995-0.0659-0.0687 0.36857 0.38508 0.61661 0.46165 0.64162 0.46165 0.15081zm3.6978 1.6812c-0.35625-0.57641-0.72479-1.048-0.81898-1.048-0.0942 0-0.22997-0.22447-0.30171-0.49883-0.0967-0.36964 0.13515-0.6481 0.89518-1.0753 0.5641-0.31704 1.0256-0.7064 1.0256-0.86524 0-0.15885 0.29751 0.0571 0.66113 0.47995 0.36363 0.42281 0.66129 0.85805 0.66146 0.96719 1.8e-4 0.10914 0.2544 0.45252 0.56494 0.76306l0.56462 0.56461-0.79269 0.3333c-0.43599 0.18332-1.022 0.57945-1.3023 0.88029l-0.50959 0.54697zm1.8584-1.048c0-0.14552-0.0525-0.26458-0.11667-0.26458-0.0642 0-0.19027 0.11906-0.2802 0.26458-0.0899 0.14552-0.0374 0.26458 0.11667 0.26458 0.15411 0 0.2802-0.11906 0.2802-0.26458zm-1.6922-0.72209c-0.26895-0.26895-0.49087 0.13596-0.2702 0.49302 0.1667 0.26972 0.22902 0.26993 0.31864 1e-3 0.0613-0.18383 0.0395-0.40617-0.0484-0.49408zm0.98978 0.0492c-0.0862-0.22456-0.21342-0.35154-0.28277-0.28219-0.0694 0.0694-0.0476 0.25309 0.0483 0.40829 0.26089 0.42213 0.41338 0.34012 0.23447-0.1261zm47.966-0.0119c-1.1217-1.3116-1.6162-2.7806-1.1295-3.3557 0.55879-0.66031 2.3186-1.835 2.4909-1.6628 0.0941 0.0941 0.0321 0.3936-0.13782 0.66561-0.24406 0.3908-0.22808 0.56162 0.0762 0.81412 0.21177 0.17574 0.38503 0.45491 0.38503 0.62037s0.23812 0.44955 0.52917 0.63131c0.29104 0.18175 0.52916 0.50213 0.52916 0.71195s0.20836 0.507 0.46302 0.6604c0.41418 0.24948 0.35139 0.37605-0.59531 1.1998-0.58208 0.50651-1.1774 0.9188-1.3229 0.91619-0.14552-3e-3 -0.72508-0.54319-1.2879-1.2013zm-57.582-0.30747c-2.6e-4 -0.10914-0.35002-0.60725-0.77706-1.1069-0.60456-0.70736-0.7195-1.0149-0.51924-1.3891 0.14147-0.26433 0.34963-0.48059 0.46259-0.48059s0.47715-0.25319 0.80931-0.56264c0.78911-0.73517 2.3192-1.0837 2.9709-0.67676 0.52441 0.3275 0.71666 2.0332 0.22916 2.0332-0.14552 0-0.26826 0.14883-0.27276 0.33073-5e-3 0.1819-0.52217 0.71768-1.1504 1.1906-1.1027 0.83018-1.7512 1.0749-1.7525 0.66146zm6.217-1.2268c-0.14478-0.20177-0.60726-0.80032-1.0277-1.3301-0.42048-0.52979-0.71293-1.0148-0.64991-1.0778 0.27369-0.27369 1.2821 0.23197 1.2821 0.6429 0 0.2487 0.29765 0.73182 0.66145 1.0736 0.36381 0.34178 0.66146 0.71972 0.66146 0.83987 0 0.35299-0.64126 0.25038-0.92739-0.14839zm55.091-0.76263c-0.40541-0.47019-0.91285-1.0448-1.1276-1.277s-0.41889-0.87299-0.45353-1.4241c-0.058-0.92349 0.0375-1.0734 1.2184-1.9125 1.3266-0.94256 1.849-0.96719 1.2827-0.0605-0.22448 0.35946-0.24205 0.6239-0.0563 0.84786 1.2032 1.4509 2.3612 2.9529 2.313 3.0003-0.38543 0.37959-2.1553 1.6896-2.2776 1.6858-0.0891-3e-3 -0.49375-0.3897-0.89916-0.85989zm-54.495 0.0138c-0.52049-0.6514-0.61673-1.5302-0.16758-1.5302 0.1625 0 0.23805 0.21949 0.1679 0.48776-0.17185 0.65715 0.69403 1.2211 1.1084 0.72192 0.22221-0.26775 0.19209-0.3932-0.12347-0.51429-0.27152-0.10419-0.35205-0.0545-0.23045 0.14227 0.11513 0.1863 0.0696 0.22994-0.11855 0.11365-0.46498-0.28737-0.36436-0.86311 0.15085-0.86311 0.49412 0 1.3727 0.90259 1.387 1.4248 5e-3 0.17734-0.15774 0.25852-0.36131 0.1804-0.20356-0.0781-0.44871-0.0148-0.54478 0.1406-0.2745 0.44416-0.76394 0.32686-1.2679-0.30387zm-9.8289-2.4408-0.963-1.1752 0.72989-0.67679c0.78308-0.72611 1.9106-1.3272 2.9976-1.598 0.54097-0.13478 0.74454-0.0375 1.0273 0.49091 0.21056 0.39345 0.26839 0.85278 0.14351 1.1399-0.11505 0.26447-0.18812 0.61689-0.16238 0.78314 0.0383 0.24713-2.369 2.2113-2.7102 2.2113-0.0549 0-0.53316-0.52885-1.0628-1.1752zm10.035 0.55201c-0.3539-0.25878-0.42868-0.49817-0.2686-0.8599 0.20619-0.46594 0.22921-0.45904 0.32649 0.098 0.0576 0.32958 0.21521 0.53091 0.35032 0.4474 0.13512-0.0835 0.24567 0.0338 0.24567 0.26066 0 0.50251-0.0363 0.5055-0.65388 0.0539zm49.073-0.14315c0-0.30611 0.12701-0.55657 0.28224-0.55657s0.69425-0.31426 1.1978-0.69835c0.50358-0.3841 1.0007-0.61329 1.1046-0.50933 0.10396 0.10397-0.0255 0.30909-0.28769 0.45582-0.2622 0.14673-0.88629 0.62639-1.3869 1.0659-0.84822 0.74474-0.91014 0.76124-0.91014 0.24253zm8.3104-0.49042c-0.41153-0.54571-0.89029-1.1112-1.0639-1.2568-0.17361-0.14552-0.36415-0.72167-0.4234-1.2803-0.0981-0.92528-0.01-1.0961 0.9936-1.9182 1.2804-1.0492 1.5619-1.1185 1.3569-0.33428-0.10667 0.40788 0.18323 0.9994 1.0275 2.0966 0.64684 0.84061 1.1739 1.6267 1.1713 1.7469-5e-3 0.21289-1.9586 1.9383-2.195 1.9383-0.0653 0-0.45539-0.44648-0.86692-0.99218zm-58.846 0.6277c0-0.0549 0.1786-0.24811 0.39688-0.42927 0.32504-0.26976 0.39687-0.25168 0.39687 0.0999 0 0.2361-0.17859 0.42927-0.39687 0.42927s-0.39688-0.045-0.39688-0.0999zm-2.4018-1.5569-0.94656-1.3859 1.0586-1.0381c0.61427-0.60236 0.9715-0.82448 0.85103-0.52917-0.48343 1.1851-0.32302 1.4321 0.67692 1.0425 0.26736-0.10417 0.49188-3e-3 0.59617 0.26886 0.21542 0.56138-0.0122 0.91959-0.57765 0.90896-0.39138-7e-3 -0.38309-0.0571 0.0662-0.39688 0.44785-0.33873 0.45632-0.38846 0.0661-0.38846-0.4396 0-0.56406 0.28543-0.45527 1.0441 0.0459 0.32004-0.0139 0.32557-0.36553 0.0337-0.35317-0.2931-0.42039-0.28377-0.42039 0.0583 0 0.22397 0.14883 0.46089 0.33073 0.52649 0.40593 0.14639 1.7828-0.61486 1.7944-0.99211 5e-3 -0.15053 0.18322-0.0426 0.39687 0.23991 0.21366 0.28247 0.38664 0.63966 0.38441 0.79375-2e-3 0.15408-0.10013 0.12877-0.21756-0.0563-0.2111-0.33262-0.30975-0.27874-1.8177 0.99296-0.43633 0.36795-0.36318 0.42576-1.4208-1.1227zm0.37754-1.1129c0.082-0.21362 0.0352-0.45878-0.10399-0.54478-0.13916-0.086-0.25303 0.0888-0.25303 0.3884 0 0.63885 0.14714 0.7033 0.35702 0.15638zm63.697-0.90509c-0.924-1.1036-1.083-1.4726-1.083-2.5135 0-0.86697 0.10675-1.22 0.36889-1.22 0.20289 0 0.74475-0.3511 1.2041-0.78022 0.65125-0.60836 0.86792-0.69504 0.98362-0.39351 0.0816 0.21269-9e-3 0.57668-0.20194 0.80885-0.29245 0.35239-0.28642 0.47206 0.0365 0.72424 0.51149 0.3994 2.4574 2.8259 2.3347 2.9114-0.0527 0.0367-0.58913 0.44691-1.1922 0.91154-0.60302 0.46464-1.1575 0.84479-1.2321 0.84479-0.0747 0-0.62307-0.58207-1.2187-1.2935zm-72.504-0.13795c-0.44556-0.64759-0.8101-1.289-0.8101-1.4253 0-0.31073 1.7517-1.4816 2.9919-1.9997 0.8588-0.35883 0.97078-0.35128 1.3725 0.0926 0.90716 1.0024-7e-3 2.8929-1.9549 4.0437l-0.78926 0.46623zm65.622 0.11226c0.64316-0.58003 1.348-1.0525 1.5662-1.05 0.38288 4e-3 0.14841 0.25197-1.5551 1.6416-1.1382 0.92843-1.1475 0.43325-0.0112-0.59158zm-56.113-0.385c0-0.22687 0.11906-0.41249 0.26458-0.41249s0.26458 0.11204 0.26458 0.24897-0.11906 0.32255-0.26458 0.41249c-0.14552 0.0899-0.26458-0.0221-0.26458-0.24897zm-3.7654-1.1868-0.98727-1.2809 0.92152-0.62605c0.50684-0.34433 0.99773-0.86222 1.0909-1.1509 0.16068-0.49798 0.18098-0.49335 0.39699 0.0906 0.12521 0.33847 0.14836 0.7437 0.0514 0.90051-0.11152 0.18046-0.0146 0.2231 0.26408 0.11616 0.28748-0.11031 0.44027-0.0341 0.44027 0.21962 0 0.21372 0.11907 0.38858 0.26459 0.38858s0.26458 0.16585 0.26458 0.36856c0 0.20272 0.18614 0.44 0.41364 0.5273 0.22751 0.0873 0.33597 0.28442 0.24103 0.43803-0.11693 0.18921-0.30942 0.16847-0.59672-0.0643-0.23326-0.18897-0.34579-0.2127-0.25006-0.0527 0.16682 0.27877-0.92457 1.441-1.3313 1.4177-0.10803-6e-3 -0.64069-0.58768-1.1837-1.2922zm1.8666-0.10754c0.047-0.2426-0.0385-0.44109-0.19014-0.44109-0.15162 0-0.19921 0.19926-0.10576 0.44281 0.13021 0.3393 0.0632 0.40185-0.28662 0.26761-0.28429-0.10909-0.3923-0.0712-0.28628 0.10032 0.23776 0.3847 0.76609 0.1599 0.8688-0.36965zm67.979-0.95695c-1.416-1.837-1.3738-2.8118 0.17683-4.0824 0.64295-0.52685 1.2383-0.95791 1.3229-0.95791 0.30544 0 0.14593 1.017-0.17682 1.1273-0.21179 0.0724 0.12122 0.69078 0.92604 1.7195 0.69123 0.88351 1.2568 1.7058 1.2568 1.8272-1e-5 0.32321-1.7648 1.6779-2.1687 1.6647-0.18968-6e-3 -0.79135-0.59049-1.3371-1.2984zm-77.942-0.79147c-0.46092-0.57355-0.83803-1.1527-0.83803-1.2869 0-0.34554 2.0126-1.6979 3.0655-2.0599 0.75376-0.25912 0.94549-0.23563 1.3032 0.1597 0.39577 0.43731 0.39179 0.80042-0.0262 2.383-0.0584 0.22111-0.52358 0.62682-1.0337 0.90156s-0.92757 0.59984-0.92757 0.72244c0 0.54705-0.77605 0.13474-1.5432-0.8199zm5.7782-1.3781c-0.78307-1.081-1.0129-1.8124-0.56946-1.8124 0.12427 0 0.54247-0.29335 0.92934-0.65189 0.80435-0.74544 1.422-0.63929 1.6538 0.2842 0.0873 0.34775 0.27759 0.63227 0.4229 0.63227s0.19622 0.17717 0.11313 0.3937c-0.0847 0.22076-0.0169 0.36604 0.15442 0.33073 0.16802-0.0346 0.34374 0.11563 0.3905 0.33391 0.0854 0.39874-1.4022 1.5875-1.9865 1.5875-0.17198 0-0.67063-0.49412-1.1081-1.098zm75.445-0.10958c-0.9369-1.0295-1.099-1.3781-1.099-2.3632 0-1.0043 0.11259-1.2342 0.85989-1.7557 0.47295-0.33003 0.95511-0.75486 1.0715-0.94406 0.11638-0.1892 0.32473-0.34401 0.46302-0.34401 0.3487 0 0.31584 0.8881-0.0463 1.2502-0.22054 0.22054 0.0357 0.72203 0.98857 1.9349l1.2863 1.6372-1.0547 0.8922c-0.58009 0.49071-1.1257 0.89397-1.2125 0.89613-0.0868 2e-3 -0.6523-0.53949-1.2568-1.2037zm-83.363-1.6283c-0.44827-0.54384-0.81504-1.1395-0.81504-1.3237 0-0.51036 2.0593-1.891 3.1163-2.0893 0.73432-0.13775 1.0129-0.0722 1.2872 0.3029 0.25648 0.35076 0.27262 0.57198 0.0604 0.8277-0.1593 0.19195-0.21455 0.64821-0.12277 1.0139 0.10149 0.40435 0.0543 0.66489-0.12039 0.66489-0.15801 0-0.66629 0.28009-1.1295 0.62243-1.3776 1.018-1.4218 1.0176-2.2762-0.0188zm86.521-0.77195c-0.90267-1.0255-1.0819-1.4149-1.0819-2.3506 0-1.0103 0.11953-1.2194 1.2051-2.109 1.307-1.071 1.7071-1.062 1.2109 0.027-0.2786 0.61146-0.23028 0.80507 0.41065 1.6454 0.39952 0.5238 0.94868 1.1746 1.2203 1.4463 0.47896 0.47895 0.47924 0.51021 9e-3 1.0301-0.2665 0.29491-0.80136 0.76202-1.1886 1.038l-0.70403 0.50184-1.0819-1.2291zm-80.077 0.21528c-0.41903-0.29965-1.7029-2.11-1.7029-2.4012 0-0.15011 0.26789-0.41357 0.59531-0.58545s0.69053-0.47373 0.8069-0.67077c0.36293-0.61451 0.82963-0.39787 1.5082 0.70009 0.35974 0.58208 0.74504 1.0583 0.85621 1.0583 0.11116 0 0.20212 0.17859 0.20212 0.39687 0 0.21829-0.10993 0.39688-0.24428 0.39688-0.13436 0-0.58778 0.28903-1.0076 0.64228-0.41982 0.35326-0.87612 0.56162-1.014 0.46302zm-8.8478-2.8662-0.88459-1.2318 0.7736-0.61899c0.42548-0.34045 0.92242-0.61959 1.1043-0.62031 0.1819-7.2e-4 0.33073-0.12038 0.33073-0.2659s0.27384-0.26458 0.60854-0.26458 0.73042-0.12188 0.87938-0.27084c0.18473-0.18472 0.41425-0.11236 0.7219 0.22759 0.35502 0.3923 0.39471 0.64663 0.18638 1.1946-0.14558 0.3829-0.19575 0.8758-0.11151 1.0953 0.0847 0.22065 0.01 0.39917-0.16778 0.39917-0.17653 0-0.77195 0.35719-1.3232 0.79375-0.5512 0.43657-1.0542 0.79375-1.1177 0.79375-0.06353 0-0.51358-0.5543-1.0001-1.2318zm91.978 0.10729c-0.78232-0.91817-0.95827-1.3363-0.95903-2.2792-8e-4 -1.023 0.12728-1.2707 1.1235-2.172 0.61846-0.55951 1.2138-1.0222 1.3229-1.0281 0.36701-0.0201 0.20257 0.86896-0.25406 1.3735-0.30507 0.3371-0.35862 0.5594-0.16434 0.68229 0.3213 0.20326 2.2043 2.6243 2.2043 2.8341 0 0.24684-1.7163 1.6982-2.0175 1.706-0.16376 4e-3 -0.72888-0.49826-1.2558-1.1167zm-85.792-0.83701c-0.273-0.38182-0.75747-1.012-1.0766-1.4004-0.60524-0.73658-0.58179-1.136 0.0667-1.136 0.2097 0 0.38126-0.11907 0.38126-0.26459s0.1786-0.26458 0.39688-0.26458 0.39687-0.11906 0.39687-0.26458 0.12757-0.26459 0.28349-0.26459c0.33788 0 1.0394 0.66213 1.0394 0.98103 0 0.12379 0.23812 0.3967 0.52917 0.60647 0.76523 0.55155 0.65184 1.1375-0.33073 1.709-0.47295 0.27507-0.93419 0.61092-1.025 0.74632-0.0908 0.1354-0.38846-0.0662-0.66146-0.44803zm88.847-1.5917c-0.96243-1.0268-1.0895-1.3047-1.0266-2.2444 0.10356-1.5465 0.5038-1.8454 1.6467-1.2299 0.50673 0.27289 0.92133 0.58152 0.92133 0.68583 0 0.10432 0.41359 0.6412 0.91909 1.1931l0.91909 1.0034-0.98524 0.87091c-0.54188 0.47901-1.0552 0.87587-1.1406 0.88193-0.0855 6e-3 -0.64967-0.51634-1.2538-1.1609zm-96.703-0.24618c-0.22499-0.34339-0.60744-0.82269-0.84988-1.0651-0.59052-0.59053-0.35911-1.0664 0.90732-1.8659 1.0734-0.6776 2.3077-0.93437 2.8577-0.59446 0.16656 0.10294 0.28278 0.70543 0.25826 1.3389-0.03718 0.9606-0.15727 1.2016-0.72373 1.4523-0.37354 0.16535-0.93467 0.53867-1.247 0.82961-0.7087 0.66026-0.70758 0.66035-1.2027-0.0953zm4.8461-2.3286c-0.63464-0.93509-0.82048-1.4003-0.59059-1.4783 0.1845-0.0626 0.50342-0.28183 0.70871-0.48712 0.20528-0.20529 0.50082-0.37325 0.65673-0.37325 0.15592 0 0.28727-0.14883 0.2919-0.33073 5e-3 -0.20341 0.14257-0.15406 0.35689 0.12818 0.19166 0.2524 0.44358 0.37146 0.55982 0.26458 0.11623-0.10688 0.14533 0.0737 0.0647 0.40135-0.0807 0.32763-0.0478 0.53458 0.073 0.45991 0.12082-0.0747 0.47501 0.22282 0.78709 0.66109 0.46914 0.65886 0.49556 0.79687 0.15252 0.79687-0.22819 0-0.41489 0.11906-0.41489 0.26458s-0.16402 0.26458-0.36448 0.26458-0.5127 0.1786-0.69385 0.39688c-0.18116 0.21828-0.4041 0.39664-0.49542 0.39636-0.0913-2.8e-4 -0.58276-0.61451-1.0921-1.365zm-7.5272-1.3715c-0.37121-0.48668-0.67492-0.97143-0.67492-1.0772 0-0.29256 0.71876-0.94832 1.0394-0.94832 0.15592 0 0.28348-0.09 0.28348-0.19999 0-0.33158 1.5319-0.9029 2.1757-0.81146 0.51816 0.0736 0.60564 0.25021 0.63202 1.276 0.02916 1.134-0.02506 1.2252-1.1403 1.9182-0.64403 0.40018-1.2766 0.7276-1.4057 0.7276s-0.53848-0.39819-0.90969-0.88487zm2.5486-2.3475c-0.18986-0.18985-0.31309-0.20547-0.31309-0.0397 0 0.35317 0.3129 0.66606 0.48948 0.48948 0.07519-0.0752-0.0042-0.27759-0.17639-0.44979zm2.6765 0.56061-0.84692-1.318 0.91306-0.43541c0.50218-0.23948 0.91306-0.59195 0.91306-0.78328 0-0.64902 0.42956-0.35173 1.0265 0.71046 0.32715 0.58209 0.7658 1.0583 0.97476 1.0583 0.20898 0 0.37995 0.17859 0.37995 0.39687s-0.127 0.39688-0.28223 0.39688c-0.15524 0-0.67249 0.29765-1.1495 0.66145-0.47697 0.36381-0.91551 0.65453-0.97454 0.64605-0.05903-8e-3 -0.48843-0.60851-0.95423-1.3334zm2.1585-0.485c0.0837-0.13546 0.0511-0.30882-0.07258-0.38523-0.12364-0.0764-0.2248 0.0344-0.2248 0.2463 0 0.44613 0.08343 0.48511 0.29738 0.13893zm-9.6025-0.9735c-0.84636-1.1501-0.8599-1.2051-0.33073-1.3435 0.30347-0.0794 0.55177-0.22379 0.55177-0.32097 0-0.38418 1.5885-1.0845 2.4599-1.0845 0.9705 0 1.3631 0.44209 0.96123 1.0823-0.12874 0.20509-0.16923 0.58124-0.08998 0.8359 0.07925 0.25466 0.03945 0.46302-0.08844 0.46302-0.12789 0-0.4694 0.20836-0.75891 0.46302-0.49457 0.43504-1.5987 1.1369-1.7526 1.1142-0.03836-6e-3 -0.46686-0.54994-0.95223-1.2095zm1.4098 0.1645c0.09269-0.14998-0.01351-0.19434-0.24897-0.10398-0.45837 0.17589-0.54223 0.36553-0.16165 0.36553 0.13693 0 0.32171-0.1177 0.41062-0.26155zm-0.55863-0.94281c0.09035-0.23546 0.046-0.34167-0.10398-0.24897-0.14385 0.0889-0.26155 0.27368-0.26155 0.41062 0 0.38058 0.18964 0.29671 0.36554-0.16165zm2.0455-1.253c-0.21608-0.21608-0.29435-0.18647-0.29435 0.11134 0 0.52595 0.35579 0.88174 0.48727 0.48728 0.05578-0.16735-0.03103-0.43673-0.19292-0.59862zm2.3515 0.40715c-0.3638-0.5419-0.73996-1.106-0.8359-1.2535-0.09932-0.15271 0.10009-0.28466 0.46302-0.30638 0.43897-0.0263 0.63746 0.10216 0.63746 0.41245 0 0.50864 0.77227 1.652 0.78534 1.1627 0.0046-0.17331-0.09643-0.37991-0.22458-0.45912-0.48158-0.29762-0.49142-1.5017-0.01703-2.083 0.46788-0.57329 0.47847-0.57412 0.67893-0.0532 0.112 0.29105 0.53701 0.88636 0.94447 1.3229 0.78533 0.84142 0.92116 1.1906 0.46309 1.1906-0.15411 0-0.19524 0.13746-0.09141 0.30546 0.11686 0.18909 0.07259 0.23365-0.11621 0.11696-0.16775-0.10367-0.56982-3e-3 -0.8935 0.22371-0.84362 0.59089-1.0534 0.52311-1.7937-0.57963zm2.1167-0.33109c0-0.14552-0.12609-0.26458-0.2802-0.26458s-0.20661 0.11906-0.11668 0.26458c0.08994 0.14552 0.21603 0.26459 0.2802 0.26459 0.06417 0 0.11668-0.11907 0.11668-0.26459zm-0.77513-1.0235c-0.14552-0.27191-0.1894-0.56957-0.0975-0.66146 0.09189-0.0919 0.02817-0.16708-0.1416-0.16708-0.16977 0-0.30868 0.10933-0.30868 0.24294 0 0.46492 0.32279 1.08 0.56678 1.08 0.14428 0 0.13644-0.20394-0.019-0.49438zm-8.7276-7e-3c-0.44879-0.56664-0.81598-1.0927-0.81598-1.169 0-0.0763 0.44648-0.41011 0.99219-0.74171 0.5457-0.33161 1.0695-0.71586 1.1639-0.85389 0.09445-0.13803 0.38877-0.16767 0.65404-0.0659 0.40942 0.15711 0.42346 0.2223 0.09285 0.43138-0.29496 0.18653-0.30411 0.24728-0.03771 0.25035 0.234 3e-3 0.31416 0.24762 0.23944 0.73166-0.06177 0.40018-0.0625 0.57877-0.0016 0.39687 0.06088-0.1819 0.2359-0.33073 0.38894-0.33073 0.16968 0 0.21465-0.31803 0.11525-0.81501-0.11708-0.58541-0.0705-0.7842 0.16536-0.70565 0.18101 0.0603 0.33921 0.57551 0.35253 1.1482 0.02155 0.92639-0.09891 1.1316-1.1134 1.8963-0.62564 0.47162-1.1921 0.85749-1.2587 0.85749s-0.48838-0.46362-0.93717-1.0303zm1.4628-1.2371-0.29442-0.9647-0.24951 0.69c-0.13723 0.37949-0.34186 0.68999-0.45472 0.68999s-0.13667-0.17859-0.05291-0.39688c0.08376-0.21828 0.0205-0.39687-0.1406-0.39687-0.41224 0-0.36408 0.43914 0.13103 1.1948 0.32873 0.50171 0.52852 0.59101 0.88973 0.39769 0.40334-0.21586 0.42633-0.37868 0.17139-1.214zm-0.69129 0.69549c0-0.13693 0.11906-0.32255 0.26458-0.41249 0.14552-0.0899 0.26458 0.0221 0.26458 0.24897s-0.11906 0.41249-0.26458 0.41249-0.26458-0.11204-0.26458-0.24897zm4.3543-1.354c-1.028-1.4004-1.0565-2.2227-0.03253-0.93851 0.53443 0.67024 0.62964 0.70247 0.94673 0.32039 0.24234-0.292 0.26923-0.52817 0.08604-0.75552-0.24475-0.30372 6.35e-4 -1.5214 0.3066-1.5214 0.16244 0-0.02454 2.0884-0.25607 2.86l-0.18336 0.61107 1.0075-0.68373c0.75445-0.51198 1.0588-0.60077 1.2116-0.35347 0.2167 0.35062-0.25906 0.79584-0.61522 0.57573-0.11609-0.0717-0.21481-0.0341-0.21938 0.0836-0.0046 0.11773-0.29308 0.42106-0.64112 0.67408-0.62938 0.45755-0.63809 0.45283-1.6108-0.87233zm-6.7356-0.61735c0-0.20251 0.28305-0.43923 0.62899-0.52606 0.34595-0.0868 0.82243-0.45309 1.0589-0.81393 0.26321-0.4017 0.58353-0.59709 0.82622-0.50396 0.62213 0.23873 0.47929 0.51787-0.71411 1.3955-1.1994 0.88202-1.8 1.0317-1.8 0.44845zm8.6061-0.17256c0.09388-0.1519 0.02441-0.45243-0.15438-0.66786-0.49605-0.5977-0.13522-0.71875 0.39524-0.1326 0.45576 0.50361 0.37754 1.0766-0.14696 1.0766-0.14552 0-0.18778-0.12428-0.0939-0.27617zm-1.5947-0.253c0.08994-0.14552 0.21603-0.26458 0.2802-0.26458 0.06417 0 0.11668 0.11906 0.11668 0.26458s-0.12609 0.26459-0.2802 0.26459-0.20661-0.11907-0.11668-0.26459zm-7.5197-0.69521c0.01149-0.41799 0.08119-0.61043 0.15489-0.42762s0.2429 0.26508 0.37599 0.18282c0.40203-0.24847 0.27127 0.32175-0.15489 0.67543-0.33759 0.28017-0.39376 0.21585-0.37599-0.43063zm1.0374-9e-3c0-0.0989 0.18635-0.38576 0.41411-0.63743 0.27669-0.30574 0.31997-0.51577 0.13042-0.63291-0.15603-0.0964-0.35479 0.01-0.4417 0.23643-0.10677 0.27825-0.35583 0.36211-0.76811 0.25864-0.42345-0.10628-0.6496-0.0232-0.73923 0.27165-0.10242 0.33689-0.12046 0.3279-0.08722-0.0434 0.02453-0.27399 0.30044-0.50495 0.66516-0.55677 0.34278-0.0487 0.6764-0.29184 0.74137-0.54029 0.13058-0.49933 1.6727-0.7628 1.6727-0.28578 0 0.15642-0.11906 0.21082-0.26458 0.12088-0.14552-0.0899-0.26458 0.0122-0.26458 0.22692 0 0.21475 0.14883 0.4505 0.33073 0.52389 0.19187 0.0774 0.12977 0.14223-0.14791 0.15434-0.26325 0.0115-0.41978 0.11612-0.34784 0.23252 0.07194 0.1164-0.09963 0.35553-0.38126 0.53141-0.28163 0.17588-0.51205 0.23885-0.51205 0.13993zm4.5641-0.52903c-0.1819-0.0734-0.32694-0.39142-0.32232-0.70671 0.0081-0.5485 0.02445-0.5521 0.3795-0.0834 0.35627 0.47027 0.40028 0.46277 1.1018-0.18775 0.54744-0.50761 0.81728-0.60577 1.0757-0.3913 0.40341 0.33481 0.47017 0.85929 0.07857 0.61726-0.14651-0.0905-0.61138 0.081-1.033 0.38126-0.42165 0.30024-0.80779 0.5365-0.85809 0.52501-0.0503-0.0115-0.24028-0.0809-0.42218-0.15434zm-2.712-1.1477c0-0.43656 0.11104-0.79375 0.24675-0.79375 0.32154 0 0.62912 0.97599 0.41617 1.3206-0.32365 0.52368-0.66292 0.25407-0.66292-0.5268zm1.5793-0.54441c-0.40023-0.74785-0.18698-0.90351 0.3798-0.27723 0.2815 0.31106 0.35361 0.56817 0.18804 0.67049-0.1477 0.0913-0.40323-0.0857-0.56784-0.39326zm1.9484-0.52931c0-0.74015 0.02511-0.75783 0.48507-0.34158 0.26679 0.24144 0.48507 0.47587 0.48507 0.52096 0 0.0451-0.21828 0.1988-0.48507 0.34158-0.41942 0.22446-0.48507 0.15396-0.48507-0.52096zm-0.6638-0.0708c-0.09844-0.48281-0.06156-0.65679 0.1041-0.49112 0.1411 0.1411 0.2097 0.47754 0.15244 0.74766-0.0771 0.36376-0.14364 0.29723-0.25654-0.25654zm-0.86831-0.16009c-0.08372-0.13547-0.05106-0.30882 0.07258-0.38524 0.12364-0.0764 0.2248 0.0344 0.2248 0.2463 0 0.44614-0.08343 0.48511-0.29738 0.13894zm-1.8499-1.1677c-0.74518-0.97698-0.94822-1.8075-0.27805-1.1373 0.21828 0.21828 0.39688 0.58397 0.39688 0.81265 0 0.50553 0.88387 0.55084 1.3702 0.0702 0.1923-0.19004 0.55192-0.42211 0.79917-0.51569 0.68894-0.26077 0.30598 0.45688-0.46358 0.86873-0.35608 0.19057-0.64743 0.44544-0.64743 0.56637 0 0.47838-0.53603 0.17556-1.1772-0.665zm-1.977-0.0632c0.0127-0.30822 0.07539-0.37092 0.15985-0.15985 0.07643 0.191 0.06703 0.4192-0.02089 0.50712-0.08792 0.0879-0.15045-0.0683-0.13896-0.34727zm4.8739 0.15434c0.08994-0.14552 0.21603-0.26458 0.2802-0.26458 0.06417 0 0.11668 0.11906 0.11668 0.26458s-0.12609 0.26459-0.2802 0.26459-0.20661-0.11907-0.11668-0.26459zm100.52-1.7608c-0.64147-0.6987-1.1663-1.4218-1.1663-1.6069s-0.16751-0.33649-0.37224-0.33649c-0.49043 0-2.5382-2.4572-2.5382-3.0457 0-0.37774-0.07-0.40056-0.39687-0.12932-0.30949 0.25685-0.39688 0.25816-0.39688 6e-3 0-0.17789-0.41671-0.74015-0.92604-1.2495-0.50932-0.50932-0.92604-1.0332-0.92604-1.1642s-0.17859-0.23813-0.39687-0.23813c-0.21829 0-0.39688-0.11906-0.39688-0.26458s-0.68461-0.95932-1.5214-1.8084c-0.83675-0.84912-2.2953-2.4145-3.2412-3.4786-0.94588-1.0641-2.1365-2.3752-2.6458-2.9135-2.7633-2.9205-3.175-3.4002-3.175-3.6997 0-0.19351 0.17589-0.25975 0.43041-0.16208 0.23672 0.0908 0.62368 0.02 0.85989-0.15737 0.36086-0.27099 0.37664-0.26326 0.0988 0.0483-0.48232 0.54088-0.40851 0.99802 0.28124 1.7419l0.61196 0.65998 0.72459-0.67153c0.39852-0.36933 0.77966-0.67151 0.84697-0.67151 0.15506 0 1.6843 1.6735 1.6947 1.8546 4e-3 0.0741-0.23831 0.28847-0.53906 0.47628-0.48175 0.30086-0.60994 0.26122-1.0775-0.33323-0.51973-0.66073-1.5507-0.9334-1.5507-0.41013 0 0.14552 0.29766 0.26458 0.66146 0.26458 0.47286 0 0.66146 0.14297 0.66146 0.5014 0 0.27577 0.2956 0.78178 0.65688 1.1245 0.36129 0.34269 0.65895 0.77191 0.66146 0.95381 3e-3 0.1819 0.30223 0.33073 0.66603 0.33073s0.66146-0.11906 0.66146-0.26458c0-0.24352-0.37483-0.37251-0.85989-0.29592-0.39707 0.0627-0.18521-0.65614 0.32115-1.0897 0.49391-0.4229 0.55932-0.40517 1.3229 0.35843 0.89255 0.89254 1.0145 1.4187 0.38481 1.6604-0.66226 0.25413-0.95136 0.18845-0.74891-0.17013 0.14799-0.26213 0.11392-0.26324-0.16425-5e-3 -0.29149 0.27025-0.2905 0.43838 6e-3 0.99219 0.34154 0.63817 1.3258 0.94368 1.3258 0.41153 0-0.1404 0.25023-0.3892 0.55608-0.55288 0.47033-0.25171 0.67433-0.18431 1.3229 0.43707 0.91491 0.87654 0.95273 1.186 0.2022 1.6547-0.47092 0.2941-0.60197 0.29369-0.7897-2e-3 -0.16631-0.26241-0.22612-0.21373-0.22912 0.1865-5e-3 0.69241 1.9746 2.6739 2.241 2.2429 0.21548-0.34866 0.22362-0.3397-0.6353-0.69884l-0.63924-0.26728 1.7336-1.2344 0.6985 0.8925c0.85278 1.0897 0.86918 1.3591 0.10318 1.6951-0.66782 0.29299-0.79882 1.1326-0.21186 1.3578 0.21089 0.0809 0.71317-0.15859 1.1162-0.53226l0.73271-0.67941 0.85981 0.85469c1.0406 1.0344 1.0739 1.326 0.21516 1.8887-0.74144 0.48581-0.84358 0.99902-0.29022 1.4583 0.29279 0.24299 0.52461 0.16596 1.097-0.36448 0.39915-0.36992 0.80405-0.67258 0.89977-0.67258 0.0957 0 0.58436 0.4244 1.0858 0.94311l0.9118 0.9431-0.83194 0.71054c-1.3863 1.184-0.62229 1.8979 0.80706 0.75414l0.76887-0.61522 0.9164 1.0144c1.0212 1.1303 0.93788 1.4752-0.54095 2.2399-0.76376 0.39496-0.78239 0.38658-1.9375-0.87158zm-4.6616-6.2824c-0.18764-0.20361-0.38285-0.33059-0.4338-0.28219-0.15693 0.14908 0.24081 0.65238 0.51556 0.65238 0.14267 0 0.10588-0.16659-0.0818-0.37019zm-4.5745-5.4506c0.0899-0.14552 0.1067-0.26458 0.0373-0.26458s-0.29923-0.0664-0.51064-0.1475c-0.2114-0.0811-0.45553 0.0379-0.5425 0.26459-0.17922 0.46702 0.73626 0.59994 1.0159 0.14749zm-4.101-5.6729c0-0.0642-0.11907-0.19026-0.26459-0.2802-0.14552-0.0899-0.26458-0.0374-0.26458 0.11667 0 0.15411 0.11906 0.2802 0.26458 0.2802s0.26459-0.0525 0.26459-0.11667zm-89.601 16.055c0.09615-0.15559 0.02525-0.34318-0.15756-0.41688-0.2379-0.0959-0.2428-0.13994-0.01726-0.15488 0.45532-0.0302 0.67404 0.43804 0.30978 0.66317-0.18464 0.11411-0.23916 0.0772-0.13496-0.0914zm-0.73751-1.3088c-0.14358-0.37708-0.11319-0.40747 0.14811-0.14811 0.18082 0.17948 0.26212 0.39297 0.18065 0.47443-0.08146 0.0815-0.22941-0.0654-0.32877-0.32632zm-1.1867-2.6131c0.0127-0.30823 0.07539-0.37092 0.15985-0.15986 0.07643 0.191 0.06703 0.4192-0.02089 0.50712-0.08792 0.0879-0.15045-0.0684-0.13896-0.34726zm0.52917 0c0.0127-0.30823 0.07539-0.37092 0.15985-0.15986 0.07643 0.191 0.06703 0.4192-0.02089 0.50712-0.08792 0.0879-0.15045-0.0684-0.13896-0.34726zm-0.50828-1.4332c0-0.36381 0.06005-0.51263 0.13345-0.33073 0.0734 0.1819 0.0734 0.47955 0 0.66146-0.0734 0.1819-0.13345 0.0331-0.13345-0.33073zm3.3145-5.9853c0.13424-0.34983 0.07169-0.41683-0.26761-0.28663-0.77936 0.29907-0.47388-0.28028 0.44832-0.85022 1.0877-0.67226 1.4967-0.69668 1.4692-0.0877-0.01248 0.27661-0.07462 0.32987-0.15434 0.13229-0.19776-0.4901-0.61791-0.40082-0.62257 0.13229-0.0035 0.3957-0.04134 0.40532-0.26053 0.0661-0.22798-0.35278-0.26041-0.35278-0.29188 0-0.01947 0.21828-0.01813 0.53673 3e-3 0.70765 0.0211 0.17093-0.08249 0.38547-0.2302 0.47676-0.16364 0.10114-0.20012-0.0124-0.09337-0.29056zm2.6296-2.4284c-0.07194-0.1164 0.1294-0.37365 0.44741-0.57168 0.50845-0.31661 0.53858-0.31208 0.24976 0.0375-0.18064 0.21867-0.25009 0.47592-0.15434 0.57167 0.09575 0.0958 0.04221 0.17409-0.11897 0.17409-0.16119 0-0.35192-0.0952-0.42386-0.21162zm1.708-0.79618c-0.01195-0.19811-0.16244-0.26643-0.35162-0.15962-0.26256 0.14823-0.26347 0.11419-0.0044-0.16519 0.37634-0.40585 0.72124-0.18931 0.51588 0.32389-0.11413 0.2852-0.1427 0.28537-0.15985 7.9e-4zm1.8238-0.98546c-0.31067-0.37434-0.30774-0.47107 0.01987-0.655 0.21141-0.11869 0.67048-0.46435 1.0202-0.76814 0.79971-0.69475 0.79867-0.69497 0.73337 0.15456-0.02988 0.38879-0.23111 0.75504-0.44717 0.81389-0.34456 0.0938-0.34501 0.0738-0.0036-0.16335 0.21407-0.14869 0.3204-0.33915 0.23631-0.42325-0.23421-0.23421-1.0393 0.14734-0.87426 0.41435 0.0798 0.12912 0.04041 0.42182-0.08754 0.65045-0.20979 0.37487-0.26842 0.37256-0.59713-0.0235zm2.9178-2.4093c0-0.22501 0.86011-0.87 1.1744-0.88065 0.13658-5e-3 -7e-3 0.22971-0.31967 0.52075-0.58309 0.54324-0.8547 0.65761-0.8547 0.3599zm76.024-0.60649c0.14629-0.73143 0.10659-0.77481-0.69453-0.75892-0.46732 9e-3 -0.98634 0.12472-1.1534 0.25656-0.19944 0.15741-0.47366 0.0236-0.79878-0.3897-0.2723-0.34616-0.76071-0.77155-1.0854-0.9453-0.77615-0.41539-0.75234-0.99838 0.047-1.1512 0.44542-0.0851 0.5978-0.0189 0.50612 0.22004-0.14837 0.38664 0.69865 1.9568 1.0556 1.9568 0.12806 0 0.58713-0.25227 1.0201-0.56061l0.7873-0.56061 0.7749 0.7424c0.89789 0.86024 0.94768 1.1154 0.31188 1.598-0.72262 0.54854-0.9392 0.43407-0.77089-0.40745zm-74.366-0.21643c3e-3 -0.40018 0.0574-0.57877 0.12126-0.39687 0.0638 0.1819 0.34425 0.33073 0.62317 0.33073 0.27891 0 0.50712 0.11532 0.50712 0.25628 0 0.14095-0.1786 0.18774-0.39688 0.10398-0.21828-0.0838-0.39687-0.0205-0.39687 0.14059 0 0.1611-0.10418 0.2929-0.23152 0.2929-0.12733 0-0.22916-0.32743-0.22628-0.72761zm1.8731-0.45454c0.082-0.21363 0.0352-0.45878-0.10398-0.54479-0.37874-0.23407-0.30559-0.57753 0.16114-0.75663 0.32449-0.12452 0.37882-0.0304 0.25089 0.43471-0.1558 0.56639-0.14509 0.57095 0.2332 0.0993 0.38262-0.47704 0.39501-0.47473 0.35427 0.0661-0.0232 0.30826-0.20251 0.56047-0.39841 0.56047s-0.2826 0.11907-0.19266 0.26459c0.0899 0.14552 0.0247 0.26458-0.14499 0.26458-0.16967 0-0.24143-0.17478-0.15946-0.3884zm1.4951-1.1991c0-0.14553 0.12609-0.26459 0.2802-0.26459s0.20661 0.11906 0.11668 0.26459c-0.0899 0.14552-0.21603 0.26458-0.2802 0.26458-0.0642 0-0.11668-0.11906-0.11668-0.26458zm-0.79375-0.50086c0-0.3796 0.67668-0.53181 1.0823-0.24346 0.29527 0.2099 0.27651 0.23407-0.0901 0.11612-0.25466-0.0819-0.46302-0.0336-0.46302 0.10733 0 0.14096-0.11907 0.25628-0.26459 0.25628s-0.26458-0.10632-0.26458-0.23627zm69.321-6e-3c0-0.1334 0.14883-0.30451 0.33073-0.38026 0.59785-0.24895-0.65575-1.0047-1.3891-0.83742l-0.66145 0.15089 0.63822-0.50333c0.63707-0.50241 0.63987-0.50183 1.5379 0.31537 0.83045 0.7557 0.86398 0.84481 0.43568 1.158-0.54526 0.39872-0.89203 0.43633-0.89203 0.0968zm-66.614-0.33606c0.13184-0.39551 0.73318-0.61328 0.73318-0.26551 0 0.14208-0.18855 0.33067-0.41899 0.4191-0.25768 0.0989-0.37864 0.0397-0.31419-0.15359zm-0.58974-0.8483c0-0.20271 0.17859-0.4371 0.39687-0.52086 0.44369-0.17026 0.46558-0.12663 0.23628 0.47092-0.19836 0.51692-0.63315 0.55122-0.63315 0.04995zm1.4552-0.1606c-0.0899-0.14552-0.0374-0.26458 0.11667-0.26458 0.15411 0 0.2802 0.11906 0.2802 0.26458s-0.0525 0.26459-0.11667 0.26459c-0.0642 0-0.19027-0.11907-0.2802-0.26459zm0.13229-0.53585c-0.58503-0.16368-0.60591-0.20861-0.18065-0.3889 0.27715-0.1175 0.60588-0.07876 0.77611 0.09146 0.40756 0.40757 0.18878 0.51685-0.59546 0.29744zm62.177-0.22704c0-0.12855-0.23812-0.29599-0.52916-0.3721-0.67501-0.17652-0.69163-0.71709-0.0221-0.71709 0.27891 0 0.55275-0.13692 0.60854-0.30427 0.0558-0.16735 0.10142 0.13031 0.10142 0.66146s-0.0357 0.96573-0.0794 0.96573-0.0794-0.10518-0.0794-0.23372zm0.79375 0.12825c0-0.06672 0.18429-0.3056 0.40953-0.53084 0.31687-0.31686 0.34469-0.53068 0.12298-0.94494-0.35943-0.67161-0.15394-0.68602 0.49722-0.03485 0.49102 0.49102 0.48598 0.51134-0.26458 1.0663-0.42083 0.31113-0.76515 0.5111-0.76515 0.44438zm-0.36084-2.4066c0.0834-0.21744 0.26024-0.32828 0.39288-0.2463 0.27744 0.17147 0.0547 0.64166-0.30393 0.64166-0.13237 0-0.17239-0.17791-0.0889-0.39536zm-57.969-0.646c-0.0841-0.13604 0.2629-0.56445 0.77105-0.95203 0.82846-0.6319 0.96563-0.66296 1.3279-0.30073 0.51332 0.51332 0.51622 0.73282 7e-3 0.53745-0.21828-0.08376-0.39687-0.02424-0.39687 0.13229 0 0.15652-0.1776 0.21644-0.39465 0.13315-0.22532-0.08646-0.46451 0.03062-0.55747 0.27289-0.18155 0.4731-0.52446 0.55328-0.75702 0.17699zm54.414-0.07016c-0.47399-0.47399-0.38522-1.0571 0.14552-0.95597 0.25466 0.04854 0.50107 0.35492 0.54757 0.68086 0.0929 0.65138-0.20039 0.7678-0.69309 0.27511zm1.7992-0.22728c0-0.15411 0.11906-0.20661 0.26458-0.11668 0.14552 0.08994 0.26458-0.02912 0.26458-0.26458 0-0.23546 0.12485-0.35095 0.27744-0.25664 0.18965 0.11721 0.1794 0.28958-0.0324 0.54478-0.36562 0.44054-0.7742 0.48969-0.7742 0.09312zm-0.92604-1.5719c0.0899-0.14552 0.21602-0.26458 0.28019-0.26458 0.0642 0 0.11668 0.11906 0.11668 0.26458s-0.12609 0.26458-0.2802 0.26458-0.20661-0.11906-0.11667-0.26458zm-3.5462-1.1597c-0.23509-0.28327-0.20762-0.40286 0.12154-0.52917 0.61455-0.23582 0.64657-0.2177 0.64657 0.36598 0 0.61511-0.33413 0.6861-0.76811 0.16319zm2.6202-0.16319c0-0.14552 0.11907-0.26458 0.26459-0.26458s0.26458 0.11906 0.26458 0.26458c0 0.14552-0.11906 0.26458-0.26458 0.26458s-0.26459-0.11906-0.26459-0.26458zm-47.228-1.5875c-0.4525-0.19444-0.46208-0.23008-0.0662-0.24599 0.25466-0.01023 0.46302-0.13766 0.46302-0.28318s0.12609-0.26458 0.2802-0.26458 0.20661 0.11906 0.11667 0.26458c-0.0899 0.14552 0.0221 0.26458 0.24897 0.26458s0.41249 0.11906 0.41249 0.26458c0 0.31595-0.71996 0.31595-1.4552 0zm42.39-0.73118c-0.58702-0.64865-0.57245-0.85632 0.0601-0.85632 0.63306 0 0.79605 0.25157 0.5683 0.87716-0.16757 0.46031-0.1937 0.45945-0.62835-0.02083zm1.7955 0.20201c0.0899-0.14552 0.21602-0.26458 0.28019-0.26458 0.0642 0 0.11668 0.11906 0.11668 0.26458s-0.12609 0.26458-0.2802 0.26458-0.20661-0.11906-0.11667-0.26458zm-42.074-0.54526c-0.0965-0.30412-0.13486-0.57374-0.0852-0.59916 0.0497-0.02541 0.46373-0.2533 0.92014-0.50642 0.73786-0.40922 0.86665-0.41584 1.1622-0.05975 0.18279 0.22026 0.24938 0.48344 0.14797 0.58485s-0.27309 0.04084-0.38153-0.13461c-0.14929-0.24156-0.33953-0.21925-0.78378 0.09191-0.32266 0.226-0.52318 0.51359-0.44562 0.6391 0.0776 0.12551 0.0286 0.29768-0.10881 0.38261-0.13742 0.08493-0.32882-0.09441-0.42535-0.39853zm2.7832-2.0945c0-0.14217 0.32742-0.46684 0.7276-0.72149 0.40019-0.25466 0.78749-0.54425 0.86068-0.64355 0.0732-0.0993 0.43037 0.06476 0.79375 0.36456l0.66068 0.54511-0.81301-0.15625c-0.61915-0.11899-0.90122-0.03387-1.1829 0.35693-0.38757 0.53773-1.0468 0.69812-1.0468 0.25469zm34.925-0.27068c-0.31255-0.19317-0.32557-0.30943-0.0639-0.57107 0.25551-0.25551 0.39907-0.25796 0.64602-0.01102 0.42924 0.42925-0.0515 0.91-0.58209 0.58208zm2.5135 0c0.0899-0.14552 0.21603-0.26458 0.2802-0.26458 0.0642 0 0.11668 0.11906 0.11668 0.26458s-0.12609 0.26458-0.2802 0.26458-0.20662-0.11906-0.11668-0.26458zm-5.0413-2.6689c-0.2309-0.3736 0.27906-0.88355 0.65265-0.65265 0.41964 0.25935 0.35184 0.94029-0.0936 0.94029-0.20969 0-0.46125-0.12944-0.55903-0.28764zm-25.915-0.50611c0.0899-0.14552-0.0184-0.26458-0.24066-0.26458-0.25058 0-0.34631-0.15083-0.2519-0.39688 0.0838-0.21828 0.30358-0.39688 0.48847-0.39688 0.1849 0 0.48858-0.18364 0.67485-0.40809 0.25646-0.309 0.40886-0.3331 0.62772-0.09922 0.21004 0.22446 0.19864 0.34201-0.0417 0.43014-0.18191 0.0667-0.34013 0.3197-0.35162 0.56224-0.0131 0.2776-0.0705 0.31783-0.15489 0.1086-0.0737-0.18281-0.2377-0.26829-0.36443-0.18996-0.12674 0.07833-0.16336 0.3172-0.0814 0.53082 0.082 0.21362 0.0102 0.3884-0.15947 0.3884s-0.23492-0.11906-0.14498-0.26458zm2.6395-2.1366c-0.0958-0.30201-0.13365-0.57617-0.084-0.60924 1.0354-0.68954 1.6239-0.96812 1.7592-0.83278 0.0923 0.0923 0.0299 0.25306-0.1387 0.35726-0.16858 0.10419-0.43007 0.51444-0.5811 0.91166-0.32704 0.8602-0.71508 0.9305-0.95547 0.17311zm21.035 0.14584c-0.40123-0.48346-0.35478-0.53499 0.66677-0.73964 0.43656-0.08746 0.64492-0.09428 0.46302-0.01517s-0.33073 0.37204-0.33073 0.65096c0 0.61021-0.34193 0.65465-0.79906 0.10385zm1.5928-1.1842c0-0.14552 0.11906-0.26458 0.26458-0.26458s0.26459 0.11906 0.26459 0.26458-0.11907 0.26458-0.26459 0.26458-0.26458-0.11906-0.26458-0.26458zm-2.9157-0.40327c-0.51128-0.61605-0.14646-0.73214 0.40071-0.12752 0.2642 0.29193 0.35742 0.53079 0.20716 0.53079-0.15025 0-0.4238-0.18147-0.60787-0.40327zm-16.597-0.30113c-0.56839-0.22935-0.36086-0.73176 0.50613-1.2253 0.57878-0.32948 0.91789-0.39013 1.1096-0.19844s0.13859 0.27606-0.17373 0.27606c-0.24739 0-0.44979 0.11906-0.44979 0.26458s-0.20836 0.27398-0.46302 0.28547c-0.27661 0.01248-0.32987 0.07462-0.1323 0.15434 0.1819 0.0734 0.33073 0.24259 0.33073 0.37599 0 0.26059-0.20224 0.27929-0.7276 0.06731z" stroke-width=".26458"/></g></svg>
