<?xml version="1.0" encoding="UTF-8"?>
<!-- Created with Inkscape (http://www.inkscape.org/) -->
<svg width="195.85" height="118.75" version="1.1" viewBox="0 0 195.85 118.75" xmlns="http://www.w3.org/2000/svg">
 <g transform="translate(.82517 -85.71)">
  <path d="m-0.82517 176.96v-27.497l1.84-0.35847c1.012-0.19715 2.226-0.4326 2.6977-0.52321 0.47174-0.0906 1.7997 0.0715 2.9509 0.36021 1.1513 0.28873 2.3886 0.43124 2.7495 0.31669 0.36094-0.11456 1.085-0.11412 1.6091 9.6e-4 0.52404 0.11512 0.95281 0.39106 0.95281 0.61322 0 0.22215 0.576 0.57649 1.28 0.78742 0.704 0.21092 1.28 0.51321 1.28 0.67176s-0.144 0.37727-0.32 0.48604c-0.176 0.10878-0.32 0.40528-0.32 0.65889s0.144 0.46111 0.32 0.46111 0.32-0.216 0.32-0.48c0-0.31854 0.31856-0.48 0.94705-0.48 0.6211 0 1.2268-0.30169 1.7599-0.87659 0.44705-0.48212 0.89998-1.3412 1.0065-1.9091 0.11616-0.61917 0.43647-1.1096 0.80013-1.225 0.33354-0.10586 0.60643-0.47529 0.60643-0.82095 0-0.34567 0.216-0.71137 0.48-0.81267 0.31292-0.12009 0.48-0.61782 0.48-1.43 0-0.91497-0.13247-1.2458-0.49888-1.2458-0.29491 0-0.40576-0.15068-0.27111-0.36854 0.12528-0.2027-0.03775-0.5627-0.36228-0.8-0.32453-0.2373-0.42893-0.43146-0.23201-0.43146 0.2372 0 0.31537-0.62101 0.23163-1.84-0.06953-1.012-0.04856-1.588 0.04658-1.28 0.09515 0.308 0.30644 0.56 0.46954 0.56s0.29654-0.216 0.29654-0.48c0-0.2697 0.31545-0.5018 0.72-0.52976 0.396-0.0274 1.0226-0.0253 1.3924 5e-3 0.36984 0.0299 1.2338 0.33459 1.92 0.67701 0.68617 0.34247 1.0676 0.62838 0.84758 0.63539-0.22 7e-3 -0.4 0.12589-0.4 0.26418s0.324 0.25819 0.72 0.26645c0.396 8e-3 1.6387-0.61711 2.7615-1.3897s2.2318-1.3317 2.4644-1.2425c0.23256 0.0892 0.75388-0.11373 1.1585-0.45105 0.5937-0.49497 0.63273-0.61536 0.2023-0.62395-0.29333-6e-3 -0.59762 0.16935-0.67619 0.38935-0.07857 0.22-0.26937 0.2812-0.424 0.136-0.15673-0.14717 8.96e-4 -0.42669 0.35619-0.63164 0.35053-0.20221 0.70933-0.39078 0.79733-0.41905 0.088-0.0283 0.48238-0.1564 0.8764-0.28474 0.39402-0.12833 0.63542-0.36437 0.53644-0.52452-0.09898-0.16015 0.44264-0.56076 1.2036-0.89024 1.2234-0.52967 1.7726-0.56634 4.7436-0.31662 1.848 0.15533 6.456 0.50153 10.24 0.76933s7.8323 0.48569 8.9963 0.4842c1.164-2e-3 2.8203 0.13079 3.6807 0.29396 0.86041 0.16317 5.5961 0.51741 10.524 0.7872 4.9276 0.26978 10.723 0.5547 12.879 0.63314 2.1697 0.0789 3.9997 0.0132 4.0989-0.1472 0.09851-0.15938-0.26138-0.28981-0.79976-0.28981-0.53839 0-0.97889-0.10992-0.97889-0.24427s0.51424-1.0344 1.1428-2c1.0059-1.5454 1.0346-1.6407 0.24-0.79526-0.49652 0.52826-1.1908 1.3585-1.5428 1.845-0.5924 0.81873-0.75391 0.8689-2.1716 0.67444-0.9059-0.12425-1.4829-0.35507-1.4125-0.56499 0.06555-0.1952 0.39479-0.36163 0.73164-0.36985 0.33685-8e-3 0.57645-0.18822 0.53245-0.4s0.028-0.3587 0.16-0.3265 0.924-0.28448 1.76-0.70376 1.52-0.87763 1.52-1.0186 0.22777-0.25624 0.50614-0.25624c0.27838 0 1.1064-0.48866 1.84-1.0859 0.73362-0.59725 2.0539-1.3997 2.9339-1.7832s2.212-1.0078 2.96-1.3874 1.36-0.78057 1.36-0.8911 0.74057-0.94154 1.6457-1.8467c0.90514-0.90514 1.8051-1.6435 2-1.6408 0.25584 4e-3 0.25682 0.0702 4e-3 0.24-0.1929 0.12931-0.44851 0.63454-0.56802 1.1228l-0.21728 0.88764 1.208-0.52679c0.83093-0.36235 2.5126-0.5769 5.3872-0.68733 3.4208-0.1314 4.3576-0.0682 5.1628 0.34816l0.98369 0.50868-0.0235-1.269c-0.0133-0.69795-0.13207-1.269-0.26436-1.269-0.13228 0-0.32951 0.144-0.43828 0.32s-0.0453 0.32 0.14111 0.32c0.18639 0 0.33889 0.2037 0.33889 0.45267 0 0.3206-0.50067 0.15722-1.7162-0.56-1.0388-0.61297-1.5756-1.1055-1.36-1.2478 0.19589-0.1293 0.50016-0.23509 0.67616-0.23509s0.13591 0.11681-0.0891 0.25959c-0.29572 0.18766-0.17823 0.36479 0.42398 0.63917 0.45818 0.20876 0.95998 0.30112 1.1151 0.20525 0.15513-0.0959 0.20806-0.36712 0.11764-0.60277-0.0904-0.23565 0.0781-0.52154 0.37463-0.63531 0.33098-0.12701 0.70515 0.0115 0.96938 0.35871 0.23668 0.31105 0.3669 0.74555 0.28938 0.96555-0.0775 0.22-2e-3 0.4 0.16901 0.4 0.17048 0 0.30996 0.2795 0.30996 0.62112 0 0.34161 0.15655 0.71786 0.34788 0.83612 0.19134 0.11825 0.48675 0.0761 0.65648-0.0936 0.16972-0.16973 0.66118-0.2412 1.0921-0.15882 0.43093 0.0824 0.78352 0.25953 0.78352 0.39366 0 0.13412-0.4453 0.42832-0.98956 0.65376-0.57555 0.2384-1.0776 0.28811-1.2 0.11882-0.11574-0.16009-0.64244-0.3083-1.1704-0.32937-0.528-0.0211-1.968-0.16507-3.2-0.32s-3.248-0.26979-4.48-0.25525c-1.232 0.0146-2.9974 0.27858-3.923 0.58673-0.96564 0.32146-1.834 0.84237-2.0372 1.2221-0.30263 0.56547-0.27483 0.63135 0.19102 0.45258 0.29986-0.11506 1.1086-0.2993 1.7972-0.40942l1.252-0.2002v2.3218h-1.92c-1.725 0-1.92-0.0669-1.92-0.65888 0-0.36239-0.144-0.56989-0.32-0.46112-0.176 0.10878-0.32 0.61311-0.32 1.1207 0 0.58339-0.25466 1.1013-0.69215 1.4078-0.38068 0.26664-0.80814 0.41312-0.94991 0.3255-0.14177-0.0876-0.20941-0.72962-0.15032-1.4267 0.0591-0.69704 0.016-1.2674-0.0958-1.2674-0.11179 0-0.74068 0.36519-1.3975 0.81154-0.65686 0.44635-1.1943 0.95035-1.1943 1.12s0.091 0.30846 0.20223 0.30846c0.11123 0 0.66279-0.28464 1.2257-0.63254l1.0235-0.63255-0.14534 1.7526c-0.07993 0.9639-0.06228 1.7525 0.03924 1.7525 0.10151 0 0.56516-0.17341 1.0303-0.38535 0.71905-0.32762 0.89148-0.30365 1.151 0.16 0.16786 0.29994 0.49658 0.54535 0.73048 0.54535s0.60646 0.43743 0.82792 0.97206c0.22145 0.53464 0.49092 0.92688 0.59882 0.87166 0.1079-0.0552 0.74055-0.37741 1.4059-0.71597 0.72002-0.36637 1.1451-0.78398 1.05-1.0316-0.0878-0.22885-0.0819-0.4161 0.0131-0.4161 0.0951 0 0.39014 0.21733 0.65576 0.48294 0.26561 0.26562 0.63758 0.38737 0.82658 0.27056 0.20308-0.12551 0.25073-0.062 0.11648 0.15518-0.12494 0.20216 0.14081 0.85 0.59056 1.4396 0.44975 0.58964 0.81772 1.2244 0.81772 1.4104 0 0.18611-0.468 0.65396-1.04 1.0397s-0.82122 0.63312-0.55382 0.5498c0.26739-0.0833 1.0594-0.0528 1.76 0.0679 0.81587 0.14052 1.5039 0.0775 1.9138-0.17537 0.42352-0.26124 1.0739-0.31362 1.9229-0.15485 0.9576 0.1791 1.5051 0.1055 2.1594-0.29026 0.48209-0.29161 0.76881-0.64901 0.63713-0.79423-0.13167-0.14522-0.0657-0.16434 0.14663-0.0425 0.21231 0.12185 0.31677 0.40203 0.23212 0.62261-0.09 0.23456 0.12156 0.42182 0.5096 0.45104 0.52343 0.0394 0.62113-0.0835 0.4628-0.58237-0.12038-0.3793 0.0654-1.0835 0.46437-1.7596 0.39671-0.67238 0.66508-1.6848 0.66508-2.5089 0-0.75993-0.09-1.8317-0.2-2.3817s-0.29325-1-0.40723-1c-0.11397 0-0.44677 0.468-0.73955 1.04s-0.62169 1.4931-0.73091 2.0468c-0.10922 0.55376-0.44268 1.2277-0.74103 1.4977s-0.93344 0.63956-1.4113 0.82126c-0.6508 0.24743-1.1325 0.2142-1.9194-0.13241-0.57779-0.25452-1.2774-0.64515-1.5546-0.86808-0.27723-0.22292-0.76473-0.80581-1.0834-1.2953-0.31861-0.48949-0.52379-0.93194-0.45595-0.98322 0.0678-0.0513 0.80761-0.3468 1.644-0.65671 1.0993-0.40737 1.5744-0.77772 1.7147-1.3368 0.10674-0.42532 0.37691-0.7733 0.60036-0.7733 0.22346 0 0.60384 0.29736 0.84531 0.6608 0.2933 0.44145 0.62431 0.58965 0.9972 0.44647 0.30698-0.11789 0.47849-0.34325 0.38111-0.5008-0.0974-0.15756 0.0251-0.28647 0.27224-0.28647 0.24711 0 0.70993-0.288 1.0285-0.64 0.31856-0.352 0.83288-0.64 1.1429-0.64 0.31006 0 0.61347-0.1492 0.67426-0.33155 0.0608-0.18236 1.4571-0.47087 3.103-0.64115 1.9603-0.2028 3.6698-0.19965 4.9562 9e-3 1.08 0.1753 2.1281 0.31982 2.329 0.32115 0.20092 1e-3 0.45545-0.35674 0.56563-0.79571 0.11017-0.43897 0.31976-0.76297 0.46575-0.72 0.14599 0.043 0.68346-0.37702 1.1944-0.93332 0.51091-0.55629 1.3381-1.5141 1.8382-2.1284 0.66509-0.81698 1.2237-1.1541 2.08-1.2551 0.64389-0.076 1.7379-0.0113 2.4312 0.14363 0.69329 0.15495 1.4574 0.56288 1.6981 0.90652 0.26552 0.37908 0.80802 0.62479 1.3795 0.62479 0.51802 0 0.94185-0.144 0.94185-0.32s0.576-0.32 1.28-0.32 1.28 0.144 1.28 0.32 0.18136 0.32 0.40303 0.32c0.22166 0 0.58288-0.288 0.80271-0.64 0.32715-0.52385 0.74625-0.64 2.3092-0.64 1.7767 0 1.9808-0.0783 2.9339-1.1257l1.0243-1.1257 1.7825 1.7078 1.2931-1.1682c0.71119-0.64252 1.5019-1.1682 1.7571-1.1682s0.83202 0.16767 1.2818 0.37261c0.63327 0.28853 0.98866 0.28116 1.5751-0.0327 0.5763-0.30843 0.91976-0.31831 1.4373-0.0413 0.374 0.20016 0.698 0.50286 0.72 0.67266 0.022 0.16981 0.058 0.44655 0.08 0.61497 0.022 0.16843 0.328 0.5213 0.68 0.78417 0.63589 0.47487 0.63538 0.48123-0.08 0.99192-0.56152 0.40084-0.72 0.82694-0.72 1.9358 0 1.0077 0.13094 1.4219 0.44955 1.4219 0.33976 0 0.40762-0.31262 0.27787-1.28-0.16356-1.2194-0.13083-1.28 0.69149-1.28 0.47474 0 1.1057 0.12163 1.4021 0.27031 0.29643 0.14867 1.1502 0.20562 1.8972 0.12655 0.74702-0.0791 1.283-0.26547 1.191-0.41425-0.0919-0.14878 0.11538-0.42173 0.46074-0.60656 0.34535-0.18482 0.92538-0.33604 1.289-0.33604s0.66104-0.15055 0.66104-0.33455 0.36-0.69455 0.8-1.1346 0.8-0.99828 0.8-1.2406 0.50957-0.60882 1.1324-0.81436c0.75654-0.24968 1.261-0.26809 1.52-0.0555 0.21319 0.17503 0.74472 0.36804 1.1812 0.4289 0.56013 0.0781 0.87712 0.39305 1.0776 1.0707 0.15625 0.528 0.40129 1.1943 0.54455 1.4806s0.35658 1.0329 0.47405 1.6591 0.47534 1.3754 0.79527 1.6649c0.43081 0.38988 0.736 0.44384 1.1766 0.20805 0.39556-0.21169 0.78753-0.21056 1.1698 3e-3 0.31621 0.17696 0.92449 0.23401 1.3517 0.12678 0.42725-0.10724 0.77682-0.33623 0.77682-0.50888 0-0.17264 0.252-0.3088 0.56-0.30256 0.308 6e-3 0.92 0.21057 1.36 0.45407s0.8 0.63103 0.8 0.86118c0 0.24325 0.69258 0.57224 1.6542 0.78579 0.90983 0.20204 2.0877 0.67598 2.6174 1.0532 0.52977 0.37722 1.2614 1.1683 1.6258 1.7579 0.36441 0.58962 0.66256 1.3596 0.66256 1.7111 0 0.35148 0.2665 0.98249 0.59221 1.4022 0.32572 0.41974 0.52972 0.94316 0.45334 1.1632-0.0764 0.22-0.0117 0.4 0.14378 0.4 0.15547 0 0.4438-0.16113 0.64074-0.35808 0.2641-0.26409 0.52119-0.0331 0.97958 0.88 0.34183 0.68095 0.56075 1.4083 0.48649 1.6164-0.0743 0.20806 0.12137 0.85606 0.43473 1.44 0.31336 0.58392 0.5941 1.6017 0.62387 2.2617 0.0412 0.91301-0.0713 1.2052-0.47031 1.2217-0.38477 0.0159-0.3359 0.1127 0.18352 0.36352l0.70795 0.34186 0.035 28.594-1.5478 0.69953c-0.85127 0.38475-1.8076 0.69953-2.1251 0.69953s-1.4399 0.576-2.4942 1.28c-1.0542 0.704-2.0676 1.28-2.2518 1.28-0.18425 0-0.75787 0.468-1.2747 1.04-0.51685 0.572-1.0697 1.3734-1.2285 1.7808s-0.28881 1.167-0.28881 1.6879c0 0.7289 0.1944 1.021 0.84381 1.2679 0.4641 0.17645 2.1216 0.28661 3.6833 0.2448l2.8395-0.076 1.1967 1.2322c0.65819 0.67772 1.5207 1.4446 1.9167 1.7041 0.6873 0.45044 0.72 0.66638 0.72 4.7551 0 2.3558-0.12199 4.2832-0.2711 4.2832-0.1491 0-0.41639 0.324-0.59397 0.72-0.20939 0.46694-0.21558 1.0293-0.0176 1.6 0.1679 0.484 0.43519 0.88 0.59397 0.88s0.2887 2.016 0.2887 4.48v4.48h-195.84v-27.497zm31.907 2.8242c-0.53198-0.30957-0.51464-0.3799 0.24-0.9735 0.49206-0.38705 0.8134-0.96286 0.8134-1.4575 0-0.77079 0.07133-0.80627 1.244-0.61876 1.1955 0.19117 1.2495 0.16105 1.3866-0.77319 0.07847-0.53466 0.0136-1.0519-0.14414-1.1494-0.15775-0.0975-0.57265 0.0814-0.922 0.39758-0.34935 0.31616-0.82647 0.60291-1.0603 0.63723-0.2338 0.0343-0.76689 0.16463-1.1846 0.28961-0.74203 0.22197-0.74479 0.2156-0.11957-0.27571 0.352-0.2766 0.80972-0.50749 1.0171-0.51309 0.20743-6e-3 0.56743-0.19018 0.8-0.41018 0.23257-0.22 1.2602-0.81169 2.2837-1.3149 1.2585-0.61876 1.8052-1.0599 1.6889-1.3629-0.09455-0.24639 0.11206-0.62534 0.45915-0.84209 0.34708-0.21676 0.63106-0.60299 0.63106-0.85829 0-0.33233-0.12986-0.28774-0.45715 0.15697-0.40639 0.5522-0.47962 0.56322-0.65961 0.0993-0.15892-0.40964-0.4219-0.46871-1.2229-0.27467-0.56122 0.13596-2.5324 0.88037-4.3804 1.6542l-3.36 1.407 0.04466 1.676c0.02456 0.92181 0.22127 2.1024 0.43714 2.6236 0.21586 0.52115 0.51977 0.86887 0.67534 0.77272 0.15557-0.0962 0.28286-0.31882 0.28286-0.49482s-0.16847-0.21588-0.37438-0.0886c-0.254 0.15698-0.30663 0.0548-0.16367-0.31773 0.12516-0.32617 0.08228-0.46974-0.10562-0.35361-0.17398 0.10752-0.31154-0.065-0.30569-0.38338 0.0092-0.49876 0.09878-0.47306 0.64741 0.18571 0.36261 0.43541 0.55912 1.0092 0.45642 1.3328-0.11659 0.36733 0.07565 0.7475 0.54379 1.0754 0.39827 0.27896 0.87209 0.50282 1.0529 0.49747 0.18084-5e-3 0.07076-0.15988-0.24461-0.3434zm-2.7361-4.4469c0-0.44 0.07263-0.62 0.1614-0.4 0.08877 0.22 0.08877 0.58 0 0.8s-0.1614 0.04-0.1614-0.4zm5.2235 2.5045c0.59652-0.2718 0.71116-0.4472 0.41506-0.6351-0.225-0.14278-0.66108-0.26181-0.96908-0.2645-0.3483-3e-3 -0.56 0.23704-0.56 0.6351 0 0.352 0.06523 0.64 0.14494 0.64 0.07972 0 0.5158-0.16898 0.96908-0.3755zm1.8587-1.2245c-0.09205-0.352-0.22257-0.64-0.29004-0.64-0.06747 0-0.12268 0.288-0.12268 0.64s0.13052 0.64 0.29004 0.64c0.15952 0 0.21473-0.288 0.12268-0.64zm8.1999-1.12c0.0097-0.176-0.122-0.104-0.29261 0.16s-0.30228 0.696-0.29261 0.96c0.01158 0.3165 0.11127 0.262 0.29261-0.16 0.15126-0.352 0.28293-0.784 0.29261-0.96zm-6.8013 0.30161c0.10519-0.27412 0.38867-0.42263 0.62996-0.33005 0.24129 0.0926 0.43871 0.0807 0.43871-0.0263 0-0.10708-0.252-0.38782-0.56-0.62388-0.48308-0.37024-0.49535-0.47159-0.08927-0.73787 0.2589-0.16978 0.37376-0.40566 0.25524-0.52418-0.11852-0.11852-0.44864 0.0176-0.73359 0.3026-0.28495 0.28495-0.83181 0.52947-1.2152 0.54336-0.38343 0.0139-0.51714 0.0979-0.29714 0.18666 0.22 0.0888 0.4 0.41341 0.4 0.72141s0.096 0.656 0.21333 0.77333c0.11733 0.11733 0.33785 0.21333 0.49004 0.21333 0.15219 0 0.36277-0.22427 0.46796-0.49839zm18.029-3.7365c0.968-0.36383 1.9469-0.83189 2.1754-1.0401 0.3259-0.29704 0.19543-0.34634-0.60546-0.2288-0.70705 0.10378-0.95209 0.0386-0.79712-0.21219 0.15935-0.25783 0.01126-0.2808-0.51454-0.0798-0.40606 0.15521-1.8183 0.7912-3.1383 1.4133l-2.4 1.1311 1.76-0.161c0.968-0.0885 2.552-0.45868 3.52-0.82251zm-24.32-0.47759c0.44-0.22195 0.61426-0.40443 0.38725-0.40552-0.22701-9.6e-4 -0.98301 0.28896-1.68 0.64454-0.69699 0.35557-1.2673 0.71249-1.2673 0.79314 0 0.0807 0.396-0.0278 0.88-0.24099 0.484-0.2132 1.24-0.56923 1.68-0.79117zm21.12-1.4489c0-0.14359-0.27853-0.11202-0.61896 0.0702-0.34043 0.1822-0.85742 0.33126-1.1489 0.33126-0.29145 0-1.0898 0.396-1.7742 0.88-0.68436 0.484-1.2474 0.98683-1.2511 1.1174-0.0037 0.13056 1.0732-0.29701 2.3932-0.95017 1.32-0.65315 2.4-1.305 2.4-1.4486zm-25.17 0.64143c-0.08124-0.132 0.11279-0.25658 0.43118-0.27684 0.31839-0.0203 0.84663-8e-3 1.1739 0.026 0.40283 0.0426 0.51506-0.0664 0.3475-0.33753-0.17542-0.28384-0.08723-0.33894 0.30291-0.18922 0.30271 0.11616 1.0463 4e-3 1.6525-0.2493 0.60616-0.25328 1.1021-0.50899 1.1021-0.56826 0-0.0593-0.27743-0.10775-0.61651-0.10775-0.33908 0-0.54658 0.11314-0.46111 0.25143 0.08546 0.13828 0.0029 0.25143-0.1835 0.25143-0.18639 0-0.33888-0.15371-0.33888-0.34157 0-0.20548-0.28684-0.2547-0.72-0.12352-0.396 0.11992-1.584 0.62189-2.64 1.1155-1.6637 0.77761-1.7853 0.89023-0.91118 0.84352 0.55485-0.0297 0.94235-0.16191 0.86112-0.29391zm-2.7629-1.0306c2.3356-1.0405 2.4223-1.1136 1.373-1.1579-0.616-0.026-1.336-0.0215-1.6 0.0101-0.264 0.0315-1.344 0.48233-2.4 1.0018-1.9061 0.9376-1.9107 0.94323-0.64 0.77715 0.94714-0.12379 1.1136-0.089 0.64 0.13366-0.352 0.16552-0.46584 0.31106-0.25299 0.32343 0.21286 0.0124 1.5089-0.47729 2.88-1.0881zm9.9263 0.59729c-0.10634-0.10633-0.38234-0.1177-0.61333-0.0252-0.25527 0.10215-0.17945 0.17798 0.19333 0.19333 0.33733 0.0139 0.52633-0.0617 0.42-0.16807zm-18.403-1.8701c0.09406 0.0941 0.25757-0.0545 0.36336-0.33018 0.15681-0.40865 0.07876-0.44043-0.42265-0.17208-0.33824 0.18102-0.72264 0.50835-0.85422 0.72741-0.19063 0.31734-0.1395 0.31756 0.25162 9.6e-4 0.26998-0.21848 0.56783-0.32027 0.6619-0.22621zm52.917-0.0964c-0.13188-0.13188-0.98388-0.42685-1.8933-0.65549s-2.9855-0.67716-4.6135-0.99671c-1.628-0.31956-2.96-0.45659-2.96-0.30451 0 0.15207 0.324 0.28261 0.72 0.29008 0.396 7e-3 2.376 0.42441 4.4 0.92653 2.024 0.50211 3.884 0.928 4.1333 0.94641 0.24933 0.0184 0.34543-0.0744 0.21355-0.20631zm-49.778-2.0052c0.377-0.20177 0.60435-0.44796 0.50522-0.54709-0.09913-0.0991-0.66883 0.15456-1.266 0.56375-0.82172 0.56306-0.99856 0.8383-0.72717 1.1318 0.27704 0.29961 0.40908 0.25483 0.58055-0.19691 0.12207-0.3216 0.5304-0.74981 0.90741-0.95157zm8.1591 0.70681c-0.09852-0.0985-0.35674-2.1e-4 -0.5738 0.21848-0.31369 0.31604-0.27693 0.3528 0.17913 0.17914 0.31559-0.12017 0.49319-0.2991 0.39467-0.39762zm-0.28442-2.0792c0.12244-0.12244 4.0866-0.22262 8.8093-0.22262 8.16 0 8.6185-0.0318 9.2267-0.64 0.352-0.352 0.56293-0.64 0.46874-0.64-0.09419 0-0.5236 0.23087-0.95424 0.51303-0.68327 0.4477-1.8654 0.49509-9.2821 0.37212-4.6745-0.0775-8.5736-0.0204-8.6646 0.12696-0.09106 0.14734-1.1651 0.26789-2.3867 0.26789-1.3915 0-2.2211 0.13046-2.2211 0.34928 0 0.2325 0.79929 0.30693 2.3907 0.22262 1.3149-0.0697 2.4909-0.22683 2.6133-0.34928zm23.347-0.27206c0.13628-0.2205 0.0883-0.2829-0.119-0.15478-0.19103 0.11806-0.42484 0.0892-0.51958-0.064-0.09474-0.15329 0.18331-0.61274 0.61789-1.021s0.79014-0.6415 0.79014-0.5183 0.43623-2e-3 0.9694-0.2773c0.53317-0.27571 1.1092-0.41491 1.28-0.30933s0.3106 0.0395 0.3106-0.14692c0-0.18639-0.108-0.33672-0.24-0.33407-0.132 3e-3 -0.81253 0.20407-1.5123 0.4476s-1.6151 0.74812-2.0341 1.1213c-0.62202 0.55405-0.68964 0.76548-0.36852 1.1524 0.21629 0.26062 0.43913 0.47385 0.4952 0.47385 0.05606 0 0.20468-0.16625 0.33026-0.36944zm-1.2816-3.0802c1.3921-0.84128 6.085-3.7554 10.429-6.4758 4.3437-2.7204 7.8468-4.997 7.7847-5.059-0.06205-0.062-1.2399 0.56876-2.6175 1.4018-1.3776 0.83302-3.0807 1.8995-3.7847 2.3699-0.704 0.47042-2.144 1.3335-3.2 1.918s-2.3439 1.417-2.862 1.8502-1.2381 0.91701-1.6 1.0753c-0.36192 0.15826-0.9447 0.4681-1.2951 0.68852-0.35036 0.22042-1.3584 0.84516-2.24 1.3883-0.88164 0.54315-2.107 1.2967-2.723 1.6746-0.616 0.37789-0.96299 0.68949-0.77108 0.69245 0.19191 3e-3 1.4879-0.68293 2.88-1.5242zm5.6001-0.36569c-0.24804-0.15702-0.64404-0.21141-0.88-0.12086-0.23596 0.0905-0.42902 0.22122-0.42902 0.29039 0 0.0692 0.396 0.12356 0.88 0.12086 0.64044-4e-3 0.75723-0.0826 0.42902-0.29039zm1.3924 5e-3c0.09856-0.15948 0.50306-0.22245 0.89889-0.13994 0.70324 0.14658 0.70211 0.13955-0.0496-0.30768l-0.76928-0.45768 1.4893-0.87278c0.8191-0.47999 1.4893-0.94004 1.4893-1.0223 0-0.0823-0.72 0.2423-1.6 0.72126-0.88 0.47895-1.6 1.0004-1.6 1.1589 0 0.15841-0.11488 0.21703-0.25528 0.13025-0.1404-0.0868-0.4644-0.0255-0.72 0.13622-0.35536 0.2248-0.27645 0.29629 0.33528 0.30378 0.63471 8e-3 0.70083 0.0739 0.32 0.32-0.28841 0.18639-0.32788 0.31216-0.09889 0.3151 0.20961 3e-3 0.46176-0.12558 0.56032-0.28505zm-24.153-1.8782c-0.0063-0.12749-0.35038-0.64615-0.76455-1.1526-0.41417-0.50644-0.89439-0.83344-1.0672-0.72666-0.17276 0.10677-0.40524 0.64975-0.51661 1.2066-0.11537 0.57686-0.05047 1.1956 0.15086 1.4382 0.29286 0.35287 0.51219 0.34362 1.2812-0.054 0.5103-0.26389 0.92263-0.58409 0.9163-0.71157zm15.052 0.2482c0.40586-0.352 0.85989-0.658 1.009-0.68s0.41504-0.076 0.59104-0.12 0.4725-0.098 0.65889-0.12c0.18639-0.022 0.25966-0.16819 0.16282-0.32487-0.09684-0.15669 0.35372-0.53628 1.0012-0.84355 0.64751-0.30726 1.3302-0.68641 1.5172-0.84255 0.18694-0.15613 1.0162-0.7978 1.8428-1.4259 0.82658-0.62812 1.6446-1.0544 1.8179-0.94735 0.17326 0.10707 0.41921 0.0261 0.54657-0.17998 0.15642-0.25309 0.08572-0.29147-0.21789-0.11827-0.34636 0.19758-0.36507 0.16491-0.08159-0.14241 0.20232-0.21934 0.73026-0.42046 1.1732-0.44695 0.44294-0.0265 0.78141-0.12015 0.75215-0.20815-0.02925-0.088 0.02234-0.16 0.11467-0.16 0.09233 0 0.38033-0.1781 0.64-0.39579 0.25967-0.21768 1.2595-1.049 2.2218-1.8475 0.96232-0.79844 1.9343-1.3809 2.16-1.2942 0.22569 0.0866 0.41034 0.018 0.41034-0.1525 0-0.17047 0.216-0.30996 0.48-0.30996s0.48-0.1537 0.48-0.34156c0-0.20151 0.27592-0.25399 0.67288-0.128 0.37009 0.11746 1.1833 0.21356 1.8071 0.21356 0.74996 0 0.98589 0.0917 0.69638 0.27061-0.24081 0.14882-0.37001 0.33254-0.28711 0.40824 0.0829 0.0757 0.51073 0.22621 0.95073 0.33445s0.6191 0.11383 0.39801 0.0124c-0.2211-0.10141-0.3148-0.32546-0.20823-0.49789 0.11468-0.18557 0.43113-0.0987 0.77537 0.21283 0.47015 0.42548 0.71462 0.45517 1.2756 0.15492 0.38172-0.20429 0.61318-0.45229 0.51435-0.55111-0.09882-0.0988-0.41013 0.0116-0.6918 0.24536-0.42767 0.35493-0.55848 0.35002-0.79322-0.0298-0.18718-0.30287-0.11783-0.5462 0.20757-0.7283 0.26877-0.15041 0.87424-0.19419 1.3455-0.0973 0.47125 0.0969 0.67682 0.0979 0.45682 2e-3 -0.22-0.0957-0.4-0.30597-0.4-0.4673 0-0.16134 0.184-0.29334 0.40888-0.29334 0.22489 0 0.65548-0.288 0.95687-0.64 0.52423-0.61225 0.51691-0.64164-0.16888-0.67789-0.39428-0.0208-0.84556-0.0139-1.0028 0.0153-0.15729 0.0293-0.73329-0.0504-1.28-0.17708l-0.99402-0.23027 0.96-0.22543c0.528-0.12399 1.2356-0.33973 1.5725-0.47941 0.42969-0.17816 0.54411-0.14332 0.38338 0.11675-0.14252 0.2306-0.06526 0.30784 0.20442 0.20435 0.23844-0.0915 0.98683 0.0648 1.6631 0.34738 0.67625 0.28255 1.3166 0.3886 1.4231 0.23567 0.10644-0.15294 1.162-0.88361 2.3457-1.6237 1.1837-0.74011 2.3717-1.3456 2.64-1.3456 0.26831 0 0.48784-0.198 0.48784-0.44s-0.45-0.53-1-0.64-1.3409-0.2-1.7576-0.2-1.9467 0.6236-3.4 1.3858-3.1464 1.5687-3.7624 1.7923c-0.616 0.22358-1.408 0.5248-1.76 0.66938s-1.6594 0.55872-2.9053 0.9203c-1.2459 0.36158-2.6225 0.98475-3.0592 1.3848-0.43666 0.40008-4.1346 2.9461-8.2176 5.6579s-7.4693 4.8718-7.5252 4.8c-0.05585-0.0718-1.0626-1.6115-2.2372-3.4216-1.1746-1.8101-2.1356-3.3666-2.1356-3.4589 0-0.0923 0.144-0.0788 0.32 0.03 0.176 0.10878 0.32 0.10481 0.32-9e-3 0-0.11361-0.46721-0.85715-1.0382-1.6523-0.57103-0.79515-1.5733-1.7187-2.2273-2.0523-0.65396-0.33362-1.4467-0.60009-1.7618-0.59215-0.3826 0.01-0.27326 0.14244 0.32932 0.4 0.49614 0.21206 0.88284 0.45756 0.85934 0.54556-0.02349 0.088 0.04578 0.39066 0.15396 0.67256 0.12406 0.32329 0.45779 0.46265 0.90376 0.3774 0.51291-0.0981 0.91427 0.14507 1.4616 0.88532 0.60964 0.82459 0.67047 1.0737 0.31689 1.2977-0.24067 0.15247-0.69809 0.27942-1.0165 0.28212-0.32806 3e-3 -0.4878-0.14249-0.36865-0.33527 0.11563-0.18709-0.04219-0.61909-0.35071-0.96-0.30852-0.34092-0.74525-0.61985-0.97052-0.61985s-0.78347 0.14216-1.2405 0.31591c-0.8226 0.31275-0.82527 0.32473-0.26822 1.2 0.30947 0.48625 0.71 0.99126 0.89006 1.1222 0.18007 0.13099 0.55583-0.0359 0.83503-0.37079 0.49309-0.59149 0.52924-0.5828 1.261 0.30305 0.41433 0.5016 0.89214 0.8262 1.0618 0.72135 0.16966-0.10486 0.21188-0.0343 0.09382 0.15668-0.11806 0.19103-0.05221 0.44773 0.14633 0.57044 0.19855 0.12271 0.45734 0.0672 0.57509-0.12331 0.11994-0.19406 1.0103 0.82091 2.0244 2.3078l1.8103 2.6542-0.69126 0.69126c-0.38019 0.38019-0.5373 0.69125-0.34911 0.69125 0.18818 0 0.67422-0.288 1.0801-0.64zm-4.5208-6.96c-0.39804-0.50754-0.38672-0.51885 0.12082-0.12082 0.308 0.24156 0.56 0.49356 0.56 0.56 0 0.0665-0.05437 0.12082-0.12082 0.12082-0.06645 0-0.31845-0.252-0.56-0.56zm72.384 5.1198c-0.23376-0.65989-1.0376-2.0638-1.7862-3.1198-0.74869-1.056-1.6663-2.1943-2.0392-2.5296-0.37288-0.33528-0.67796-0.73437-0.67796-0.88686 0-0.1525 0.35697-0.43991 0.79327-0.63871l0.79328-0.36143-0.71328-0.62654c-0.3923-0.34459-0.67084-0.77414-0.61899-0.95456 0.0573-0.19925-0.26985-0.25519-0.83333-0.1425-0.51019 0.10204-1.0657 0.0474-1.2345-0.12138-0.19587-0.19587-0.58901 0.01-1.0867 0.56765-0.42887 0.48101-0.55942 0.70756-0.29011 0.50344 0.39772-0.30143 0.72816-0.14377 1.76 0.83975 0.69869 0.66598 1.5584 1.6153 1.9104 2.1095s0.892 1.1647 1.2 1.4899c0.308 0.3252 0.56 0.67867 0.56 0.7855s-0.22507 0.10787-0.50014 2e-3c-0.37202-0.14275-0.32174 0.0586 0.19626 0.78609 0.38302 0.5379 0.88417 0.90595 1.1137 0.81789 0.22949-0.0881 0.49952 0.0543 0.60007 0.3163 0.10317 0.26884 0.045 0.39123-0.13351 0.2809-0.17399-0.10752-0.31634 0.0856-0.31634 0.42915 0 0.34356 0.22513 0.71104 0.50028 0.81662 0.28003 0.10746 0.39915 0.35562 0.27056 0.56368-0.15335 0.24813-0.0888 0.28462 0.1941 0.10977 0.31862-0.19692 0.3659-0.1099 0.19048 0.35056-0.18724 0.4915-0.1537 0.53343 0.16983 0.21228 0.3242-0.32182 0.31992-0.6352-0.0219-1.6zm-2.0501-1.8931c-0.11733-0.11733-0.21333-0.42296-0.21333-0.67918 0-0.37781 0.0907-0.39056 0.48-0.0675 0.264 0.2191 0.48 0.52473 0.48 0.67918s-0.12 0.28082-0.26667 0.28082c-0.14666 0-0.36266-0.096-0.48-0.21334zm6.9196 2.6857c-0.0938-0.48821-0.57084-1.3162-1.0601-1.84-0.58029-0.6212-1.2035-0.95234-1.7924-0.95234h-0.90281l0.7912 0.55211c0.43516 0.30366 1.2592 1.0189 1.8312 1.5893 0.572 0.57047 1.04 1.21 1.04 1.4212s0.0593 0.324 0.13174 0.25067c0.0725-0.0733 0.055-0.53278-0.0388-1.021zm-56.173-0.0156c-0.84415-0.69116-0.85707-0.74518-0.32-1.3378 0.55099-0.60799 0.5485-0.60828-0.16033-0.0187-0.396 0.32941-0.72 0.79261-0.72 1.0293s0.252 0.43261 0.56 0.4353c0.47858 4e-3 0.49021 0.05 0.08 0.3151-0.36765 0.2376-0.2553 0.30866 0.48 0.30359l0.96-7e-3 -0.87967-0.72025zm-2.3203 0.10328c-0.10877-0.176-0.0093-0.3222 0.22111-0.3249 0.34502-4e-3 0.34498-0.0518-2.08e-4 -0.27068-0.3137-0.19895-0.19299-0.41902 0.48-0.8751 0.4945-0.33512 1.4751-0.76644 2.1791-0.95848s1.2419-0.52221 1.1954-0.7337c-0.0657-0.29876 0.07707-0.29841 0.64 2e-3 0.65128 0.34704 0.68125 0.33357 0.29633-0.13312-0.37214-0.45118-0.32283-0.54566 0.37645-0.72117 0.44258-0.11108 1.0536-0.47701 1.3578-0.81318 0.30423-0.33617 0.68333-0.61122 0.84244-0.61122 0.15911 0 0.21877 0.11411 0.13258 0.25357-0.0862 0.13947 0.13835 0.2758 0.49898 0.30297 0.60025 0.0452 0.60956 0.0156 0.11008-0.34958-0.47302-0.34587-0.3929-0.39896 0.60213-0.39896 0.63126 0 1.1478 0.0432 1.1478 0.096s-0.29313 0.38913-0.65141 0.74741c-0.35828 0.35827-0.89828 0.61027-1.2 0.56-0.34517-0.0575-0.5192 0.0924-0.46934 0.40425 0.06219 0.3889-0.17902 0.47217-1.12 0.38662-1.1965-0.10879-1.1974-0.10793-0.39925 0.373 0.44 0.26512 1.0417 0.48714 1.3371 0.49338 0.29543 6e-3 0.76859-0.22011 1.0515-0.50298 0.28412-0.28412 0.79565-0.44076 1.1429-0.34996 0.49612 0.12973 0.62853 2e-3 0.62853-0.60568 0-0.47115 0.18631-0.77004 0.48-0.77004 0.264 0 0.48 0.216 0.48 0.48 0 0.33524 0.33778 0.48 1.12 0.48 0.616 0 1.12-0.144 1.12-0.32s0.5125-0.32 1.1389-0.32c0.67777 0 1.0588-0.12956 0.94111-0.32-0.10877-0.176 0.01824-0.32 0.28223-0.32 0.264 0 0.57499-0.15369 0.69108-0.34154 0.1164-0.18834-0.09275-0.42099-0.46626-0.51867-0.39661-0.10371-0.64206-0.3932-0.5922-0.69846 0.04683-0.28673 0.30115-0.61921 0.56515-0.73884s0.95646-0.22763 1.5388-0.24c0.77433-0.0164 1.4221-0.363 2.411-1.2898 0.97023-0.90937 1.3743-1.5577 1.4305-2.2954 0.04312-0.5659-0.10566-1.1448-0.33097-1.2878-0.22512-0.14285-0.5533-0.25973-0.7293-0.25973s-0.13004 0.12045 0.10214 0.26767c0.26288 0.16669 0.38361 0.72896 0.32 1.4904-0.05722 0.68497-0.29764 1.287-0.54669 1.3689-0.26949 0.0887-0.35656 4e-3 -0.22111-0.21527 0.12289-0.19887 0.06243-0.36156-0.13434-0.36156-0.19677 0-0.26877-0.144-0.16-0.32s-0.01824-0.32-0.28223-0.32c-0.264 0-0.569 0.144-0.67777 0.32s-0.46877 0.32-0.8 0.32-0.69479-0.14977-0.80793-0.33282c-0.13498-0.2184 0.09879-0.25641 0.67992-0.11055 0.78688 0.19749 0.83447 0.16734 0.42681-0.27047-0.41076-0.44115-0.64311-0.39385-2.2188 0.45163-0.968 0.5194-2.5342 1.361-3.4803 1.8703-0.94619 0.50926-1.8102 1.0267-1.92 1.1499-0.10981 0.12319 0.05235 0.12903 0.36035 0.013 0.308-0.11604 0.79962-0.30745 1.0925-0.42536 0.32621-0.13133 0.45393-0.0872 0.32969 0.11377-0.12832 0.20763 0.11685 0.26469 0.6675 0.15536l0.87032-0.1728-0.8-0.19571c-0.72795-0.17808-0.74444-0.21705-0.18319-0.43273 0.39049-0.15006 0.79042-0.0634 1.0899 0.2361 0.4175 0.4175 0.36491 0.50029-0.4473 0.70414-0.50624 0.12706-1.3567 0.47951-1.8899 0.78322-0.53323 0.30372-1.5455 0.64403-2.2495 0.75624l-1.28 0.20404 1.04-0.5286c0.572-0.29072 1.04-0.66829 1.04-0.83903s-0.612 0.0377-1.36 0.46325c-0.748 0.42553-3.2589 1.8395-5.5797 3.1421-3.2531 1.8259-4.1421 2.462-3.8808 2.7767 0.18637 0.22457 0.20602 0.4083 0.04367 0.4083-0.16235 0-0.44398-0.1488-0.62585-0.33067-0.22756-0.22755-0.33067-0.18205-0.33067 0.14593 0 0.26212 0.09088 0.42042 0.20194 0.35177 0.11107-0.0686 0.41107 7e-3 0.66667 0.16918 0.2556 0.1617 0.50922 0.29619 0.56361 0.29889 0.05439 3e-3 0.0099-0.1391-0.09889-0.3151zm14.323-8.531c-0.31619-0.12775-0.31619-0.24063 0-0.55378 0.21843-0.21633 0.84697-0.61665 1.3968-0.88961 0.71764-0.35629 1.1616-0.40564 1.5738-0.17493 0.50078 0.28025 0.39338 0.41595-0.83961 1.0609-0.77761 0.40673-1.4858 0.73465-1.5738 0.72871-0.088-6e-3 -0.33871-0.083-0.55714-0.17125zm-40.723 8.211c0-0.176 0.22052-0.32 0.49004-0.32 0.26953 0 0.57692-0.22639 0.6831-0.5031 0.10627-0.27692-0.11532-0.9202-0.49289-1.4309l-0.68595-0.9278 2.2445-1.1515-0.81205-1.195c-0.80848-1.1898-0.8163-1.1928-1.7799-0.69455l-0.96784 0.50049 0.68771 1.1656c0.59936 1.0158 0.62611 1.2087 0.20822 1.5012-0.26372 0.18458-0.72884 0.48576-1.0336 0.66929-0.51455 0.30985-0.49938 0.41815 0.21228 1.516 0.42153 0.65029 0.87441 1.1841 1.0064 1.1863 0.132 2e-3 0.24-0.14004 0.24-0.31604zm31.007-0.44795c0.24571-0.0176 0.77383-0.31702 1.1736-0.66532 0.39977-0.3483 0.65824-0.7443 0.57438-0.88-0.08387-0.1357-0.35999-0.24673-0.6136-0.24673-0.25625 0-0.46111 0.30093-0.46111 0.67733 0 0.53127-0.1454 0.63929-0.67434 0.50097-0.37089-0.097-1.0276-0.0421-1.4593 0.12208-0.4317 0.16414-0.69213 0.44855-0.57873 0.63204 0.1141 0.18462 0.51572 0.23493 0.89926 0.11265 0.38119-0.12154 0.8941-0.2354 1.1398-0.25302zm-34.34-1.6773c-0.1593-0.41512-0.10998-0.44925 0.23521-0.16277 0.24022 0.19936 0.51956 0.27969 0.62075 0.1785 0.10119-0.10119-0.11969-0.69865-0.49083-1.3277l-0.67481-1.1437-0.39426 1.0905c-0.21685 0.59976-0.40522 1.2705-0.41861 1.4905s0.27906 0.4 0.64989 0.4c0.49367 0 0.62026-0.14066 0.47268-0.52526zm8.4531-0.82214c0-0.17259-0.30205-0.73799-0.67123-1.2565-0.53536-0.75185-0.76207-0.86727-1.12-0.57022-0.24682 0.20485-0.44877 0.63344-0.44877 0.95244 0 0.31899 0.14216 0.95388 0.3159 1.4109 0.30621 0.8054 0.34058 0.81473 1.12 0.30403 0.44225-0.28977 0.8041-0.66807 0.8041-0.84066zm37.033 0.19407c-0.10634-0.10633-0.38234-0.1177-0.61333-0.0252-0.25527 0.10215-0.17945 0.17798 0.19333 0.19333 0.33733 0.0139 0.52633-0.0617 0.42-0.16807zm9.8467-1.0867c-0.10877-0.176-0.08043-0.32 0.063-0.32 0.14342 0 0.45565-0.44027 0.69384-0.97837 0.23819-0.53811 0.36335-1.0481 0.27814-1.1333-0.08521-0.0852-0.44091 0.42309-0.79044 1.1296-0.34953 0.70646-0.55955 1.3604-0.46669 1.4533 0.09285 0.0928 0.22532 0.16882 0.29437 0.16882 0.06906 0 0.03656-0.144-0.07222-0.32zm-53.963-2.6398c-0.18513-0.34592-0.45107-0.50548-0.59099-0.35458-0.13991 0.15089-0.35277 0.59991-0.47302 0.99782-0.20419 0.67568-0.16516 0.6991 0.59099 0.35458 0.67839-0.30909 0.75506-0.47083 0.47302-0.99782zm49.8 0.2124c0.67392-0.44158 0.72434-0.59721 0.38874-1.2-0.21209-0.38095-0.42148-0.75249-0.46531-0.82566-0.04383-0.0732-0.79424 0.21484-1.6676 0.64-0.87333 0.42517-1.5935 0.85903-1.6003 0.96413-0.0068 0.10511 0.31157 0.34736 0.70757 0.53835 0.396 0.19098 0.97707 0.35699 1.2913 0.3689 0.31419 0.0119 0.91972-0.20667 1.3456-0.48572zm6.4729-1.3024c0.4016-0.46738 0.73019-0.97138 0.73019-1.12s-0.05491-0.27023-0.12202-0.27023c-0.06711 0-0.50644 0.504-0.97628 1.12s-0.74352 1.12-0.60817 1.12c0.13535 0 0.57468-0.38239 0.97628-0.84977zm-51.818 0.0647c0.07612-0.0761-0.12938-0.71891-0.45667-1.4284-0.32729-0.70951-0.66708-1.2905-0.75508-1.2912-0.088-6.4e-4 -0.50848 0.26675-0.93439 0.59416-0.72201 0.55502-0.74561 0.66478-0.34885 1.6226 0.37931 0.91574 0.53045 1.0064 1.3911 0.83426 0.53103-0.10621 1.0278-0.25539 1.1039-0.33151zm58.651-0.84166c1.657-0.7187 3.0859-1.4165 3.1752-1.5507 0.0893-0.13419 0.55836-0.34091 1.0424-0.45936s0.88-0.35151 0.88-0.5179-0.684-4e-3 -1.52 0.36075c-0.836 0.3648-2.672 1.1606-4.08 1.7685s-2.6968 1.2403-2.864 1.4054c-0.1918 0.18937-0.18263 0.30016 0.0248 0.30016 0.18085 0 1.6846-0.58803 3.3416-1.3067zm10.946 0.27253c-0.46676-0.48719-1.0737-0.879-1.3488-0.8707-0.27507 8e-3 -1.2921 0.43305-2.2601 0.94389l-1.76 0.9288 6.2176-0.1162zm23.029-0.63395c1.3652-0.52133 2.4822-1.0969 2.4822-1.279 0-0.21569-0.14975-0.20689-0.42944 0.0252-0.2362 0.19602-0.5242 0.26165-0.64 0.14585-0.11581-0.11582-0.21056-0.31378-0.21056-0.43992s0.288-0.30466 0.64-0.39671c0.352-0.0921 0.64-0.0368 0.64 0.12268 0 0.15953 0.27606 0.29004 0.61347 0.29004s1.2374-0.2737 2-0.60822 1.6745-0.84598 2.0265-1.1366c0.62633-0.51706 0.62291-0.52354-0.16-0.30342-0.44 0.1237-1.664 0.19855-2.72 0.16632-1.056-0.0322-2.3534-0.13551-2.883-0.22952-0.66654-0.1183-1.6336 0.12994-3.1413 0.8064-1.4286 0.641-2.0989 1.1058-1.9476 1.3506 0.14423 0.23337 0.0915 0.28724-0.14075 0.14372-0.20429-0.12626-1.2705 0.0865-2.3694 0.47285-1.0989 0.38633-2.646 1.0292-3.438 1.4285l-1.44 0.72608 4.3178-0.16851c3.7725-0.14724 4.6312-0.28822 6.8-1.1164zm-2.4624-1.6236c0.27694-0.15498 0.70253-0.20542 0.94575-0.11208 0.24323 0.0933 0.88248 0.0434 1.4206-0.11089 0.69702-0.1999 0.9782-0.17199 0.97786 0.0971-3.2e-4 0.24661-0.66798 0.38287-1.9241 0.39267-1.2696 0.01-1.7524-0.0808-1.4201-0.26678zm-13.215 1.3806c0.836-0.427 1.52-0.89167 1.52-1.0326s0.28002-0.25624 0.62227-0.25624 1.7321-0.50578 3.0886-1.124c1.3565-0.61818 2.9716-1.4362 3.589-1.8178 0.98929-0.61142 1.05-0.72024 0.51138-0.91585-0.33623-0.12209-0.85385-0.0961-1.1503 0.0578-0.29643 0.15389-0.80043 0.26968-1.12 0.25731-0.52128-0.0202-0.51521-0.051 0.059-0.2992 0.41608-0.17989-0.0877-0.23454-1.44-0.15618-1.6754 0.0971-1.831 0.0707-0.8-0.1354l1.28-0.25591-1.44-0.0383c-0.98777-0.0263-1.6912 0.15823-2.24 0.58748-0.44 0.34417-0.98 0.62897-1.2 0.63288-0.22 4e-3 -0.4 0.14755-0.4 0.3192 0 0.20277 0.2875 0.20277 0.82083 0 0.45146-0.17165 2.1315-0.31208 3.7333-0.31208 1.6019 0 2.8468 0.0657 2.7665 0.14599-0.0803 0.0803-1.4178 0.17104-2.9721 0.20166-2.2908 0.0451-2.9205 0.1659-3.3244 0.63762-0.27405 0.32007-0.59259 0.52365-0.70786 0.45241-0.11527-0.0712-0.20958 0.0801-0.20958 0.33639 0 0.25626 0.192 0.46593 0.42666 0.46593 0.23467 0 0.42667 0.0823 0.42667 0.18285 0 0.10057-0.20572 0.38857-0.45714 0.64-0.25143 0.25143-0.68474 0.45715-0.96291 0.45715-0.27818 0-0.97247 0.45232-1.5429 1.0052-0.5704 0.55284-0.89309 0.94551-0.71709 0.8726 0.176-0.0729 1.004-0.48192 1.84-0.90893zm0.39773 0.63483c0.11211-0.1814-0.0164-0.23504-0.30111-0.12577-0.27314 0.10482-0.49662 0.24717-0.49662 0.31634 0 0.0692 0.1355 0.12576 0.30111 0.12576 0.16562 0 0.3891-0.14235 0.49662-0.31633zm-28.984-0.0942c-0.07333-0.0498-0.42133-0.3018-0.77333-0.56-0.592-0.43424-0.60706-0.42745-0.20082 0.0906 0.24155 0.308 0.58955 0.56 0.77333 0.56 0.18378 0 0.27415-0.0407 0.20082-0.0905zm55.867-0.22945c0.45277-0.19456 0.49958-0.29092 0.16-0.3294-0.264-0.0299-0.12-0.17104 0.32-0.31362 0.69099-0.2239 0.64073-0.25226-0.36882-0.2081-0.64284 0.0281-1.1023 0.15912-1.0211 0.29112 0.0812 0.132-0.2568 0.25013-0.75118 0.2625-0.49439 0.0123-1.1869 0.14624-1.5389 0.2975-0.47013 0.20203-0.21532 0.27502 0.96 0.27502 0.88 0 1.888-0.12376 2.24-0.27502zm-55.52-0.96c-0.264-0.17061-0.768-0.29805-1.12-0.2832-0.52724 0.0222-0.49906 0.0721 0.16 0.2832 0.44 0.14092 0.944 0.26836 1.12 0.28321 0.176 0.0148 0.104-0.1126-0.16-0.28321zm5.12 0c0.264-0.17061 0.336-0.31019 0.16-0.31019s-0.536 0.13958-0.8 0.31019-0.336 0.3102-0.16 0.3102 0.536-0.13959 0.8-0.3102zm21.918 4e-3c0.11211-0.18139-0.0163-0.23504-0.30111-0.12576-0.27314 0.10482-0.49662 0.24717-0.49662 0.31634 0 0.0692 0.1355 0.12576 0.30111 0.12576 0.16562 0 0.3891-0.14235 0.49662-0.31634zm-28.958-1.4247c0-0.78161 0.1715-1.5271 0.38111-1.6567 0.20961-0.12954 0.43761-0.066 0.50667 0.14112 0.06905 0.20716 0.41696 0.37665 0.77312 0.37665 0.43787 0 0.5892-0.15211 0.46731-0.46975-0.09914-0.25836-0.05764-0.54554 0.09223-0.63816 0.14987-0.0926 0.36005 0.0598 0.46706 0.33863 0.10702 0.27887 0.1219 0.62461 0.03309 0.76832-0.08881 0.1437 0.16272 0.17974 0.55896 0.0801 0.39624-0.0996 0.8356-0.37423 0.97634-0.61016 0.14074-0.23593 0.46474-0.42897 0.72-0.42897 0.25525 0 0.4641-0.144 0.4641-0.32s0.19388-0.32 0.43084-0.32 0.87068-0.21942 1.4083-0.4876c0.78659-0.3924 1.1393-0.41385 1.8064-0.10988 0.55884 0.25462 1.0529 0.27782 1.516 0.0712 0.61683-0.27524 0.48631-0.39662-1.2777-1.1883-1.1826-0.53074-2.5696-0.89342-3.4843-0.91112-1.1466-0.0222-1.8926 0.19766-3.0395 0.89582-0.836 0.50887-1.52 1.0343-1.52 1.1676s0.144 0.24233 0.32 0.24233 0.32 0.12721 0.32 0.28269c0 0.15549-0.36 0.35152-0.8 0.43563-0.44 0.0841-0.8 0.0289-0.8-0.12269 0-0.1516 0.168-0.27563 0.37333-0.27563 0.20533 0 0.29092-0.0824 0.1902-0.18314-0.10072-0.10072-0.72108 0.0928-1.3786 0.43017l-1.1954 0.6133 0.74141 0.5193c0.65355 0.45776 0.69684 0.61713 0.36524 1.3449-0.20689 0.45408-0.37616 0.96282-0.37616 1.1305s0.216 0.30494 0.48 0.30494c0.35461 0 0.48-0.37123 0.48-1.4211zm-0.77928-1.7454c-0.09738-0.15755 0.03351-0.36726 0.29087-0.46602 0.25735-0.0987 0.54061-0.0619 0.62946 0.0818 0.08885 0.14377 0.06946 0.35348-0.04308 0.46603-0.11256 0.11255-0.31614 0.20463-0.45242 0.20463s-0.32745-0.12891-0.42483-0.28647zm5.3972-1.6693c-0.12093-0.19568-0.02144-0.48147 0.22111-0.6351 0.24255-0.15363 0.657-0.26483 0.921-0.24711 0.35757 0.024 0.34169 0.0687-0.06226 0.17515-0.31502 0.083-0.4683 0.33568-0.36577 0.60288 0.09707 0.25297 0.0256 0.45995-0.15885 0.45995-0.18444 0-0.4343-0.1601-0.55524-0.35577zm4.8253-0.28945c0.11055-0.17887 0.33505-0.24237 0.49889-0.14111 0.16384 0.10126 0.29789 0.24761 0.29789 0.32522 0 0.0776-0.2245 0.14111-0.49889 0.14111-0.27439 0-0.40844-0.14635-0.29789-0.32522zm-1.5032-0.53337c0.231-0.0924 0.507-0.0811 0.61333 0.0252 0.10633 0.10633-0.08267 0.18196-0.42 0.16807-0.37278-0.0154-0.44861-0.0912-0.19333-0.19333zm-17.702 5.0223c0.11211-0.1814-0.01635-0.23504-0.30111-0.12577-0.27314 0.10482-0.49662 0.24717-0.49662 0.31634 0 0.0692 0.1355 0.12576 0.30111 0.12576 0.16561 0 0.38909-0.14235 0.49662-0.31633zm36.536-0.47858c0-0.30025-0.1275-0.37176-0.34666-0.19444-0.19067 0.15427-0.63467 0.35128-0.98667 0.4378-0.44054 0.10829-0.33251 0.16888 0.34667 0.19443 0.67569 0.0254 0.98666-0.11256 0.98666-0.43779zm-30.407-0.80509c0.08767 0 0.38225 0.22286 0.65463 0.49524 0.27238 0.27238 0.58587 0.40461 0.69664 0.29384 0.11077-0.11077-0.04814-0.38387-0.35312-0.60688-0.30499-0.22301-0.44876-0.51206-0.3195-0.64233 0.12926-0.13026-0.16097-0.0569-0.64497 0.16301-0.484 0.21992-0.88 0.49674-0.88 0.61516 0 0.11841 0.108 0.32422 0.24 0.45734s0.28656 0.0131 0.34346-0.26667c0.05691-0.27979 0.17519-0.50871 0.26286-0.50871zm21.554 0.32c0-0.176-0.144-0.32-0.32-0.32s-0.32 0.144-0.32 0.32 0.144 0.32 0.32 0.32 0.32-0.144 0.32-0.32zm-25.76-0.32c0.10877-0.176 0.08127-0.31779-0.06111-0.3151-0.14239 3e-3 -0.47489 0.14449-0.73889 0.3151-0.41366 0.26733-0.40521 0.31088 0.06111 0.3151 0.29762 3e-3 0.63012-0.1391 0.73889-0.3151zm-17.173-1.12c0.11205-0.11205-0.13884-0.46212-0.55752-0.77793-0.47143-0.3556-0.66755-0.72581-0.51515-0.9724 0.17797-0.28796 0.06529-0.34081-0.40705-0.19089-0.35923 0.11401-0.73852 0.0692-0.84287-0.0997-0.10435-0.16884 0.24353-0.40214 0.77307-0.51845 0.52954-0.1163 0.96279-0.34402 0.96279-0.50603 0-0.16202 0.108-0.267 0.24-0.23329 0.132 0.0337 1.0032-0.11031 1.936-0.32005 0.93279-0.20974 2.1126-0.59679 2.6218-0.86011 0.58398-0.30199 0.99861-0.36105 1.1229-0.15995 0.10838 0.17535 0.55704 0.31882 0.99704 0.31882 0.45185 0 0.71393 0.13926 0.60223 0.32-0.10877 0.176-0.06068 0.32 0.10688 0.32 0.16756 0 0.37302-0.18 0.45659-0.4 0.08357-0.22 0.08263-0.868-0.0022-1.44-0.14359-0.96955-0.23869-1.04-1.4041-1.04-0.78376 0-1.7251 0.29991-2.5237 0.80402-0.7005 0.4422-1.2736 0.86969-1.2736 0.94995 0 0.0803 0.23962 0.054 0.53249-0.0584 0.33835-0.12983 0.45441-0.078 0.31832 0.1422-0.11779 0.1906-0.8061 0.44654-1.5296 0.56877s-1.9827 0.52469-2.7983 0.89435c-0.81561 0.36966-1.5549 0.69062-1.6429 0.71324-0.088 0.0226-0.376 0.12555-0.64 0.22872s-1.344 0.49168-2.4 0.86336-2.136 0.75252-2.4 0.8463c-0.39718 0.14111-0.37693 0.22838 0.11736 0.50581 0.32855 0.18441 1.6245 0.51256 2.88 0.72922 1.8309 0.31598 2.558 0.31302 3.6741-0.015 0.76532-0.22489 1.4832-0.50057 1.5952-0.61262zm4.2192-5.2763c-0.354-0.21878-0.26453-0.36539 0.41073-0.67306 0.68287-0.31113 1.0438-0.31113 1.7266 0 0.67526 0.30767 0.76473 0.45428 0.41073 0.67306-0.27182 0.168-0.61663 0.14357-0.86331-0.0612-0.29059-0.24116-0.53087-0.24116-0.82147 0-0.24668 0.20474-0.59149 0.22917-0.86331 0.0612zm15.354 6.0763c0-0.176-0.1525-0.32-0.33889-0.32-0.18639 0-0.24989 0.144-0.14111 0.32s0.26127 0.32 0.33889 0.32c0.07761 0 0.14111-0.144 0.14111-0.32zm22.953-0.19333c-0.10633-0.10633-0.38233-0.1177-0.61333-0.0252-0.25527 0.10215-0.17945 0.17798 0.19333 0.19333 0.33734 0.0139 0.52634-0.0617 0.42-0.16807zm7.04 0c-0.10633-0.10633-0.38233-0.1177-0.61333-0.0252-0.25527 0.10215-0.17945 0.17798 0.19333 0.19333 0.33734 0.0139 0.52634-0.0617 0.42-0.16807zm-28.133-0.59994c0.09534-0.0953-0.10415-0.38327-0.4433-0.63986-0.50412-0.38139-0.52419-0.46837-0.10997-0.47669 0.27867-6e-3 0.50667-0.2184 0.50667-0.47289 0-0.35383-0.14167-0.3869-0.60204-0.14051-0.42012 0.22483-0.53942 0.51951-0.39481 0.97513 0.18681 0.58858 0.10947 0.63147-0.78462 0.43509-0.5982-0.13139-0.99186-0.0896-0.99186 0.10532 0 0.17774 0.324 0.37769 0.72 0.44432 0.396 0.0666 0.99148 0.0812 1.3233 0.0323 0.33182-0.0489 0.6813-0.16686 0.77664-0.2622zm19.26 0.15327c0-0.176-0.1525-0.32-0.33889-0.32-0.18639 0-0.24989 0.144-0.14111 0.32s0.26127 0.32 0.33889 0.32c0.07761 0 0.14111-0.144 0.14111-0.32zm5.6188-0.14982c0.49659-0.37561 0.52112-0.47186 0.12232-0.48-0.27436-6e-3 -0.77836 0.20124-1.12 0.45965-0.49659 0.3756-0.52112 0.47186-0.12232 0.48 0.27436 6e-3 0.77836-0.20125 1.12-0.45965zm-7.3562-0.43175c-0.33955-0.0701-0.81784-0.32792-1.0629-0.57294-0.24502-0.24502-0.74083-0.44549-1.1018-0.44549-0.54712 0-0.59004 0.0799-0.25796 0.48 0.2191 0.264 0.53323 0.48 0.69807 0.48 0.16484 0 0.21254-0.18 0.106-0.4-0.10654-0.22 0.0363-0.0914 0.31742 0.28578 0.36107 0.48445 0.71772 0.62916 1.2148 0.49294 0.64583-0.17698 0.65293-0.20331 0.08632-0.32029zm36.937 0.24524c-0.792-0.14092-2.016-0.25255-2.72-0.24805-1.099 7e-3 -1.1668 0.0444-0.48 0.26438 0.44 0.14092 1.664 0.25254 2.72 0.24805l1.92-8e-3 -1.44-0.25623zm53.703-0.73018c0.0698-0.35971-0.11265-0.53349-0.56-0.53349-0.3649 0-0.66346 0.192-0.66346 0.42667s0.099 0.52567 0.22 0.64667 0.373 0.16906 0.56 0.10681c0.187-0.0623 0.38656-0.35325 0.44346-0.64666zm-107.01 0.18651c0.132-0.132 0.336-0.24707 0.45333-0.25573 0.11733-9e-3 0.56079-0.1338 0.98546-0.2781 0.6832-0.23216 0.70943-0.29747 0.22778-0.56701-0.29939-0.16755-0.99002-0.20675-1.5347-0.0871-0.73449 0.16132-0.87602 0.29121-0.54778 0.50274 0.37226 0.23989 0.36632 0.33529-0.0374 0.60031-0.264 0.17331-0.324 0.31731-0.13333 0.32 0.19067 3e-3 0.45467-0.1031 0.58667-0.2351zm0.37908-0.66755c-0.08144-0.13177 0.12995-0.26054 0.46975-0.28613 0.33981-0.0256 0.61783 9.6e-4 0.61783 0.0593 0 0.0582-0.21139 0.18699-0.46975 0.28614-0.25836 0.0991-0.53639 0.0724-0.61783-0.0594zm21.248 0.26755c0.616-0.33724 0.96212-0.61921 0.76916-0.62658-0.19296-7e-3 -0.80496 0.21313-1.36 0.49002s-1.0092 0.56489-1.0092 0.64c0 0.0751 0.108 0.13053 0.24 0.12315 0.132-7e-3 0.744-0.28934 1.36-0.62659zm3.6885 0.0618c-0.0985-0.0985-0.35674-2e-4 -0.5738 0.21849-0.31369 0.31604-0.27693 0.3528 0.17913 0.17914 0.31559-0.12017 0.49319-0.2991 0.39467-0.39763zm-46.248-0.0618c0.38815-0.25083 0.34222-0.31113-0.24-0.3151-0.396-3e-3 -0.72 0.1391-0.72 0.3151s0.108 0.3178 0.24 0.3151c0.132-3e-3 0.456-0.14449 0.72-0.3151zm32 0.17889c0-0.0776-0.144-0.23011-0.32-0.33889-0.176-0.10877-0.32-0.0453-0.32 0.14112 0 0.18638 0.144 0.33888 0.32 0.33888s0.32-0.0635 0.32-0.14111zm17.406-1.8122c0.15735-0.13798 3e-3 -0.17687-0.34279-0.0864-0.34589 0.0905-1.0506 0.52657-1.5661 0.96916l-0.93721 0.80469 1.28-0.71827c0.704-0.39504 1.4087-0.83116 1.5661-0.96915zm38.914 1.2864c-0.57139-0.20222-0.26117-0.24409 1.0856-0.14652 1.1363 0.0823 1.7696 0.0206 1.5936-0.15535-0.16058-0.16057-1.7291-0.50422-3.4856-0.76367-1.7565-0.25944-5.4976-0.70662-8.3136-0.99374-2.816-0.28711-9.368-1.087-14.56-1.7774s-9.644-1.2556-9.8933-1.2559c-0.24934-2.7e-4 -0.37252 0.0803-0.27374 0.17911 0.0988 0.0988 3.1828 0.58753 6.8533 1.0861 3.6706 0.49858 8.2577 1.077 10.194 1.2855 1.936 0.20841 4.024 0.50652 4.64 0.66246 0.616 0.15593 2.776 0.43804 4.8 0.62691 2.9266 0.27309 3.8092 0.47197 4.3111 0.97143 0.47096 0.46866 1.0394 0.61994 2.24 0.59614 1.3432-0.0266 1.4768-0.0786 0.80889-0.31502zm-103.8-0.74064c0.68213-0.2461 1.6674-0.61437 2.1894-0.81837 0.74207-0.28999 0.84836-0.43322 0.48717-0.65645-0.25409-0.15703-1.0772-0.20119-1.8292-0.0981-0.95346 0.13069-1.3672 0.0713-1.3672-0.19621 0-0.21099-0.252-0.35798-0.56-0.32665-0.308 0.0313-0.82963 0.0404-1.1592 0.0201-0.52069-0.032-0.54165-0.10646-0.16-0.56826 0.39262-0.47506 0.37132-0.49612-0.20082-0.19864-0.352 0.18302-1.432 0.58739-2.4 0.8986-0.968 0.3112-2.048 0.71363-2.4 0.89429-0.59616 0.30597-0.57424 0.34665 0.32 0.5937 0.528 0.14587 1.6472 0.28371 2.487 0.30631 0.83988 0.0226 1.6044 0.1662 1.6989 0.31912 0.09451 0.15291 0.50523 0.27803 0.91272 0.27803s1.299-0.20135 1.9811-0.44745zm40.054-0.61921c0.12442 0.0293 0.28622-7e-3 0.35956-0.08 0.07333-0.0733-0.16187-0.13334-0.52268-0.13334-0.41323 0-0.72315 0.26647-0.83742 0.72-0.17796 0.70635-0.17234 0.70787 0.29645 0.08 0.26282-0.352 0.57966-0.616 0.70409-0.58666zm-24.734 0.42666c-0.10877-0.176-0.44127-0.31779-0.73889-0.3151-0.46633 4e-3 -0.47478 0.0478-0.06111 0.3151 0.264 0.17061 0.5965 0.31241 0.73889 0.3151 0.14238 3e-3 0.16988-0.1391 0.06111-0.3151zm-32.637-0.37668c0.09702-0.097 0.3059-0.62795 0.46418-1.1799 0.26071-0.90904 0.22214-1.0011-0.40987-0.97819-0.38371 0.0139-0.51766 0.0979-0.29766 0.18666 0.22 0.0888 0.4 0.27706 0.4 0.41842s-0.45222 0.32338-1.0049 0.40451c-0.70933 0.1041-1.1517-0.024-1.504-0.43537-0.46232-0.53995-0.54145-0.54448-1.0751-0.0616-0.3168 0.28671-0.576 0.70649-0.576 0.93286 0 0.22784 0.60712 0.53402 1.36 0.68586 0.748 0.15086 1.6091 0.25827 1.9135 0.23869 0.30442-0.0196 0.63286-0.11499 0.72987-0.212zm34.203 2e-3c-0.15774-0.25523-0.05362-0.30617 0.32712-0.16007 0.30887 0.11852 0.85763 5e-3 1.2278-0.25446 0.60828-0.42606 0.61892-0.48808 0.11679-0.68077-0.30386-0.1166-1.136 0.0511-1.8492 0.37274-1.0818 0.48783-1.1983 0.62346-0.70279 0.81835 0.32667 0.12848 0.71044 0.24373 0.85283 0.25609 0.14239 0.0124 0.15476-0.14597 0.02749-0.35188zm41.01 0.0817c-0.0995-0.16097 2e-5 -0.36055 0.22112-0.4435 0.23929-0.0898 0.0782-0.28691-0.39801-0.48705-0.44-0.18492-0.584-0.34024-0.32-0.34516 0.264-5e-3 0.84 0.19685 1.28 0.44837 0.44 0.25153 0.92961 0.46243 1.088 0.46866 0.15841 6e-3 -0.33104-0.4371-1.0877-0.98519-1.3546-0.98128-1.3924-0.98859-2.4651-0.47705-0.62921 0.30005-0.99836 0.66677-0.87391 0.86814 0.11851 0.19175 0.66618 0.54479 1.2171 0.78452 0.55087 0.23973 1.1181 0.44151 1.2605 0.4484 0.14238 7e-3 0.17748-0.11918 0.078-0.28014zm-2.0969-0.79809c0-0.0609 0.216-0.29004 0.48-0.50914 0.27667-0.22961 0.48-0.26071 0.48-0.0734 0 0.17872-0.216 0.40783-0.48 0.50914s-0.48 0.13435-0.48 0.0734zm3.2 0.77086c0-0.176-0.144-0.32-0.32-0.32s-0.32 0.144-0.32 0.32 0.144 0.32 0.32 0.32 0.32-0.144 0.32-0.32zm-20.72-0.21193c-0.22-0.0888-0.58-0.0888-0.8 0s-0.04 0.16141 0.4 0.16141 0.62-0.0726 0.4-0.16141zm16.198-0.93346c0.06492-0.0572-0.40308-0.71281-1.04-1.4569-0.63692-0.7441-1.158-1.4933-1.158-1.6649s-0.288-0.0514-0.64 0.26719c-0.352 0.31856-0.64 0.46725-0.64 0.33042s-0.216-0.0695-0.48 0.14958c-0.264 0.2191-0.48 0.51369-0.48 0.65463 0 0.14095 0.37313 0.6997 0.82917 1.2417s0.96361 0.90232 1.1279 0.80077c0.16432-0.10156 0.27814-0.0659 0.25294 0.0791-0.02522 0.14508-0.02877 0.37548-0.0079 0.512 0.02083 0.13652 0.5059 0.0102 1.0779-0.2807s1.0931-0.57571 1.158-0.63291zm-2.438-0.14458c-0.396-0.15917-0.72-0.35256-0.72-0.42976s0.29024-0.0644 0.64499 0.0283c0.35474 0.0928 0.72324 0.29529 0.81889 0.45004 0.09565 0.15476 0.1294 0.27225 0.07501 0.26109-0.05438-0.0112-0.42288-0.15051-0.81888-0.30968zm1.1592-0.23003c-0.39804-0.50754-0.38672-0.51885 0.12082-0.12082 0.308 0.24156 0.56 0.49356 0.56 0.56 0 0.0665-0.05437 0.12082-0.12082 0.12082-0.06645 0-0.31845-0.252-0.56-0.56zm-2.3465-1.0194c-0.12802-0.20714 0.0019-0.25349 0.34317-0.12251 0.35668 0.13687 0.47282 0.0873 0.3314-0.14155-0.11974-0.19375-0.08401-0.43491 0.07941-0.53591 0.16342-0.101 0.26119 0.0612 0.21726 0.36054-0.04393 0.2993-0.23409 0.59559-0.42258 0.65842-0.18849 0.0628-0.43539-0.0357-0.54866-0.21899zm16.787 1.8994c0-0.176-0.1525-0.32-0.33889-0.32-0.18638 0-0.24988 0.144-0.14111 0.32s0.26127 0.32 0.33889 0.32c0.0776 0 0.14111-0.144 0.14111-0.32zm-82.665-0.50683c0.12411-0.32342 0.27151-0.38221 0.40732-0.16246 0.11706 0.1894 0.92502 0.417 1.7955 0.50578l1.5826 0.16141-1.6-0.50699c-0.88-0.27885-1.996-0.58271-2.48-0.67527-0.484-0.0926-0.88-0.0917-0.88 2e-3 0 0.0936 0.08741 0.39793 0.19424 0.67632 0.10683 0.2784 0.32735 0.50617 0.49004 0.50617 0.16269 0 0.38333-0.22807 0.4903-0.50683zm101.46 0.3135c-0.10633-0.10633-0.38233-0.1177-0.61333-0.0252-0.25527 0.10215-0.17945 0.17798 0.19333 0.19333 0.33734 0.0139 0.52634-0.0617 0.42-0.16807zm-64-0.32c-0.10634-0.10633-0.38234-0.1177-0.61333-0.0252-0.25527 0.10215-0.17945 0.17798 0.19333 0.19333 0.33733 0.0139 0.52633-0.0617 0.42-0.16807zm43.993-0.78055c-0.0786-0.53563-0.30567-0.92053-0.50458-0.85532-0.1989 0.0652-0.4072 0.50345-0.46289 0.97388-0.0783 0.66157 0.036 0.85532 0.50457 0.85532 0.49305 0 0.57923-0.18131 0.4629-0.97388zm2.9349 0.0939c-0.11611-0.484-0.26286-0.94-0.3261-1.0133-0.0632-0.0733-0.11498 0.32267-0.11498 0.88s0.14674 1.0133 0.3261 1.0133c0.19358 0 0.24031-0.35759 0.11498-0.88zm-62.752-0.44268c1.095-0.55147 2.3203-1.2604 2.7229-1.5755l0.73198-0.57279-1.8066-0.22572c-0.99362-0.12415-2.5852-0.14536-3.5369-0.0471-1.031 0.10641-1.656 0.0584-1.5465-0.1188 0.10108-0.16356 0.0673-0.29901-0.07509-0.30099-0.14239-2e-3 -1.2945 0.53439-2.5603 1.192-1.2658 0.65756-2.2738 1.222-2.24 1.2543 0.03376 0.0323 0.84255 0.14508 1.7973 0.25065s1.8017 0.25771 1.8821 0.33808c0.08037 0.0804 0.4152 2e-3 0.74406-0.17387 0.40492-0.2167 0.59793-0.21306 0.59793 0.0113 0 0.1822-0.18 0.3483-0.4 0.36912-0.22 0.0208 0.032 0.14779 0.56 0.28214s1.0001 0.26132 1.0491 0.28214c0.04902 0.0208 0.98502-0.41334 2.08-0.96482zm-1.4778-1.7357c0.10519-0.27411 0.40044-0.41811 0.65613-0.32 0.25568 0.0981 0.6331 0.18852 0.83871 0.20089 0.2056 0.0123 0.08583 0.14624-0.26617 0.2975-0.352 0.15126-0.81548 0.28514-1.03 0.29751-0.22464 0.013-0.30888-0.18879-0.1987-0.4759zm18.712 2.1663c-0.23086-0.0769-0.57189 0.0122-0.75784 0.19818-0.23746 0.23746-0.11252 0.27911 0.41975 0.13992 0.4327-0.11316 0.57776-0.25821 0.3381-0.3381zm54.27 0.0588c-0.10633-0.10633-0.38233-0.1177-0.61333-0.0252-0.25527 0.10215-0.17945 0.17798 0.19333 0.19333 0.33734 0.0139 0.52634-0.0617 0.42-0.16807zm-91.113-0.95344c1.0449-0.42737 1.0556-0.44548 0.16-0.27-0.528 0.10345-1.3061 0.19041-1.7291 0.19323-0.57287 4e-3 -0.6545 0.0777-0.32 0.28944 0.24698 0.15637 0.52105 0.27555 0.60905 0.26486 0.088-0.0107 0.664-0.22559 1.28-0.47753zm71.638-0.8737c1.2164-0.69091 1.268-0.77614 0.77064-1.2735-0.49732-0.49731-0.57703-0.49594-1.191 0.0205l-0.65797 0.55345 0.63575-0.7489c0.62691-0.73848 0.62717-0.75518 0.0189-1.2-0.33936-0.2481-0.48865-0.4511-0.33181-0.4511s0.13281-0.15235-0.0534-0.33855c-0.23807-0.23807-0.73171-0.13363-1.6632 0.35188-0.81745 0.42608-1.2385 0.83138-1.0998 1.0586 0.12368 0.20246 0.34088 0.51211 0.48266 0.68811 0.14179 0.176 0.55468 0.716 0.91754 1.2s0.70659 0.88 0.76385 0.88c0.0573 0 0.69074-0.33321 1.4077-0.74047zm-2.5183-2.2604c0-0.0665 0.252-0.31844 0.56-0.56 0.50754-0.39803 0.51886-0.38672 0.12082 0.12082-0.24155 0.308-0.49355 0.56-0.56 0.56-0.0665 0-0.12082-0.0544-0.12082-0.12082zm-2.8641 0.59261c0.51926-0.26852 0.94411-0.58308 0.94411-0.69901s-0.23073-1.0331-0.51272-2.0381l-0.51272-1.8273-0.90205 0.51771c-0.49613 0.28474-0.83146 0.63194-0.74517 0.77156 0.08629 0.13961 0.31319 0.15724 0.50422 0.0392 0.20243-0.12511 0.25568-0.0664 0.12764 0.1408-0.12083 0.19551-0.43108 0.27435-0.68944 0.17521-0.25836-0.0991-0.46975-0.0423-0.46975 0.12622 0 0.16857 0.15809 0.75997 0.35131 1.3142 0.19322 0.55426 0.4767 1.0078 0.62996 1.0078 0.15326 0 0.19577 0.216 0.09446 0.48-0.10131 0.264-0.08964 0.48 0.02592 0.48 0.11557 0 0.63498-0.2197 1.1542-0.48822zm-0.65589-2.2318c0-0.264 0.0566-0.48 0.12576-0.48 0.06917 0 0.20865 0.216 0.30996 0.48 0.1013 0.264 0.04471 0.48-0.12576 0.48-0.17048 0-0.30996-0.216-0.30996-0.48zm-59.44 2.1881c-0.22-0.0888-0.58-0.0888-0.8 0s-0.04 0.16141 0.4 0.16141 0.62-0.0726 0.4-0.16141zm56.641-2.5881c0.98647-0.53177 1.0388-0.65278 1.0388-2.4006 0-1.0123-0.03252-1.8403-0.07227-1.84s-0.54078 0.28551-1.1134 0.63374c-0.57263 0.34824-1.1195 0.85655-1.2153 1.1296-0.09577 0.27303-0.11961 1.0681-0.05298 1.7668 0.06664 0.69874 0.17855 1.2704 0.2487 1.2704s0.59503-0.252 1.1664-0.56zm59.119-14.179c0-0.16562-0.144-0.30112-0.32-0.30112s-0.32 0.2245-0.32 0.49889 0.144 0.40989 0.32 0.30111c0.176-0.10877 0.32-0.33327 0.32-0.49888zm-44.48 15.699c-0.264-0.17061-0.336-0.31019-0.16-0.31019s0.536 0.13958 0.8 0.31019 0.336 0.3102 0.16 0.3102-0.536-0.13959-0.8-0.3102zm-29.28-0.82451c-0.18305-0.0767-0.27408-1.0245-0.21269-2.2147 0.05902-1.1444 0.20302-2.0796 0.32-2.0781 0.11698 2e-3 0.24784 1.0094 0.29079 2.24 0.04295 1.2306 0.04295 2.226 0 2.2121-0.04295-0.0139-0.22209-0.0856-0.39809-0.15925zm2.9354-0.54307c0.4975-0.40018 1.1926-0.92516 1.5446-1.1666 0.352-0.24148 0.064 0.0805-0.64 0.71557-0.704 0.63504-1.399 1.16-1.5446 1.1666-0.1455 7e-3 0.1425-0.3154 0.64-0.71557zm25.385 0.40758c-0.264-0.17061-0.336-0.31019-0.16-0.31019s0.536 0.13958 0.8 0.31019 0.336 0.3102 0.16 0.3102-0.536-0.13959-0.8-0.3102zm-39.84-0.37247c-2.464-0.14931-5.2742-0.26425-6.2449-0.25543-0.97072 9e-3 -3.6347-0.12733-5.92-0.30255-2.2853-0.17522-5.7391-0.41475-7.6751-0.53228s-4.168-0.32355-4.96-0.45784c-1.1342-0.19231-1.2362-0.25401-0.48-0.2906 0.68575-0.0332 1.1859-0.35107 1.7509-1.1128 0.46576-0.62793 1.5515-1.4137 2.6409-1.9112 1.0175-0.46467 2.2601-0.84487 2.7613-0.84487s1.3648-0.15808 1.9191-0.3513c0.55426-0.19322 1.0078-0.4581 1.0078-0.58864 0-0.13053 0.324-0.38133 0.72-0.55733 0.396-0.17599 2.1515-0.26902 3.9012-0.20673 1.827 0.065 3.6462-0.0402 4.2736-0.24726 0.60083-0.19829 1.7745-1.0682 2.6082-1.9332 1.3243-1.374 1.7461-1.6101 3.3387-1.8693 1.0026-0.16317 2.0694-0.2026 2.3706-0.0876 0.30123 0.11499 0.81818 0.46029 1.1488 0.76732 0.37105 0.34458 0.52081 0.7675 0.3913 1.105-0.1154 0.30072-0.05073 1.0288 0.1437 1.6179 0.26971 0.81723 0.5347 1.0712 1.1178 1.0712 0.42038 0 1.2732-0.24267 1.8952-0.53927 0.62197-0.29659 1.1309-0.65659 1.1309-0.79999 0-0.14341 0.2239-0.26074 0.49756-0.26074 0.27366 0 1.1737-0.3123 2-0.694 0.82635-0.38171 1.8857-0.66839 2.354-0.63708 0.46836 0.0313 1.4359 0.31854 2.1501 0.6383 0.71421 0.31976 1.5812 0.94073 1.9267 1.3799 0.34547 0.43919 1.2181 0.97528 1.9391 1.1913 0.72104 0.21603 1.2317 0.52104 1.1348 0.6778-0.09688 0.15676 0.07896 0.26905 0.39076 0.24953 0.3118-0.0195 0.90895 0.0766 1.327 0.21365 0.55946 0.18338 0.69669 0.14658 0.51993-0.13943-0.17285-0.27968-0.04733-0.32737 0.44796-0.17016 0.45708 0.14507 0.65855 0.0903 0.60007-0.16324-0.05242-0.22722 0.32041-0.39882 0.92147-0.42411 0.55523-0.0234 0.94273 0.0655 0.86111 0.19751-0.08162 0.132-0.35785 0.24-0.61385 0.24-0.256 0-0.78462 0.18-1.1747 0.4-0.3901 0.22-0.87132 0.6034-1.0694 0.852-0.23935 0.30041-0.56343 0.36386-0.96639 0.18919-0.33345-0.14453-0.72498-0.23636-0.87006-0.20406-0.14508 0.0323-0.16104-0.10752-0.03546-0.31071 0.14135-0.22871 0.05898-0.31158-0.21621-0.21755-0.2445 0.0835-1.0925-0.12756-1.8845-0.46911-1.0813-0.4663-1.8964-0.58126-3.2719-0.46146-1.1141 0.097-2.3053 0.44851-3.04 0.89698-0.66443 0.40558-2.0508 1.5356-3.0809 2.5111-1.03 0.97551-1.966 1.7736-2.08 1.7736-0.11396 0-0.16614 0.12316-0.11597 0.27369 0.05017 0.15052-0.07546 0.47452-0.27918 0.72-0.20372 0.24547-0.67678 0.42359-1.0512 0.39581-0.37445-0.0278-2.6968-0.17267-5.1608-0.32197zm-1.68-0.79946c-0.22-0.0888-0.58-0.0888-0.8 0s-0.04 0.16141 0.4 0.16141 0.62-0.0726 0.4-0.16141zm-2.0867-0.6214c-0.10634-0.10633-0.38234-0.1177-0.61333-0.0252-0.25527 0.10215-0.17945 0.17798 0.19333 0.19333 0.33733 0.0139 0.52633-0.0617 0.42-0.16807zm9.1624-1.8867c-0.12008-0.31292-0.61781-0.48-1.43-0.48-0.68517 0-1.2458 0.13573-1.2458 0.3016 0 0.16589 0.612 0.35673 1.36 0.4241 0.748 0.0674 1.3915 0.14765 1.43 0.1784 0.03847 0.0307-0.01293-0.1601-0.11424-0.4241zm13.463-3.0727c-0.34032-0.13326-0.75428-0.25243-0.91992-0.26479-0.16564-0.0124-0.02323 0.18074 0.31647 0.42913 0.3397 0.24839 0.75366 0.36755 0.91992 0.2648 0.16626-0.10276 0.02384-0.29587-0.31647-0.42914zm-23.382-0.99757c-0.11935-0.19311-0.30447-0.14747-0.47158 0.11626-0.1513 0.23879-0.2773 0.5598-0.28 0.71334-0.0026 0.15356 0.20952 0.10124 0.47158-0.11625 0.26206-0.2175 0.38806-0.5385 0.28-0.71335zm43.585 5.2257c-0.10033-0.16234-0.47028-0.2199-0.82211-0.12789-0.35182 0.092-0.63968 0.0951-0.63968 7e-3 0-0.0883 0.35493-0.39308 0.78874-0.67732 0.73997-0.48485 0.80928-0.47843 1.1209 0.10377 0.20201 0.37746 0.21508 0.69292 0.0334 0.80522-0.16432 0.10155-0.38085 0.0518-0.48119-0.11054zm-6.5818-3.0753c0-0.27734 0.19054-0.38679 0.48-0.27572 0.264 0.10131 0.48 0.22538 0.48 0.27572 0 0.0503-0.216 0.17442-0.48 0.27573-0.28946 0.11107-0.48 2e-3 -0.48-0.27573zm6.4-1.2322c0-0.0617 0.15961-0.57011 0.35469-1.1297 0.19738-0.56621 0.75506-1.2245 1.2574-1.4843 0.55099-0.28493 1.2855-0.39023 1.8853-0.27028 0.54043 0.10809 0.98261 0.30712 0.98261 0.44229s-0.20242 0.32344-0.44982 0.41837c-0.24741 0.0949-0.54685 0.61435-0.66543 1.1542-0.20499 0.93329-0.29313 0.98162-1.7902 0.98162-0.86601 0-1.5746-0.0505-1.5746-0.11225zm-13.44-0.34523c0-0.088 0.288-0.31413 0.64-0.50252 0.352-0.18838 0.64-0.27051 0.64-0.18251s-0.288 0.31413-0.64 0.50251c-0.352 0.18839-0.64 0.27052-0.64 0.18252zm2.5511-1.7522c0.43508-0.34115 0.88799-0.56036 1.0065-0.48714 0.11848 0.0732 0.29107-0.064 0.38353-0.30498 0.09247-0.24096 0.61156-0.50319 1.1535-0.58273 0.54198-0.0795 0.98541-0.11211 0.98541-0.0724 0 0.0397-0.612 0.39168-1.36 0.78207s-1.72 0.83931-2.16 0.99761l-0.8 0.2878zm3.0512-2.2667c-0.11211-0.1814 0.0164-0.23504 0.30111-0.12577 0.27314 0.10482 0.49662 0.24717 0.49662 0.31634 0 0.0692-0.1355 0.12576-0.30111 0.12576-0.16562 0-0.3891-0.14235-0.49662-0.31633zm0.69586-0.31029c-0.43424-0.43926-0.48258-0.64993-0.19055-0.83042 0.26816-0.16573 0.30887-0.10847 0.12937 0.18198-0.19019 0.30774-0.11609 0.36785 0.27056 0.21949 0.38552-0.14794 0.53249-0.0305 0.53249 0.42562 0 0.34647-0.036 0.6214-0.08 0.61094-0.044-0.0105-0.34184-0.28389-0.66187-0.60761zm1.0619-0.31449c0-0.16561 0.14235-0.38909 0.31634-0.49662 0.18139-0.11211 0.23504 0.0164 0.12576 0.30111-0.10482 0.27315-0.24717 0.49662-0.31634 0.49662-0.0692 0-0.12576-0.1355-0.12576-0.30111zm4.48-0.0189c0-0.176 0.2245-0.32 0.49889-0.32 0.27438 0 0.40988 0.144 0.30111 0.32s-0.33327 0.32-0.49889 0.32c-0.16561 0-0.30111-0.144-0.30111-0.32zm-2.56-0.88108c0.616-0.34392 2.056-0.71116 3.2-0.81609l2.08-0.19079-1.6 0.45907c-0.88 0.25249-1.7707 0.39738-1.9793 0.32196-0.20864-0.0754-0.42464-5e-3 -0.48 0.15766-0.0554 0.16213-0.60468 0.38449-1.2207 0.49414l-1.12 0.19935zm5.8768-0.78885c-0.085-0.13754 0.21395-0.25007 0.66433-0.25007 0.45039 0 0.81889 0.13505 0.81889 0.30012 0 0.16506-0.29895 0.27759-0.66433 0.25007-0.36539-0.0275-0.73389-0.16258-0.81889-0.30012zm-3.6968-0.46866c0.231-0.0924 0.507-0.0811 0.61333 0.0252 0.10634 0.10633-0.0827 0.18196-0.42 0.16807-0.37278-0.0154-0.4486-0.0912-0.19333-0.19333zm-92.178-14.132c-0.6591-0.2911-1.1991-0.67463-1.2-0.85229-8.96e-4 -0.17767-0.31641-0.51961-0.70114-0.75988l-0.69951-0.43685 0.82749-0.43356c0.45512-0.23846 1.6214-0.52688 2.5918-0.64093 0.97039-0.11405 2.2669-0.11309 2.8811 2e-3 0.61423 0.11523 1.2003 0.42704 1.3023 0.69292 0.11091 0.28902-0.03752 0.56344-0.3691 0.68244-0.30503 0.10947-1.006 0.68002-1.5578 1.2679-0.55174 0.58787-1.1997 1.055-1.44 1.0381-0.24026-0.0169-0.97611-0.2689-1.6352-0.56zm41.033-0.577c-0.48276-0.20299-0.97175-0.52115-1.0866-0.70704-0.11488-0.18588 0.22783-0.5638 0.76158-0.83982 0.53376-0.27601 0.97046-0.62674 0.97046-0.77939s0.23597-0.36809 0.52438-0.47877c0.28841-0.11067 1.8878-0.34259 3.5541-0.51539 1.6664-0.17279 4.0164-0.61385 5.2223-0.98013s2.3318-0.57993 2.5019-0.47478c0.17014 0.10515 0.68014 0.0222 1.1333-0.18425 0.45319-0.20648 0.82398-0.55483 0.82398-0.7741 0-0.24113-0.25291-0.33254-0.64-0.23132-0.45821 0.11983-0.64 0.01-0.64-0.38728 0-0.39599 0.18198-0.50705 0.6362-0.38827 0.36111 0.0944 0.97099-0.097 1.4105-0.44268 0.42585-0.33498 1.0036-0.60905 1.2838-0.60905s0.50953-0.12839 0.50953-0.28531c0-0.15692 0.324-0.36925 0.72-0.47183 0.52348-0.13561 0.85704-0.62346 1.2221-1.7873 0.2977-0.94914 0.37626-1.6427 0.193-1.7038-0.19622-0.06541-0.18715-0.56472 0.02483-1.3674 0.20989-0.79468 0.34622-1.0006 0.367-0.55438 0.02256 0.4846 0.18158 0.65297 0.50094 0.53042 0.26883-0.10316 0.81336 0.19325 1.28 0.69677 0.44668 0.48197 0.81214 0.99928 0.81214 1.1496s0.1525 0.27327 0.33889 0.27327c0.18639 0 0.23614-0.16625 0.11056-0.36944-0.15649-0.2532-0.08692-0.28092 0.22111-0.0881 0.24719 0.15474 0.77344 0.32591 1.1694 0.38039 0.396 0.05448 0.72-0.06666 0.72-0.2692 0-0.21905-0.32021-0.30704-0.79032-0.21717-0.43467 0.08309-0.71597 0.03079-0.62511-0.11623 0.09086-0.14702 1.0225-0.1777 2.0703-0.06819 1.274 0.13316 1.9051 0.08461 1.9051-0.14658 0-0.19013 0.252-0.34204 0.56-0.33757 0.308 0.0045 1.1804-0.22266 1.9387-0.50475 0.75827-0.28208 1.6943-0.70609 2.08-0.94224 0.38573-0.23615 1.5374-0.6819 2.5592-0.99056 1.0219-0.30866 1.9387-0.48037 2.0375-0.38158 0.09879 0.09879 0.25665 0.87072 0.35082 1.7154 0.10398 0.93282 0.38697 1.6885 0.72076 1.9247 0.30225 0.21391 0.79587 0.90799 1.0969 1.5424 0.30105 0.63441 0.47532 1.3412 0.38726 1.5707-0.08805 0.22946 0.15241 0.57681 0.53436 0.77188 0.38195 0.19508 1.3425 0.49774 2.1345 0.67258s1.908 0.32142 2.48 0.32572c0.59121 4e-3 1.04 0.17353 1.04 0.39182 0 0.29867 0.08533 0.29867 0.384 0 0.2112-0.2112 0.60767-0.384 0.88104-0.384s0.85657 0.396 1.296 0.88 1.159 1.6338 1.599 2.555c0.5502 1.152 0.99984 1.6868 1.44 1.7128 0.41871 0.0247 0.30807 0.11854-0.32 0.27144-0.528 0.12855-1.392 0.45473-1.92 0.72486-0.54107 0.27682-2.3528 0.59018-4.1516 0.7181-1.7554 0.12482-6.7628 0.22053-11.128 0.21267-4.7823-9e-3 -8.4624-0.15603-9.2607-0.37099-0.7286-0.19619-2.1292-0.31348-3.1124-0.26065-1.3372 0.0719-2.0163-0.0562-2.695-0.50827-0.71446-0.47588-0.96158-0.51653-1.1626-0.19124-0.19803 0.32042-0.3241 0.29015-0.56198-0.13491-0.23311-0.41655-0.7829-0.55895-2.292-0.59364-1.1332-0.026-2.0821 0.1042-2.2107 0.30347-0.12396 0.19202-1.2917 0.50539-2.5949 0.6964-1.3032 0.191-2.4552 0.48405-2.56 0.65121-0.1048 0.16717-1.4703 0.35595-3.0344 0.41952-1.6966 0.069-3.1979-0.0333-3.7216-0.25348zm37.445-11.011c0-0.36239-0.144-0.56989-0.32-0.46112s-0.32 0.40527-0.32 0.65888c0 0.25361 0.144 0.46112 0.32 0.46112s0.32-0.2965 0.32-0.65888zm-92.16 10.259c0-0.64 0.16-0.96 0.48-0.96 0.264 0 0.48 0.2075 0.48 0.46112 0 0.25361-0.14635 0.55156-0.32522 0.66211s-0.24237 0.33505-0.14111 0.49889c0.10126 0.16383 0.031607 0.29788-0.15478 0.29788s-0.33889-0.432-0.33889-0.96zm112.32 0.27101c-0.616-0.16691-1.7562-0.44034-2.5337-0.60761-0.77754-0.16727-1.4855-0.37597-1.5733-0.46376-0.0878-0.0878 0.14387-0.15964 0.51481-0.15964 0.37095 0 0.77295-0.15937 0.89333-0.35416 0.15259-0.24689 0.30221-0.22266 0.49399 0.08 0.21119 0.3333 0.27624 0.29696 0.28-0.15644 3e-3 -0.32483 0.26947-0.97283 0.59283-1.44s0.68009-1.1047 0.79274-1.4166c0.11265-0.312 0.46008-0.66127 0.77207-0.77616s0.8777-0.50763 1.2571-0.87274c0.37942-0.36512 0.93946-0.86825 1.2445-1.1181 0.44052-0.36074 0.79248-0.38242 1.7101-0.10532 0.6355 0.1919 2.0058 0.6483 3.0451 1.0142 1.0393 0.36593 2.2705 0.66532 2.736 0.66532s1.001 0.1547 1.1901 0.34376c0.18907 0.18907 0.68587 0.39207 1.104 0.45111 0.41813 0.059 1.4082 0.20674 2.2002 0.32822 1.1637 0.17851 1.7777 0.0684 3.2-0.57363 0.968-0.43699 2.3437-1.3514 3.0571-2.032 0.71342-0.68061 1.5676-1.6972 1.8982-2.2592 0.45344-0.77076 0.90116-1.0724 1.8229-1.2281 0.67199-0.11353 1.2218-0.33777 1.2218-0.4983s0.9206-0.29187 2.0458-0.29187c1.6025 0 2.0895-0.11394 2.2475-0.5258 0.11097-0.28919 0.27799-0.44958 0.37115-0.35641 0.0932 0.09316 0.80978-0.02334 1.5925-0.25889 1.2274-0.3694 1.4231-0.36439 1.4231 0.03641 0 0.25558 0.144 0.46469 0.32 0.46469s0.32 0.18906 0.32 0.42013 0.396 0.78596 0.88 1.2331 1.1279 0.89999 1.431 1.0064c0.30305 0.10637 1.023 0.04276 1.6-0.14136 0.57696-0.18412 1.5075-0.56564 2.0678-0.84782 0.56031-0.28218 1.162-0.80946 1.3371-1.1717s0.61668-1.5592 0.98126-2.66 0.66607-2.2527 0.66999-2.56c4e-3 -0.3073 0.29522-0.91873 0.64735-1.3587l0.64023-0.8 0.95265 1.1079c0.52396 0.60935 0.95265 1.2934 0.95265 1.52 0 0.22665 0.11125 0.41209 0.24723 0.41209s0.49251 0.468 0.7923 1.04 0.7224 1.724 0.93914 2.56 0.49704 1.52 0.62288 1.52c0.12585 0 0.40364 0.54 0.61732 1.2s0.71164 1.848 1.1066 2.64c0.39495 0.792 0.82005 2.3281 0.94467 3.4136 0.21248 1.8508 0.18002 1.9996-0.52178 2.3927-0.51014 0.28572-2.1015 0.42146-4.9994 0.42643-2.4769 4e-3 -4.3466-0.12625-4.48-0.3127-0.12591-0.176-0.44493-0.34784-0.70893-0.38186-0.264-0.034-1.1099-0.2361-1.8798-0.44904-1.2247-0.33873-1.4369-0.32098-1.6959 0.14187-0.16283 0.29097-0.49291 0.52903-0.7335 0.52903-0.24058 0-0.48543-0.12009-0.54409-0.26688-0.0587-0.14679-1.1784-0.0838-2.4884 0.13989-2.2057 0.3767-2.4866 0.359-3.8004-0.23951-1.0583-0.48212-1.8758-0.61197-3.2183-0.51122-0.9898 0.0743-2.6636 0.32627-3.7196 0.56-1.056 0.23372-1.992 0.51783-2.08 0.63134-0.088 0.11352-1.4998 0.38105-3.1374 0.59453-1.6376 0.21347-3.1359 0.29015-3.3297 0.1704s-0.86993-0.29999-1.5026-0.40053-1.9423-0.16261-2.9103-0.13793c-0.968 0.0247-2.3901 0.27325-3.1602 0.55239-0.80315 0.2911-2.3042 0.49355-3.52 0.47477-1.1659-0.018-2.6238-0.16932-3.2398-0.33624zm62.549-0.92919c-0.11496-0.18601-0.12432-0.67561-0.0208-1.088 0.15266-0.6082 0.40026-0.74982 1.311-0.74982 0.61755 0 1.2022 0.1284 1.2992 0.28532 0.097 0.15693-0.18487 0.64653-0.62635 1.088-0.44147 0.44148-1.0167 0.80268-1.2783 0.80268s-0.56971-0.15218-0.68467-0.33818zm10.936-4.9418c-0.10131-0.264-0.49504-0.48-0.87495-0.48-0.63451 0-0.67845-0.1281-0.53958-1.5733 0.12665-1.318 0.0813-1.5035-0.27929-1.1429-0.23675 0.23676-0.43046 0.94475-0.43046 1.5733 0 0.92952-0.11947 1.1429-0.64 1.1429-0.53106 0-0.64-0.21333-0.64-1.2533 0-0.7168 0.17087-1.3103 0.39915-1.3864 0.246-0.082 0.12321-0.28072-0.32-0.51792-0.46444-0.24856-0.71915-0.68164-0.71915-1.2228 0-0.57284-0.42175-1.2273-1.3332-2.0687-0.73329-0.67696-1.5253-1.2308-1.76-1.2308-0.23472 0-0.42676-0.216-0.42676-0.48s-0.12089-0.48-0.26863-0.48c-0.14775 0-0.43267-0.36-0.63315-0.8-0.3084-0.67686-0.28346-0.8 0.16198-0.8 0.28955 0 0.46647-0.05174 0.39313-0.11498-0.0733-0.06324-0.54139-0.21301-1.0401-0.33283-0.49875-0.11981-0.84077-0.10407-0.76004 0.03498 0.0807 0.13905 0.0309 0.54083-0.1107 0.89283-0.23393 0.58149-0.25992 0.56686-0.28433-0.16-0.0148-0.44-0.10838-1.1037-0.20802-1.4749-0.1509-0.56218-5e-3 -0.71014 0.87415-0.88596 0.58042-0.11608 1.9846-0.58286 3.1205-1.0373 1.954-0.78171 2.4501-0.8339 9.2102-0.96901l7.145-0.1428v12.911l-1.68-0.207c-0.924-0.11385-2.436-0.19677-3.36-0.18427-0.96595 0.01307-1.68-0.11893-1.68-0.31058 0-0.18332-0.288-0.08672-0.64 0.21467-0.352 0.30139-0.64 0.84398-0.64 1.2058s-0.28964 0.90577-0.64366 1.2089c-0.35401 0.30311-0.7706 0.55111-0.92576 0.55111s-0.36499-0.216-0.4663-0.48zm-177.96-6.3025c-0.528-0.19623-1.608-0.87443-2.4-1.5071-0.792-0.63269-1.5458-1.2943-1.6751-1.4703-0.1293-0.176-0.2373-0.42526-0.24-0.5539-0.00269-0.12865 0.35917-0.32528 0.80415-0.43696s1.561-0.23396 2.48-0.27173c0.91902-0.03777 2.5815-0.26452 3.6945-0.50389 1.7191-0.36975 2.0647-0.36849 2.2977 0.0084 0.15398 0.24914 0.14812 0.67913-0.01336 0.98087-0.15814 0.29549-0.22866 1.0025-0.1567 1.571 0.08559 0.6763-0.05624 1.2332-0.41014 1.6103-0.29754 0.3171-1.189 0.6561-1.981 0.75332-0.792 0.09722-1.872 0.01621-2.4-0.18001zm64.48-4.0975c0-0.176 0.1525-0.32 0.33889-0.32 0.18639 0 0.24989 0.144 0.14111 0.32s-0.26127 0.32-0.33889 0.32c-0.07761 0-0.14111-0.144-0.14111-0.32z" fill="#808080" stroke-width=".32"/>
 </g>
</svg>
