<?xml version="1.0" encoding="UTF-8" standalone="no"?>
<!-- Created with Inkscape (http://www.inkscape.org/) -->

<svg
   version="1.1"
   id="svg680"
   width="322"
   height="322.82788"
   viewBox="0 0 322 322.82788"
   xmlns="http://www.w3.org/2000/svg"
   xmlnsSvg="http://www.w3.org/2000/svg">
  <defs
     id="defs684" />
  <g
     id="g686"
     transform="translate(190.38691,-24.816533)">
    <g
       id="g690"
       transform="translate(-201.38691,14.695084)">
      <path
         style="fill:#fcf9fe"
         d="m 168.8125,274.31689 c 0.72187,-0.28887 1.58437,-0.25335 1.91667,0.0789 0.33229,0.33229 -0.25834,0.56864 -1.3125,0.52522 -1.16495,-0.048 -1.4019,-0.28494 -0.60417,-0.60416 z M 100.87244,246.25 c -1.243866,-1.58606 -1.208496,-1.62143 0.37756,-0.37756 0.9625,0.75485 1.75,1.54235 1.75,1.75 0,0.82304 -0.82119,0.29331 -2.12756,-1.37244 z M 243.5,245 c 0.99549,-1.1 2.03498,-2 2.30998,-2 0.275,0 -0.31449,0.9 -1.30998,2 -0.99549,1.1 -2.03498,2 -2.30998,2 -0.275,0 0.31449,-0.9 1.30998,-2 z M 96.872445,242.25 c -1.243871,-1.58606 -1.208501,-1.62143 0.377555,-0.37756 0.9625,0.75485 1.75,1.54235 1.75,1.75 0,0.82304 -0.821186,0.29331 -2.127555,-1.37244 z"
         id="path968" />
      <path
         style="fill:#f9f9fe"
         d="m 96,102.62244 c 0,-0.20765 0.7875,-0.99515 1.75,-1.75 1.586056,-1.243866 1.621426,-1.208496 0.377555,0.37756 C 96.821186,102.91575 96,103.44548 96,102.62244 Z"
         id="path966" />
      <path
         style="fill:#f4f9fe"
         d="m 243.87244,99.25 c -1.24387,-1.586056 -1.2085,-1.621426 0.37756,-0.377555 1.66575,1.306365 2.19548,2.127555 1.37244,2.127555 -0.20765,0 -0.99515,-0.7875 -1.75,-1.75 z M 99,99.622445 c 0,-0.207656 0.7875,-0.995156 1.75,-1.75 1.58606,-1.243871 1.62143,-1.208501 0.37756,0.377555 C 99.821186,99.915748 99,100.44548 99,99.622445 Z"
         id="path964" />
      <path
         style="fill:#e4ebfe"
         d="m 175.8125,10.316886 c 0.72187,-0.288871 1.58437,-0.253344 1.91667,0.07895 0.33229,0.332292 -0.25834,0.568641 -1.3125,0.52522 -1.16495,-0.04798 -1.4019,-0.284941 -0.60417,-0.604167 z"
         id="path962" />
      <path
         style="fill:#ebe3fe"
         d="m 236,236.5 c 1.29175,-1.375 2.57363,-2.5 2.84863,-2.5 0.275,0 -0.55688,1.125 -1.84863,2.5 -1.29175,1.375 -2.57363,2.5 -2.84863,2.5 -0.275,0 0.55688,-1.125 1.84863,-2.5 z m -129.12756,-0.25 c -1.24387,-1.58606 -1.2085,-1.62143 0.37756,-0.37756 0.9625,0.75485 1.75,1.54235 1.75,1.75 0,0.82304 -0.82119,0.29331 -2.12756,-1.37244 z M 282,198.62244 c 0,-0.20765 0.7875,-0.99515 1.75,-1.75 1.58606,-1.24387 1.62143,-1.2085 0.37756,0.37756 C 282.82119,198.91575 282,199.44548 282,198.62244 Z"
         id="path960" />
      <path
         style="fill:#ebd3fe"
         d="m 196,284.62244 c 0,-0.20765 0.7875,-0.99515 1.75,-1.75 1.58606,-1.24387 1.62143,-1.2085 0.37756,0.37756 C 196.82119,284.91575 196,285.44548 196,284.62244 Z"
         id="path958" />
      <path
         style="fill:#e3dbfe"
         d="m 282.87244,146.25 c -1.24387,-1.58606 -1.2085,-1.62143 0.37756,-0.37756 1.66575,1.30637 2.19548,2.12756 1.37244,2.12756 -0.20765,0 -0.99515,-0.7875 -1.75,-1.75 z"
         id="path956" />
      <path
         style="fill:#d2e9fe"
         d="m 235.87244,107.25 c -1.24387,-1.58606 -1.2085,-1.62143 0.37756,-0.37756 1.66575,1.30637 2.19548,2.12756 1.37244,2.12756 -0.20765,0 -0.99515,-0.7875 -1.75,-1.75 z"
         id="path954" />
      <path
         style="fill:#d3dafe"
         d="m 145,61.622445 c 0,-0.207656 0.7875,-0.995156 1.75,-1.75 1.58606,-1.243871 1.62143,-1.208501 0.37756,0.377555 C 145.82119,61.915748 145,62.445479 145,61.622445 Z"
         id="path952" />
      <path
         style="fill:#dbc3fe"
         d="m 244,243.5 c 1.29175,-1.375 2.57363,-2.5 2.84863,-2.5 0.275,0 -0.55688,1.125 -1.84863,2.5 -1.29175,1.375 -2.57363,2.5 -2.84863,2.5 -0.275,0 0.55688,-1.125 1.84863,-2.5 z"
         id="path950" />
      <path
         style="fill:#dbbcfe"
         d="M 99.404988,243.75 97.5,241.5 l 2.25,1.90499 c 2.11444,1.79022 2.70524,2.59501 1.90499,2.59501 -0.18976,0 -1.20226,-1.0125 -2.250002,-2.25 z"
         id="path948" />
      <path
         style="fill:#c4d2fe"
         d="m 80.157895,172 c 0,-1.375 0.226973,-1.9375 0.504386,-1.25 0.277412,0.6875 0.277412,1.8125 0,2.5 -0.277413,0.6875 -0.504386,0.125 -0.504386,-1.25 z m 182.999995,0 c 0,-1.375 0.22698,-1.9375 0.50439,-1.25 0.27741,0.6875 0.27741,1.8125 0,2.5 -0.27741,0.6875 -0.50439,0.125 -0.50439,-1.25 z"
         id="path946" />
      <path
         style="fill:#c3ccfe"
         d="m 80.078947,175.41667 c 0.04798,-1.16495 0.284941,-1.4019 0.604167,-0.60417 0.288871,0.72187 0.253344,1.58437 -0.07895,1.91667 -0.332292,0.33229 -0.568641,-0.25834 -0.52522,-1.3125 z"
         id="path944" />
      <path
         style="fill:#e1aafe"
         d="m 159.87375,272.96318 c -6.87503,-0.80302 -21.01841,-4.35537 -23.7872,-5.97455 -0.99543,-0.58213 12.38527,-0.92781 35.91345,-0.92781 23.52818,0 36.90888,0.34568 35.91345,0.92781 -2.92494,1.7105 -16.33118,4.92931 -24.88722,5.97537 -9.369,1.14545 -13.33999,1.14531 -23.15248,-8.2e-4 z"
         id="path942" />
      <path
         style="fill:#ddacfe"
         d="m 125,261.953 -5.5,-2.95265 13,0.36738 c 8.0158,0.22653 15.6838,1.05085 20,2.15003 10.40772,2.65048 29.36142,2.49366 40.82896,-0.33779 6.51243,-1.60799 11.75999,-2.16759 20,-2.13279 L 224.5,259.09436 219,262 l -5.5,2.90564 H 172 130.5 Z"
         id="path940" />
      <path
         style="fill:#deaafe"
         d="m 151.75,265.25119 c 11.1375,-0.16093 29.3625,-0.16093 40.5,0 11.1375,0.16094 2.025,0.29261 -20.25,0.29261 -22.275,0 -31.3875,-0.13167 -20.25,-0.29261 z"
         id="path938" />
      <path
         style="fill:#d9acfe"
         d="m 115,256 -4.5,-2.99144 9.16021,-0.004 c 8.10661,-0.004 9.88941,0.34069 15.5,2.99493 l 6.33979,2.99921 -11,-0.003 C 119.95705,258.99158 119.31302,258.86714 115,256 Z m 93.83979,-7.9e-4 c 5.61059,-2.65424 7.39339,-2.99872 15.5,-2.99493 L 233.5,253.00856 229,256 c -4.31302,2.86714 -4.95705,2.99158 -15.5,2.99493 l -11,0.003 6.33979,-2.99921 z"
         id="path936" />
      <path
         style="fill:#d5adfe"
         d="m 106.41661,249.54163 -3.91661,-3.45838 7.5,-0.016 c 6.8614,-0.0147 7.96436,0.27981 12.95366,3.45838 l 5.45366,3.4744 h -9.03705 c -8.88567,0 -9.10266,-0.0579 -12.95366,-3.45837 z m 114.62973,-0.016 c 4.98679,-3.17697 6.09572,-3.47339 12.95366,-3.46246 l 7.5,0.0119 -4,3.44758 c -3.91244,3.37211 -4.196,3.4479 -12.95366,3.46245 l -8.95366,0.0149 5.45366,-3.4744 z"
         id="path934" />
      <path
         style="fill:#d1aefe"
         d="m 98.088925,241.59061 -4.327491,-4.40939 6.570166,-0.34061 6.57016,-0.34061 4.97478,4.75 4.97477,4.75 h -7.21745 c -7.21109,0 -7.22126,-0.004 -11.544935,-4.40939 z M 232.02136,241.25 l 5.16086,-4.75 6.52817,0.34061 6.52818,0.34061 -4.32749,4.40939 -4.3275,4.40939 h -7.36154 -7.36154 z"
         id="path932" />
      <path
         style="fill:#ccb0fe"
         d="m 91.43641,233.75 -2.741378,-3.25 5.791352,-0.30405 c 5.164847,-0.27115 6.100866,-0.008 8.652486,2.43709 1.57362,1.50763 2.86113,3.10695 2.86113,3.55405 0,0.4471 -2.66,0.81291 -5.91111,0.81291 -5.439936,0 -6.129614,-0.25905 -8.65248,-3.25 z M 238,236.18709 c 0,-0.4471 1.28751,-2.04642 2.86113,-3.55405 2.55162,-2.4446 3.48764,-2.70824 8.65249,-2.43709 l 5.79135,0.30405 -2.74138,3.25 c -2.52287,2.99095 -3.21254,3.25 -8.65248,3.25 C 240.66,237 238,236.63419 238,236.18709 Z"
         id="path930" />
      <path
         style="fill:#c9b0fe"
         d="M 87.240547,228.01357 C 85.411971,225.08555 85.528493,225 91.345012,225 c 3.90817,0 5.789906,0.4916 7,1.82874 2.549748,2.81744 2.091818,3.17126 -4.104465,3.17126 -4.663333,0 -5.99555,-0.37805 -7,-1.98643 z M 244,229.15499 C 244,226.85344 247.93829,225 252.82874,225 c 5.44701,0 5.93062,0.41588 3.77921,3.25 -0.98894,1.30277 -2.76973,1.75 -6.96819,1.75 C 246.53789,230 244,229.61974 244,229.15499 Z"
         id="path928" />
      <path
         style="fill:#c5b1fe"
         d="m 83.5,222 -1.55136,-3 h 5.457586 c 4.922609,0 5.666984,0.29407 7.593774,3 l 2.136188,3 h -6.042414 c -5.70238,0 -6.129716,-0.16882 -7.593774,-3 z m 165.5,0 c 1.92679,-2.70593 2.67117,-3 7.59377,-3 h 5.45759 L 260.5,222 c -1.46406,2.83118 -1.89139,3 -7.59377,3 h -6.04242 z"
         id="path926" />
      <path
         style="fill:#a2d4fe"
         d="m 170.25,80.310674 c 0.9625,-0.251527 2.5375,-0.251527 3.5,0 0.9625,0.251528 0.175,0.457323 -1.75,0.457323 -1.925,0 -2.7125,-0.205795 -1.75,-0.457323 z"
         id="path924" />
      <path
         style="fill:#c1b2fe"
         d="M 80.52568,216.04966 C 79.686556,214.42697 79,212.85197 79,212.54966 79,212.24735 81.391654,212 84.314788,212 c 5.089465,0 5.385547,0.14838 6.983821,3.5 l 1.669034,3.5 h -5.458141 c -5.032773,0 -5.577042,-0.22993 -6.983822,-2.95034 z M 252.70139,215.5 c 1.59828,-3.35162 1.89436,-3.5 6.98382,-3.5 2.92314,0 5.31479,0.24735 5.31479,0.54966 0,0.30231 -0.68656,1.87731 -1.52568,3.5 C 262.06754,218.77007 261.52327,219 256.4905,219 h -5.45814 z"
         id="path922" />
      <path
         style="fill:#bdb2fe"
         d="m 77.730085,210.25 c -0.276748,-0.9625 -0.827377,-2.5375 -1.22362,-3.5 -0.630527,-1.53159 -0.08626,-1.75 4.360866,-1.75 4.615479,0 5.221176,0.27047 6.606989,2.95034 0.839124,1.62269 1.52568,3.19769 1.52568,3.5 C 89,211.75265 86.577484,212 83.616631,212 c -4.268664,0 -5.487559,-0.36236 -5.886546,-1.75 z M 255,211.45034 c 0,-0.30231 0.68656,-1.87731 1.52568,-3.5 1.38581,-2.67987 1.99151,-2.95034 6.60699,-2.95034 4.44713,0 4.99139,0.21841 4.36087,1.75 -0.39625,0.9625 -0.94688,2.5375 -1.22362,3.5 -0.39899,1.38764 -1.61789,1.75 -5.88655,1.75 C 257.42252,212 255,211.75265 255,211.45034 Z"
         id="path920" />
      <path
         style="fill:#9bd2fe"
         d="m 97,102.62244 c 0,-0.20765 0.7875,-0.99515 1.75,-1.75 1.58606,-1.243866 1.62143,-1.208496 0.377555,0.37756 C 97.821186,102.91575 97,103.44548 97,102.62244 Z"
         id="path918" />
      <path
         style="fill:#b9b4fe"
         d="M 74.975249,202.4349 C 73.420239,198.34491 73.725645,198 78.902175,198 c 4.599412,0 4.969977,0.1945 6,3.14922 C 85.505979,202.8813 86,204.4563 86,204.64922 86,204.84215 83.738862,205 80.975249,205 c -4.473607,0 -5.131722,-0.28135 -6,-2.5651 z M 258,204.64922 c 0,-0.19292 0.49402,-1.76792 1.09783,-3.5 1.03002,-2.95472 1.40058,-3.14922 6,-3.14922 5.17653,0 5.48193,0.34491 3.92692,4.4349 -0.86828,2.28375 -1.52639,2.5651 -6,2.5651 C 260.26114,205 258,204.84215 258,204.64922 Z"
         id="path916" />
      <path
         style="fill:#b5b5fe"
         d="m 73.697275,197.25 c -0.231417,-0.4125 -0.716548,-1.9875 -1.078069,-3.5 C 71.96858,191.02797 72.012937,191 76.980948,191 79.741427,191 82,191.11547 82,191.2566 c 0,0.14113 0.418587,1.71613 0.930194,3.5 L 83.860389,198 h -4.871178 c -2.679147,0 -5.060518,-0.3375 -5.291936,-0.75 z m 187.215635,-2.5 c 0.63327,-3.11688 0.87519,-3.26243 5.90615,-3.55338 l 5.24584,-0.30339 -0.67071,2.80339 C 270.3863,197.90934 270.25301,198 265.06728,198 h -4.81468 z"
         id="path914" />
      <path
         style="fill:#b1b6fe"
         d="m 71.986345,189.75 c -0.0075,-0.6875 -0.284994,-2.2625 -0.616631,-3.5 -0.567799,-2.11874 -0.304475,-2.25 4.513655,-2.25 3.419356,0 5.12116,0.41465 5.130286,1.25 0.0075,0.6875 0.284994,2.2625 0.616631,3.5 0.567799,2.11874 0.304475,2.25 -4.513655,2.25 -3.419356,0 -5.12116,-0.41465 -5.130286,-1.25 z m 190.383365,-1 c 0.33164,-1.2375 0.60913,-2.8125 0.61664,-3.5 0.009,-0.83535 1.71093,-1.25 5.13028,-1.25 4.81813,0 5.08146,0.13126 4.51366,2.25 -0.33164,1.2375 -0.60913,2.8125 -0.61664,3.5 -0.009,0.83535 -1.71093,1.25 -5.13028,1.25 -4.81813,0 -5.08146,-0.13126 -4.51366,-2.25 z"
         id="path912" />
      <path
         style="fill:#adb6fe"
         d="m 70.83851,180.75 -0.380301,-3.25 4.520895,0.36512 c 4.650655,0.3756 5.978988,1.34546 6.005583,4.38488 0.01252,1.4302 -0.878406,1.75 -4.875281,1.75 -4.772916,0 -4.899745,-0.0782 -5.270896,-3.25 z m 192.1768,1.5 c 0.0266,-3.03942 1.35493,-4.00928 6.00559,-4.38488 l 4.52089,-0.36512 -0.3803,3.25 c -0.37115,3.1718 -0.49798,3.25 -5.2709,3.25 -3.99687,0 -4.88779,-0.3198 -4.87528,-1.75 z"
         id="path910" />
      <path
         style="fill:#a9b8fe"
         d="m 70,173.5 c 0,-2.33333 0.333333,-2.5 5,-2.5 4.666667,0 5,0.16667 5,2.5 0,2.33333 -0.333333,2.5 -5,2.5 -4.666667,0 -5,-0.16667 -5,-2.5 z m 194,0 c 0,-2.33333 0.33333,-2.5 5,-2.5 4.66667,0 5,0.16667 5,2.5 0,2.33333 -0.33333,2.5 -5,2.5 -4.66667,0 -5,-0.16667 -5,-2.5 z"
         id="path908" />
      <path
         style="fill:#aab6fe"
         d="m 70.5,177 c -0.380914,-0.61633 1.322949,-1 4.440983,-1 C 77.723442,176 80,176.45 80,177 c 0,0.55 -1.998442,1 -4.440983,1 -2.442541,0 -4.719098,-0.45 -5.059017,-1 z m 193.5,0 c 0,-0.55 2.27656,-1 5.05902,-1 3.11803,0 4.82189,0.38367 4.44098,1 -0.33992,0.55 -2.61648,1 -5.05902,1 C 265.99844,178 264,177.55 264,177 Z"
         id="path906" />
      <path
         style="fill:#a5b8fe"
         d="M 70,169.08179 C 70,164.98025 71.081557,164 75.606989,164 79.960906,164 80,164.03115 80,167.5 v 3.5 h -5 c -4.262271,0 -5,-0.28302 -5,-1.91821 z M 263.81021,167.5 263.4016,164 h 4.68257 c 4.01067,0 4.76909,0.32285 5.28554,2.25 1.16942,4.36364 0.82289,4.75 -4.2603,4.75 -4.84476,0 -4.89443,-0.0328 -5.2992,-3.5 z"
         id="path904" />
      <path
         style="fill:#a1b9fe"
         d="m 71,160.25 v -3.75 h 5.252585 5.252584 l -0.35762,3.75 -0.35762,3.75 H 75.894965 71 Z m 191.85245,0 -0.35762,-3.75 H 267.74742 273 v 3.75 3.75 h -4.89496 -4.89497 z"
         id="path902" />
      <path
         style="fill:#9dbafe"
         d="m 72.182349,153.80755 c 0.309943,-3.22729 0.442221,-3.31479 5.451214,-3.60577 l 5.133563,-0.29822 -0.669789,3.29822 c -0.633213,3.11811 -0.930892,3.31501 -5.451214,3.60577 l -4.781425,0.30756 z M 262.69728,156.25 c -0.23142,-0.4125 -0.72258,-2.01152 -1.09147,-3.55338 l -0.67071,-2.80339 5.28245,0.30339 c 5.15606,0.29612 5.28995,0.38114 5.59581,3.55338 0.31162,3.23203 0.28845,3.25 -4.19098,3.25 -2.47739,0 -4.69369,-0.3375 -4.9251,-0.75 z"
         id="path900" />
      <path
         style="fill:#9abbfe"
         d="m 73,148.5 c 0,-1.13333 1.222222,-1.5 5,-1.5 3.777778,0 5,0.36667 5,1.5 0,1.13333 -1.222222,1.5 -5,1.5 -3.777778,0 -5,-0.36667 -5,-1.5 z m 188,0 c 0,-1.13333 1.22222,-1.5 5,-1.5 3.77778,0 5,0.36667 5,1.5 0,1.13333 -1.22222,1.5 -5,1.5 -3.77778,0 -5,-0.36667 -5,-1.5 z"
         id="path898" />
      <path
         style="fill:#98bcfe"
         d="m 74.180449,144.75 c 0.279569,-1.96848 0.992539,-2.28838 5.698307,-2.55672 4.641799,-0.2647 5.292609,-0.0822 4.75,1.33178 C 84.28294,144.42624 84,145.57677 84,146.08179 84,146.5868 81.718702,147 78.930449,147 c -4.685327,0 -5.045332,-0.17053 -4.75,-2.25 z M 260,146.08179 c 0,-0.50502 -0.28294,-1.65555 -0.62876,-2.55673 -0.5426,-1.41401 0.10821,-1.59648 4.75,-1.33178 4.70577,0.26834 5.41874,0.58824 5.69831,2.55672 0.29533,2.07947 -0.0647,2.25 -4.75,2.25 C 262.2813,147 260,146.5868 260,146.08179 Z"
         id="path896" />
      <path
         style="fill:#95bcfe"
         d="M 75.371244,140.47494 C 75.71706,139.57376 76,138.42323 76,137.91821 76,137.4132 78.460499,137 81.467776,137 c 5.248788,0 5.434636,0.0901 4.640329,2.25 -0.69182,1.8812 -1.691101,2.30028 -6.096532,2.55672 -4.540034,0.26429 -5.182088,0.08 -4.640329,-1.33178 z M 258.09797,139.75 c -0.79044,-2.12335 -0.55725,-2.26723 4.1428,-2.55609 5.60047,-0.34421 5.26888,-0.48086 6.20239,2.55609 0.65461,2.12961 0.41875,2.25 -4.408,2.25 -4.37364,0 -5.21884,-0.3203 -5.93719,-2.25 z"
         id="path894" />
      <path
         style="fill:#91bdfe"
         d="m 77,136.64922 c 0,-0.19292 0.480626,-1.7295 1.068058,-3.41461 1.005111,-2.88326 1.411503,-3.0836 6.89542,-3.39922 L 90.79084,129.5 88.875096,133.25 C 87.048847,136.82482 86.726725,137 81.979676,137 79.240854,137 77,136.84215 77,136.64922 Z m 178.1249,-3.39922 -1.91574,-3.75 5.82736,0.33539 c 5.48392,0.31562 5.89031,0.51596 6.89542,3.39922 0.58743,1.68511 1.06806,3.22169 1.06806,3.41461 0,0.19293 -2.24085,0.35078 -4.97968,0.35078 -4.74705,0 -5.06917,-0.17518 -6.89542,-3.75 z"
         id="path892" />
      <path
         style="fill:#8dbefe"
         d="m 80,129.5026 c 0,-0.33106 0.665643,-1.88913 1.479207,-3.46239 1.3341,-2.57987 2.056041,-2.89381 7.359395,-3.20034 L 94.718791,122.5 92.506635,126 c -2.000607,3.16529 -2.704389,3.52891 -7.359396,3.80226 C 82.316258,129.9685 80,129.83366 80,129.5026 Z M 253.25513,128.75 c -0.54437,-0.6875 -1.5153,-2.2625 -2.15763,-3.5 -1.14316,-2.20239 -1.05129,-2.25 4.34164,-2.25 5.08965,0 5.62576,0.22483 7.03518,2.95034 0.83912,1.62269 1.52568,3.19769 1.52568,3.5 0,1.13775 -9.79496,0.49933 -10.74487,-0.70034 z"
         id="path890" />
      <path
         style="fill:#88c0fe"
         d="m 87.5,116 c 0.339919,-0.55 3.318034,-1 6.618034,-1 3.745356,0 5.767759,0.37577 5.381966,1 -0.339919,0.55 -3.318034,1 -6.618034,1 -3.745356,0 -5.767759,-0.37577 -5.381966,-1 z m 157,0 c -0.38579,-0.62423 1.63661,-1 5.38197,-1 3.3,0 6.27811,0.45 6.61803,1 0.38579,0.62423 -1.63661,1 -5.38197,1 -3.3,0 -6.27811,-0.45 -6.61803,-1 z"
         id="path888" />
      <path
         style="fill:#89bffe"
         d="m 84.659071,120 c 1.647436,-2.78889 2.183353,-3 7.615554,-3 6.094228,0 6.304792,0.30665 2.918283,4.25 -1.086534,1.26519 -2.999293,1.75 -6.904432,1.75 h -5.401548 z m 162.999999,0 -1.77214,-3 h 5.84093 c 5.42944,0 5.96577,0.21135 7.61307,3 l 1.77214,3 h -5.84093 c -5.42944,0 -5.96577,-0.21135 -7.61307,-3 z"
         id="path886" />
      <path
         style="fill:#85c0fe"
         d="m 90,112 c 1.974046,-2.77229 2.599434,-3 8.239354,-3 4.302426,0 6.716496,-0.50794 8.181906,-1.72153 1.14331,-0.94684 0.0725,0.40316 -2.37947,3 C 99.713115,114.86282 99.413328,115 93.723698,115 h -5.859886 z m 151.5,0 -2.87418,-3 h 6.61899 c 6.21307,0 6.75001,0.18398 8.75519,3 l 2.13619,3 h -5.881 c -5.22908,0 -6.19962,-0.33256 -8.75519,-3 z"
         id="path884" />
      <path
         style="fill:#81c1fe"
         d="m 93.593087,107.75 c 2.371593,-4.16875 3.70228,-4.75006 10.811903,-4.7231 L 111.5,103.0538 108,106 c -2.9829,2.51092 -4.35824,2.95017 -9.309017,2.9731 -4.365254,0.0202 -5.632276,-0.28377 -5.097896,-1.2231 z M 235.58333,105.97222 232.66667,103 h 7.01168 c 5.43859,0 7.34885,0.39262 8.51456,1.75 3.4175,3.97943 3.19969,4.25121 -3.38389,4.22222 -5.65792,-0.0249 -6.61003,-0.33451 -9.22569,-3 z"
         id="path882" />
      <path
         style="fill:#cc73fe"
         d="m 264.8125,297.31689 c 0.72187,-0.28887 1.58438,-0.25335 1.91667,0.0789 0.33229,0.33229 -0.25834,0.56864 -1.3125,0.52522 -1.16495,-0.048 -1.4019,-0.28494 -0.60417,-0.60416 z"
         id="path880" />
      <path
         style="fill:#7dc2fe"
         d="m 101,99.5 c 3.31181,-3.416924 3.57938,-3.5 11.27276,-3.5 h 7.88043 l -4.58525,3.5 c -4.18436,3.194 -5.16993,3.5 -11.27276,3.5 H 97.607666 Z M 228.17226,99.422873 223.84452,96 h 7.88157 c 7.69469,0 7.96201,0.08299 11.27391,3.5 l 3.39233,3.5 -6.94616,-0.0771 c -6.3431,-0.0704 -7.32191,-0.3743 -11.27391,-3.499997 z"
         id="path878" />
      <path
         style="fill:#79c2fe"
         d="m 109,92.5 c 4.09871,-3.424376 4.38164,-3.5 13.09461,-3.5 4.89797,0 8.90539,0.191201 8.90539,0.424891 0,0.23369 -2.55491,1.80869 -5.67758,3.5 C 120.4357,95.57165 118.61167,96 112.2278,96 h -7.41703 z m 108.5,-0.08824 -6,-3.355532 9.65539,-0.02812 C 230.74231,89.000199 230.84048,89.024817 235,92.5 l 4.18923,3.5 -7.84462,-0.116352 C 224.41925,95.780931 222.79691,95.37409 217.5,92.411764 Z"
         id="path876" />
      <path
         style="fill:#75c4fe"
         d="M 118.95366,85.474404 124.40732,82 l 13.54634,0.0089 13.54634,0.0089 -10,3.470366 c -8.54566,2.965655 -11.30891,3.469652 -19,3.465461 l -9,-0.0049 5.45366,-3.474404 z M 202,85.402533 192.5,82.027727 206.04634,82.013864 219.59268,82 l 5.45366,3.474404 5.45366,3.474404 -9.5,-0.08573 c -8.11411,-0.07323 -10.88589,-0.578063 -19,-3.460541 z"
         id="path874" />
      <path
         style="fill:#c373fe"
         d="m 46.078947,265.41667 c 0.04798,-1.16495 0.284941,-1.4019 0.604167,-0.60417 0.288871,0.72187 0.253344,1.58438 -0.07895,1.91667 -0.332292,0.33229 -0.568641,-0.25834 -0.52522,-1.3125 z m 251.000003,0 c 0.048,-1.16495 0.28494,-1.4019 0.60416,-0.60417 0.28887,0.72187 0.25335,1.58438 -0.0789,1.91667 -0.33229,0.33229 -0.56864,-0.25834 -0.52522,-1.3125 z"
         id="path872" />
      <path
         style="fill:#72c4fe"
         d="m 128,80.578269 c 3.7389,-2.254402 84.2611,-2.254402 88,0 2.26199,1.363888 0.69113,1.444205 -16.5,0.843639 -10.45,-0.365067 -22.825,-0.663759 -27.5,-0.663759 -4.675,0 -17.05,0.298692 -27.5,0.663759 -17.19113,0.600566 -18.76199,0.520249 -16.5,-0.843639 z"
         id="path870" />
      <path
         style="fill:#70c5fe"
         d="m 136.36852,76.915618 c 4.4827,-1.818779 7.30643,-1.975319 35.63148,-1.975319 28.32505,0 31.14878,0.15654 35.63148,1.975319 L 212.5,78.890937 H 172 131.5 Z"
         id="path868" />
      <path
         style="fill:#6ec5fe"
         d="m 147.82409,73.443166 c 12.06537,-3.792245 36.28645,-3.792245 48.35182,0 3.86506,1.214819 1.29861,1.359097 -24.17591,1.359097 -25.47452,0 -28.04097,-0.144278 -24.17591,-1.359097 z"
         id="path866" />
      <path
         style="fill:#d15dfe"
         d="m 170.75,321.33772 c 0.6875,-0.27741 1.8125,-0.27741 2.5,0 0.6875,0.27741 0.125,0.50439 -1.25,0.50439 -1.375,0 -1.9375,-0.22698 -1.25,-0.50439 z"
         id="path864" />
      <path
         style="fill:#c748fe"
         d="m 165.8125,321.31689 c 0.72187,-0.28887 1.58437,-0.25335 1.91667,0.0789 0.33229,0.33229 -0.25834,0.56864 -1.3125,0.52522 -1.16495,-0.048 -1.4019,-0.28494 -0.60417,-0.60416 z"
         id="path862" />
      <path
         style="fill:#b956fe"
         d="m 231.8125,269.31689 c 0.72187,-0.28887 1.58437,-0.25335 1.91667,0.0789 0.33229,0.33229 -0.25834,0.56864 -1.3125,0.52522 -1.16495,-0.048 -1.4019,-0.28494 -0.60417,-0.60416 z"
         id="path860" />
      <path
         style="fill:#9b73fe"
         d="m 22.157895,172 c 0,-1.375 0.226973,-1.9375 0.504386,-1.25 0.277412,0.6875 0.277412,1.8125 0,2.5 -0.277413,0.6875 -0.504386,0.125 -0.504386,-1.25 z"
         id="path858" />
      <path
         style="fill:#a567fe"
         d="m 74.078947,232.41667 c 0.04798,-1.16495 0.284941,-1.4019 0.604167,-0.60417 0.288871,0.72187 0.253344,1.58437 -0.07895,1.91667 -0.332292,0.33229 -0.568641,-0.25834 -0.52522,-1.3125 z"
         id="path856" />
      <path
         style="fill:#9273fe"
         d="m 22.078947,168.41667 c 0.04798,-1.16495 0.284941,-1.4019 0.604167,-0.60417 0.288871,0.72187 0.253344,1.58437 -0.07895,1.91667 -0.332292,0.33229 -0.568641,-0.25834 -0.52522,-1.3125 z"
         id="path854" />
      <path
         style="fill:#b646fe"
         d="m 144.87244,283.25 c -1.24387,-1.58606 -1.2085,-1.62143 0.37756,-0.37756 0.9625,0.75485 1.75,1.54235 1.75,1.75 0,0.82304 -0.82119,0.29331 -2.12756,-1.37244 z"
         id="path852" />
      <path
         style="fill:#6a92fe"
         d="m 171.8125,22.316886 c 0.72187,-0.288871 1.58437,-0.253344 1.91667,0.07895 0.33229,0.332292 -0.25834,0.568641 -1.3125,0.52522 -1.16495,-0.04798 -1.4019,-0.284941 -0.60417,-0.604167 z"
         id="path850" />
      <path
         style="fill:#c535fe"
         d="m 148.87244,326.25 c -1.24387,-1.58606 -1.2085,-1.62143 0.37756,-0.37756 0.9625,0.75485 1.75,1.54235 1.75,1.75 0,0.82304 -0.82119,0.29331 -2.12756,-1.37244 z M 193,327.62244 c 0,-0.20765 0.7875,-0.99515 1.75,-1.75 1.58606,-1.24387 1.62143,-1.2085 0.37756,0.37756 C 193.82119,327.91575 193,328.44548 193,327.62244 Z"
         id="path848" />
      <path
         style="fill:#a74afe"
         d="m 269.07895,232.41667 c 0.048,-1.16495 0.28494,-1.4019 0.60416,-0.60417 0.28887,0.72187 0.25335,1.58437 -0.0789,1.91667 -0.33229,0.33229 -0.56864,-0.25834 -0.52522,-1.3125 z"
         id="path846" />
      <path
         style="fill:#b33afe"
         d="m 110.8125,269.31689 c 0.72187,-0.28887 1.58437,-0.25335 1.91667,0.0789 0.33229,0.33229 -0.25834,0.56864 -1.3125,0.52522 -1.16495,-0.048 -1.4019,-0.28494 -0.60417,-0.60416 z"
         id="path844" />
      <path
         style="fill:#7774fe"
         d="m 269.07895,111.41667 c 0.048,-1.16495 0.28494,-1.4019 0.60416,-0.60417 0.28887,0.72187 0.25335,1.58437 -0.0789,1.91667 -0.33229,0.33229 -0.56864,-0.25834 -0.52522,-1.3125 z"
         id="path842" />
      <path
         style="fill:#b333fe"
         d="m 62.872445,290.25 c -1.243871,-1.58606 -1.208501,-1.62143 0.377555,-0.37756 0.9625,0.75485 1.75,1.54235 1.75,1.75 0,0.82304 -0.821186,0.29331 -2.127555,-1.37244 z"
         id="path840" />
      <path
         style="fill:#c421fe"
         d="M 157.79918,331.41443 C 148.68275,328.60964 151.24748,328 172.16349,328 c 18.10286,0 20.05672,0.15746 18.1888,1.4658 -5.11718,3.58421 -23.63422,4.69264 -32.55311,1.94863 z"
         id="path838" />
      <path
         style="fill:#c223fe"
         d="M 149,325.5 146.65137,323 H 172 197.34863 L 195,325.5 192.65137,328 H 172 151.34863 Z"
         id="path836" />
      <path
         style="fill:#c024fe"
         d="m 145.14984,320 -1.0458,-3 h 5.48847 c 4.12247,0 6.24666,0.55999 8.53479,2.25 2.71776,2.00733 4.21445,2.25 13.87717,2.25 9.66404,0 11.15855,-0.24239 13.8727,-2.25 2.28551,-1.69055 4.40652,-2.25 8.53032,-2.25 h 5.48847 l -1.0458,3 -1.04581,3 H 172 146.19565 Z"
         id="path834" />
      <path
         style="fill:#bd25fe"
         d="m 143.63029,314.75 c -0.98033,-3.65808 -0.86337,-3.75 4.77188,-3.75 5.10335,0 5.46003,0.16595 6.44799,3 l 1.0458,3 h -5.83135 c -5.202,0 -5.89642,-0.24283 -6.43432,-2.25 z M 189.14984,314 c 0.98796,-2.83405 1.34464,-3 6.44799,-3 5.63525,0 5.75221,0.0919 4.77188,3.75 -0.5379,2.00717 -1.23232,2.25 -6.43432,2.25 h -5.83135 z"
         id="path832" />
      <path
         style="fill:#b829fe"
         d="m 141.63837,302.5 c -0.47202,-1.23008 0.49842,-1.5 5.39301,-1.5 4.63877,0 5.96862,0.33421 5.96862,1.5 0,1.14791 -1.26589,1.5 -5.39301,1.5 -3.8713,0 -5.55543,-0.42325 -5.96862,-1.5 z m 49.35981,-0.25 c -0.002,-1.50801 0.81921,-1.7036 5.93577,-1.41442 4.62066,0.26115 5.81722,0.6493 5.39484,1.75 -0.37502,0.97729 -2.20951,1.41442 -5.93578,1.41442 -4.46884,0 -5.39332,-0.29989 -5.39483,-1.75 z"
         id="path830" />
      <path
         style="fill:#b926fe"
         d="m 142.98635,309.75 c -0.008,-0.6875 -0.285,-2.2625 -0.61664,-3.5 -0.5718,-2.13369 -0.31867,-2.25 4.89703,-2.25 4.85837,0 5.57034,0.26248 6.10297,2.25 1.18725,4.43018 0.85936,4.75 -4.86971,4.75 -3.72605,0 -5.5044,-0.40317 -5.51365,-1.25 z m 47.0273,0 c 0.0531,-4.85702 1.09662,-5.75 6.71961,-5.75 5.2157,0 5.46883,0.11631 4.89703,2.25 -0.33164,1.2375 -0.60913,2.8125 -0.61664,3.5 -0.009,0.84683 -1.7876,1.25 -5.51365,1.25 -3.74062,0 -5.49563,-0.39986 -5.48635,-1.25 z"
         id="path828" />
      <path
         style="fill:#6778fe"
         d="m 110.8125,74.316886 c 0.72187,-0.288871 1.58437,-0.253344 1.91667,0.07895 0.33229,0.332292 -0.25834,0.568641 -1.3125,0.52522 -1.16495,-0.04798 -1.4019,-0.284941 -0.60417,-0.604167 z"
         id="path826" />
      <path
         style="fill:#b528fe"
         d="m 141,298 c 0,-2.9697 0.0556,-3 5.5,-3 5.44444,0 5.5,0.0303 5.5,3 0,2.9697 -0.0556,3 -5.5,3 -5.44444,0 -5.5,-0.0303 -5.5,-3 z m 51,0 c 0,-2.9697 0.0556,-3 5.5,-3 5.44444,0 5.5,0.0303 5.5,3 0,2.9697 -0.0556,3 -5.5,3 -5.44444,0 -5.5,-0.0303 -5.5,-3 z M 72.5,296 c -1.336437,-0.57429 0.65425,-0.85943 6,-0.85943 5.34575,0 7.336437,0.28514 6,0.85943 -1.1,0.47269 -3.8,0.85943 -6,0.85943 -2.2,0 -4.9,-0.38674 -6,-0.85943 z m 186.5,0 c -1.03364,-0.66799 0.98723,-0.95228 6.5,-0.9144 5.38753,0.037 7.34688,0.33563 6,0.9144 -2.74934,1.18143 -10.67186,1.18143 -12.5,0 z"
         id="path824" />
      <path
         style="fill:#b22afe"
         d="m 77.281186,295.00939 c -6.960333,-0.3846 -9.64643,-0.93812 -10.964286,-2.25939 -1.662149,-1.66646 -1.054999,-1.74848 12.718814,-1.7182 13.231918,0.0291 14.293885,0.16314 12.464286,1.57328 -3.507156,2.70309 -4.813604,2.924 -14.218814,2.40431 z M 139.2477,293.25 c -1.04043,-2.20944 -0.94405,-2.25 5.34639,-2.25 5.63564,0 6.40591,0.22936 6.40591,1.90745 0,1.59604 -0.87286,1.96338 -5.34639,2.25 -4.73744,0.30353 -5.46706,0.0863 -6.40591,-1.90745 z m 59.0023,1.94774 c -4.43292,-0.25522 -5.25,-0.60539 -5.25,-2.25 0,-1.73425 0.7259,-1.94774 6.62244,-1.94774 5.15832,0 6.40398,0.27636 5.63428,1.25 -0.5435,0.6875 -1.1611,1.7 -1.37245,2.25 -0.21135,0.55 -2.74677,0.86398 -5.63427,0.69774 z m 55.66781,-1.54594 C 252.31301,292.63529 251,291.62279 251,291.4018 c 0,-0.22099 6.4125,-0.3768 14.25,-0.34624 l 14.25,0.0555 -2.60231,2.02943 c -3.71195,2.89479 -18.69083,3.22804 -22.97988,0.51126 z"
         id="path822" />
      <path
         style="fill:#5884fe"
         d="m 174.8125,22.316886 c 0.72187,-0.288871 1.58437,-0.253344 1.91667,0.07895 0.33229,0.332292 -0.25834,0.568641 -1.3125,0.52522 -1.16495,-0.04798 -1.4019,-0.284941 -0.60417,-0.604167 z"
         id="path820" />
      <path
         style="fill:#b02afe"
         d="m 63.5,290 c -0.402798,-0.65174 5.235858,-0.99467 16.190983,-0.98469 C 90.913131,289.02554 96.00144,289.35282 95,290 c -2.011465,1.29991 -30.696612,1.29991 -31.5,0 z m 72.5,0 c -1.03993,-0.67206 0.877,-0.97407 6.25,-0.98469 4.51021,-0.009 7.75,0.40273 7.75,0.98469 0,1.28633 -12.00955,1.28633 -14,0 z m 58,0 c 0,-0.58196 3.23979,-0.9936 7.75,-0.98469 5.373,0.0106 7.28993,0.31263 6.25,0.98469 -1.99045,1.28633 -14,1.28633 -14,0 z m 55,0 c -1.00144,-0.64718 4.08687,-0.97446 15.30902,-0.98469 10.95512,-0.01 16.59378,0.33295 16.19098,0.98469 -0.80339,1.29991 -29.48853,1.29991 -31.5,0 z"
         id="path818" />
      <path
         style="fill:#ae2cfe"
         d="m 56.5,284 c -0.39235,-0.63484 2.303277,-1 7.381966,-1 4.4,0 8.278115,0.45 8.618034,1 0.39235,0.63484 -2.303277,1 -7.381966,1 -4.4,0 -8.278115,-0.45 -8.618034,-1 z m 28,0 c 0.341847,-0.55312 4.86339,-1 10.118034,-1 6.078686,0 9.277426,0.36014 8.881966,1 -0.34185,0.55312 -4.86339,1 -10.118034,1 -6.078689,0 -9.277422,-0.36014 -8.881966,-1 z m 36.5,0 c -1.01214,-0.65409 2.62763,-0.97435 11.19098,-0.98469 7.39928,-0.009 12.94869,0.40166 13.30902,0.98469 0.81516,1.31896 -22.45906,1.31896 -24.5,0 z m 77.5,0 c 0.36033,-0.58303 5.90974,-0.99362 13.30902,-0.98469 8.56335,0.0103 12.20312,0.3306 11.19098,0.98469 -2.04094,1.31896 -25.31516,1.31896 -24.5,0 z m 42,0 c -0.81321,-1.31581 16.46393,-1.31581 18.5,0 1.02564,0.66282 -1.56465,0.97422 -8.19098,0.98469 C 245.4095,284.99322 240.84435,284.55717 240.5,284 Z m 31,0 c 0.33992,-0.55 4.21803,-1 8.61803,-1 5.07869,0 7.77432,0.36516 7.38197,1 -0.33992,0.55 -4.21803,1 -8.61803,1 -5.07869,0 -7.77432,-0.36516 -7.38197,-1 z"
         id="path816" />
      <path
         style="fill:#af2bfe"
         d="m 59.589201,287.09857 c -1.686,-1.86301 -1.279907,-1.90181 20.095012,-1.91991 21.664197,-0.0183 21.799387,-0.005 19.455003,1.90143 C 97.009133,288.81238 95.045406,289 79.044204,289 62.8864,289 61.157013,288.83098 59.589201,287.09857 Z M 128,287 l -4.5,-1.88825 11.55,-0.0559 c 10.97415,-0.0531 13.95,0.61763 13.95,3.14413 0,1.67266 -16.38538,0.73635 -21,-1.2 z m 67,1.2 c 0,-2.5265 2.97585,-3.19721 13.95,-3.14413 l 11.55,0.0559 L 216,287 c -4.61462,1.93635 -21,2.87266 -21,1.2 z m 49.86426,-1.10883 c -2.33659,-1.89206 -2.16577,-1.90871 19.44977,-1.89564 21.34316,0.0129 21.77057,0.0535 20.09153,1.90882 -1.5612,1.72511 -3.31095,1.89565 -19.44976,1.89565 -15.96192,0 -17.96981,-0.19076 -20.09154,-1.90883 z"
         id="path814" />
      <path
         style="fill:#ac2cfe"
         d="m 54.232073,281 c -1.206502,-1.93192 -0.998694,-2 6.104466,-2 6.083494,0 7.66608,0.34541 9.163461,2 1.795489,1.98399 1.746633,2 -6.104466,2 -6.831434,0 -8.085356,-0.27368 -9.163461,-2 z M 89,281.04548 c 2.337534,-1.87097 4.014161,-2.00245 25.79966,-2.02324 20.33151,-0.0194 23.70735,0.20069 26.5,1.72776 l 3.20034,1.75 -12,0.3046 c -7.33065,0.18607 -13.41506,-0.15348 -15.63662,-0.87264 -2.14715,-0.69507 -5.21898,-0.88469 -7.5,-0.46296 -2.12486,0.39286 -8.13838,0.90851 -13.36338,1.14589 l -9.5,0.43159 z m 111,1.55578 c 0,-0.30244 1.32765,-1.23646 2.95034,-2.07558 2.39525,-1.23863 7.3044,-1.52568 26.09227,-1.52568 21.90294,0 23.28309,0.11104 25.77859,2.07399 l 2.63665,2.074 -9.97892,-0.57728 c -12.53731,-0.72528 -15.67227,-0.72573 -33.22893,-0.005 -7.8375,0.32186 -14.25,0.33774 -14.25,0.0353 z M 274.5,281 c 1.49738,-1.65459 3.07997,-2 9.16346,-2 7.10316,0 7.31097,0.0681 6.10447,2 -1.07811,1.72632 -2.33203,2 -9.16346,2 -7.8511,0 -7.89996,-0.016 -6.10447,-2 z"
         id="path812" />
      <path
         style="fill:#aa2dfe"
         d="m 51.2,277.8 c -2.265352,-2.26535 -1.187461,-2.8 5.645012,-2.8 5.575021,0 7.180827,0.37107 8.654988,2 1.794597,1.98301 1.746633,2 -5.645012,2 -4.464991,0 -7.936276,-0.48129 -8.654988,-1.2 z M 94.5,277 c 2.66862,-1.76736 4.656902,-1.98138 18,-1.93754 12.37154,0.0407 15.78854,0.38017 19.5,1.93754 l 4.5,1.88825 -22.5,0.0493 -22.5,0.0493 3,-1.98682 z m 117.5,0 c 3.71486,-1.5588 7.14142,-1.898 19.63922,-1.94413 13.6349,-0.0503 15.37379,0.13955 17.5,1.91086 l 2.36078,1.96673 -22,-0.0226 -22,-0.0226 z m 66.5,0 c 1.47416,-1.62893 3.07997,-2 8.65499,-2 3.76475,0 6.84501,0.36 6.84501,0.8 0,2.24376 -2.94491,3.2 -9.85499,3.2 -7.39164,0 -7.43961,-0.017 -5.64501,-2 z"
         id="path810" />
      <path
         style="fill:#8b4bfe"
         d="m 16.872445,194.25 c -1.243871,-1.58606 -1.208501,-1.62143 0.377555,-0.37756 0.9625,0.75485 1.75,1.54235 1.75,1.75 0,0.82304 -0.821186,0.29331 -2.127555,-1.37244 z"
         id="path808" />
      <path
         style="fill:#a82efe"
         d="M 48.606989,273.41821 C 48.273145,272.54823 48,271.64823 48,271.41821 48,271.1882 50.630256,271 53.845012,271 c 4.575021,0 6.23828,0.43456 7.654988,2 1.793709,1.98203 1.746633,2 -5.238024,2 -5.504362,0 -7.18094,-0.34644 -7.654987,-1.58179 z M 98,274.52568 c 0,-0.26088 1.327653,-1.16088 2.95034,-2 C 105.35106,270.24998 118.49331,270.53269 123,273 l 3.5,1.91617 -14.25,0.0419 C 104.4125,274.98114 98,274.78656 98,274.52568 Z M 221,273 c 5.06471,-2.77281 18.31319,-2.77281 22.5,0 l 3,1.98682 -14.5,-0.0353 -14.5,-0.0353 z m 61.5,0 c 2.40533,-2.65786 14.10973,-3.03132 13.10699,-0.41821 -0.33385,0.86998 -0.60699,1.76998 -0.60699,2 0,0.23001 -3.21974,0.41821 -7.15499,0.41821 -7.09164,0 -7.13896,-0.0177 -5.34501,-2 z"
         id="path806" />
      <path
         style="fill:#a62ffe"
         d="M 47.666667,270.33333 C 47.3,269.96667 47,269.06667 47,268.33333 c 0,-2.06577 10.593609,-1.83475 11.393011,0.24846 0.333844,0.86998 0.606989,1.76998 0.606989,2 0,0.69915 -10.618512,0.46637 -11.333333,-0.24846 z M 107.75,270.2766 c 1.7875,-0.22182 4.7125,-0.22182 6.5,0 1.7875,0.22183 0.325,0.40333 -3.25,0.40333 -3.575,0 -5.0375,-0.1815 -3.25,-0.40333 z m 122.01791,-10e-4 c 1.79735,-0.22256 4.49735,-0.21797 6,0.0102 1.50265,0.22818 0.0321,0.41027 -3.26791,0.40466 -3.3,-0.006 -4.52944,-0.1923 -2.73209,-0.41486 z m 55.60449,-0.80335 C 285.71758,268.5724 286,267.64823 286,267.41821 286,267.1882 288.508,267 291.57332,267 c 4.76814,0 5.52521,0.25283 5.24029,1.75 -0.26381,1.38617 -1.55299,1.81314 -6.20093,2.05371 -5.09063,0.26348 -5.78475,0.0871 -5.24028,-1.33179 z"
         id="path804" />
      <path
         style="fill:#a430fe"
         d="m 47,264 c 0,-2.99009 0.01924,-3 5.826807,-3 h 5.826807 l -0.440306,3 c -0.426736,2.90754 -0.606319,3 -5.826807,3 C 47.068167,267 47,266.96203 47,264 Z m 238.78669,0 -0.4403,-3 h 5.8268 c 5.80757,0 5.82681,0.01 5.82681,3 0,2.96203 -0.0682,3 -5.3865,3 -5.22049,0 -5.40007,-0.0925 -5.82681,-3 z"
         id="path802" />
      <path
         style="fill:#a131fe"
         d="m 48.149845,258 c 1.026369,-2.94425 1.174639,-3 7.977918,-3 h 6.932112 l -2.217996,3 c -2.017926,2.72939 -2.737559,3 -7.977918,3 H 47.104039 Z M 283,258 l -2.13619,-3 h 6.97027 c 6.84568,0 6.98896,0.0536 8.01608,3 l 1.0458,3 h -5.87989 c -5.39183,0 -6.05719,-0.24901 -8.01607,-3 z"
         id="path800" />
      <path
         style="fill:#9d32fe"
         d="M 50.604949,253.75 C 54.301963,247.35806 54.883507,247 61.568094,247 65.105642,247 68,247.25502 68,247.56672 c 0,0.3117 -1.17841,2.1117 -2.618689,4 C 62.876046,254.85129 62.483671,255 56.322294,255 c -4.871187,0 -6.264178,-0.30455 -5.717345,-1.25 z M 278.55089,251.65561 C 277.1479,249.81619 276,248.01619 276,247.65561 276,247.29502 278.89436,247 282.43191,247 c 5.88835,0 6.59282,0.2324 8.33603,2.75 3.72809,5.38422 3.80882,5.25 -3.15803,5.25 -6.20502,0 -6.62693,-0.15576 -9.05902,-3.34439 z"
         id="path798" />
      <path
         style="fill:#9934fe"
         d="m 56,246.43328 c 0,-0.3117 1.17841,-2.1117 2.618689,-4 C 61.078536,239.20825 61.594119,239 67.118689,239 70.35341,239 73,239.28438 73,239.63197 c 0,0.34758 -0.936702,2.14758 -2.081559,4 C 68.904879,246.88998 68.62721,247 62.418441,247 58.888298,247 56,246.74498 56,246.43328 Z M 274.24743,245.75 c -0.54861,-0.6875 -1.68316,-2.6 -2.52122,-4.25 l -1.52375,-3 h 6.14877 c 5.94603,0 6.23944,0.12336 8.89877,3.74134 1.5125,2.05774 2.75,3.97024 2.75,4.25 0,1.14256 -12.79987,0.45257 -13.75257,-0.74134 z"
         id="path796" />
      <path
         style="fill:#6766fe"
         d="m 74.078947,111.41667 c 0.04798,-1.16495 0.284941,-1.4019 0.604167,-0.60417 0.288871,0.72187 0.253344,1.58437 -0.07895,1.91667 -0.332292,0.33229 -0.568641,-0.25834 -0.52522,-1.3125 z"
         id="path794" />
      <path
         style="fill:#9536fe"
         d="M 61.75,237.8528 C 62.4375,237.16376 63,235.115 63,233.3 V 230 h 5.557498 5.557498 L 73.807498,234.25 73.5,238.5 67,238.8028 c -5.206572,0.24255 -6.251264,0.0535 -5.25,-0.95 z m 208.91667,0.48053 C 270.3,237.96667 270,235.94167 270,233.83333 V 230 h 5.5 c 5.41019,0 5.5,0.0477 5.5,2.91821 0,1.60502 0.27314,3.63002 0.60699,4.5 0.50765,1.32293 -0.28331,1.58179 -4.83333,1.58179 -2.99218,0 -5.74033,-0.3 -6.10699,-0.66667 z"
         id="path792" />
      <path
         style="fill:#9138fe"
         d="M 61.448973,226.53212 C 60.652038,224.62478 60,222.82478 60,222.53212 60,222.23945 62.655979,222 65.902175,222 c 5.721053,0 5.935864,0.0966 7,3.14922 1.647529,4.72611 1.533076,4.85078 -4.453202,4.85078 -5.38902,0 -5.593315,-0.10121 -7,-3.46788 z M 270,229.14922 c 0,-0.46792 0.49402,-2.26792 1.09783,-4 1.06413,-3.05258 1.27894,-3.14922 7,-3.14922 6.3801,0 6.76069,0.43913 4.37649,5.04966 -1.40762,2.72203 -1.94931,2.95034 -7,2.95034 C 272.46344,230 270,229.61715 270,229.14922 Z m -117.75,-1.39597 c -3.24934,-1.04236 -3.70624,-1.9362 -2.42971,-4.75325 0.52147,-1.1508 1.86252,-1.3836 5.76053,-1 l 5.08082,0.5 -1.33369,3.25 c -1.42204,3.4653 -2.00553,3.63044 -7.07795,2.00325 z"
         id="path790" />
      <path
         style="fill:#8d39fe"
         d="M 58.097825,218.85078 C 57.494021,217.1187 57,215.5437 57,215.35078 57,215.15785 59.463444,215 62.47432,215 c 5.050688,0 5.592385,0.22831 7,2.95034 0.839124,1.62269 1.52568,3.19769 1.52568,3.5 C 71,221.75265 68.344021,222 65.097825,222 c -5.721053,0 -5.935864,-0.0966 -7,-3.14922 z M 151,221.0651 c 0,-0.5142 0.43886,-2.0892 0.97525,-3.5 0.86828,-2.28375 1.52639,-2.5651 6,-2.5651 2.76361,0 5.02475,0.15785 5.02475,0.35078 0,0.19292 -0.49402,1.76792 -1.09783,3.5 -1.03002,2.95472 -1.40058,3.14922 -6,3.14922 C 153.20598,222 151,221.57929 151,221.0651 Z m 122,0.38524 c 0,-0.30231 0.68656,-1.87731 1.52568,-3.5 1.40762,-2.72203 1.94931,-2.95034 7,-2.95034 5.78548,0 6.16446,0.3912 4.3138,4.45295 -1.05074,2.30613 -1.71286,2.54705 -7,2.54705 C 275.62777,222 273,221.75265 273,221.45034 Z"
         id="path788" />
      <path
         style="fill:#7353fe"
         d="m 325.87244,149.25 c -1.24387,-1.58606 -1.2085,-1.62143 0.37756,-0.37756 1.66575,1.30637 2.19548,2.12756 1.37244,2.12756 -0.20765,0 -0.99515,-0.7875 -1.75,-1.75 z"
         id="path786" />
      <path
         style="fill:#8a3bfe"
         d="m 56,214.08179 c 0,-0.50502 -0.273145,-1.63002 -0.606989,-2.5 C 54.884274,210.25604 55.687913,210 60.357827,210 c 4.485225,0 5.773681,0.37721 6.606989,1.93426 C 68.555737,214.90692 68.404999,215 62,215 c -3.3,0 -6,-0.4132 -6,-0.91821 z m 97.37124,-0.60685 C 153.71706,212.57376 154,211.42323 154,210.91821 154,210.4132 156.4605,210 159.46778,210 c 5.24878,0 5.43463,0.0901 4.64033,2.25 -0.69182,1.8812 -1.69111,2.30028 -6.09654,2.55672 -4.54003,0.26429 -5.18209,0.08 -4.64033,-1.33178 z M 276,214.43426 c 0,-0.31116 0.46583,-1.43616 1.03518,-2.5 0.83331,-1.55705 2.12177,-1.93426 6.60699,-1.93426 4.66992,0 5.47356,0.25604 4.96482,1.58179 -0.33385,0.86998 -0.60699,1.99498 -0.60699,2.5 0,0.50501 -2.7,0.91821 -6,0.91821 -3.3,0 -6,-0.25458 -6,-0.56574 z"
         id="path784" />
      <path
         style="fill:#883cfe"
         d="m 54,208 c -1.014417,-1.89546 -0.76049,-2 4.857827,-2 C 64.383207,206 66,206.81082 66,209.58179 66,209.8118 63.540833,210 60.535184,210 56.093823,210 54.869908,209.62544 54,208 Z m 77.5,0 c -1.77988,-1.96675 -1.74663,-2 2,-2 3.74663,0 3.77988,0.0333 2,2 -0.99549,1.1 -1.89549,2 -2,2 -0.10451,0 -1.00451,-0.9 -2,-2 z m 23.89301,0.41821 c 0.33385,-0.86998 0.60699,-1.76998 0.60699,-2 0,-0.23001 2.29814,-0.41821 5.10699,-0.41821 4.24606,0 5.00466,0.26665 4.5,1.58179 -0.33385,0.86998 -0.60699,1.76998 -0.60699,2 0,0.23001 -2.29814,0.41821 -5.10699,0.41821 -4.24606,0 -5.00466,-0.26665 -4.5,-1.58179 z M 208.5,208 c -1.77988,-1.96675 -1.74663,-2 2,-2 3.74663,0 3.77988,0.0333 2,2 -0.99549,1.1 -1.89549,2 -2,2 -0.10451,0 -1.00451,-0.9 -2,-2 z m 69.89301,0.41821 c 0.33385,-0.86998 0.60699,-1.76998 0.60699,-2 0,-0.23001 2.71583,-0.41821 6.03518,-0.41821 5.72531,0 5.98023,0.10269 4.96482,2 -0.87376,1.63263 -2.09382,2 -6.64217,2 -4.66992,0 -5.47356,-0.25604 -4.96482,-1.58179 z"
         id="path782" />
      <path
         style="fill:#863dfe"
         d="m 51.367919,204.96792 c -0.567645,-0.56765 -4.145145,-1.65036 -7.95,-2.40604 L 36.5,201.18793 l 13.089485,-0.094 c 13.031216,-0.0936 13.094556,-0.0828 14.228561,2.40603 l 1.139076,2.5 h -6.278561 c -3.453208,0 -6.742998,-0.46444 -7.310642,-1.03208 z M 126.5,203.531 l -3,-2.45907 7,-0.0207 c 8.11915,-0.024 10.57829,0.94454 8.56325,3.3725 -2.09173,2.52039 -8.99802,2.0296 -12.56325,-0.89278 z m 30.39189,0.219 c 0.69182,-1.8812 1.69111,-2.30028 6.09654,-2.55672 4.54003,-0.26429 5.18209,-0.08 4.64033,1.33178 C 167.28294,203.42624 167,204.57677 167,205.08179 167,205.5868 164.5395,206 161.53222,206 c -5.24878,0 -5.43463,-0.0901 -4.64033,-2.25 z m 48.3319,1.07379 c -2.39846,-2.39846 0.67162,-3.82555 8.14865,-3.78783 l 7.12756,0.036 -3,2.45907 c -3.27805,2.68698 -10.15754,3.41146 -12.27621,1.29279 z M 280.18195,203.5 c 1.13484,-2.49069 1.18782,-2.49957 14.22857,-2.38329 l 13.08948,0.11672 -6.94618,1.37947 c -3.8204,0.7587 -7.3979,1.83118 -7.95,2.38328 -0.5521,0.5521 -3.82917,1.00382 -7.28238,1.00382 h -6.27856 z"
         id="path780" />
      <path
         style="fill:#843efe"
         d="m 294.65295,201.2194 c -11.16805,-0.24393 -12.68767,-0.47264 -11.62755,-1.75 0.9965,-1.20071 4.62567,-1.45781 19.84704,-1.40601 11.75411,0.04 17.82295,0.38762 16.44702,0.94208 -4.45298,1.79442 -12.16836,2.48691 -24.66651,2.21393 z M 27,199.64291 c -3.934583,-0.99931 -2.182922,-1.17725 13.940989,-1.41621 15.439199,-0.22881 18.688948,-0.0253 19.964285,1.25 1.364396,1.3644 -0.08984,1.51213 -13.940988,1.41621 C 38.458929,200.83401 29.475,200.27151 27,199.64291 Z M 122,199.5 c -1.0864,-1.30904 -0.35373,-1.5 5.75511,-1.5 5.00227,0 7.35528,0.42808 8.24489,1.5 1.0864,1.30904 0.35373,1.5 -5.75511,1.5 -5.00227,0 -7.35528,-0.42808 -8.24489,-1.5 z m 36.22667,0.30579 c 0.26317,-0.79819 2.48043,-1.42466 5.70386,-1.61158 3.98996,-0.23138 5.16855,0.012 4.8428,1 -0.26317,0.79819 -2.48043,1.42466 -5.70386,1.61158 -3.98996,0.23138 -5.16855,-0.012 -4.8428,-1 z M 208,199.5 c 0.88961,-1.07192 3.24262,-1.5 8.24489,-1.5 6.10884,0 6.84151,0.19096 5.75511,1.5 -0.88961,1.07192 -3.24262,1.5 -8.24489,1.5 -6.10884,0 -6.84151,-0.19096 -5.75511,-1.5 z"
         id="path778" />
      <path
         style="fill:#4978fe"
         d="m 165.8125,22.316886 c 0.72187,-0.288871 1.58437,-0.253344 1.91667,0.07895 0.33229,0.332292 -0.25834,0.568641 -1.3125,0.52522 -1.16495,-0.04798 -1.4019,-0.284941 -0.60417,-0.604167 z m 12,0 c 0.72187,-0.288871 1.58437,-0.253344 1.91667,0.07895 0.33229,0.332292 -0.25834,0.568641 -1.3125,0.52522 -1.16495,-0.04798 -1.4019,-0.284941 -0.60417,-0.604167 z"
         id="path776" />
      <path
         style="fill:#8040fe"
         d="m 14.544099,191.07135 c -0.87275,-1.41213 16.273784,-1.73463 23.576596,-0.44344 6.161825,1.08947 5.878468,1.13208 -8.311678,1.25 -8.109371,0.0674 -14.948108,-0.29395 -15.264918,-0.80656 z M 112.67153,190.75 c -1.41819,-1.03624 -0.40654,-1.22317 5.91578,-1.09309 4.19458,0.0863 8.1184,0.6488 8.7196,1.25 1.60198,1.60198 -12.43415,1.45149 -14.63538,-0.15691 z M 161.5,191 c 0.33992,-0.55 2.84148,-1 5.55902,-1 2.71754,0 4.94098,0.45 4.94098,1 0,0.55 -2.50156,1 -5.55902,1 -3.45136,0 -5.32469,-0.37914 -4.94098,-1 z m 55.19309,-0.0931 c 0.6012,-0.6012 4.52502,-1.1637 8.7196,-1.25 6.32232,-0.13008 7.33397,0.0568 5.91578,1.09309 -2.20123,1.6084 -16.23736,1.75889 -14.63538,0.15691 z m 90.18386,-0.279 c 7.27012,-1.28589 23.45022,-0.9663 22.57741,0.44594 -0.31482,0.50938 -6.95834,0.87121 -14.76338,0.80406 -13.81241,-0.11882 -14.02086,-0.15217 -7.81403,-1.25 z"
         id="path774" />
      <path
         style="fill:#823efe"
         d="m 21,197 c -0.997345,-0.64453 4.930962,-0.97451 17.690983,-0.98469 11.732341,-0.009 19.431184,0.37334 19.809017,0.98469 0.81747,1.32269 -35.453277,1.32269 -37.5,0 z m 98.5,0 c -0.38954,-0.63029 1.96994,-1 6.38197,-1 3.85,0 7.27811,0.45 7.61803,1 0.38954,0.63029 -1.96994,1 -6.38197,1 -3.85,0 -7.27811,-0.45 -7.61803,-1 z m 40,0 c 0.33992,-0.55 2.86803,-1 5.61803,-1 3.07869,0 4.76252,0.38426 4.38197,1 -0.33992,0.55 -2.86803,1 -5.61803,1 -3.07869,0 -4.76252,-0.38426 -4.38197,-1 z m 51,0 c 0.33992,-0.55 3.76803,-1 7.61803,-1 4.41203,0 6.77151,0.36971 6.38197,1 -0.33992,0.55 -3.76803,1 -7.61803,1 -4.41203,0 -6.77151,-0.36971 -6.38197,-1 z m 75,0 c 0.37693,-0.60989 8.03006,-1 19.61803,-1 12.41203,0 18.78571,0.34674 18.38197,1 -0.37693,0.60989 -8.03006,1 -19.61803,1 -12.41203,0 -18.78571,-0.34674 -18.38197,-1 z"
         id="path772" />
      <path
         style="fill:#813ffe"
         d="m 17.42367,193.91566 -1.886304,-2.08435 17.981317,0.33435 c 14.69532,0.27324 18.529552,0.64683 20.981317,2.0443 2.910955,1.65921 2.43323,1.71115 -16.095012,1.75 -18.109336,0.038 -19.192383,-0.0675 -20.981318,-2.0443 z M 116.5,194 c -1.7936,-1.9819 -1.74663,-2 5.19002,-2 5.73001,0 7.32838,0.36285 8.80998,2 1.7936,1.9819 1.74663,2 -5.19002,2 -5.73001,0 -7.32838,-0.36285 -8.80998,-2 z m 43.89301,0.41821 c 0.33385,-0.86998 0.60699,-1.76998 0.60699,-2 0,-0.23001 2.29814,-0.41821 5.10699,-0.41821 4.24606,0 5.00466,0.26665 4.5,1.58179 -0.33385,0.86998 -0.60699,1.76998 -0.60699,2 0,0.23001 -2.29814,0.41821 -5.10699,0.41821 -4.24606,0 -5.00466,-0.26665 -4.5,-1.58179 z M 213.5,194 c 1.4816,-1.63715 3.07997,-2 8.80998,-2 6.93665,0 6.98362,0.0181 5.19002,2 -1.4816,1.63715 -3.07997,2 -8.80998,2 -6.93665,0 -6.98362,-0.0181 -5.19002,-2 z m 76,0.20996 c 2.45176,-1.39747 6.286,-1.77106 20.98132,-2.0443 l 17.98131,-0.33435 -1.8863,2.08435 c -1.78893,1.97675 -2.87198,2.08227 -20.98132,2.0443 -18.52824,-0.0388 -19.00597,-0.0908 -16.09501,-1.75 z"
         id="path770" />
      <path
         style="fill:#7e40fe"
         d="M 13.666667,189.33333 C 9.9755331,185.6422 20.824302,184.59654 27.5,188 l 3.922884,2 h -8.544775 c -4.699627,0 -8.844776,-0.3 -9.211442,-0.66667 z m 96.194113,-1.30006 -2.36078,-1.96673 7.09501,-0.0333 c 5.85143,-0.0274 7.41226,0.31728 8.90499,1.96673 1.79246,1.98064 1.74663,2 -4.73423,2 -5.0404,0 -7.08669,-0.45194 -8.90499,-1.96673 z m 52.51046,0.44167 C 162.71706,187.57376 163,186.64823 163,186.41821 163,186.1882 165.283,186 168.07332,186 c 4.29181,0 5.02208,0.26958 4.74064,1.75 -0.25844,1.35942 -1.53108,1.81846 -5.70208,2.05672 -4.63311,0.26467 -5.28317,0.082 -4.74064,-1.33178 z M 220.5,188 c 1.49273,-1.64945 3.05356,-1.99417 8.90499,-1.96673 l 7.09501,0.0333 -2.36078,1.96673 c -1.8183,1.51479 -3.86459,1.96673 -8.90499,1.96673 -6.48086,0 -6.52669,-0.0194 -4.73423,-2 z m 95.14767,1.03034 c 1.18122,-0.4896 2.44528,-1.37172 2.80902,-1.96026 0.36374,-0.58855 3.36778,-1.07008 6.67565,-1.07008 5.18863,0 5.9684,0.24025 5.67992,1.75 -0.28325,1.48243 -1.6323,1.78215 -8.82332,1.96027 -5.72619,0.14183 -7.78997,-0.0795 -6.34127,-0.67993 z"
         id="path768" />
      <path
         style="fill:#7c41fe"
         d="m 12,184 c 0,-1.75232 0.666667,-2 5.383369,-2 4.542364,0 5.465075,0.31245 5.90638,2 0.479416,1.83329 0.03068,2 -5.383369,2 C 12.666667,186 12,185.77426 12,184 Z m 93.5,0 c -1.7936,-1.9819 -1.74663,-2 5.19002,-2 5.73001,0 7.32838,0.36285 8.80998,2 1.7936,1.9819 1.74663,2 -5.19002,2 -5.73001,0 -7.32838,-0.36285 -8.80998,-2 z m 58.21025,0 c 0.43986,-1.68203 1.36402,-2 5.81276,-2 4.79742,0 5.24107,0.18614 4.76674,2 -0.43986,1.68203 -1.36402,2 -5.81276,2 -4.79742,0 -5.24107,-0.18614 -4.76674,-2 z M 224.5,184 c 1.4816,-1.63715 3.07997,-2 8.80998,-2 6.93665,0 6.98362,0.0181 5.19002,2 -1.4816,1.63715 -3.07997,2 -8.80998,2 -6.93665,0 -6.98362,-0.0181 -5.19002,-2 z m 96.21025,0 c 0.44131,-1.68755 1.36402,-2 5.90638,-2 4.7167,0 5.38337,0.24768 5.38337,2 0,1.77426 -0.66667,2 -5.90638,2 -5.41405,0 -5.86278,-0.16671 -5.38337,-2 z"
         id="path766" />
      <path
         style="fill:#5469fe"
         d="m 231.8125,74.316886 c 0.72187,-0.288871 1.58437,-0.253344 1.91667,0.07895 0.33229,0.332292 -0.25834,0.568641 -1.3125,0.52522 -1.16495,-0.04798 -1.4019,-0.284941 -0.60417,-0.604167 z"
         id="path764" />
      <path
         style="fill:#7a42fe"
         d="M 11.666667,181.33333 C 11.3,180.96667 11,180.06667 11,179.33333 11,178.38734 12.563895,178 16.383369,178 c 4.542364,0 5.465075,0.31245 5.90638,2 0.473869,1.81208 0.03068,2 -4.716702,2 -2.881842,0 -5.539714,-0.3 -5.90638,-0.66667 z M 101.5,180 c -1.791525,-1.97961 -1.746633,-2 4.40403,-2 3.88803,0 5.98267,-0.37431 5.59597,-1 -1.1462,-1.8546 0.10836,-1.01822 3,2 l 2.87418,3 h -7.0321 c -5.76211,0 -7.35898,-0.3612 -8.84208,-2 z m 63.51531,1.25 c 0.0425,-2.08012 1.95857,-3.06432 6.60083,-3.39051 4.99098,-0.3507 5.09102,-0.30445 4.08948,1.89051 -0.85871,1.88196 -1.81827,2.25 -5.86614,2.25 -2.66171,0 -4.83259,-0.3375 -4.82417,-0.75 z M 227,181.68709 c 0,-0.1721 1.4196,-1.6346 3.15466,-3.25 1.73507,-1.6154 2.83351,-2.37459 2.44098,-1.68709 -0.53809,0.94246 0.81516,1.25 5.50033,1.25 6.15066,0 6.19556,0.0204 4.40403,2 -1.47416,1.62893 -3.07997,2 -8.65499,2 C 230.08026,182 227,181.85919 227,181.68709 Z M 321.71025,180 c 0.44131,-1.68755 1.36402,-2 5.90638,-2 4.7167,0 5.38337,0.24768 5.38337,2 0,1.77426 -0.66667,2 -5.90638,2 -5.41405,0 -5.86278,-0.16671 -5.38337,-2 z"
         id="path762" />
      <path
         style="fill:#7842fe"
         d="m 11,177 c 0,-0.55 2.475,-1 5.5,-1 3.025,0 5.5,0.45 5.5,1 0,0.55 -2.475,1 -5.5,1 -3.025,0 -5.5,-0.45 -5.5,-1 z m 87.5,0 c -0.387811,-0.62749 1.80328,-1 5.88197,-1 3.575,0 6.77811,0.45 7.11803,1 0.38781,0.62749 -1.80328,1 -5.88197,1 -3.575,0 -6.778111,-0.45 -7.11803,-1 z m 68,0 c 0.33992,-0.55 2.86803,-1 5.61803,-1 3.07869,0 4.76252,0.38426 4.38197,1 -0.33992,0.55 -2.86803,1 -5.61803,1 -3.07869,0 -4.76252,-0.38426 -4.38197,-1 z m 66,0 c 0.33992,-0.55 3.54303,-1 7.11803,-1 4.07869,0 6.26978,0.37251 5.88197,1 -0.33992,0.55 -3.54303,1 -7.11803,1 -4.07869,0 -6.26978,-0.37251 -5.88197,-1 z m 89.5,0 c 0,-0.55 2.475,-1 5.5,-1 3.025,0 5.5,0.45 5.5,1 0,0.55 -2.475,1 -5.5,1 -3.025,0 -5.5,-0.45 -5.5,-1 z"
         id="path760" />
      <path
         style="fill:#7743fe"
         d="m 11,174 c 0,-1.75758 0.666667,-2 5.5,-2 4.833333,0 5.5,0.24242 5.5,2 0,1.75758 -0.666667,2 -5.5,2 -4.833333,0 -5.5,-0.24242 -5.5,-2 z m 86.606989,0.41821 C 97.273145,173.54823 97,172.64823 97,172.41821 97,172.1882 99.180256,172 101.84501,172 c 3.57502,0 5.31945,0.52425 6.65499,2 1.79102,1.97905 1.74663,2 -4.23802,2 -4.592497,0 -6.19408,-0.38067 -6.654991,-1.58179 z m 69.764251,0.0567 C 167.71706,173.57376 168,172.64823 168,172.41821 168,172.1882 170.283,172 173.07332,172 c 4.29181,0 5.02208,0.26958 4.74064,1.75 -0.25844,1.35942 -1.53108,1.81846 -5.70208,2.05672 -4.63311,0.26467 -5.28317,0.082 -4.74064,-1.33178 z M 235.5,174 c 2.37696,-2.62651 12.09481,-2.99242 11.10699,-0.41821 -0.33385,0.86998 -0.60699,1.76998 -0.60699,2 0,0.23001 -2.76974,0.41821 -6.15499,0.41821 -6.09164,0 -6.13636,-0.0206 -4.34501,-2 z m 86.5,0 c 0,-1.75758 0.66667,-2 5.5,-2 4.83333,0 5.5,0.24242 5.5,2 0,1.75758 -0.66667,2 -5.5,2 -4.83333,0 -5.5,-0.24242 -5.5,-2 z"
         id="path758" />
      <path
         style="fill:#7544fe"
         d="m 11,169 c 0,-2.9697 0.05556,-3 5.5,-3 5.444444,0 5.5,0.0303 5.5,3 0,2.9697 -0.05556,3 -5.5,3 -5.444444,0 -5.5,-0.0303 -5.5,-3 z m 86,2.5651 c 0,-0.2392 0.438862,-1.5892 0.975249,-3 C 98.898119,166.13777 99.339188,166 106.18747,166 h 7.23698 l -3.46222,2.95936 c -2.75664,2.35625 -4.43026,2.96764 -8.21223,3 C 99.1375,171.98171 97,171.80429 97,171.5651 Z M 169.14984,169 c 0.97021,-2.78313 1.40019,-3 5.94799,-3 5.12418,0 5.24777,0.10849 4.27188,3.75 -0.5297,1.97658 -1.25084,2.25 -5.93432,2.25 h -5.33135 z m 64.88793,-0.0406 -3.46222,-2.95936 h 7.23698 c 6.84828,0 7.28935,0.13777 8.21222,2.5651 0.53639,1.4108 0.97525,2.7608 0.97525,3 0,0.23919 -2.1375,0.41661 -4.75,0.39426 -3.78197,-0.0324 -5.45559,-0.64375 -8.21223,-3 z M 322,169 c 0,-2.9697 0.0556,-3 5.5,-3 5.44444,0 5.5,0.0303 5.5,3 0,2.9697 -0.0556,3 -5.5,3 -5.44444,0 -5.5,-0.0303 -5.5,-3 z"
         id="path756" />
      <path
         style="fill:#7245fe"
         d="m 11.186394,164.25 c 0.261992,-1.37666 1.540338,-1.81346 5.992121,-2.04748 5.27616,-0.27735 5.622849,-0.15894 5.123651,1.75 C 21.84512,165.70026 20.967913,166 16.310044,166 c -4.657056,0 -5.407888,-0.25645 -5.12365,-1.75 z M 101.5,164 c 1.4816,-1.63715 3.07997,-2 8.80998,-2 6.93665,0 6.98362,0.0181 5.19002,2 -1.4816,1.63715 -3.07997,2 -8.80998,2 -6.936653,0 -6.983617,-0.0181 -5.19002,-2 z m 69.68604,0.25 c 0.25844,-1.35942 1.53108,-1.81846 5.70208,-2.05672 4.63311,-0.26467 5.28317,-0.082 4.74064,1.33178 C 181.28294,164.42624 181,165.35177 181,165.58179 181,165.8118 178.717,166 175.92668,166 c -4.29181,0 -5.02208,-0.26958 -4.74064,-1.75 z M 228.5,164 c -1.7936,-1.9819 -1.74663,-2 5.19002,-2 5.73001,0 7.32838,0.36285 8.80998,2 1.7936,1.9819 1.74663,2 -5.19002,2 -5.73001,0 -7.32838,-0.36285 -8.80998,-2 z m 93.19783,-0.0475 c -0.49919,-1.90894 -0.1525,-2.02735 5.12365,-1.75 4.45179,0.23402 5.73013,0.67082 5.99213,2.04748 0.28423,1.49355 -0.4666,1.75 -5.12365,1.75 -4.65787,0 -5.53508,-0.29974 -5.99213,-2.04748 z"
         id="path754" />
      <path
         style="fill:#7046fe"
         d="m 12,160 c 0,-1.77426 0.666667,-2 5.90638,-2 5.414051,0 5.862785,0.16671 5.383369,2 -0.441305,1.68755 -1.364016,2 -5.90638,2 C 12.666667,162 12,161.75232 12,160 Z m 93.5,0 c 1.4816,-1.63715 3.07997,-2 8.80998,-2 6.93665,0 6.98362,0.0181 5.19002,2 -1.4816,1.63715 -3.07997,2 -8.80998,2 -6.93665,0 -6.98362,-0.0181 -5.19002,-2 z m 66.87124,0.47494 C 172.71706,159.57376 173,158.64823 173,158.41821 173,158.1882 175.283,158 178.07332,158 c 4.29181,0 5.02208,0.26958 4.74064,1.75 -0.25844,1.35942 -1.53108,1.81846 -5.70208,2.05672 -4.63311,0.26467 -5.28317,0.082 -4.74064,-1.33178 z M 224.5,160 c -1.7936,-1.9819 -1.74663,-2 5.19002,-2 5.73001,0 7.32838,0.36285 8.80998,2 1.7936,1.9819 1.74663,2 -5.19002,2 -5.73001,0 -7.32838,-0.36285 -8.80998,-2 z m 96.21025,0 c -0.47941,-1.83329 -0.0307,-2 5.38337,-2 5.23971,0 5.90638,0.22574 5.90638,2 0,1.75232 -0.66667,2 -5.38337,2 -4.54236,0 -5.46507,-0.31245 -5.90638,-2 z"
         id="path752" />
      <path
         style="fill:#6e47fe"
         d="m 13.187929,156.25 c 0.286709,-1.49963 1.62059,-1.76935 9.323324,-1.88527 4.943811,-0.0744 8.008926,0.0651 6.811368,0.31003 -1.197559,0.24492 -2.715159,1.09329 -3.372445,1.88527 C 25.155032,157.51812 22.763683,158 18.804231,158 c -5.128295,0 -5.904631,-0.2419 -5.616302,-1.75 z m 96.245681,-0.17663 c 1.38019,-1.5251 3.3839,-1.99403 9.61403,-2.25 l 7.87044,-0.32337 -2.70904,2.21404 c -2.20151,1.79924 -4.00266,2.22077 -9.61403,2.25 -6.75489,0.0352 -6.86708,-0.006 -5.1614,-1.89067 z M 173.71025,156 c 0.43986,-1.68203 1.36402,-2 5.81276,-2 4.79742,0 5.24107,0.18614 4.76674,2 -0.43986,1.68203 -1.36402,2 -5.81276,2 -4.79742,0 -5.24107,-0.18614 -4.76674,-2 z m 46.86997,0.0886 c -1.68446,-1.8613 -1.55586,-1.92024 4.90928,-2.25 5.83759,-0.29776 6.89376,-0.067 8.74908,1.91136 l 2.11005,2.25 h -7.01933 c -5.64083,0 -7.35903,-0.37536 -8.74908,-1.91136 z m 95.56793,-0.13482 -3.35186,-1.8011 8.59349,-0.32636 c 8.4948,-0.32261 9.61022,0.0552 9.61022,3.25543 0,1.63156 -11.3157,0.77215 -14.85185,-1.12797 z"
         id="path750" />
      <path
         style="fill:#6c48fe"
         d="m 15.5,152 c 1.678711,-1.85495 3.079967,-2 19.321654,-2 9.631424,0 17.277164,0.23452 16.990534,0.52115 -1.338584,1.33858 -18.376852,3.47626 -27.717176,3.47748 C 13.753331,153.99999 13.701037,153.98783 15.5,152 Z m 99,0 c 1.49273,-1.64945 3.05356,-1.99417 8.90499,-1.96673 l 7.09501,0.0333 -2.36078,1.96673 c -1.8183,1.51479 -3.86459,1.96673 -8.90499,1.96673 -6.48086,0 -6.52669,-0.0194 -4.73423,-2 z m 60.51531,1.25 c 0.0425,-2.08012 1.95857,-3.06432 6.60083,-3.39051 4.99098,-0.3507 5.09102,-0.30445 4.08948,1.89051 -0.85871,1.88196 -1.81827,2.25 -5.86614,2.25 -2.66171,0 -4.83259,-0.3375 -4.82417,-0.75 z M 215.5,152 c -1.7936,-1.9819 -1.74663,-2 5.19002,-2 5.73001,0 7.32838,0.36285 8.80998,2 1.7936,1.9819 1.74663,2 -5.19002,2 -5.73001,0 -7.32838,-0.36285 -8.80998,-2 z m 84.64972,0.44172 c -4.04266,-0.73805 -7.86766,-1.55384 -8.5,-1.81287 -0.63235,-0.25902 6.97278,-0.50648 16.90028,-0.5499 17.47001,-0.0764 20.45,0.37839 20.45,3.12105 0,1.26642 -20.74687,0.72112 -28.85028,-0.75828 z"
         id="path748" />
      <path
         style="fill:#6a48fe"
         d="m 19.860784,147.96673 c 2.164042,-1.80283 3.914132,-1.96488 21,-1.94449 L 59.5,146.04447 57,148 c -2.277099,1.78117 -4.14947,1.95454 -21,1.94449 l -18.5,-0.011 2.360784,-1.96673 z M 118.5,148 c 1.4816,-1.63715 3.07997,-2 8.80998,-2 6.93665,0 6.98362,0.0181 5.19002,2 -1.4816,1.63715 -3.07997,2 -8.80998,2 -6.93665,0 -6.98362,-0.0181 -5.19002,-2 z m 58.21025,0 c 0.44184,-1.68958 1.36402,-2 5.94157,-2 5.10867,0 5.35734,0.11438 4.34818,2 -0.84548,1.57979 -2.09382,2 -5.94156,2 -4.37887,0 -4.81834,-0.20214 -4.34819,-2 z M 211.5,148 c -1.7936,-1.9819 -1.74663,-2 5.19002,-2 5.73001,0 7.32838,0.36285 8.80998,2 1.7936,1.9819 1.74663,2 -5.19002,2 -5.73001,0 -7.32838,-0.36285 -8.80998,-2 z m 75.36078,0.0333 -2.36078,-1.96673 18.63922,-0.0333 c 17.0951,-0.0305 18.83478,0.12966 21,1.93346 l 2.36078,1.96673 -18.63922,0.0333 c -17.0951,0.0305 -18.83478,-0.12966 -21,-1.93346 z"
         id="path746" />
      <path
         style="fill:#684afe"
         d="M 24.742076,144.97177 C 32.107201,142.01052 63,139.4857 63,141.84501 c 0,0.46476 -0.822933,1.58976 -1.828741,2.5 -1.568193,1.4192 -4.453289,1.64596 -20.25,1.5916 -11.990526,-0.0412 -17.638566,-0.37808 -16.179183,-0.96484 z M 123.25632,143.25 c 2.45926,-2.57097 3.08861,-2.72843 9.66722,-2.41872 l 7.03672,0.33128 -2.87449,2.41872 C 134.6628,145.62008 133.14431,146 127.41855,146 h -6.79273 z m 55.11339,0.5 c 0.33164,-1.2375 0.60885,-2.475 0.61601,-2.75 0.0225,-0.86276 10.01428,0.14969 10.01428,1.01473 0,3.0639 -1.43885,3.98527 -6.22362,3.98527 -4.70718,0 -4.97324,-0.13585 -4.40667,-2.25 z m 28.4182,-0.20103 -2.71209,-2.38782 7.01867,-0.33058 c 6.55864,-0.3089 7.19109,-0.15032 9.64919,2.41943 l 2.6305,2.75 -6.93709,-0.0316 c -5.86245,-0.0267 -7.35723,-0.40151 -9.64918,-2.41943 z m 75.70654,0.4449 c -0.99854,-1.10337 -1.60678,-2.21487 -1.35166,-2.47 1.14522,-1.14521 18.22462,-0.56008 26.59977,0.9113 16.0021,2.81132 15.14273,3.43334 -4.83757,3.50144 -17.38787,0.0593 -18.71287,-0.0668 -20.41054,-1.94274 z"
         id="path744" />
      <path
         style="fill:#644cfe"
         d="m 55.186394,133.25 c 0.263802,-1.38617 1.552988,-1.81314 6.200924,-2.05371 5.09063,-0.26348 5.78475,-0.0871 5.240282,1.33179 C 66.28242,133.4276 66,134.35177 66,134.58179 66,134.8118 63.492004,135 60.426676,135 c -4.768135,0 -5.525209,-0.25283 -5.240282,-1.75 z m 126.999646,0 c 0.25844,-1.35942 1.53108,-1.81846 5.70208,-2.05672 4.63311,-0.26467 5.28317,-0.082 4.74064,1.33178 C 192.28294,133.42624 192,134.35177 192,134.58179 192,134.8118 189.717,135 186.92668,135 c -4.29181,0 -5.02208,-0.26958 -4.74064,-1.75 z m 95.42095,0.16821 C 277.27314,132.54823 277,131.62577 277,131.36831 c 0,-0.25747 2.58313,-0.33316 5.74028,-0.16821 4.52807,0.23657 5.81061,0.66946 6.07333,2.0499 0.28429,1.49386 -0.46706,1.75 -5.1333,1.75 -4.06209,0 -5.62226,-0.40634 -6.07332,-1.58179 z"
         id="path742" />
      <path
         style="fill:#664afe"
         d="m 49.71281,139.9826 c 1.217046,-0.48985 2.787792,-1.81133 3.490547,-2.93662 C 54.24821,135.37291 55.521344,135 60.188527,135 h 5.707434 l -1.045806,3 -1.045805,3 -8.152175,-0.0634 c -5.80744,-0.0452 -7.515725,-0.31955 -5.939365,-0.95401 z M 129.5,138 c 1.5808,-1.65 3.3808,-3 4,-3 0.6192,0 2.4192,1.35 4,3 l 2.87418,3 H 133.5 126.62582 Z m 50.86971,0.75 c 0.33164,-1.2375 0.60913,-2.5875 0.61664,-3 0.008,-0.4125 2.44956,-0.75 5.42679,-0.75 h 5.41313 l -1.13237,3 c -1.04586,2.77081 -1.50653,3 -6.02977,3 -4.59077,0 -4.85964,-0.14087 -4.29442,-2.25 z M 206.5,138 c 1.5808,-1.65 3.3808,-3 4,-3 0.6192,0 2.4192,1.35 4,3 l 2.87418,3 H 210.5 203.62582 Z m 72.64984,0 -1.0458,-3 h 5.37106 c 4.6345,0 5.78245,0.4114 8.37105,3 l 3,3 h -7.32525 c -7.2401,0 -7.33741,-0.0349 -8.37106,-3 z"
         id="path740" />
      <path
         style="fill:#614cfe"
         d="m 56,130.54705 c 0,-0.24912 0.522232,-1.59912 1.160515,-3 C 58.208345,125.24732 58.879603,125 64.073651,125 h 5.752621 l -1.132374,3 c -1.078309,2.85677 -1.408372,3 -6.913136,3 C 58.601343,131 56,130.79617 56,130.54705 Z m 127,0.018 c 0,-0.2392 0.43886,-1.5892 0.97525,-3 0.86828,-2.28375 1.52639,-2.5651 6,-2.5651 2.76361,0 5.02475,0.19571 5.02475,0.4349 0,0.2392 -0.43886,1.5892 -0.97525,3 -0.86828,2.28375 -1.52639,2.5651 -6,2.5651 C 185.26114,131 183,130.80429 183,130.5651 Z M 275.3061,128 l -1.13237,-3 h 5.75262 c 5.19405,0 5.8653,0.24732 6.91313,2.54705 0.63829,1.40088 1.16052,2.75088 1.16052,3 0,0.24912 -2.60134,0.45295 -5.78076,0.45295 -5.50477,0 -5.83483,-0.14323 -6.91314,-3 z"
         id="path738" />
      <path
         style="fill:#5d4efe"
         d="m 60,121 c 2.00583,-3.93175 2.134143,-4 7.520324,-4 5.935512,0 6.314793,0.48438 3.953996,5.04966 C 70.042238,124.819 69.580875,125 63.953996,125 h -5.994644 z m 126.39728,0.25 c 1.1934,-3.46228 1.6218,-3.7741 5.58351,-4.06414 5.3787,-0.39377 6.23207,0.47267 4.49532,4.56414 -1.29419,3.04889 -1.68871,3.25 -6.37549,3.25 h -4.99592 z m 86.1284,0.79966 C 270.14431,117.44461 270.52491,117 276.84831,117 h 5.84831 l 1.57124,4 1.57125,4 h -5.89388 c -5.51529,0 -5.99187,-0.18951 -7.41955,-2.95034 z"
         id="path736" />
      <path
         style="fill:#5950fe"
         d="m 62.82861,113 0.381461,-4 H 68.605035 74 v 4 4 H 68.223574 62.447148 Z M 188,116 c 0,-1.19413 2.72111,-1.19413 5.5,0 1.60437,0.68942 1.2582,0.87333 -1.75,0.92971 C 189.6875,116.96837 188,116.55 188,116 Z m 82,-3 v -4 h 5.5 c 5.1504,0 5.5,0.15371 5.5,2.41821 0,1.33002 0.27314,3.13002 0.60699,4 0.51266,1.33597 -0.34207,1.58179 -5.5,1.58179 H 270 Z"
         id="path734" />
      <path
         style="fill:#5551fe"
         d="M 61.29604,105.45767 59.092081,102 h 6.418776 c 5.322599,0 6.595561,0.33033 7.453959,1.93426 2.192331,4.09641 1.376718,5.06849 -4.214816,5.02341 -4.877081,-0.0393 -5.406552,-0.28793 -7.45396,-3.5 z M 270,108.0651 c 0,-0.5142 0.43886,-2.0892 0.97525,-3.5 0.90953,-2.39224 1.41556,-2.5651 7.50919,-2.5651 h 6.53395 l -2.2592,3.48762 c -2.10528,3.25003 -2.61684,3.48847 -7.50919,3.5 -2.8875,0.007 -5.25,-0.40833 -5.25,-0.92252 z"
         id="path732" />
      <path
         style="fill:#4362fe"
         d="m 279.87244,53.25 c -1.24387,-1.586056 -1.2085,-1.621426 0.37756,-0.377555 0.9625,0.754844 1.75,1.542344 1.75,1.75 0,0.823034 -0.82119,0.293303 -2.12756,-1.372445 z"
         id="path730" />
      <path
         style="fill:#5253fe"
         d="M 57.654988,100.17126 C 56.744744,99.165452 56,98.078849 56,97.756586 c 0,-0.322262 2.895785,-0.736829 6.435078,-0.921259 6.117298,-0.318768 6.515149,-0.199525 8.056536,2.414673 l 1.621458,2.75 h -6.401548 c -4.931725,0 -6.781541,-0.41989 -8.056536,-1.82874 z M 273.59196,99.5 c 1.46417,-2.234605 2.31588,-2.5 8.02305,-2.5 6.70988,0 7.56154,0.625259 4.55625,3.34501 C 284.8839,101.51006 282.50875,102 278.14821,102 h -6.19432 z"
         id="path728" />
      <path
         style="fill:#5054fe"
         d="m 53.158121,94 -2.217996,-3 h 6.914928 c 6.246117,0 7.07113,0.238396 8.529937,2.464817 0.888256,1.355649 1.61501,2.705649 1.61501,3 C 68,96.759168 65.159626,97 61.688058,97 55.834345,97 55.215097,96.782209 53.158121,94 Z m 224.500949,0 c 1.69326,-2.86646 2.07547,-3 8.58647,-3 h 6.81433 l -2.21799,3 c -2.06059,2.787102 -2.66994,3 -8.58647,3 h -6.36848 z"
         id="path726" />
      <path
         style="fill:#4d55fe"
         d="M 49.61501,88.535183 C 48.726754,87.179534 48,85.829534 48,85.535183 48,85.240832 50.827977,85 54.284392,85 c 5.922182,0 6.386533,0.17291 8.056537,3 l 1.772143,3 h -6.441526 c -5.742958,0 -6.61667,-0.267303 -8.056536,-2.464817 z M 282,88 c 1.96251,-2.756095 2.61846,-3 8.06809,-3 3.26255,0 5.93191,0.349872 5.93191,0.777494 0,0.427621 -0.70052,1.777621 -1.5567,3 C 293.10566,90.687235 291.97027,91 286.3752,91 h -6.51139 z"
         id="path724" />
      <path
         style="fill:#4858fe"
         d="m 47,76.5 c 0,-2.382317 0.275911,-2.5 5.861328,-2.5 5.712858,0 5.849223,0.06333 5.383423,2.5 C 57.805481,78.797892 57.331632,79 52.383423,79 47.307772,79 47,78.857074 47,76.5 Z m 238.77074,0.08105 c -0.44115,-2.307734 -0.19355,-2.434173 5.38525,-2.75 5.79321,-0.327967 5.84764,-0.305447 5.84583,2.418951 -0.002,2.659223 -0.17953,2.75 -5.38524,2.75 -4.90011,0 -5.42494,-0.217169 -5.84584,-2.418951 z"
         id="path722" />
      <path
         style="fill:#4a56fe"
         d="M 47.666667,84.333333 C 47.3,83.966667 47,82.616667 47,81.333333 47,79.183459 47.415202,79 52.280762,79 c 4.949209,0 5.351859,0.188356 6.413136,3 l 1.132374,3 h -5.746469 c -3.160559,0 -6.04647,-0.3 -6.413136,-0.666667 z M 285.28877,82.045913 C 286.37263,79.174456 286.74474,79 291.78566,79 c 5.24333,0 5.34104,0.05341 5.03076,2.75 -0.3028,2.631614 -0.58249,2.762739 -6.49689,3.045913 l -6.18046,0.295912 z"
         id="path720" />
      <path
         style="fill:#4459fe"
         d="M 48,73.081787 C 48,69.642765 49.304068,69 56.281303,69 h 7.067325 L 61,71.5 C 59.064996,73.559718 57.71345,74 53.325686,74 50.396559,74 48,73.586804 48,73.081787 Z m 56.17593,-0.140349 c -1.27824,-0.512484 -3.29086,-1.60896 -4.472504,-2.436613 -1.953208,-1.368081 -0.833312,-1.497658 12.324064,-1.425953 l 14.47251,0.07887 -5,2.40826 c -5.25781,2.532436 -12.9208,3.140835 -17.32407,1.375433 z M 222.5,71.566005 l -5,-2.40826 14.25,-0.07887 c 7.8375,-0.04338 14.25,0.168129 14.25,0.47002 0,0.301891 -1.9125,1.417008 -4.25,2.478038 -5.90848,2.681958 -13.08137,2.510209 -19.25,-0.460925 z M 283,71.5 280.65137,69 h 7.06733 c 5.52198,0 7.20005,0.345873 7.67431,1.581787 C 296.54672,73.588306 295.97839,74 290.67431,74 286.28655,74 284.935,73.559718 283,71.5 Z"
         id="path718" />
      <path
         style="fill:#425afe"
         d="m 50,68.2 c 0,-2.243762 2.944909,-3.2 9.854988,-3.2 7.391645,0 7.439609,0.01699 5.645012,2 -1.474161,1.628929 -3.079967,2 -8.654988,2 C 53.080256,69 50,68.64 50,68.2 Z m 45,-1.160892 -2.5,-1.994636 22,0.05934 c 21.25153,0.05732 21.88093,0.115756 18.5,1.717648 -2.71014,1.284072 -7.11079,1.720819 -19.5,1.935299 C 98.780498,69.011577 97.299922,68.874112 95,67.039108 Z M 212,67 l -4.5,-1.888255 22,-0.0226 22,-0.0226 -2.36078,1.96673 c -2.12621,1.771306 -3.8651,1.961179 -17.5,1.910858 C 219.14142,68.898003 215.71486,68.558801 212,67 Z m 66.5,0 c -1.7946,-1.983007 -1.74663,-2 5.64501,-2 6.91008,0 9.85499,0.956238 9.85499,3.2 0,0.44 -3.08026,0.8 -6.84501,0.8 -5.57502,0 -7.18083,-0.371071 -8.65499,-2 z"
         id="path716" />
      <path
         style="fill:#405bfe"
         d="m 54.599871,62.75 c 1.536466,-2.041676 2.381578,-2.219276 9.127614,-1.918166 7.257234,0.323928 7.393011,0.377539 5.698456,2.25 C 68.012965,64.643156 66.314916,65 60.298327,65 H 52.90663 Z m 34.448766,0.143385 -2.451362,-2.040077 9.451362,0.4817 c 5.198253,0.264935 11.189883,0.803129 13.314743,1.195988 2.28102,0.421732 5.35285,0.232117 7.5,-0.462953 2.22156,-0.719161 8.30597,-1.058717 15.63662,-0.872642 l 12,0.304599 -3.20034,1.75 c -2.7945,1.528079 -6.15502,1.745781 -26.5,1.716731 C 92.841663,64.935377 91.358843,64.815988 89.048637,62.893385 Z M 202.5,63.209962 c -2.9722,-1.694118 -2.88881,-1.712784 9,-2.014561 7.33065,-0.186075 13.41506,0.153481 15.63662,0.872642 2.14715,0.69507 5.21898,0.884685 7.5,0.462953 C 236.76148,62.138137 242.775,61.622491 248,61.385114 l 9.5,-0.431593 -2.5,2.001004 c -2.34246,1.874905 -3.98091,1.999881 -26,1.983202 -20.31347,-0.01539 -23.90679,-0.249668 -26.5,-1.727765 z M 274.5,63 c -1.79586,-1.984398 -1.74663,-2 6.30983,-2 7.09635,0 8.25472,0.252089 9.19017,2 1.02543,1.916025 0.76049,2 -6.30983,2 -6.1102,0 -7.69166,-0.344162 -9.19017,-2 z"
         id="path714" />
      <path
         style="fill:#3e5cfe"
         d="m 58.665378,57.934622 c 1.226084,-1.226084 40.343084,-1.32616 41.562912,-0.106333 0.65227,0.652268 -6.40355,0.984732 -20.715169,0.97608 -12.047794,-0.0073 -21.323244,-0.394246 -20.847743,-0.869747 z M 125.5,58 c 2.89696,-1.244865 22.76937,-1.244865 22,0 -0.3592,0.581202 -5.51419,0.970565 -12.30902,0.929715 C 127.7279,58.884847 124.22328,58.548627 125.5,58 Z m 70.70432,-0.25 c -0.82634,-0.992664 1.39604,-1.147066 10.79514,-0.75 6.50963,0.275 12.17279,0.8375 12.58478,1.25 0.412,0.4125 -4.44581,0.75 -10.79513,0.75 -8.01374,0 -11.86245,-0.382278 -12.58479,-1.25 z m 47.34225,0.174642 C 243.86489,57.409601 252.75622,57 263.61803,57 c 15.32316,0 19.34344,-0.267747 18.76909,-1.25 -0.402,-0.6875 0.24644,-0.392756 1.44099,0.654988 1.19454,1.047743 2.17189,2.01592 2.17189,2.151505 0,0.135584 -9.6806,0.256929 -21.51244,0.269654 -12.92436,0.0139 -21.28431,-0.345994 -20.94099,-0.901505 z"
         id="path712" />
      <path
         style="fill:#3f5bfe"
         d="m 57,60 c 0,-0.583944 3.353006,-1 8.059017,-1 5.118034,0 7.833477,0.364931 7.440983,1 -0.339919,0.55 -3.966476,1 -8.059017,1 C 60.146994,61 57,60.577073 57,60 Z m 28,0 C 83.974356,59.337178 86.564653,59.025783 93.190983,59.015313 98.590503,59.006781 103.15565,59.442831 103.5,60 104.31321,61.315808 87.036068,61.315808 85,60 Z m 36,0 c 2.04094,-1.318958 25.31516,-1.318958 24.5,0 -0.36033,0.583034 -5.90974,0.993615 -13.30902,0.984687 C 123.62763,60.974355 119.98786,60.654094 121,60 Z m 77.5,0 c -0.81516,-1.318958 22.45906,-1.318958 24.5,0 1.01214,0.654094 -2.62763,0.974355 -11.19098,0.984687 C 204.40974,60.993615 198.86033,60.583034 198.5,60 Z m 42,0 c 0.34435,-0.557169 4.9095,-0.993219 10.30902,-0.984687 6.62633,0.01047 9.21662,0.321865 8.19098,0.984687 -2.03607,1.315808 -19.31321,1.315808 -18.5,0 z m 31,0 c -0.39235,-0.634836 2.30328,-1 7.38197,-1 4.4,0 8.27811,0.45 8.61803,1 0.39235,0.634836 -2.30328,1 -7.38197,1 -4.4,0 -8.27811,-0.45 -8.61803,-1 z"
         id="path710" />
      <path
         style="fill:#3c5cfe"
         d="m 63.347219,54 c 3.407015,-2.991399 3.45227,-2.999923 15.784796,-2.973099 C 91.348251,51.053472 91.542943,51.08995 95,54 l 3.5,2.946198 -19.284796,0.0269 L 59.930408,57 Z m 69.086471,1.418292 c 2.16352,-0.792431 4.67396,-2.110723 5.57874,-2.929538 C 139.50566,51.1374 151,50.220684 151,51.452947 c 0,0.249121 -0.52223,1.599121 -1.16052,3 -1.13541,2.491958 -1.37876,2.545529 -11.25,2.476591 -9.97139,-0.06964 -10.04344,-0.08732 -6.15579,-1.511246 z M 195.27768,55.75 c -3.02513,-3.909611 -2.41917,-4.75 3.42496,-4.75 3.59097,0 6.23751,0.54085 7.28493,1.488754 0.90478,0.818815 3.41522,2.137107 5.57874,2.929538 3.90942,1.431896 3.8743,1.441219 -5.69387,1.511246 -6.59247,0.04825 -9.93246,-0.3236 -10.59476,-1.179538 z M 246,56.536051 c 0,-0.255172 1.67946,-1.605172 3.73213,-3 C 253.21818,51.167221 254.26084,51 265.54504,51 h 12.08078 l 2.87418,3 2.87418,3 H 264.68709 C 254.40919,57 246,56.791223 246,56.536051 Z"
         id="path708" />
      <path
         style="fill:#395dfe"
         d="m 70.5,48.945276 c 4.80395,-2.273263 11.298101,-2.474301 16.032119,-0.496303 1.907334,0.796936 3.467881,1.696936 3.467881,2 0,0.303065 -5.2875,0.514601 -11.75,0.470079 l -11.75,-0.08095 4,-1.892829 z m 69.89301,0.472937 C 140.72686,48.548229 141,47.423229 141,46.918213 141,46.413196 143.475,46 146.5,46 c 5.47321,0 6.05006,0.402984 4.89301,3.418213 C 150.94132,50.59529 149.37881,51 145.28602,51 c -4.60444,0 -5.40116,-0.257562 -4.89301,-1.581787 z m 52.21398,0 C 191.45197,46.408273 192.02361,46 197.39301,46 c 3.99523,0 5.55033,0.409974 6,1.581787 C 204.54803,50.591727 203.97639,51 198.60699,51 c -3.99523,0 -5.55033,-0.409974 -6,-1.581787 z M 257,49 c 4.60177,-2.519364 12.39823,-2.519364 17,0 l 3.5,1.916169 h -12 -12 z"
         id="path706" />
      <path
         style="fill:#365ffe"
         d="m 141.36971,43.75 c 0.33164,-1.2375 0.60913,-2.5875 0.61664,-3 0.008,-0.4125 2.48865,-0.75 5.51365,-0.75 5.73525,0 5.85082,0.089 4.86971,3.75 -0.53263,1.987518 -1.2446,2.25 -6.10297,2.25 -5.2157,0 -5.46883,-0.116306 -4.89703,-2.25 z m 50.26058,0 C 190.64918,40.088997 190.76475,40 196.5,40 c 3.025,0 5.50614,0.3375 5.51365,0.75 0.008,0.4125 0.285,1.7625 0.61664,3 0.5718,2.133694 0.31867,2.25 -4.89703,2.25 -4.85837,0 -5.57034,-0.262482 -6.10297,-2.25 z"
         id="path704" />
      <path
         style="fill:#3460fe"
         d="m 142.36971,37.75 c 0.33164,-1.2375 0.60913,-2.5875 0.61664,-3 0.008,-0.4125 2.48865,-0.75 5.51365,-0.75 5.73525,0 5.85082,0.089 4.86971,3.75 -0.53263,1.987518 -1.2446,2.25 -6.10297,2.25 -5.2157,0 -5.46883,-0.116306 -4.89703,-2.25 z m 48.26058,0 c -0.98026,-3.657804 -0.86316,-3.75 4.76272,-3.75 3.99523,0 5.55033,0.409974 6,1.581787 C 202.83886,39.349616 202.13575,40 196.61663,40 c -4.73742,0 -5.45572,-0.269974 -5.98634,-2.25 z"
         id="path702" />
      <path
         style="fill:#3161fe"
         d="m 143.36971,31.75 c 0.33164,-1.2375 0.60913,-2.5875 0.61664,-3 0.008,-0.4125 2.48865,-0.75 5.51365,-0.75 5.73525,0 5.85082,0.089 4.86971,3.75 -0.53263,1.987518 -1.2446,2.25 -6.10297,2.25 -5.2157,0 -5.46883,-0.116306 -4.89703,-2.25 z m 46.26058,0 c -0.98026,-3.657804 -0.86316,-3.75 4.76272,-3.75 3.99523,0 5.55033,0.409974 6,1.581787 C 201.83886,33.349616 201.13575,34 195.61663,34 c -4.73742,0 -5.45572,-0.269974 -5.98634,-2.25 z"
         id="path700" />
      <path
         style="fill:#2c64fe"
         d="m 146,21.98226 c 0,-0.369757 0.82293,-1.417029 1.82874,-2.327272 C 149.41496,18.219478 152.60558,18 171.88776,18 c 17.47423,0 22.0872,-0.267431 21.56151,-1.25 -0.36782,-0.6875 0.48944,0.1 1.90502,1.75 1.41558,1.65 2.58997,3.259773 2.60975,3.577273 0.0198,0.3175 -11.66404,0.577272 -25.96404,0.577272 -14.3,0 -26,-0.302528 -26,-0.672285 z"
         id="path698" />
      <path
         style="fill:#2e62fe"
         d="M 144.39301,26.418213 C 144.72686,25.548229 145,24.423229 145,23.918213 145,23.413196 148.35455,23 152.45455,23 h 7.45454 l -2.5,2.5 c -2.06731,2.067312 -3.46256,2.5 -8.06153,2.5 -4.66055,0 -5.4632,-0.256254 -4.95455,-1.581787 z M 187,25.5 184.65137,23 h 7.17432 C 195.77156,23 199,23.413196 199,23.918213 c 0,0.505016 0.27314,1.630016 0.60699,2.5 C 200.11458,27.740974 199.32435,28 194.7813,28 190.27942,28 188.94623,27.571671 187,25.5 Z"
         id="path696" />
      <path
         style="fill:#2964fe"
         d="m 151.5,16 c 1.68699,-1.8641 3.07997,-2 20.5,-2 17.42003,0 18.81301,0.1359 20.5,2 1.80484,1.994322 1.74663,2 -20.5,2 -22.24663,0 -22.30484,-0.0057 -20.5,-2 z"
         id="path694" />
      <path
         style="fill:#2766fe"
         d="m 157,12.734132 c 3.29386,-1.500808 26.70614,-1.500808 30,0 1.98397,0.903971 -1.11223,1.139095 -15,1.139095 -13.88777,0 -16.98397,-0.235124 -15,-1.139095 z"
         id="path692" />
    </g>
  </g>
</svg>
