<?xml version="1.0" encoding="UTF-8" standalone="no"?>
<!-- Created with Inkscape (http://www.inkscape.org/) -->

<svg
   version="1.1"
   id="svg431"
   width="306.2782"
   height="342.3147"
   viewBox="0 0 306.2782 342.3147"
   xmlns="http://www.w3.org/2000/svg"
   xmlnsSvg="http://www.w3.org/2000/svg">
  <defs
     id="defs435" />
  <g
     id="g437"
     transform="translate(-22.159573,23.40215)">
    <g
       id="g441"
       transform="translate(3.2986753,-24.048412)">
      <path
         style="fill:#eaf8fd"
         d="m 92.078947,338.41667 c 0.04798,-1.16495 0.284941,-1.4019 0.604167,-0.60417 0.288871,0.72187 0.253344,1.58438 -0.07895,1.91667 -0.332292,0.33229 -0.568641,-0.25834 -0.52522,-1.3125 z m 0,-12 c 0.04798,-1.16495 0.284941,-1.4019 0.604167,-0.60417 0.288871,0.72187 0.253344,1.58438 -0.07895,1.91667 -0.332292,0.33229 -0.568641,-0.25834 -0.52522,-1.3125 z"
         id="path525" />
      <path
         style="fill:#ecf3fb"
         d="m 160.32982,206.41712 c -0.37792,-0.98485 2.21606,-11.68275 6.01919,-24.82391 C 179.69708,135.47092 179.35087,136.5 181.51965,136.5 c 1.38806,0 2.04501,0.74771 2.19653,2.5 0.1189,1.375 -4.1561,17.3444 -9.5,35.48756 -7.63699,25.92848 -10.09131,33.05953 -11.4692,33.32391 -0.96986,0.18608 -2.04973,-0.43685 -2.41716,-1.39435 z M 120.5,187 105.52501,172 120.5,157 c 8.23625,-8.25 15.55724,-15 16.26888,-15 0.71164,0 1.56446,0.70509 1.89516,1.56688 0.41632,1.08491 -3.1307,5.3418 -11.53139,13.83917 C 118.63038,166.00618 115,170.37304 115,172 c 0,1.62696 3.63038,5.99382 12.13265,14.59395 8.40069,8.49737 11.94771,12.75426 11.53139,13.83917 -0.3307,0.86179 -1.18352,1.56688 -1.89516,1.56688 -0.71164,0 -8.03263,-6.75 -16.26888,-15 z m 84.83596,13.43312 c -0.41632,-1.08491 3.1307,-5.3418 11.53139,-13.83917 C 225.36962,177.99382 229,173.62696 229,172 c 0,-1.62696 -3.63038,-5.99382 -12.13265,-14.59395 -8.40069,-8.49737 -11.94771,-12.75426 -11.53139,-13.83917 0.3307,-0.86179 1.18352,-1.56688 1.89516,-1.56688 0.71164,0 8.03263,6.75 16.26888,15 L 238.47499,172 223.5,187 c -8.23625,8.25 -15.55724,15 -16.26888,15 -0.71164,0 -1.56446,-0.70509 -1.89516,-1.56688 z"
         id="path523" />
      <path
         style="fill:#eaf1f9"
         d="M 126.98369,186.25 115.5,174.5 127.25,185.98369 C 138.16409,196.65041 139.45386,198 138.73369,198 c -0.14647,0 -5.43397,-5.2875 -11.75,-11.75 z M 216,186.5 c 6.30706,-6.325 11.69238,-11.5 11.96738,-11.5 0.275,0 -4.66032,5.175 -10.96738,11.5 -6.30706,6.325 -11.69238,11.5 -11.96738,11.5 -0.275,0 4.66032,-5.175 10.96738,-11.5 z m -89,-29 c 6.30706,-6.325 11.69238,-11.5 11.96738,-11.5 0.275,0 -4.66032,5.175 -10.96738,11.5 -6.30706,6.325 -11.69238,11.5 -11.96738,11.5 -0.275,0 4.66032,-5.175 10.96738,-11.5 z M 215.98369,157.25 204.5,145.5 216.25,156.98369 C 227.16409,167.65041 228.45386,169 227.73369,169 c -0.14647,0 -5.43397,-5.2875 -11.75,-11.75 z"
         id="path521" />
      <path
         style="fill:#dbe2e9"
         d="m 224.5,186 c 3.26557,-3.3 6.16239,-6 6.43739,-6 0.275,0 -2.17182,2.7 -5.43739,6 -3.26557,3.3 -6.16239,6 -6.43739,6 -0.275,0 2.17182,-2.7 5.43739,-6 z m -0.0313,-28.25 -5.9687,-6.25 6.25,5.9687 c 3.4375,3.28278 6.25,6.09528 6.25,6.25 0,0.7389 -0.98689,-0.16298 -6.5313,-5.9687 z"
         id="path519" />
      <path
         style="fill:#d9e0e7"
         d="M 119.98611,187.25 106.5,173.5 l 13.75,13.48611 c 7.5625,7.41735 13.75,13.60485 13.75,13.75 0,0.71695 -1.48617,-0.71325 -14.01389,-13.48611 z M 213,197.62244 c 0,-0.20765 0.7875,-0.99515 1.75,-1.75 1.58606,-1.24387 1.62143,-1.2085 0.37756,0.37756 C 213.82119,197.91575 213,198.44548 213,197.62244 Z M 119.98611,156.75 C 132.51383,143.97714 134,142.54694 134,143.26389 c 0,0.14515 -6.1875,6.33265 -13.75,13.75 L 106.5,170.5 Z m 93.88633,-9.5 c -1.24387,-1.58606 -1.2085,-1.62143 0.37756,-0.37756 0.9625,0.75485 1.75,1.54235 1.75,1.75 0,0.82304 -0.82119,0.29331 -2.12756,-1.37244 z"
         id="path517" />
      <path
         style="fill:#baeafb"
         d="m 83.078947,338.41667 c 0.04798,-1.16495 0.284941,-1.4019 0.604167,-0.60417 0.288871,0.72187 0.253344,1.58438 -0.07895,1.91667 -0.332292,0.33229 -0.568641,-0.25834 -0.52522,-1.3125 z m 0,-12 c 0.04798,-1.16495 0.284941,-1.4019 0.604167,-0.60417 0.288871,0.72187 0.253344,1.58438 -0.07895,1.91667 -0.332292,0.33229 -0.568641,-0.25834 -0.52522,-1.3125 z"
         id="path515" />
      <path
         style="fill:#a6e4fa"
         d="m 80.8125,336.31689 c 0.721875,-0.28887 1.584375,-0.25335 1.916667,0.0789 0.332291,0.33229 -0.258334,0.56864 -1.3125,0.52522 -1.164943,-0.048 -1.4019,-0.28494 -0.604167,-0.60416 z m 11.9375,0.0208 c 0.6875,-0.27741 1.8125,-0.27741 2.5,0 0.6875,0.27741 0.125,0.50439 -1.25,0.50439 -1.375,0 -1.9375,-0.22698 -1.25,-0.50439 z"
         id="path513" />
      <path
         style="fill:#d2d2d2"
         d="m 106.40249,293 c 0,-8.525 0.15337,-12.0125 0.34082,-7.75 0.18745,4.2625 0.18745,11.2375 0,15.5 -0.18745,4.2625 -0.34082,0.775 -0.34082,-7.75 z m 131,0 c 0,-8.525 0.15337,-12.0125 0.34082,-7.75 0.18745,4.2625 0.18745,11.2375 0,15.5 -0.18745,4.2625 -0.34082,0.775 -0.34082,-7.75 z m -131,-242 c 0,-8.525 0.15337,-12.0125 0.34082,-7.75 0.18745,4.2625 0.18745,11.2375 0,15.5 -0.18745,4.2625 -0.34082,0.775 -0.34082,-7.75 z m 131,0 c 0,-8.525 0.15337,-12.0125 0.34082,-7.75 0.18745,4.2625 0.18745,11.2375 0,15.5 -0.18745,4.2625 -0.34082,0.775 -0.34082,-7.75 z"
         id="path511" />
      <path
         style="fill:#cccccc"
         d="m 43.25,237.25669 c 4.2625,-0.18745 11.2375,-0.18745 15.5,0 4.2625,0.18745 0.775,0.34082 -7.75,0.34082 -8.525,0 -12.0125,-0.15337 -7.75,-0.34082 z m 242,0 c 4.2625,-0.18745 11.2375,-0.18745 15.5,0 4.2625,0.18745 0.775,0.34082 -7.75,0.34082 -8.525,0 -12.0125,-0.15337 -7.75,-0.34082 z m -242,-131 c 4.2625,-0.18745 11.2375,-0.18745 15.5,0 4.2625,0.18745 0.775,0.34082 -7.75,0.34082 -8.525,0 -12.0125,-0.15337 -7.75,-0.34082 z m 242,0 c 4.2625,-0.18745 11.2375,-0.18745 15.5,0 4.2625,0.18745 0.775,0.34082 -7.75,0.34082 -8.525,0 -12.0125,-0.15337 -7.75,-0.34082 z"
         id="path509" />
      <path
         style="fill:#6fd5f8"
         d="M 84.606989,341.41821 C 84.273145,340.54823 84,339.00174 84,337.98157 c 0,-1.36171 -0.864066,-1.93816 -3.25,-2.16821 -2.874809,-0.27718 -3.25,-0.65969 -3.25,-3.31336 0,-2.52168 0.518177,-3.15255 3.25,-3.9568 2.374708,-0.69911 3.25,-1.54142 3.25,-3.12755 0,-5.22885 6.619975,-5.56578 7.655208,-0.38961 0.425156,2.12578 1.30608,3.02618 3.413585,3.48907 C 100.29674,329.66336 99.711544,336 94.377555,336 92.563295,336 92,336.54492 92,338.3 c 0,1.265 -0.54,2.84 -1.2,3.5 -1.714437,1.71444 -5.477639,1.48244 -6.193011,-0.38179 z m 9.615517,-89.97491 c -2.695584,-1.88806 -2.880129,-5.53818 -0.393765,-7.78831 2.399142,-2.1712 5.458119,-2.10048 7.516269,0.17375 2.19936,2.43026 2.08834,4.73791 -0.34501,7.17126 -2.406924,2.40692 -3.840182,2.50067 -6.777494,0.4433 z M 243,251 c -2.49115,-2.49115 -2.55405,-5.18862 -0.17126,-7.34501 2.39914,-2.1712 5.45812,-2.10048 7.51627,0.17375 2.30458,2.54653 2.06425,5.7712 -0.56752,7.61456 C 246.84018,253.50067 245.40692,253.40692 243,251 Z M 93.654988,100.17126 c -2.403533,-2.655874 -2.037468,-5.874543 0.885976,-7.790058 3.241756,-2.12408 7.109356,-0.622638 8.049966,3.125084 1.29917,5.176284 -5.337668,8.641024 -8.935942,4.664974 z m 148.881482,-0.13097 c -2.31277,-2.555569 -1.32319,-6.724712 1.95015,-8.216149 5.32226,-2.424984 10.01203,4.604641 5.68464,8.520869 -2.44297,2.21086 -5.46748,2.09014 -7.63479,-0.30472 z"
         id="path507" />
      <path
         style="fill:#f4c74b"
         d="M 60.604263,304.84539 C 58.643838,302.04649 60.153034,299 63.5,299 c 3.346966,0 4.856162,3.04649 2.895737,5.84539 C 65.565707,306.03043 64.262626,307 63.5,307 c -0.762626,0 -2.065707,-0.96957 -2.895737,-2.15461 z M 274.49479,46.615227 c -1.10286,-1.713375 -3.40781,-3.817503 -5.1221,-4.67584 l -3.11689,-1.560614 3.55019,-1.939386 c 1.95261,-1.066663 4.24573,-3.319047 5.09582,-5.005298 l 1.54562,-3.065911 2.05008,3.042114 c 1.12755,1.673163 3.51652,4.030349 5.30884,5.238191 2.97418,2.004302 3.08369,2.251641 1.254,2.832364 -1.10262,0.349957 -3.47977,2.349283 -5.28256,4.442946 L 276.5,49.730453 Z"
         id="path505" />
      <path
         style="fill:#fb647d"
         d="m 36.5,72.5 -3,-3 3.256918,-3.171332 c 3.065469,-2.984914 3.316772,-3.059495 4.275141,-1.268764 0.560023,1.046412 2.24441,2.567994 3.743082,3.381294 1.804466,0.979248 2.163777,1.492251 1.063753,1.518764 -0.913609,0.02202 -2.713609,1.277538 -4,2.790038 L 39.5,75.5 Z"
         id="path503" />
      <path
         style="fill:#518fda"
         d="M 80.372289,269.08168 C 72.548829,265.52904 72.901908,270.42018 73.219823,170 73.474782,89.465742 73.649265,81.289232 75.158347,79.158347 79.422295,73.13748 73.213676,73.526233 170,73.219823 c 100.42018,-0.317915 95.52904,-0.670994 99.08168,7.152466 1.7868,3.934805 1.8744,8.21696 1.8744,91.627711 0,83.15749 -0.0923,87.70317 -1.85926,91.59389 -3.53374,7.78095 1.37069,7.40901 -97.36706,7.38415 -83.120337,-0.0209 -87.424218,-0.11027 -91.357471,-1.89636 z M 106.4446,256.75 c 9.11157,-9.12672 1.92213,-24.13555 -10.747268,-22.43623 -11.260552,1.51036 -15.362881,14.22068 -7.218463,22.3651 C 91.463504,259.6635 92.377522,260 97.5,260 c 5.09854,0 6.04237,-0.34294 8.9446,-3.25 z m 149.07653,-0.0711 c 4.06259,-4.06259 5.28007,-9.28685 3.34754,-14.36441 -4.03685,-10.60646 -19.45902,-11.01612 -24.04939,-0.63883 -2.52251,5.70256 -1.61198,10.71904 2.73612,15.07437 2.90223,2.90706 3.84606,3.25 8.9446,3.25 5.12248,0 6.0365,-0.3365 9.02113,-3.32113 z m -89.23901,-42.024 c 1.76983,-0.7398 3.75859,-1.99715 4.41945,-2.7941 C 172.42599,209.78127 192,142.25672 192,138.38752 c 0,-4.03469 -3.99147,-9.0071 -7.92344,-9.8707 -3.09761,-0.68035 -8.79809,1.23459 -10.77614,3.61999 -1.68341,2.03008 -21.2898,69.67985 -21.29563,73.47833 -0.007,4.83242 4.96697,10.08366 9.77733,10.32147 0.70516,0.0349 2.73016,-0.5419 4.5,-1.28171 z M 144.25,206.01895 c 2.94958,-3.27189 3.56749,-7.54087 1.64063,-11.33469 -0.61016,-1.20134 -5.66462,-6.79676 -11.23214,-12.43426 L 124.53573,172 134.65849,161.75 c 5.56752,-5.6375 10.62198,-11.23292 11.23214,-12.43426 4.52792,-8.91509 -5.63068,-18.60322 -14.49886,-13.82739 -1.80864,0.97402 -9.83668,8.41089 -17.8401,16.52639 L 99,166.77019 V 172 v 5.22981 l 14.60787,14.81243 c 8.03432,8.14684 16.02182,15.53192 17.75,16.41129 4.46271,2.27083 9.5094,1.3178 12.89213,-2.43458 z m 70.34996,1.11462 c 2.14502,-1.57653 9.86254,-8.95606 17.15004,-16.39894 L 245,177.20211 v -5.21596 -5.21596 l -14.55167,-14.75545 c -8.00342,-8.1155 -16.03146,-15.55237 -17.8401,-16.52639 -8.86818,-4.77583 -19.02678,4.9123 -14.49886,13.82739 0.61016,1.20134 5.66462,6.79676 11.23214,12.43426 l 10.12276,10.25 -10.12276,10.25 c -5.56752,5.6375 -10.62198,11.23292 -11.23214,12.43426 -1.73048,3.40716 -1.31172,7.78877 1.02875,10.7642 4.13659,5.25883 9.76488,5.87223 15.46184,1.68511 z M 103.73383,108.32202 c 2.47927,-1.17649 4.10717,-2.969 5.44689,-5.99765 C 111.70323,96.621812 110.7927,91.605327 106.4446,87.25 103.56663,84.367241 102.57589,84 97.676725,84 91.12045,84 86.849599,86.895661 84.959655,92.622245 81.13357,104.2154 92.448371,113.67732 103.73383,108.32202 Z m 148.59389,0.31441 c 8.56584,-3.57904 9.96895,-15.843236 2.5288,-22.103704 C 252.43059,84.491436 250.77484,84 246.32327,84 c -4.89916,0 -5.8899,0.367241 -8.76787,3.25 -4.34363,4.350853 -5.25834,9.372458 -2.74303,15.05874 3.00061,6.78337 10.19997,9.38425 17.51535,6.32769 z"
         id="path501" />
      <path
         style="fill:#508ed8"
         d="M 114.4866,192.75 100.5,178.5 114.75,192.4866 C 127.9876,205.47952 129.45289,207 128.7366,207 c -0.14487,0 -6.55737,-6.4125 -14.25,-14.25 z M 228.5,193 c 7.68526,-7.7 14.19821,-14 14.47321,-14 0.275,0 -5.78795,6.3 -13.47321,14 -7.68526,7.7 -14.19821,14 -14.47321,14 -0.275,0 5.78795,-6.3 13.47321,-14 z m -114,-42 c 7.68526,-7.7 14.19821,-14 14.47321,-14 0.275,0 -5.78795,6.3 -13.47321,14 -7.68526,7.7 -14.19821,14 -14.47321,14 -0.275,0 5.78795,-6.3 13.47321,-14 z M 228.4866,150.75 214.5,136.5 228.75,150.4866 C 241.9876,163.47952 243.45289,165 242.7366,165 c -0.14487,0 -6.55737,-6.4125 -14.25,-14.25 z"
         id="path499" />
      <path
         style="fill:#86d046"
         d="m 253.75,7.9199012 c -2.30198,-1.34078 -2.24275,-5.585821 0.0954,-6.8371584 1.32828,-0.71086957 2.44917,-0.56472758 4,0.5215202 2.63555,1.8460115 2.73298,3.5623445 0.32587,5.7407494 -2.11843,1.9171506 -2.11705,1.9169708 -4.42126,0.5748888 z"
         id="path497" />
      <path
         style="fill:#4b84c9"
         d="m 137.5,158 c 3.26557,-3.3 6.16239,-6 6.43739,-6 0.275,0 -2.17182,2.7 -5.43739,6 -3.26557,3.3 -6.16239,6 -6.43739,6 -0.275,0 2.17182,-2.7 5.43739,-6 z"
         id="path495" />
      <path
         style="fill:#4a83c8"
         d="m 209.48759,182.25 9.97489,-10.25 -9.97489,-10.25 -9.97488,-10.25 10.48755,10.25 10.48754,10.25 -10.48754,10.25 -10.48755,10.25 z m -83.61515,-8 c -1.24387,-1.58606 -1.2085,-1.62143 0.37756,-0.37756 0.9625,0.75485 1.75,1.54235 1.75,1.75 0,0.82304 -0.82119,0.29331 -2.12756,-1.37244 z M 125,170.62244 c 0,-0.20765 0.7875,-0.99515 1.75,-1.75 1.58606,-1.24387 1.62143,-1.2085 0.37756,0.37756 C 125.82119,170.91575 125,171.44548 125,170.62244 Z"
         id="path493" />
      <path
         style="fill:#4880c4"
         d="m 137.4687,185.75 -5.9687,-6.25 6.25,5.9687 c 5.80572,5.54441 6.7076,6.5313 5.9687,6.5313 -0.15472,0 -2.96722,-2.8125 -6.25,-6.25 z"
         id="path491" />
      <path
         style="fill:#767676"
         d="m 43.25,230.25669 c 4.2625,-0.18745 11.2375,-0.18745 15.5,0 4.2625,0.18745 0.775,0.34082 -7.75,0.34082 -8.525,0 -12.0125,-0.15337 -7.75,-0.34082 z m 242,0 c 4.2625,-0.18745 11.2375,-0.18745 15.5,0 4.2625,0.18745 0.775,0.34082 -7.75,0.34082 -8.525,0 -12.0125,-0.15337 -7.75,-0.34082 z m -242,-117 c 4.2625,-0.18745 11.2375,-0.18745 15.5,0 4.2625,0.18745 0.775,0.34082 -7.75,0.34082 -8.525,0 -12.0125,-0.15337 -7.75,-0.34082 z m 242,0 c 4.2625,-0.18745 11.2375,-0.18745 15.5,0 4.2625,0.18745 0.775,0.34082 -7.75,0.34082 -8.525,0 -12.0125,-0.15337 -7.75,-0.34082 z"
         id="path489" />
      <path
         style="fill:#747474"
         d="m 113.40249,293 c 0,-8.525 0.15337,-12.0125 0.34082,-7.75 0.18745,4.2625 0.18745,11.2375 0,15.5 -0.18745,4.2625 -0.34082,0.775 -0.34082,-7.75 z m 117,0 c 0,-8.525 0.15337,-12.0125 0.34082,-7.75 0.18745,4.2625 0.18745,11.2375 0,15.5 -0.18745,4.2625 -0.34082,0.775 -0.34082,-7.75 z m -117,-242 c 0,-8.525 0.15337,-12.0125 0.34082,-7.75 0.18745,4.2625 0.18745,11.2375 0,15.5 -0.18745,4.2625 -0.34082,0.775 -0.34082,-7.75 z m 117,0 c 0,-8.525 0.15337,-12.0125 0.34082,-7.75 0.18745,4.2625 0.18745,11.2375 0,15.5 -0.18745,4.2625 -0.34082,0.775 -0.34082,-7.75 z"
         id="path487" />
      <path
         style="fill:#626468"
         d="m 127.4687,185.75 -5.9687,-6.25 6.25,5.9687 c 5.80572,5.54441 6.7076,6.5313 5.9687,6.5313 -0.15472,0 -2.96722,-2.8125 -6.25,-6.25 z M 127.5,158 c 3.26557,-3.3 6.16239,-6 6.43739,-6 0.275,0 -2.17182,2.7 -5.43739,6 -3.26557,3.3 -6.16239,6 -6.43739,6 -0.275,0 2.17182,-2.7 5.43739,-6 z"
         id="path485" />
      <path
         style="fill:#5c5f62"
         d="m 215.5,186 c 3.26557,-3.3 6.16239,-6 6.43739,-6 0.275,0 -2.17182,2.7 -5.43739,6 -3.26557,3.3 -6.16239,6 -6.43739,6 -0.275,0 2.17182,-2.7 5.43739,-6 z m 3.42431,-24.75 -2.42431,-2.75 2.75,2.42431 c 2.57029,2.26589 3.20859,3.07569 2.42431,3.07569 -0.17912,0 -1.41662,-1.2375 -2.75,-2.75 z"
         id="path483" />
      <path
         style="fill:#5a5d60"
         d="M 212.94617,155.25 209.5,151.5 l 3.75,3.44617 c 3.49042,3.20761 4.20979,4.05383 3.44617,4.05383 -0.16711,0 -1.85461,-1.6875 -3.75,-3.75 z"
         id="path481" />
      <path
         style="fill:#444444"
         d="m 32.30642,189.25274 c 6.493532,-0.17445 16.843532,-0.17388 23,0.001 6.156469,0.17516 0.84358,0.31789 -11.80642,0.31719 -12.65,-7e-4 -17.687111,-0.14401 -11.19358,-0.31847 z m 257,0 c 6.49353,-0.17445 16.84353,-0.17388 23,0.001 6.15647,0.17516 0.84358,0.31789 -11.80642,0.31719 -12.65,-7e-4 -17.68711,-0.14401 -11.19358,-0.31847 z m -257,-35 c 6.493532,-0.17445 16.843532,-0.17388 23,0.001 6.156469,0.17516 0.84358,0.31789 -11.80642,0.31719 -12.65,-7e-4 -17.687111,-0.14401 -11.19358,-0.31847 z m 257,0 c 6.49353,-0.17445 16.84353,-0.17388 23,0.001 6.15647,0.17516 0.84358,0.31789 -11.80642,0.31719 -12.65,-7e-4 -17.68711,-0.14401 -11.19358,-0.31847 z"
         id="path479" />
      <path
         style="fill:#3e3e3e"
         d="m 154.42751,300 c 0,-12.375 0.14355,-17.4375 0.319,-11.25 0.17544,6.1875 0.17544,16.3125 0,22.5 -0.17545,6.1875 -0.319,1.125 -0.319,-11.25 z m 35,0 c 0,-12.375 0.14355,-17.4375 0.319,-11.25 0.17544,6.1875 0.17544,16.3125 0,22.5 -0.17545,6.1875 -0.319,1.125 -0.319,-11.25 z m -35,-256 c 0,-12.375 0.14355,-17.4375 0.319,-11.25 0.17544,6.1875 0.17544,16.3125 0,22.5 -0.17545,6.1875 -0.319,1.125 -0.319,-11.25 z m 35,0 c 0,-12.375 0.14355,-17.4375 0.319,-11.25 0.17544,6.1875 0.17544,16.3125 0,22.5 -0.17545,6.1875 -0.319,1.125 -0.319,-11.25 z"
         id="path477" />
      <path
         style="fill:#203a5a"
         d="m 108.4687,185.75 -5.9687,-6.25 6.25,5.9687 c 3.4375,3.28278 6.25,6.09528 6.25,6.25 0,0.7389 -0.98689,-0.16298 -6.5313,-5.9687 z M 108.5,158 c 3.26557,-3.3 6.16239,-6 6.43739,-6 0.275,0 -2.17182,2.7 -5.43739,6 -3.26557,3.3 -6.16239,6 -6.43739,6 -0.275,0 2.17182,-2.7 5.43739,-6 z"
         id="path475" />
      <path
         style="fill:#203957"
         d="M 124.43709,201.75 121.5,198.5 l 3.25,2.93709 c 3.02946,2.73778 3.70965,3.56291 2.93709,3.56291 -0.1721,0 -1.6346,-1.4625 -3.25,-3.25 z M 216,204.68709 c 0,-0.1721 1.4625,-1.6346 3.25,-3.25 l 3.25,-2.93709 -2.93709,3.25 C 216.82513,204.77946 216,205.45965 216,204.68709 Z M 118.87244,196.25 c -1.24387,-1.58606 -1.2085,-1.62143 0.37756,-0.37756 0.9625,0.75485 1.75,1.54235 1.75,1.75 0,0.82304 -0.82119,0.29331 -2.12756,-1.37244 z M 223,197.62244 c 0,-0.20765 0.7875,-0.99515 1.75,-1.75 1.58606,-1.24387 1.62143,-1.2085 0.37756,0.37756 C 223.82119,197.91575 223,198.44548 223,197.62244 Z m -105,-49 c 0,-0.20765 0.7875,-0.99515 1.75,-1.75 1.58606,-1.24387 1.62143,-1.2085 0.37756,0.37756 C 118.82119,148.91575 118,149.44548 118,148.62244 Z M 223.87244,147.25 c -1.24387,-1.58606 -1.2085,-1.62143 0.37756,-0.37756 0.9625,0.75485 1.75,1.54235 1.75,1.75 0,0.82304 -0.82119,0.29331 -2.12756,-1.37244 z M 122,144.68709 c 0,-0.1721 1.4625,-1.6346 3.25,-3.25 l 3.25,-2.93709 -2.93709,3.25 C 122.82513,144.77946 122,145.45965 122,144.68709 Z M 218.43709,141.75 215.5,138.5 l 3.25,2.93709 c 3.02946,2.73778 3.70965,3.56291 2.93709,3.56291 -0.1721,0 -1.6346,-1.4625 -3.25,-3.25 z"
         id="path473" />
      <path
         style="fill:#1f3856"
         d="m 234.5,186 c 3.26557,-3.3 6.16239,-6 6.43739,-6 0.275,0 -2.17182,2.7 -5.43739,6 -3.26557,3.3 -6.16239,6 -6.43739,6 -0.275,0 2.17182,-2.7 5.43739,-6 z"
         id="path471" />
      <path
         style="fill:#1e3653"
         d="m 234.4687,157.75 -5.9687,-6.25 6.25,5.9687 c 3.4375,3.28278 6.25,6.09528 6.25,6.25 0,0.7389 -0.98689,-0.16298 -6.5313,-5.9687 z"
         id="path469" />
      <path
         style="fill:#323232"
         d="m 90.286513,277.25992 c 3.182582,-0.19905 8.132582,-0.1972 10.999997,0.004 2.86742,0.20131 0.26349,0.36417 -5.78651,0.36191 -6.05,-0.002 -8.396069,-0.16696 -5.213487,-0.36601 z m 31.963487,-0.004 c 4.8125,-0.18331 12.6875,-0.18331 17.5,0 4.8125,0.18332 0.875,0.3333 -8.75,0.3333 -9.625,0 -13.5625,-0.14998 -8.75,-0.3333 z m 41,0 c 4.8125,-0.18331 12.6875,-0.18331 17.5,0 4.8125,0.18332 0.875,0.3333 -8.75,0.3333 -9.625,0 -13.5625,-0.14998 -8.75,-0.3333 z m 41,0 c 4.8125,-0.18331 12.6875,-0.18331 17.5,0 4.8125,0.18332 0.875,0.3333 -8.75,0.3333 -9.625,0 -13.5625,-0.14998 -8.75,-0.3333 z m 39.03651,0.004 c 3.18258,-0.19905 8.13258,-0.1972 11,0.004 2.86742,0.20131 0.26349,0.36417 -5.78651,0.36191 -6.05,-0.002 -8.39607,-0.16696 -5.21349,-0.36601 z M 89.25,66.261012 c 3.1625,-0.198451 8.3375,-0.198451 11.5,0 3.1625,0.19845 0.575,0.360819 -5.75,0.360819 -6.325,0 -8.9125,-0.162369 -5.75,-0.360819 z m 33,-0.0056 c 4.8125,-0.183314 12.6875,-0.183314 17.5,0 4.8125,0.183314 0.875,0.333298 -8.75,0.333298 -9.625,0 -13.5625,-0.149984 -8.75,-0.333298 z m 41,0 c 4.8125,-0.183314 12.6875,-0.183314 17.5,0 4.8125,0.183314 0.875,0.333298 -8.75,0.333298 -9.625,0 -13.5625,-0.149984 -8.75,-0.333298 z m 41,0 c 4.8125,-0.183314 12.6875,-0.183314 17.5,0 4.8125,0.183314 0.875,0.333298 -8.75,0.333298 -9.625,0 -13.5625,-0.149984 -8.75,-0.333298 z m 39,0.0056 c 3.1625,-0.198451 8.3375,-0.198451 11.5,0 3.1625,0.19845 0.575,0.360819 -5.75,0.360819 -6.325,0 -8.9125,-0.162369 -5.75,-0.360819 z"
         id="path467" />
      <path
         style="fill:#2e3031"
         d="m 225.5,186 c 3.26557,-3.3 6.16239,-6 6.43739,-6 0.275,0 -2.17182,2.7 -5.43739,6 -3.26557,3.3 -6.16239,6 -6.43739,6 -0.275,0 2.17182,-2.7 5.43739,-6 z m -0.0313,-28.25 -5.9687,-6.25 6.25,5.9687 c 3.4375,3.28278 6.25,6.09528 6.25,6.25 0,0.7389 -0.98689,-0.16298 -6.5313,-5.9687 z"
         id="path465" />
      <path
         style="fill:#2d2d2e"
         d="m 66.374067,248.5 c 0.0023,-6.05 0.166961,-8.39607 0.366011,-5.21349 0.19905,3.18258 0.197204,8.13258 -0.0041,11 C 66.53467,257.15393 66.371811,254.55 66.374067,248.5 Z m 211.000003,0 c 0.002,-6.05 0.16696,-8.39607 0.36601,-5.21349 0.19905,3.18258 0.1972,8.13258 -0.004,11 -0.20131,2.86742 -0.36417,0.26349 -0.36191,-5.78651 z M 66.41127,213 c 0,-9.625 0.149984,-13.5625 0.333298,-8.75 0.183314,4.8125 0.183314,12.6875 0,17.5 -0.183314,4.8125 -0.333298,0.875 -0.333298,-8.75 z m 211,0 c 0,-9.625 0.14998,-13.5625 0.3333,-8.75 0.18331,4.8125 0.18331,12.6875 0,17.5 -0.18332,4.8125 -0.3333,0.875 -0.3333,-8.75 z m -211,-41 c 0,-9.625 0.149984,-13.5625 0.333298,-8.75 0.183314,4.8125 0.183314,12.6875 0,17.5 -0.183314,4.8125 -0.333298,0.875 -0.333298,-8.75 z m 211,0 c 0,-9.625 0.14998,-13.5625 0.3333,-8.75 0.18331,4.8125 0.18331,12.6875 0,17.5 -0.18332,4.8125 -0.3333,0.875 -0.3333,-8.75 z m -211,-41 c 0,-9.625 0.149984,-13.5625 0.333298,-8.75 0.183314,4.8125 0.183314,12.6875 0,17.5 -0.183314,4.8125 -0.333298,0.875 -0.333298,-8.75 z m 211,0 c 0,-9.625 0.14998,-13.5625 0.3333,-8.75 0.18331,4.8125 0.18331,12.6875 0,17.5 -0.18332,4.8125 -0.3333,0.875 -0.3333,-8.75 z M 66.374067,95.5 c 0.0023,-6.05 0.166961,-8.396069 0.366011,-5.213487 0.19905,3.182582 0.197204,8.132582 -0.0041,10.999997 C 66.53467,104.15393 66.371811,101.55 66.374067,95.5 Z m 211.000003,0 c 0.002,-6.05 0.16696,-8.396069 0.36601,-5.213487 0.19905,3.182582 0.1972,8.132582 -0.004,10.999997 -0.20131,2.86742 -0.36417,0.26349 -0.36191,-5.78651 z"
         id="path463" />
      <path
         style="fill:#2b2c2d"
         d="m 131.87244,200.25 c -1.24387,-1.58606 -1.2085,-1.62143 0.37756,-0.37756 0.9625,0.75485 1.75,1.54235 1.75,1.75 0,0.82304 -0.82119,0.29331 -2.12756,-1.37244 z m -4,-4 c -1.24387,-1.58606 -1.2085,-1.62143 0.37756,-0.37756 0.9625,0.75485 1.75,1.54235 1.75,1.75 0,0.82304 -0.82119,0.29331 -2.12756,-1.37244 z"
         id="path461" />
      <path
         style="fill:#2a2b2c"
         d="m 210,201.62244 c 0,-0.20765 0.7875,-0.99515 1.75,-1.75 1.58606,-1.24387 1.62143,-1.2085 0.37756,0.37756 C 210.82119,201.91575 210,202.44548 210,201.62244 Z m 4,-4 c 0,-0.20765 0.7875,-0.99515 1.75,-1.75 1.58606,-1.24387 1.62143,-1.2085 0.37756,0.37756 C 214.82119,197.91575 214,198.44548 214,197.62244 Z M 117.4687,185.75 111.5,179.5 l 6.25,5.9687 c 3.4375,3.28278 6.25,6.09528 6.25,6.25 0,0.7389 -0.98689,-0.16298 -6.5313,-5.9687 z m 2.51741,-30 C 132.51383,142.97714 134,141.54694 134,142.26389 c 0,0.14515 -6.1875,6.33265 -13.75,13.75 L 106.5,169.5 Z m 94.88633,-8.5 c -1.24387,-1.58606 -1.2085,-1.62143 0.37756,-0.37756 0.9625,0.75485 1.75,1.54235 1.75,1.75 0,0.82304 -0.82119,0.29331 -2.12756,-1.37244 z m -4,-4 c -1.24387,-1.58606 -1.2085,-1.62143 0.37756,-0.37756 0.9625,0.75485 1.75,1.54235 1.75,1.75 0,0.82304 -0.82119,0.29331 -2.12756,-1.37244 z"
         id="path459" />
      <path
         style="fill:#0e1927"
         d="m 133.5,161 c 4.92707,-4.95 9.1833,-9 9.4583,-9 0.275,0 -3.53123,4.05 -8.4583,9 -4.92707,4.95 -9.1833,9 -9.4583,9 -0.275,0 3.53123,-4.05 8.4583,-9 z m 72.9687,-3.25 -5.9687,-6.25 6.25,5.9687 c 3.4375,3.28278 6.25,6.09528 6.25,6.25 0,0.7389 -0.98689,-0.16298 -6.5313,-5.9687 z"
         id="path457" />
      <path
         style="fill:#0d1826"
         d="m 210.5,182 c 5.47936,-5.5 10.18748,-10 10.46248,-10 0.275,0 -3.98312,4.5 -9.46248,10 -5.47936,5.5 -10.18748,10 -10.46248,10 -0.275,0 3.98312,-4.5 9.46248,-10 z m -85.62756,-7.75 c -1.24387,-1.58606 -1.2085,-1.62143 0.37756,-0.37756 0.9625,0.75485 1.75,1.54235 1.75,1.75 0,0.82304 -0.82119,0.29331 -2.12756,-1.37244 z m 93,-5 c -1.24387,-1.58606 -1.2085,-1.62143 0.37756,-0.37756 0.9625,0.75485 1.75,1.54235 1.75,1.75 0,0.82304 -0.82119,0.29331 -2.12756,-1.37244 z"
         id="path455" />
      <path
         style="fill:#0c1521"
         d="m 136.4687,185.75 -5.9687,-6.25 6.25,5.9687 c 5.80572,5.54441 6.7076,6.5313 5.9687,6.5313 -0.15472,0 -2.96722,-2.8125 -6.25,-6.25 z"
         id="path453" />
      <path
         style="fill:#0a121c"
         d="m 128.75,271.25028 c 23.7875,-0.14934 62.7125,-0.14934 86.5,0 23.7875,0.14934 4.325,0.27153 -43.25,0.27153 -47.575,0 -67.0375,-0.12219 -43.25,-0.27153 z m 0.57516,-199.00006 c 24.10384,-0.149244 63.25384,-0.149191 87,1.17e-4 23.74616,0.149309 4.02484,0.271418 -43.82516,0.271353 -47.85,-6.5e-5 -67.27868,-0.122226 -43.17484,-0.27147 z"
         id="path451" />
      <path
         style="fill:#111111"
         d="m 32.30642,195.25274 c 6.493532,-0.17445 16.843532,-0.17388 23,0.001 6.156469,0.17516 0.84358,0.31789 -11.80642,0.31719 -12.65,-7e-4 -17.687111,-0.14401 -11.19358,-0.31847 z m 257,0 c 6.49353,-0.17445 16.84353,-0.17388 23,0.001 6.15647,0.17516 0.84358,0.31789 -11.80642,0.31719 -12.65,-7e-4 -17.68711,-0.14401 -11.19358,-0.31847 z m -257,-47 c 6.493532,-0.17445 16.843532,-0.17388 23,0.001 6.156469,0.17516 0.84358,0.31789 -11.80642,0.31719 -12.65,-7e-4 -17.687111,-0.14401 -11.19358,-0.31847 z m 257,0 c 6.49353,-0.17445 16.84353,-0.17388 23,0.001 6.15647,0.17516 0.84358,0.31789 -11.80642,0.31719 -12.65,-7e-4 -17.68711,-0.14401 -11.19358,-0.31847 z"
         id="path449" />
      <path
         style="fill:#070d14"
         d="m 72.478428,172 c 0,-48.125 0.122084,-67.8125 0.271297,-43.75 0.149214,24.0625 0.149214,63.4375 0,87.5 -0.149213,24.0625 -0.271297,4.375 -0.271297,-43.75 z m 199.000002,0 c 0,-48.125 0.12208,-67.8125 0.2713,-43.75 0.14921,24.0625 0.14921,63.4375 0,87.5 -0.14922,24.0625 -0.2713,4.375 -0.2713,-43.75 z"
         id="path447" />
      <path
         style="fill:#090909"
         d="m 148.42751,300 c 0,-12.375 0.14355,-17.4375 0.319,-11.25 0.17544,6.1875 0.17544,16.3125 0,22.5 -0.17545,6.1875 -0.319,1.125 -0.319,-11.25 z m 47,0 c 0,-12.375 0.14355,-17.4375 0.319,-11.25 0.17544,6.1875 0.17544,16.3125 0,22.5 -0.17545,6.1875 -0.319,1.125 -0.319,-11.25 z m -47,-256 c 0,-12.375 0.14355,-17.4375 0.319,-11.25 0.17544,6.1875 0.17544,16.3125 0,22.5 -0.17545,6.1875 -0.319,1.125 -0.319,-11.25 z m 47,0 c 0,-12.375 0.14355,-17.4375 0.319,-11.25 0.17544,6.1875 0.17544,16.3125 0,22.5 -0.17545,6.1875 -0.319,1.125 -0.319,-11.25 z"
         id="path445" />
      <path
         style="fill:#000000"
         d="M 149,301.06955 V 277 h -18 -18 v 15.87756 c 0,13.36825 -0.25416,16.08849 -1.60821,17.21225 -1.3664,1.13401 -1.81748,1.0485 -3,-0.56869 C 107.34623,308.09124 107,303.80936 107,292.30887 V 277 H 93.734398 c -15.056872,0 -17.922972,-0.91931 -23.209344,-7.44446 -3.010718,-3.71624 -3.026588,-3.80223 -3.348828,-18.14474 L 66.852452,237 H 51.617356 c -11.437458,0 -15.709551,-0.34693 -17.13848,-1.39179 -1.61719,-1.18252 -1.702697,-1.6336 -0.568684,-3 C 35.033953,231.25416 37.754186,231 51.122445,231 H 67 V 213 195 H 42.930449 18.860898 L 19.180449,192.75 19.5,190.5 43.25,190.2319 67,189.9638 V 172 154.0362 L 43.25,153.7681 19.5,153.5 19.180449,151.25 18.860898,149 H 42.930449 67 V 131 113 H 51.122445 c -13.368259,0 -16.088492,-0.25416 -17.212253,-1.60821 -1.134013,-1.3664 -1.048506,-1.81748 0.568684,-3 C 35.908755,107.34623 40.190644,107 51.69113,107 H 67 V 93.734398 c 0,-15.056872 0.91931,-17.922972 7.444463,-23.209344 3.716234,-3.010718 3.802226,-3.026588 18.144734,-3.348828 L 107,66.852452 V 51.617356 c 0,-11.437458 0.34693,-15.709551 1.39179,-17.13848 1.18252,-1.61719 1.6336,-1.702697 3,-0.568684 C 112.74584,35.033953 113,37.754186 113,51.122445 V 67 h 18 18 V 42.930449 18.860898 l 2.25,0.319551 L 153.5,19.5 153.7681,43.25 154.0362,67 H 172 189.9638 L 190.2319,43.25 190.5,19.5 192.75,19.180449 195,18.860898 V 42.930449 67 h 18 18 V 51.122445 c 0,-13.368259 0.25416,-16.088492 1.60821,-17.212253 1.3664,-1.134013 1.81748,-1.048506 3,0.568684 C 236.65307,35.907805 237,40.179898 237,51.617356 v 15.235096 l 14.4108,0.323774 c 14.34251,0.32224 14.4285,0.33811 18.14474,3.348828 C 276.08069,75.811426 277,78.677526 277,93.734398 V 107 h 15.30887 c 11.50049,0 15.78237,0.34623 17.21225,1.39179 1.61719,1.18252 1.7027,1.6336 0.56869,3 C 308.96605,112.74584 306.24581,113 292.87756,113 H 277 v 18 18 h 24.06955 24.06955 l -0.31955,2.25 -0.31955,2.25 -23.75,0.2681 -23.75,0.2681 V 172 189.9638 l 23.75,0.2681 23.75,0.2681 0.31955,2.25 0.31955,2.25 H 301.06955 277 v 18 18 h 15.87756 c 13.36825,0 16.08849,0.25416 17.21225,1.60821 1.13401,1.3664 1.0485,1.81748 -0.56869,3 C 308.0922,236.65307 303.8201,237 292.38264,237 h -15.23509 l -0.32378,14.4108 c -0.32224,14.34251 -0.33811,14.4285 -3.34882,18.14474 C 268.18857,276.08069 265.32247,277 250.2656,277 H 237 v 15.30887 c 0,11.50049 -0.34623,15.78237 -1.39179,17.21225 -1.18252,1.61719 -1.6336,1.7027 -3,0.56869 C 231.25416,308.96605 231,306.24581 231,292.87756 V 277 h -18 -18 v 24.06955 24.06955 L 192.75,324.81955 190.5,324.5 190.2319,300.75 189.9638,277 H 172 154.0362 l -0.2681,23.75 -0.2681,23.75 -2.25,0.31955 -2.25,0.31955 z m 116.28054,-31.33348 c 1.48038,-0.97016 3.48537,-2.97537 4.45553,-4.45602 C 271.38852,262.7581 271.5,256.86259 271.5,172 c 0,-84.862595 -0.11148,-90.758105 -1.76393,-93.280052 -0.97016,-1.480651 -2.97537,-3.485861 -4.45602,-4.456021 C 262.7581,72.611484 256.86259,72.5 172,72.5 c -84.862595,0 -90.758105,0.111484 -93.280052,1.763927 -1.480651,0.97016 -3.485861,2.975138 -4.456021,4.455506 -1.645127,2.510301 -1.784033,8.554022 -2.06246,89.736077 -0.164192,47.87447 -0.02444,88.95485 0.31056,91.28974 0.736115,5.13056 4.506764,9.90458 8.820887,11.16814 1.861721,0.54527 39.868176,0.85733 92.211556,0.7571 83.21997,-0.15934 89.22053,-0.28587 91.73607,-1.93442 z M 94.604322,258.88765 c -4.042109,-1.10641 -8.467627,-5.64208 -9.172833,-9.40116 -1.289141,-6.8717 5.051684,-14.47901 12.068511,-14.47901 4.36476,0 9.38425,3.47125 11.15797,7.71634 3.65345,8.74396 -4.96155,18.65253 -14.053648,16.16383 z m 6.760818,-6.96023 C 106.08442,248.21523 103.71194,241 97.772037,241 91.602505,241 88.697141,247.69714 93,252 c 2.555229,2.55523 5.051964,2.53357 8.36514,-0.0726 z m 142.25416,6.96424 c -6.98102,-1.91108 -10.97472,-9.71191 -8.27727,-16.16784 1.77372,-4.24509 6.79321,-7.71634 11.15797,-7.71634 7.01683,0 13.35765,7.60731 12.06851,14.47901 -1.15526,6.15807 -8.93384,11.0519 -14.94921,9.40517 z M 251,252 c 2.52911,-2.52911 2.57521,-7.16947 0.0935,-9.41535 -2.81745,-2.54975 -8.15715,-1.7543 -9.96611,1.48464 -3.66738,6.56646 4.59754,13.20574 9.87257,7.93071 z m -92,-38.08618 c -3.41737,-1.37034 -5.95104,-4.84937 -5.97776,-8.20819 -0.035,-4.39127 19.6906,-70.72965 21.69218,-72.95233 C 180.3905,126.45022 191,130.19998 191,138.50919 c 0,1.41876 -4.49509,17.95696 -9.9891,36.75155 -10.41518,35.62961 -11.43582,37.97773 -17.0109,39.13611 -1.375,0.28569 -3.625,0.0683 -5,-0.48303 z m 5.92993,-6.32939 c 1.89815,-2.28713 20.13858,-65.79741 19.84135,-69.08443 -0.3078,-3.40388 -3.58237,-4.63748 -5.66116,-2.13268 -1.55247,1.8706 -20.10562,65.27258 -20.10819,68.71601 -10e-4,1.42084 0.29807,2.88334 0.66474,3.25 1.143,1.14301 4.03458,0.73157 5.26326,-0.7489 z M 131.5,207.11377 c -1.65,-1.03332 -9.4125,-8.37901 -17.25,-16.32376 C 100.27639,176.62519 100,176.25991 100,171.95712 c 0,-4.33276 0.19788,-4.58539 15.75,-20.10708 9.83695,-9.81771 16.78973,-15.974 18.51941,-16.3979 5.86102,-1.43636 11.73059,3.64511 11.73059,10.15553 0,2.11339 -2.56494,5.30392 -11.6968,14.54966 L 122.60639,172 134.3032,183.84267 c 12.4685,12.62399 13.27744,14.20003 10.2718,20.0123 -1.44623,2.79669 -5.27523,5.14809 -8.37205,5.14129 -0.93662,-0.002 -3.05295,-0.84918 -4.70295,-1.88249 z M 139.78338,200 c 0.22981,-2.02735 -1.99166,-4.76578 -11.75,-14.48437 C 121.41502,178.92423 116,172.84219 116,172 c 0,-0.84219 5.41502,-6.92423 12.03338,-13.51563 9.75834,-9.71859 11.97981,-12.45702 11.75,-14.48437 -0.20708,-1.82687 -0.95682,-2.57873 -2.78454,-2.79241 -2.05613,-0.24038 -5.12542,2.35295 -17.25,14.57504 C 111.63698,163.95972 105,171.25754 105,172 c 0,0.74246 6.63698,8.04028 14.74884,16.21737 12.12458,12.22209 15.19387,14.81542 17.25,14.57504 1.82772,-0.21368 2.57746,-0.96554 2.78454,-2.79241 z m 63.32669,7.60449 c -3.0102,-1.66842 -5.02882,-5.25321 -5.07463,-9.01182 -0.0291,-2.38946 2.04807,-5.01682 11.66136,-14.75 L 221.39361,172 209.6968,160.15733 C 200.56494,150.91159 198,147.72106 198,145.60767 c 0,-6.51042 5.86957,-11.59189 11.73059,-10.15553 1.72968,0.4239 8.68246,6.58019 18.51941,16.3979 15.55479,15.52436 15.75,15.77361 15.75,20.10954 0,4.315 -0.25313,4.64615 -14.75,19.29582 -17.90643,18.09516 -20.29466,19.58887 -26.13993,16.34909 z m 21.18316,-19.42953 C 232.38195,180.02119 239,172.74246 239,172 c 0,-0.74246 -6.63698,-8.04028 -14.74884,-16.21737 -12.12458,-12.22209 -15.19387,-14.81542 -17.25,-14.57504 -1.82772,0.21368 -2.57746,0.96554 -2.78454,2.79241 -0.22981,2.02735 1.99166,4.76578 11.75,14.48437 C 222.58498,165.07577 228,171.15781 228,172 c 0,0.84219 -5.4,6.91719 -12,13.5 -11.23006,11.20081 -13.53796,14.62871 -11.33333,16.83333 2.31159,2.3116 5.74518,-0.16535 19.62656,-14.15837 z M 91.189824,106.97437 c -6.643701,-4.05056 -7.790608,-13.108478 -2.323049,-18.346732 7.108274,-6.810159 17.419265,-4.080355 20.247835,5.360551 2.10469,7.024841 -4.07211,15.004331 -11.61461,15.004331 -1.65,0 -4.489579,-0.90817 -6.310176,-2.01815 z m 11.682516,-7.043664 c 1.89792,-3.397699 0.83408,-7.287808 -2.39542,-8.759267 C 96.86884,89.527487 95.298494,89.701506 93,92 c -2.446895,2.446895 -2.585649,6.695384 -0.301113,9.21977 2.523885,2.78886 8.304733,2.05638 10.173453,-1.289064 z m 137.31748,7.043664 c -4.52175,-2.75684 -6.74124,-8.19054 -5.30443,-12.986181 1.97128,-6.579546 8.4882,-10.545461 14.53933,-8.848015 4.07872,1.144148 8.4384,5.613278 9.14379,9.373331 1.28914,6.871705 -5.05168,14.479015 -12.06851,14.479015 -1.65,0 -4.48958,-0.90817 -6.31018,-2.01815 z m 10.98144,-5.62936 C 253.58411,99.161413 253.49866,94.498659 251,92 c -2.27821,-2.278208 -4.18245,-2.499534 -7.31574,-0.850296 -4.04672,2.130025 -4.84594,5.746749 -2.12756,9.627786 1.8888,2.69664 6.93291,2.99438 9.61456,0.56752 z"
         id="path443" />
    </g>
  </g>
</svg>
