<?xml version="1.0" encoding="UTF-8"?>
<!-- Created with Inkscape (http://www.inkscape.org/) -->
<svg width="105.83mm" height="105.83mm" version="1.1" viewBox="0 0 105.83 105.83" xml:space="preserve" xmlns="http://www.w3.org/2000/svg"><g transform="translate(-35.335 -20.626)"><g transform="translate(-9.6171 -31.68)" stroke-width=".26458"><path d="m85.433 152.23c-0.75159-0.26241-0.91251-0.44343-0.85419-0.96091 0.03952-0.35068 0.10549-0.67123 0.1466-0.71234 0.04111-0.0411 0.67471 0.11712 1.408 0.35162 1.685 0.53884 3.0506 0.31534 3.786-0.61967 1.1624-1.4778 0.48723-2.7573-2.1286-4.034-2.4299-1.186-3.2587-2.2486-3.0733-3.9406 0.20752-1.894 1.9024-3.2247 4.1071-3.2247 1.2585 0 2.6952 0.47314 2.6898 0.88578-0.01037 0.77951-0.3847 0.91793-1.7516 0.64766-1.6167-0.31965-2.6292 0.0462-3.2618 1.1785-0.64368 1.1522-0.01095 1.9749 2.4926 3.2412 2.5758 1.3028 3.1266 2.0496 2.98 4.0408-0.08034 1.0911-0.26746 1.5669-0.85916 2.1845-1.2063 1.2592-3.6469 1.6725-5.6813 0.96221zm19.334 8e-3c-0.99223-0.34579-1.1956-0.64563-0.83012-1.2238 0.19812-0.31339 0.4198-0.32482 1.2832-0.0661 2.8447 0.85229 4.8628-0.45419 4.2504-2.7515-0.313-1.174-1.0233-1.6924-2.5703-1.8756-1.2066-0.14289-1.3592-0.2311-1.3592-0.78557 0-0.53911 0.12855-0.62461 0.93918-0.62461 2.4274 0 3.7129-2.1264 2.0678-3.4204-0.81578-0.64169-1.8701-0.69884-3.1359-0.16999-0.84075 0.35129-0.91714 0.34199-1.0669-0.12992-0.24209-0.76275 0.01-0.97571 1.5664-1.324 1.8313-0.40982 3.2165-0.14053 4.1671 0.81011 1.2457 1.2457 0.8876 3.6485-0.66775 4.4809l-0.67308 0.36022 0.84895 0.42417c0.96066 0.47999 1.7744 1.8886 1.7736 3.07-2e-3 2.5937-3.4986 4.3047-6.5933 3.2262zm-29.124-6.4012v-6.4823h6.8792v1.3229h-5.2917v4.2333h2.5135c2.5047 0 2.5135 2e-3 2.5135 0.66146 0 0.65914-0.0088 0.66146-2.5135 0.66146h-2.5135v4.7625h5.5562v1.3229h-7.1438zm18.785 0.14428v-6.338l0.95135-0.17848c1.2578-0.23597 4.0215 7e-3 4.9421 0.43388 1.0406 0.48287 1.7795 1.8084 1.779 3.1914-8e-4 2.4848-1.5956 3.941-4.5497 4.1546l-1.5353 0.11105v4.9635h-1.5875zm4.4665-0.30526c1.6893-0.5889 2.155-2.9156 0.84554-4.225-0.6699-0.66991-0.97085-0.7734-2.249-0.7734h-1.4756v5.2917h1.0189c0.56037 0 1.3974-0.13197 1.8601-0.29327zm14.584 6.2052c0-0.24094 1.1382-1.611 2.5292-3.0446 2.7803-2.8652 3.7128-4.4633 3.4431-5.9008-0.32905-1.754-2.1462-2.4317-3.9736-1.482-0.80016 0.41582-1.0928 0.4658-1.2527 0.21393-0.41604-0.6551-0.19577-1.0255 0.90767-1.5264 2.2262-1.0105 4.68-0.42309 5.5558 1.33 1.0446 2.0911 0.24782 4.2755-2.7063 7.419-1.0201 1.0855-1.8554 2.0035-1.8561 2.0398-7.1e-4 0.0364 1.1893 0.0661 2.6446 0.0661h2.6458v1.3229h-3.9688c-3.5172 0-3.9688-0.0498-3.9688-0.43806zm-19.711-17.445c-12.661-1.7098-23.18-8.2541-29.946-18.63-4.4257-6.7878-6.6992-14.449-6.6992-22.574 0-3.0667 0.52108-7.7955 1.0549-9.5733 2.5496-8.4908 4.5255-12.254 9.5034-18.099l1.1656-1.3686 0.75266 0.72109c0.41396 0.3966 0.75266 0.82487 0.75266 0.95172s-0.50602 0.76925-1.1245 1.4276c-2.7212 2.8965-5.6842 7.7594-7.232 11.869-3.1062 8.2473-3.3709 17.416-0.7514 26.026 1.7626 5.7933 7.2401 14.588 9.0858 14.588 0.66167 0 0.67215-0.12883 0.13183-1.6204-1.1435-3.1565 0.24521-6.1807 3.4537-7.5213 1.2538-0.52389 2.4322-0.47238 3.8449 0.16806 1.56 0.70723 2.2895 1.4144 3.0979 3.0028 0.8331 1.6369 0.73828 3.2632-0.29287 5.0227-1.4155 2.4153-4.2526 3.3794-7.0184 2.3848-1.4862-0.53442-1.7474-0.44273-1.5038 0.52784 0.11059 0.44062 1.0655 1.338 2.8196 2.6496 7.1366 5.3364 14.523 7.8306 23.403 7.9025 5.3782 0.0436 9.672-0.74375 14.859-2.7246 3.5784-1.3665 8.6549-4.5306 11.739-7.3168l1.0513-0.9498 1.6236 1.5874-1.4557 1.2568c-3.0335 2.6189-5.7046 4.4119-9.0321 6.0626-5.0139 2.4873-8.3314 3.4892-14.028 4.2363-3.6856 0.48335-5.6361 0.48191-9.2553-7e-3zm-0.79375-6.63c-4.383-1.004-4.5365-1.0717-6.4173-2.8326-0.99473-0.93133-1.0815-1.1026-0.74675-1.4728 0.79171-0.8755 1.9514-3.665 2.2498-5.4117 0.40739-2.3845-0.0084-5.2204-1.1061-7.5436-0.9992-2.1148-3.505-4.696-5.5122-5.6781-3.8895-1.903-8.5837-1.7272-12.211 0.45714l-1.5082 0.90818-1.3845-1.5668c-1.5082-1.7067-1.7846-2.4556-2.4729-6.6991-0.87872-5.4177-0.18525-11.493 1.9502-17.086 0.92677-2.4272 1.1645-2.5678 5.1496-3.0463 6.6761-0.80157 13.189 0.08492 19.338 2.632 4.6829 1.9398 9.7263 5.2948 12.728 8.4667 5.4881 5.7997 8.5576 11.517 10.379 19.332 1.2459 5.3463 0.82082 15.574-0.69931 16.827-0.28224 0.2326-1.7231 0.81656-3.2019 1.2977l-2.6888 0.87477-1.7632-0.60509c-2.4452-0.8391-3.0183-1.2216-2.6929-1.7972 1.1864-2.0983 1.7285-10.22 0.9415-14.104-1.2178-6.01-3.9105-10.933-8.248-15.079-4.1211-3.9395-9.5194-6.6172-14.938-7.4095-3.0358-0.44389-9.0587-0.16261-11.459 0.53515-2.649 0.77007-2.8056 0.97292-2.8056 3.6345 0 2.6469 0.14122 2.7677 2.3247 1.989 9.503-3.3892 19.829-0.14973 25.972 8.1482 5.0138 6.7723 5.8641 15.669 2.2159 23.184-0.96466 1.9873-1.0544 2.0857-1.9376 2.1253-0.50932 0.0228-1.1642-0.013-1.4552-0.0797zm26.502-11.648c-0.097-0.097-0.17639-1.0651-0.17639-2.1512 0-6.7372-2.7665-15.374-7.0124-21.893-7.483-11.489-20.105-18.853-33.679-19.65l-3.0967-0.18185-0.07545-2.5564-0.07545-2.5564 1.4627-1.2628c1.6437-1.4191 5.0641-3.5488 5.6876-3.5414 1.5437 0.0184 7.2198 1.3303 10.457 2.4169 11.421 3.8339 21.664 11.829 28.252 22.052 3.7922 5.8847 6.8822 14.034 7.8895 20.806l0.2987 2.0083-1.1362 1.8219c-0.62492 1.002-1.6666 2.5065-2.3148 3.3433l-1.1786 1.5214h-2.5627c-1.4095 0-2.6421-0.0794-2.7391-0.17639zm11.826-20.66c-0.37346-1.5203-3.003-7.0253-4.7297-9.902-5.0521-8.4166-12.43-15.759-20.807-20.705-2.5515-1.5067-8.6794-4.3841-9.3366-4.3841-0.67088 0-1.0456-0.75228-0.72504-1.4557 0.39612-0.86938 1.2322-1.0314 4.2474-0.82302 12.053 0.833 22.14 6.8012 28.312 16.753 2.6624 4.2927 4.2243 8.7712 4.933 14.145 0.55632 4.2179 0.52072 5.9121-0.13806 6.5708-0.76974 0.76974-1.5397 0.68274-1.7562-0.19844z" fill="#fcf7f6"/><path d="m44.952 105.22v-52.917h105.83v105.83h-105.83zm44.465 47.096c1.5126-0.42019 2.4354-1.588 2.5567-3.2355 0.1466-1.9912-0.40411-2.738-2.98-4.0408-2.5036-1.2662-3.1363-2.089-2.4926-3.2412 0.6326-1.1323 1.6452-1.4982 3.2618-1.1785 1.3669 0.27027 1.7412 0.13185 1.7516-0.64766 0.0055-0.41264-1.4313-0.88578-2.6898-0.88578-2.2047 0-3.8996 1.3307-4.1071 3.2247-0.18539 1.692 0.64334 2.7546 3.0733 3.9406 2.6159 1.2767 3.291 2.5563 2.1286 4.034-0.73548 0.93501-2.101 1.1585-3.786 0.61967-0.73329-0.2345-1.3669-0.39273-1.408-0.35162-0.04111 0.0411-0.10708 0.36166-0.1466 0.71234-0.05831 0.51748 0.1026 0.6985 0.85419 0.96091 1.1426 0.3989 2.7394 0.4345 3.9838 0.0888zm19.757-0.25521c1.2685-0.57585 2.186-1.8564 2.1869-3.0523 7.9e-4 -1.1814-0.81293-2.59-1.7736-3.07l-0.84895-0.42417 0.67308-0.36022c1.5554-0.8324 1.9134-3.2352 0.66775-4.4809-0.95063-0.95064-2.3358-1.2199-4.1671-0.81011-1.5565 0.34833-1.8084 0.56129-1.5664 1.324 0.14977 0.47191 0.22616 0.48121 1.0669 0.12992 2.3795-0.99423 4.4495 0.35308 3.6686 2.3879-0.23582 0.61455-1.5073 1.2025-2.6006 1.2025-0.81063 0-0.93918 0.0855-0.93918 0.62461 0 0.55447 0.15262 0.64268 1.3592 0.78558 1.547 0.18322 2.2573 0.70155 2.5703 1.8756 0.61248 2.2973-1.4057 3.6038-4.2504 2.7515-0.86337-0.25867-1.085-0.24725-1.2832 0.0661-0.36549 0.57818-0.16211 0.87802 0.83012 1.2238 1.348 0.46976 3.1447 0.39884 4.4064-0.17393zm-26.387-0.40645v-0.66146h-5.5562v-4.7625h2.5135c2.5047 0 2.5135-2e-3 2.5135-0.66146 0-0.65914-0.0088-0.66146-2.5135-0.66146h-2.5135v-4.2333h5.2917v-1.3229h-6.8792v12.965h7.1438zm13.229-1.8203v-2.4818l1.5353-0.11105c2.9542-0.21368 4.5489-1.6699 4.5497-4.1546 5.3e-4 -1.383-0.73844-2.7086-1.779-3.1914-0.92065-0.42722-3.6843-0.66985-4.9421-0.43388l-0.95135 0.17848v12.676h1.5875zm0-6.5141v-2.6458h1.4756c1.2781 0 1.5791 0.10349 2.249 0.7734 0.87704 0.87704 1.0094 1.9715 0.38456 3.1798-0.43829 0.84757-1.5717 1.3385-3.0902 1.3385h-1.0189zm25.4 8.3344v-0.66146h-2.6458c-1.4552 0-2.6453-0.0298-2.6446-0.0661 7.9e-4 -0.0364 0.83593-0.95431 1.8561-2.0398 2.9541-3.1436 3.7509-5.3279 2.7063-7.419-0.87579-1.7531-3.3296-2.3406-5.5558-1.33-1.1034 0.50087-1.3237 0.87128-0.90767 1.5264 0.15995 0.25187 0.45256 0.20189 1.2527-0.21393 1.8274-0.94969 3.6446-0.27194 3.9736 1.482 0.26968 1.4375-0.66282 3.0357-3.4431 5.9008-1.3911 1.4336-2.5292 2.8036-2.5292 3.0446 0 0.38822 0.45153 0.43806 3.9688 0.43806h3.9688zm-18.394-17.214c5.6966-0.74708 9.0142-1.7489 14.028-4.2363 3.3275-1.6508 5.9986-3.4437 9.0321-6.0626l1.4557-1.2568-1.6236-1.5874-1.0513 0.9498c-3.084 2.7862-8.1605 5.9504-11.739 7.3168-5.1874 1.9809-9.4812 2.7682-14.859 2.7246-8.8799-0.0719-16.266-2.5661-23.403-7.9025-1.7541-1.3116-2.709-2.209-2.8196-2.6496-0.2436-0.97057 0.01765-1.0623 1.5038-0.52784 2.7658 0.99455 5.6029 0.0305 7.0184-2.3848 1.0311-1.7595 1.126-3.3858 0.29287-5.0227-0.80842-1.5884-1.5379-2.2956-3.0979-3.0028-1.4127-0.64044-2.591-0.69195-3.8449-0.16806-3.2085 1.3406-4.5972 4.3648-3.4537 7.5213 0.54031 1.4916 0.52983 1.6204-0.13183 1.6204-1.2241 0-4.8063-4.8612-7.1164-9.6573-3.9496-8.2-4.854-18.544-2.3941-27.384 1.5765-5.6657 4.8191-11.62 8.4081-15.441 0.61846-0.65832 1.1245-1.3007 1.1245-1.4276s-0.3387-0.55512-0.75266-0.95172l-0.75266-0.72109-1.1656 1.3686c-4.9778 5.8447-6.9538 9.6078-9.5034 18.099-0.53384 1.7778-1.0549 6.5066-1.0549 9.5733 0 15.744 8.8696 30.052 23.008 37.114 4.2198 2.1079 8.5268 3.3995 13.637 4.0896 3.6193 0.48875 5.5697 0.49019 9.2553 7e-3zm-6.6563-8.6824c5.3496-11.02 0.6548-24.664-10.385-30.179-5.7229-2.8589-11.899-3.2591-17.803-1.1535-2.1834 0.77872-2.3247 0.65789-2.3247-1.989 0-2.6616 0.15659-2.8644 2.8056-3.6345 2.4003-0.69776 8.4232-0.97904 11.459-0.53515 5.4184 0.79227 10.817 3.4699 14.938 7.4095 4.3374 4.1463 7.0302 9.0693 8.248 15.079 0.78699 3.884 0.24485 12.005-0.9415 14.104-0.32543 0.57559 0.24773 0.95812 2.6929 1.7972l1.7632 0.60509 2.6888-0.87477c1.4788-0.48112 2.9197-1.0651 3.2019-1.2977 0.91062-0.75047 1.3762-3.8457 1.3769-9.1542 5.3e-4 -4.1795-0.0824-5.1188-0.67758-7.6729-1.8211-7.8149-4.8906-13.532-10.379-19.332-1.0477-1.1072-4.0149-3.564-5.5585-4.6024-8.0313-5.4027-17.102-7.6257-26.507-6.4964-3.9851 0.47848-4.2228 0.61908-5.1496 3.0463-2.1355 5.5928-2.8289 11.668-1.9502 17.086 0.68825 4.2434 0.96471 4.9924 2.4729 6.6991l1.3845 1.5668 1.5082-0.90818c3.6275-2.1844 8.3217-2.3601 12.211-0.45714 2.0072 0.98203 4.513 3.5633 5.5122 5.6781 1.0977 2.3232 1.5135 5.1592 1.1061 7.5436-0.29842 1.7467-1.4581 4.5362-2.2498 5.4117-0.3348 0.37023-0.24798 0.54146 0.74675 1.4728 1.8807 1.7609 2.0342 1.8286 6.4173 2.8326 0.29104 0.0667 0.94589 0.10253 1.4552 0.0797 0.88316-0.0396 0.97289-0.13801 1.9376-2.1253zm29.59-10.947c0.64822-0.83675 1.6899-2.3412 2.3148-3.3433l1.1362-1.8219-0.2987-2.0083c-0.76934-5.1727-2.6403-10.915-5.2278-16.044-7.6399-15.145-22.102-25.89-38.828-28.849-1.1734-0.20762-2.3175-0.37968-2.5425-0.38236-0.62346-0.0074-4.0438 2.1223-5.6876 3.5414l-1.4627 1.2628 0.1509 5.1128 3.0967 0.18185c13.574 0.79713 26.196 8.1617 33.679 19.65 4.2459 6.5188 7.0124 15.156 7.0124 21.893 0 1.0862 0.0794 2.0542 0.17639 2.1512 0.097 0.097 1.3296 0.17639 2.7391 0.17639h2.5627zm7.1016-19.116c0.65878-0.65878 0.69438-2.3529 0.13806-6.5708-0.70872-5.3734-2.2706-9.8519-4.933-14.145-6.1722-9.9517-16.258-15.92-28.312-16.753-3.0151-0.20837-3.8512-0.04636-4.2474 0.82302-0.32052 0.70347 0.05415 1.4557 0.72504 1.4557 0.65727 0 6.7851 2.8774 9.3366 4.3841 8.3765 4.9464 15.754 12.288 20.807 20.705 1.7268 2.8767 4.3563 8.3818 4.7297 9.902 0.21647 0.88117 0.98642 0.96818 1.7562 0.19844z" fill="#c42719"/></g></g></svg>
