<?xml version="1.0" encoding="UTF-8" standalone="no"?>
<!-- Created with Inkscape (http://www.inkscape.org/) -->

<svg
   version="1.1"
   id="svg1208"
   width="323.45154"
   height="323.38031"
   viewBox="0 0 323.45154 323.38031"
   xmlns="http://www.w3.org/2000/svg"
   xmlnsSvg="http://www.w3.org/2000/svg">
  <defs
     id="defs1212" />
  <g
     id="g1214"
     transform="translate(277.29355,-32.547312)">
    <g
       id="g1314"
       transform="translate(-287.72925,22.415101)">
      <path
         style="fill:#fefefe"
         d="M 25,198.5 V 78 H 172 319 V 198.5 319 H 172 25 Z m 44.657197,105.93371 c 2.077858,-2.07786 2.445609,-3.16968 1.932224,-5.73661 -1.003783,-5.01891 -2.689207,-5.97573 -11.416048,-6.48092 l -7.930464,-0.45909 -0.459087,-7.93046 c -0.505189,-8.72684 -1.46201,-10.41227 -6.480927,-11.41605 -2.566927,-0.51339 -3.658749,-0.14564 -5.736607,1.93222 C 37.082998,276.82609 37,277.3163 37,289.5 c 0,12.03479 0.108413,12.69932 2.454545,15.04545 C 41.800678,306.89159 42.465208,307 54.5,307 c 12.183697,0 12.673907,-0.083 15.157197,-2.56629 z m 234.888253,0.11174 C 306.89159,302.19932 307,301.53479 307,289.5 c 0,-12.1837 -0.083,-12.67391 -2.56629,-15.1572 -2.07786,-2.07786 -3.16968,-2.44561 -5.73661,-1.93222 -5.01891,1.00378 -5.97573,2.68921 -6.48092,11.41605 l -0.45909,7.93046 -7.93046,0.45909 c -8.72684,0.50519 -10.41227,1.46201 -11.41605,6.48092 -0.51339,2.56693 -0.14564,3.65875 1.93222,5.73661 C 276.82609,306.917 277.3163,307 289.5,307 c 12.03479,0 12.69932,-0.10841 15.04545,-2.45455 z m -147.8599,-26.71976 c 2.67898,-2.51677 2.987,-6.42048 0.75775,-9.60318 C 155.89973,266.01875 155.65783,266 128.77204,266 98.165844,266 98,266.03826 98,273.09828 98,279.81764 98.803444,280 128.40806,280 c 25.28055,0 26.02388,-0.0572 28.27749,-2.17431 z m 53.8599,-0.28024 c 2.97301,-2.973 3.15728,-6.84272 0.45455,-9.54545 -1.79963,-1.79963 -3.33333,-2 -15.30887,-2 -14.69644,0 -16.27516,0.51899 -17.2894,5.68371 -0.50566,2.57493 -0.13449,3.67443 1.94107,5.75 C 182.82609,279.917 183.3163,280 195.5,280 c 12.03479,0 12.69932,-0.10841 15.04545,-2.45455 z M 130,251 c 2.39251,-2.39251 2.58847,-6.71482 0.4433,-9.77749 C 128.89973,239.01875 128.65783,239 101.77204,239 77.944981,239 74.435756,239.20066 72.828741,240.65499 70.354528,242.89412 70.446446,248.44645 73,251 c 1.899371,1.89937 3.333333,2 28.5,2 25.16667,0 26.60063,-0.10063 28.5,-2 z m 53.68555,-0.17431 c 2.8703,-2.69651 3.01212,-7.12802 0.31445,-9.82569 -1.8014,-1.8014 -3.33333,-2 -15.42742,-2 -13.31478,0 -13.44481,0.0221 -15.5,2.63486 C 151.93266,243.08403 151,245.04834 151,246 c 0,0.95166 0.93266,2.91597 2.07258,4.36514 2.05079,2.60715 2.21047,2.63486 15.18555,2.63486 12.08709,0 13.29404,-0.17011 15.42742,-2.17431 z M 271,251 c 2.44534,-2.44534 2.62206,-7.65515 0.34501,-10.17126 C 269.80392,239.12586 267.36578,239 235.91759,239 h -33.77243 l -2.1291,2.70672 c -2.33475,2.96814 -2.07343,6.44707 0.71684,9.54328 1.44203,1.60015 4.43239,1.75 34.92209,1.75 32.01168,0 33.42498,-0.08 35.34501,-2 z m 13.92742,-27.63486 C 286.93435,220.81374 287,219.62384 287,185.7994 c 0,-34.59517 -0.28528,-37.95453 -3.3997,-40.03409 -1.43836,-0.96041 -221.762241,-0.96041 -223.200596,0 C 57.285277,147.84487 57,151.20423 57,185.7994 c 0,33.82444 0.06565,35.01434 2.07258,37.56574 L 61.14516,226 H 172 282.85484 Z M 92,185.5 V 179 h 3 3 v 6.5 6.5 h -3 -3 z m 40,0 V 179 h 3 3 v 6.5 6.5 h -3 -3 z m 40,0 V 179 h 3 3 v 6.5 6.5 h -3 -3 z M 48.687439,124.21434 C 50.751679,122.90178 52,118.08592 52,111.4349 V 105 h 7.92742 c 7.373046,0 8.072358,-0.18426 10,-2.63486 C 71.067339,100.91597 72,98.951655 72,98 72,97.048345 71.067339,95.084031 69.92742,93.634859 67.873225,91.023373 67.736371,91 54.5,91 41.263629,91 41.126775,91.023373 39.07258,93.634859 37.229608,95.977818 37,97.639574 37,108.63486 c 0,11.03181 0.21566,12.5808 2,14.36514 2.015949,2.01595 7.371055,2.68722 9.687439,1.21434 z M 305,123 c 1.78434,-1.78434 2,-3.33333 2,-14.36514 0,-10.995286 -0.22961,-12.657042 -2.07258,-15.000001 C 302.87323,91.023373 302.73637,91 289.5,91 276.26363,91 276.12677,91.023373 274.07258,93.634859 272.93266,95.084031 272,97.048345 272,98 c 0,0.951655 0.93266,2.91597 2.07258,4.36514 1.92764,2.4506 2.62695,2.63486 10,2.63486 H 292 v 6.4349 c 0,6.65102 1.24832,11.46688 3.31256,12.77944 2.31638,1.47288 7.67149,0.80161 9.68744,-1.21434 z"
         id="path1408" />
      <path
         style="fill:#f0f6fb"
         d="m 51.320074,286 c 0,-3.575 0.181495,-5.0375 0.403322,-3.25 0.221826,1.7875 0.221826,4.7125 0,6.5 -0.221827,1.7875 -0.403322,0.325 -0.403322,-3.25 z m 240.999996,0 c 0,-3.575 0.1815,-5.0375 0.40333,-3.25 0.22182,1.7875 0.22182,4.7125 0,6.5 -0.22183,1.7875 -0.40333,0.325 -0.40333,-3.25 z M 51.32814,111.5 c 0.0044,-3.85 0.185183,-5.30246 0.401658,-3.2277 0.216476,2.07477 0.212846,5.22477 -0.0081,7 -0.220912,1.77524 -0.398028,0.0777 -0.393592,-3.7723 z m 241,0 c 0.004,-3.85 0.18518,-5.30246 0.40166,-3.2277 0.21647,2.07477 0.21284,5.22477 -0.008,7 -0.22091,1.77524 -0.39803,0.0777 -0.39359,-3.7723 z"
         id="path1406" />
      <path
         style="fill:#eff6fb"
         d="m 54.75,292.2766 c 1.7875,-0.22182 4.7125,-0.22182 6.5,0 1.7875,0.22183 0.325,0.40333 -3.25,0.40333 -3.575,0 -5.0375,-0.1815 -3.25,-0.40333 z m 228,0 c 1.7875,-0.22182 4.7125,-0.22182 6.5,0 1.7875,0.22183 0.325,0.40333 -3.25,0.40333 -3.575,0 -5.0375,-0.1815 -3.25,-0.40333 z"
         id="path1404" />
      <path
         style="fill:#d4e6f5"
         d="m 24.484155,198.5 c -3.5e-5,-66.55 0.119515,-93.92232 0.265667,-60.82737 0.146151,33.09494 0.14618,87.54494 6.3e-5,121 C 24.603768,292.12768 24.484189,265.05 24.484155,198.5 Z m 294.999995,0 c -3e-5,-66.55 0.11952,-93.92232 0.26567,-60.82737 0.14615,33.09494 0.14618,87.54494 6e-5,121 -0.14611,33.45505 -0.26569,6.37737 -0.26573,-60.17263 z"
         id="path1402" />
      <path
         style="fill:#d1e5f4"
         d="m 98.25,319.2501 c 40.5625,-0.14465 106.9375,-0.14465 147.5,0 40.5625,0.14465 7.375,0.263 -73.75,0.263 -81.125,0 -114.3125,-0.11835 -73.75,-0.263 z"
         id="path1400" />
      <path
         style="fill:#cce2f3"
         d="m 57.448903,185.5 c 3.61e-4,-18.7 0.135254,-26.20869 0.299765,-16.68598 0.16451,9.52271 0.164216,24.82271 -6.55e-4,34 -0.16487,9.17729 -0.29947,1.38598 -0.29911,-17.31402 z m 228.999997,0 c 3.6e-4,-18.7 0.13526,-26.20869 0.29977,-16.68598 0.16451,9.52271 0.16421,24.82271 -6.6e-4,34 -0.16487,9.17729 -0.29947,1.38598 -0.29911,-17.31402 z"
         id="path1398" />
      <path
         style="fill:#c6def2"
         d="m 10.484874,199.5 c 3.1e-5,-69.85 0.119291,-98.27756 0.265021,-63.17236 0.14573,35.10521 0.145705,92.25521 -5.7e-5,127 C 10.604076,298.07244 10.484842,269.35 10.484874,199.5 Z m 322.999996,0 c 4e-5,-69.85 0.11929,-98.27756 0.26503,-63.17236 0.14573,35.10521 0.1457,92.25521 -6e-5,127 -0.14576,34.7448 -0.265,6.02236 -0.26497,-63.82764 z M 10.435703,43.5 c 5.72e-4,-14.3 0.141019,-20.010938 0.312104,-12.690973 0.171086,7.319964 0.170619,19.019964 -10e-4,26 C 10.575111,63.789062 10.435132,57.8 10.435703,43.5 Z m 322.946057,14 c 0.002,-6.6 0.16382,-9.169866 0.35965,-5.710812 0.19583,3.459053 0.19422,8.859053 -0.004,12 C 333.54001,66.930134 333.37979,64.1 333.38176,57.5 Z m 0.004,-27.5 c 0,-6.875 0.15977,-9.6875 0.35504,-6.25 0.19527,3.4375 0.19527,9.0625 0,12.5 -0.19527,3.4375 -0.35504,0.625 -0.35504,-6.25 z"
         id="path1396" />
      <path
         style="fill:#c2dcf1"
         d="m 94.75,333.25009 c 42.4875,-0.14434 112.0125,-0.14434 154.5,0 42.4875,0.14434 7.725,0.26243 -77.25,0.26243 -84.975,0 -119.7375,-0.11809 -77.25,-0.26243 z m -54,-322.999169 c 12.7875,-0.15828 33.7125,-0.15828 46.5,0 12.7875,0.158279 2.325,0.287781 -23.25,0.287781 -25.575,0 -36.0375,-0.129502 -23.25,-0.287781 z m 126,-7.33e-4 c 29.2875,-0.147243 77.2125,-0.147243 106.5,0 29.2875,0.147243 5.325,0.267714 -53.25,0.267714 -58.575,0 -82.5375,-0.120471 -53.25,-0.267714 z"
         id="path1394" />
      <path
         style="fill:#bedaf0"
         d="m 178.32814,185.5 c 0.004,-3.85 0.18518,-5.30246 0.40166,-3.2277 0.21647,2.07477 0.21284,5.22477 -0.008,7 -0.22091,1.77524 -0.39803,0.0777 -0.39359,-3.7723 z"
         id="path1392" />
      <path
         style="fill:#a9cfec"
         d="m 37.365231,289.5 c 0.0026,-5.5 0.170532,-7.62242 0.373173,-4.71648 0.202642,2.90594 0.200512,7.40594 -0.0047,10 C 37.528425,297.37758 37.362627,295 37.365231,289.5 Z m 268.999999,0 c 0.003,-5.5 0.17053,-7.62242 0.37317,-4.71648 0.20265,2.90594 0.20052,7.40594 -0.005,10 C 306.52842,297.37758 306.36263,295 306.36523,289.5 Z M 91.32814,185.5 c 0.0044,-3.85 0.185183,-5.30246 0.401658,-3.2277 0.216476,2.07477 0.212846,5.22477 -0.0081,7 C 91.50082,191.04754 91.323704,189.35 91.32814,185.5 Z M 37.369965,108 c 0,-5.775 0.165274,-8.1375 0.367277,-5.25 0.202002,2.8875 0.202002,7.6125 0,10.5 -0.202003,2.8875 -0.367277,0.525 -0.367277,-5.25 z m 268.999995,0 c 0,-5.775 0.16528,-8.1375 0.36728,-5.25 0.202,2.8875 0.202,7.6125 0,10.5 -0.202,2.8875 -0.36728,0.525 -0.36728,-5.25 z"
         id="path1390" />
      <path
         style="fill:#9ac8fe"
         d="M 72,185.5 V 159 H 172 272 V 185.5 212 H 172 72 Z m 38,18.5 c 1.83838,-1.83838 2,-3.33333 2,-18.5 C 112,163.99085 112.85384,165 94.654988,165 76.664598,165 77.5,163.99229 77.5,185.69334 77.5,206.84722 76.765254,206 95.110784,206 106.66667,206 108.20689,205.79311 110,204 Z m 40,0 c 1.84004,-1.84004 2,-3.33333 2,-18.67126 0,-14.10946 -0.25431,-16.95227 -1.65499,-18.5 C 148.89919,165.23112 147.00345,165 135.34501,165 117.14616,165 118,163.99085 118,185.5 c 0,21.46417 -0.79956,20.5 17,20.5 11.66667,0 13.20513,-0.20513 15,-2 z m 40.92742,-0.63486 C 192.81814,200.96148 193,199.39387 193,185.5 193,171.60613 192.81814,170.03852 190.92742,167.63486 188.87223,165.0221 188.7422,165 175.42742,165 157.16157,165 158,164.02887 158,185.18555 158,206.73907 157.37501,206 175.60173,206 c 13.12647,0 13.27291,-0.0252 15.32569,-2.63486 z M 213,185.5 V 178 h -7.5 -7.5 v 7.5 7.5 h 7.5 7.5 z m 20,0 V 178 h -7 -7 v 7.5 7.5 h 7 7 z m 20,0 V 178 h -7 -7 v 7.5 7.5 h 7 7 z M 25,44.5 V 25 H 64.5 104 V 44.5 64 H 64.5 25 Z m 27,0 V 37 H 44.5 37 v 7.5 7.5 h 7.5 7.5 z m 20,0 V 37 H 64.5 57 v 7.5 7.5 h 7.5 7.5 z m 20,0 V 37 H 84.5 77 v 7.5 7.5 h 7.5 7.5 z m 27,0 V 25 h 100 100 v 6 6 h -68.04545 -68.04546 l -2.45454,2.454545 c -2.94422,2.944212 -3.14225,6.47444 -0.54329,9.684671 L 181.82252,51.5 250.41126,51.776718 319,52.053437 V 58.026718 64 H 219 119 Z"
         id="path1388" />
      <path
         style="fill:#a4ccea"
         d="m 49.783522,306.2616 c 2.905937,-0.20265 7.405937,-0.20052 10,0.005 2.594063,0.20525 0.216478,0.37104 -5.283522,0.36844 -5.5,-0.003 -7.622415,-0.17053 -4.716478,-0.37317 z m 234.999998,0 c 2.90594,-0.20265 7.40594,-0.20052 10,0.005 2.59406,0.20525 0.21648,0.37104 -5.28352,0.36844 -5.5,-0.003 -7.62242,-0.17053 -4.71648,-0.37317 z"
         id="path1386" />
      <path
         style="fill:#92c4fb"
         d="m 218.25,51.250453 c 18.5625,-0.152381 48.9375,-0.152381 67.5,0 18.5625,0.152382 3.375,0.277057 -33.75,0.277057 -37.125,0 -52.3125,-0.124675 -33.75,-0.277057 z"
         id="path1384" />
      <path
         style="fill:#92c3fb"
         d="m 77.394557,185.5 c 0.0016,-7.7 0.158535,-10.71781 0.348833,-6.70625 0.190297,4.01156 0.189021,10.31156 -0.0028,14 C 77.548695,196.48219 77.392997,193.2 77.394557,185.5 Z M 44.705328,51.273714 50.910657,50.910657 51.285111,44.205328 51.659566,37.5 l -0.07978,7 -0.07978,7 -6.5,0.06838 -6.5,0.06839 6.205328,-0.363057 z m 16.022368,0.0046 c 1.775232,-0.220912 4.925232,-0.224542 7,-0.0081 C 69.802463,51.486677 68.35,51.667423 64.5,51.67186 c -3.85,0.0044 -5.547537,-0.17268 -3.772304,-0.393592 z m 16.686897,-0.64024 c -0.287451,-0.749084 -0.358416,-4.011584 -0.1577,-7.25 L 77.621831,37.5 77.810916,44.20431 78,50.90862 l 6.75,0.34983 6.75,0.349829 -6.781385,0.195861 c -4.941277,0.142714 -6.923201,-0.173707 -7.304022,-1.166112 z"
         id="path1382" />
      <path
         style="fill:#8abff8"
         d="m 198.32814,185.5 c 0.004,-3.85 0.18518,-5.30246 0.40166,-3.2277 0.21647,2.07477 0.21284,5.22477 -0.008,7 -0.22091,1.77524 -0.39803,0.0777 -0.39359,-3.7723 z"
         id="path1380" />
      <path
         style="fill:#86bcf6"
         d="m 192.39456,185.5 c 0.002,-7.7 0.15853,-10.71781 0.34883,-6.70625 0.1903,4.01156 0.18902,10.31156 -0.003,14 C 192.5487,196.48219 192.393,193.2 192.39456,185.5 Z m 9.33314,6.77827 c 1.77523,-0.22091 4.92523,-0.22454 7,-0.008 2.07476,0.21648 0.6223,0.39722 -3.2277,0.40166 -3.85,0.004 -5.54754,-0.17268 -3.7723,-0.39359 z m 21.0223,-0.002 c 1.7875,-0.22182 4.7125,-0.22182 6.5,0 1.7875,0.22183 0.325,0.40333 -3.25,0.40333 -3.575,0 -5.0375,-0.1815 -3.25,-0.40333 z m 20,0 c 1.7875,-0.22182 4.7125,-0.22182 6.5,0 1.7875,0.22183 0.325,0.40333 -3.25,0.40333 -3.575,0 -5.0375,-0.1815 -3.25,-0.40333 z"
         id="path1378" />
      <path
         style="fill:#82baf4"
         d="m 24.420187,44.5 c -8.84e-4,-11 0.145219,-15.636437 0.324673,-10.303194 0.179454,5.333244 0.180178,14.333244 0.0016,20 C 24.567898,59.863563 24.421071,55.5 24.420187,44.5 Z m 80.000003,0 c -8.9e-4,-11 0.14522,-15.636437 0.32467,-10.303194 0.17945,5.333244 0.18018,14.333244 0.002,20 C 104.5679,59.863563 104.42107,55.5 104.42019,44.5 Z M 319.32007,58 c 0,-3.575 0.1815,-5.0375 0.40333,-3.25 0.22182,1.7875 0.22182,4.7125 0,6.5 -0.22183,1.7875 -0.40333,0.325 -0.40333,-3.25 z m 0,-27 c 0,-3.575 0.1815,-5.0375 0.40333,-3.25 0.22182,1.7875 0.22182,4.7125 0,6.5 -0.22183,1.7875 -0.40333,0.325 -0.40333,-3.25 z"
         id="path1376" />
      <path
         style="fill:#81baf4"
         d="m 44.183398,24.251472 c 10.825869,-0.161319 28.825869,-0.16154 40,-4.91e-4 C 95.357529,24.41203 86.5,24.544018 64.5,24.544288 42.5,24.544559 33.357529,24.412791 44.183398,24.251472 Z M 168.75,24.25021 c 27.6375,-0.147789 72.8625,-0.147789 100.5,0 27.6375,0.14779 5.025,0.268708 -50.25,0.268708 -55.275,0 -77.8875,-0.120918 -50.25,-0.268708 z"
         id="path1374" />
      <path
         style="fill:#7fb8f3"
         d="m 71.437717,185.5 c -5.36e-4,-14.85 0.138632,-21.0644 0.309263,-13.80979 0.170631,7.25462 0.171069,19.40462 9.75e-4,27 C 71.57786,206.2856 71.438253,200.35 71.437717,185.5 Z m 201.000003,0 c -5.4e-4,-14.85 0.13863,-21.0644 0.30926,-13.80979 0.17063,7.25462 0.17107,19.40462 9.7e-4,27 -0.17009,7.59539 -0.3097,1.65979 -0.31023,-13.19021 z M 57.32814,44.5 c 0.0044,-3.85 0.185183,-5.302463 0.401658,-3.227696 0.216476,2.074768 0.212846,5.224768 -0.0081,7 C 57.50082,50.047537 57.323704,48.35 57.32814,44.5 Z m 14,0 c 0.0044,-3.85 0.185183,-5.302463 0.401658,-3.227696 0.216476,2.074768 0.212846,5.224768 -0.0081,7 C 71.50082,50.047537 71.323704,48.35 71.32814,44.5 Z"
         id="path1372" />
      <path
         style="fill:#86bbe4"
         d="m 116.25,279.25323 c 6.4625,-0.17418 17.0375,-0.17418 23.5,0 6.4625,0.17419 1.175,0.3167 -11.75,0.3167 -12.925,0 -18.2125,-0.14251 -11.75,-0.3167 z m 74.53352,0.008 c 2.90594,-0.20265 7.40594,-0.20052 10,0.005 2.59406,0.20525 0.21648,0.37104 -5.28352,0.36844 -5.5,-0.003 -7.62242,-0.17053 -4.71648,-0.37317 z"
         id="path1370" />
      <path
         style="fill:#7ab6f2"
         d="m 118.42019,44.5 c -8.9e-4,-11 0.14522,-15.636437 0.32467,-10.303194 0.17945,5.333244 0.18018,14.333244 0.002,20 C 118.5679,59.863563 118.42107,55.5 118.42019,44.5 Z"
         id="path1368" />
      <path
         style="fill:#76b3f0"
         d="m 201.7277,178.27827 c 1.77523,-0.22091 4.92523,-0.22454 7,-0.008 2.07476,0.21648 0.6223,0.39722 -3.2277,0.40166 -3.85,0.004 -5.54754,-0.17268 -3.7723,-0.39359 z m 21.0223,-0.002 c 1.7875,-0.22182 4.7125,-0.22182 6.5,0 1.7875,0.22183 0.325,0.40333 -3.25,0.40333 -3.575,0 -5.0375,-0.1815 -3.25,-0.40333 z m 20,0 c 1.7875,-0.22182 4.7125,-0.22182 6.5,0 1.7875,0.22183 0.325,0.40333 -3.25,0.40333 -3.575,0 -5.0375,-0.1815 -3.25,-0.40333 z"
         id="path1366" />
      <path
         style="fill:#72b0ee"
         d="m 212.32814,185.5 c 0.004,-3.85 0.18518,-5.30246 0.40166,-3.2277 0.21647,2.07477 0.21284,5.22477 -0.008,7 -0.22091,1.77524 -0.39803,0.0777 -0.39359,-3.7723 z"
         id="path1364" />
      <path
         style="fill:#78b3e1"
         d="m 138.32814,185.5 c 0.004,-3.85 0.18518,-5.30246 0.40166,-3.2277 0.21647,2.07477 0.21284,5.22477 -0.008,7 -0.22091,1.77524 -0.39803,0.0777 -0.39359,-3.7723 z"
         id="path1362" />
      <path
         style="fill:#76b2e0"
         d="m 89.807349,252.25254 c 6.769041,-0.17326 17.569041,-0.17273 24.000001,10e-4 6.43096,0.17391 0.89265,0.31567 -12.30735,0.31502 -13.2,-6.6e-4 -18.461693,-0.14295 -11.692651,-0.31621 z m 73.479161,0.007 c 3.18258,-0.19905 8.13258,-0.1972 11,0.004 2.86742,0.20131 0.26349,0.36417 -5.78651,0.36191 -6.05,-0.002 -8.39607,-0.16696 -5.21349,-0.36601 z m 57.46349,-0.008 c 8.3875,-0.16726 22.1125,-0.16726 30.5,0 8.3875,0.16726 1.525,0.3041 -15.25,0.3041 -16.775,0 -23.6375,-0.13684 -15.25,-0.3041 z M 49.286513,91.259922 c 3.182582,-0.19905 8.132582,-0.197204 11,0.0041 C 63.153931,91.46533 60.55,91.628189 54.5,91.625933 c -6.05,-0.0023 -8.396069,-0.166961 -5.213487,-0.366011 z m 234.999997,0 c 3.18258,-0.19905 8.13258,-0.197204 11,0.0041 2.86742,0.201306 0.26349,0.364165 -5.78651,0.361909 -6.05,-0.0023 -8.39607,-0.166961 -5.21349,-0.366011 z"
         id="path1360" />
      <path
         style="fill:#6badec"
         d="M 37.431615,44 37.5,37.5 44,37.43162 50.5,37.36323 44.294672,37.726287 38.089343,38.089344 37.726286,44.294673 37.363229,50.5 Z M 91.189084,44.79569 91,38.09138 84.25,37.74155 77.5,37.391721 84.281385,37.19586 c 7.873765,-0.22741 7.989363,-0.09703 7.461722,8.416112 L 91.378169,51.5 Z M 60.727696,37.278268 c 1.775232,-0.220912 4.925232,-0.224542 7,-0.0081 C 69.802463,37.486677 68.35,37.667423 64.5,37.67186 c -3.85,0.0044 -5.547537,-0.17268 -3.772304,-0.393592 z"
         id="path1358" />
      <path
         style="fill:#68acea"
         d="m 219.32289,37.250365 c 18.60259,-0.15243 48.75259,-0.152343 67,1.92e-4 18.24741,0.152535 3.02711,0.277251 -33.82289,0.277145 -36.85,-1.05e-4 -51.7797,-0.124907 -33.17711,-0.277337 z"
         id="path1356" />
      <path
         style="fill:#62a8e8"
         d="m 158.39172,185 c 0,-7.425 0.15742,-10.4625 0.34983,-6.75 0.19241,3.7125 0.19241,9.7875 0,13.5 -0.19241,3.7125 -0.34983,0.675 -0.34983,-6.75 z"
         id="path1354" />
      <path
         style="fill:#60a6e7"
         d="m 44.183398,64.251472 c 10.825869,-0.161319 28.825869,-0.16154 40,-4.91e-4 C 95.357529,64.41203 86.5,64.544018 64.5,64.544288 42.5,64.544559 33.357529,64.412791 44.183398,64.251472 Z M 168.75,64.25021 c 27.6375,-0.147789 72.8625,-0.147789 100.5,0 27.6375,0.14779 5.025,0.268708 -50.25,0.268708 -55.275,0 -77.8875,-0.120918 -50.25,-0.268708 z"
         id="path1352" />
      <path
         style="fill:#5ea6e7"
         d="m 232.32814,185.5 c 0.004,-3.85 0.18518,-5.30246 0.40166,-3.2277 0.21647,2.07477 0.21284,5.22477 -0.008,7 -0.22091,1.77524 -0.39803,0.0777 -0.39359,-3.7723 z"
         id="path1350" />
      <path
         style="fill:#64a8dc"
         d="m 131.32814,185.5 c 0.004,-3.85 0.18518,-5.30246 0.40166,-3.2277 0.21647,2.07477 0.21284,5.22477 -0.008,7 -0.22091,1.77524 -0.39803,0.0777 -0.39359,-3.7723 z"
         id="path1348" />
      <path
         style="fill:#58a2e4"
         d="m 111.39456,185.5 c 0.002,-7.7 0.15853,-10.71781 0.34883,-6.70625 0.1903,4.01156 0.18902,10.31156 -0.003,14 C 111.5487,196.48219 111.393,193.2 111.39456,185.5 Z"
         id="path1346" />
      <path
         style="fill:#57a2e4"
         d="m 121.75,158.25021 c 27.6375,-0.14779 72.8625,-0.14779 100.5,0 27.6375,0.14779 5.025,0.26871 -50.25,0.26871 -55.275,0 -77.8875,-0.12092 -50.25,-0.26871 z"
         id="path1344" />
      <path
         style="fill:#59a2da"
         d="m 117.75,225.25018 c 29.8375,-0.14707 78.6625,-0.14707 108.5,0 29.8375,0.14707 5.425,0.26741 -54.25,0.26741 -59.675,0 -84.0875,-0.12034 -54.25,-0.26741 z m -24.5,-46.93951 c 0.9625,-0.25152 2.5375,-0.25152 3.5,0 0.9625,0.25153 0.175,0.45733 -1.75,0.45733 -1.925,0 -2.7125,-0.2058 -1.75,-0.45733 z m 40,0 c 0.9625,-0.25152 2.5375,-0.25152 3.5,0 0.9625,0.25153 0.175,0.45733 -1.75,0.45733 -1.925,0 -2.7125,-0.2058 -1.75,-0.45733 z m 40,0 c 0.9625,-0.25152 2.5375,-0.25152 3.5,0 0.9625,0.25153 0.175,0.45733 -1.75,0.45733 -1.925,0 -2.7125,-0.2058 -1.75,-0.45733 z"
         id="path1342" />
      <path
         style="fill:#4f9ce1"
         d="m 89.75,205.26276 c 2.8875,-0.202 7.6125,-0.202 10.5,0 2.8875,0.202 0.525,0.36728 -5.25,0.36728 -5.775,0 -8.1375,-0.16528 -5.25,-0.36728 z m 40,0 c 2.8875,-0.202 7.6125,-0.202 10.5,0 2.8875,0.202 0.525,0.36728 -5.25,0.36728 -5.775,0 -8.1375,-0.16528 -5.25,-0.36728 z m 40,0 c 2.8875,-0.202 7.6125,-0.202 10.5,0 2.8875,0.202 0.525,0.36728 -5.25,0.36728 -5.775,0 -8.1375,-0.16528 -5.25,-0.36728 z"
         id="path1340" />
      <path
         style="fill:#4c9bdf"
         d="m 252.32814,185.5 c 0.004,-3.85 0.18518,-5.30246 0.40166,-3.2277 0.21647,2.07477 0.21284,5.22477 -0.008,7 -0.22091,1.77524 -0.39803,0.0777 -0.39359,-3.7723 z"
         id="path1338" />
      <path
         style="fill:#4798dd"
         d="m 121.75,212.25021 c 27.6375,-0.14779 72.8625,-0.14779 100.5,0 27.6375,0.14779 5.025,0.26871 -50.25,0.26871 -55.275,0 -77.8875,-0.12092 -50.25,-0.26871 z"
         id="path1336" />
      <path
         style="fill:#4a99d7"
         d="m 89.807349,239.25254 c 6.769041,-0.17326 17.569041,-0.17273 24.000001,10e-4 6.43096,0.17391 0.89265,0.31567 -12.30735,0.31502 -13.2,-6.6e-4 -18.461693,-0.14295 -11.692651,-0.31621 z m 73.942651,0.0102 c 2.8875,-0.202 7.6125,-0.202 10.5,0 2.8875,0.202 0.525,0.36728 -5.25,0.36728 -5.775,0 -8.1375,-0.16528 -5.25,-0.36728 z m 57,-0.0107 c 8.3875,-0.16726 22.1125,-0.16726 30.5,0 8.3875,0.16726 1.525,0.3041 -15.25,0.3041 -16.775,0 -23.6375,-0.13684 -15.25,-0.3041 z M 54.75,104.2766 c 1.7875,-0.22182 4.7125,-0.22182 6.5,0 1.7875,0.22183 0.325,0.40333 -3.25,0.40333 -3.575,0 -5.0375,-0.1815 -3.25,-0.40333 z m 228,0 c 1.7875,-0.22182 4.7125,-0.22182 6.5,0 1.7875,0.22183 0.325,0.40333 -3.25,0.40333 -3.575,0 -5.0375,-0.1815 -3.25,-0.40333 z"
         id="path1334" />
      <path
         style="fill:#3e94da"
         d="m 89.75,165.26276 c 2.8875,-0.202 7.6125,-0.202 10.5,0 2.8875,0.202 0.525,0.36728 -5.25,0.36728 -5.775,0 -8.1375,-0.16528 -5.25,-0.36728 z m 40,0 c 2.8875,-0.202 7.6125,-0.202 10.5,0 2.8875,0.202 0.525,0.36728 -5.25,0.36728 -5.775,0 -8.1375,-0.16528 -5.25,-0.36728 z m 41.03352,-10e-4 c 2.90594,-0.20265 7.40594,-0.20052 10,0.005 2.59406,0.20525 0.21648,0.37104 -5.28352,0.36844 -5.5,-0.003 -7.62242,-0.17053 -4.71648,-0.37317 z"
         id="path1332" />
      <path
         style="fill:#3c92d9"
         d="m 118.39456,185.5 c 0.002,-7.7 0.15853,-10.71781 0.34883,-6.70625 0.1903,4.01156 0.18902,10.31156 -0.003,14 C 118.5487,196.48219 118.393,193.2 118.39456,185.5 Z"
         id="path1330" />
      <path
         style="fill:#3b91d4"
         d="m 93.25,192.31067 c 0.9625,-0.25152 2.5375,-0.25152 3.5,0 0.9625,0.25153 0.175,0.45733 -1.75,0.45733 -1.925,0 -2.7125,-0.2058 -1.75,-0.45733 z m 40,0 c 0.9625,-0.25152 2.5375,-0.25152 3.5,0 0.9625,0.25153 0.175,0.45733 -1.75,0.45733 -1.925,0 -2.7125,-0.2058 -1.75,-0.45733 z m 40,0 c 0.9625,-0.25152 2.5375,-0.25152 3.5,0 0.9625,0.25153 0.175,0.45733 -1.75,0.45733 -1.925,0 -2.7125,-0.2058 -1.75,-0.45733 z m -55,-47.06049 c 29.5625,-0.14715 77.9375,-0.14715 107.5,0 29.5625,0.14716 5.375,0.26756 -53.75,0.26756 -59.125,0 -83.3125,-0.1204 -53.75,-0.26756 z"
         id="path1328" />
      <path
         style="fill:#348dd6"
         d="m 239.32814,185.5 c 0.004,-3.85 0.18518,-5.30246 0.40166,-3.2277 0.21647,2.07477 0.21284,5.22477 -0.008,7 -0.22091,1.77524 -0.39803,0.0777 -0.39359,-3.7723 z"
         id="path1326" />
      <path
         style="fill:#308cd5"
         d="m 151.39456,185.5 c 0.002,-7.7 0.15853,-10.71781 0.34883,-6.70625 0.1903,4.01156 0.18902,10.31156 -0.003,14 C 151.5487,196.48219 151.393,193.2 151.39456,185.5 Z"
         id="path1324" />
      <path
         style="fill:#328cd1"
         d="m 98.32814,185.5 c 0.0044,-3.85 0.185183,-5.30246 0.401658,-3.2277 0.216476,2.07477 0.212846,5.22477 -0.0081,7 -0.220912,1.77524 -0.398028,0.0777 -0.393592,-3.7723 z"
         id="path1322" />
      <path
         style="fill:#2c88d0"
         d="m 116.80735,266.25254 c 6.76904,-0.17326 17.56904,-0.17273 24,10e-4 6.43096,0.17391 0.89265,0.31567 -12.30735,0.31502 -13.2,-6.6e-4 -18.46169,-0.14295 -11.69265,-0.31621 z m 73.47916,0.007 c 3.18258,-0.19905 8.13258,-0.1972 11,0.004 2.86742,0.20131 0.26349,0.36417 -5.78651,0.36191 -6.05,-0.002 -8.39607,-0.16696 -5.21349,-0.36601 z M 45.817316,77.250894 c 11.724523,-0.160084 30.624523,-0.159881 42,4.51e-4 C 99.192792,77.411676 89.6,77.542654 66.5,77.542406 43.4,77.542158 34.092792,77.410978 45.817316,77.250894 Z M 165.75,77.250202 c 28.1875,-0.1476 74.3125,-0.1476 102.5,0 28.1875,0.147601 5.125,0.268365 -51.25,0.268365 -56.375,0 -79.4375,-0.120764 -51.25,-0.268365 z"
         id="path1320" />
      <path
         style="fill:#2082ce"
         d="m 219.32814,185.5 c 0.004,-3.85 0.18518,-5.30246 0.40166,-3.2277 0.21647,2.07477 0.21284,5.22477 -0.008,7 -0.22091,1.77524 -0.39803,0.0777 -0.39359,-3.7723 z"
         id="path1318" />
      <path
         style="fill:#1d80cc"
         d="M 13.454545,330.54545 11,328.09091 V 172 15.909091 L 13.454545,13.454545 15.909091,11 H 172 328.09091 l 2.45454,2.454545 L 333,15.909091 V 172 328.09091 l -2.45455,2.45454 L 328.09091,333 H 172 15.909091 Z M 320,198.5 V 77 H 172 24 V 198.5 320 H 172 320 Z M 40.454545,303.54545 C 38.130838,301.22175 38,300.47306 38,289.5 c 0,-10.97306 0.130838,-11.72175 2.454545,-14.04545 2.951756,-2.95176 4.566285,-3.06802 7.672808,-0.55251 2.040423,1.65224 2.396616,2.9523 2.71207,9.89872 l 0.363148,7.99667 7.996673,0.36315 c 6.946421,0.31545 8.246481,0.67164 9.898715,2.71207 2.51551,3.10652 2.399251,4.72105 -0.552504,7.6728 C 66.221747,305.86916 65.473064,306 54.5,306 43.526936,306 42.778253,305.86916 40.454545,303.54545 Z m 235.000005,0 c -2.95176,-2.95175 -3.06802,-4.56628 -0.55251,-7.6728 1.65224,-2.04043 2.9523,-2.39662 9.89872,-2.71207 l 7.99667,-0.36315 0.36315,-7.99667 c 0.31545,-6.94642 0.67164,-8.24648 2.71207,-9.89872 3.10652,-2.51551 4.72105,-2.39925 7.6728,0.55251 2.32371,2.3237 2.45455,3.07239 2.45455,14.04545 0,10.97306 -0.13084,11.72175 -2.45455,14.04545 C 301.22175,305.86916 300.47306,306 289.5,306 c -10.97306,0 -11.72175,-0.13084 -14.04545,-2.45455 z M 101.22251,277.4433 c -2.744051,-1.92201 -2.948125,-6.47665 -0.39377,-8.78831 1.60339,-1.45105 5.04675,-1.65499 27.9433,-1.65499 25.85242,0 26.13018,0.0223 27.67126,2.22251 2.09517,2.99128 1.95931,5.37488 -0.4433,7.77749 -1.8945,1.8945 -3.33333,2 -27.27749,2 -21.25964,0 -25.63076,-0.24744 -27.5,-1.5567 z m 79.87301,-1.04899 c -2.55132,-3.24349 -2.61245,-4.53851 -0.34552,-7.31985 1.65598,-2.03177 2.47331,-2.13173 15.21337,-1.86079 l 13.46337,0.28633 1.51609,2.70417 c 1.40044,2.49787 1.35702,2.91747 -0.56913,5.5 -2.06678,2.77109 -2.19627,2.7983 -14.63394,3.07499 -12.54341,0.27905 -12.54961,0.27804 -14.64424,-2.38485 z M 74.222506,250.4433 c -2.744047,-1.92201 -2.948121,-6.47665 -0.393765,-8.78831 C 75.43176,240.20427 78.868662,240 101.67375,240 c 23.93415,0 26.14873,0.14636 27.67126,1.82874 2.2253,2.45893 2.08679,5.73946 -0.34501,8.17126 -1.8945,1.8945 -3.33333,2 -27.27749,2 -21.259642,0 -25.630765,-0.24744 -27.500004,-1.5567 z M 154.80709,250.25 c -0.82658,-0.9625 -1.81714,-2.3032 -2.20123,-2.97933 -0.74372,-1.3092 0.96279,-5.28273 2.79384,-6.50536 0.60517,-0.40408 6.6128,-0.74158 13.3503,-0.75 10.92853,-0.0137 12.46575,0.20044 14.25,1.98469 1.1,1.1 2,2.9 2,4 0,1.1 -0.9,2.9 -2,4 -1.78399,1.78399 -3.33333,2 -14.34501,2 -10.51796,0 -12.56744,-0.259 -13.8479,-1.75 z m 47,0 c -0.82658,-0.9625 -1.81714,-2.3032 -2.20123,-2.97933 -0.74372,-1.3092 0.96279,-5.28273 2.79384,-6.50536 0.60517,-0.40408 15.76806,-0.74158 33.69531,-0.75 30.3187,-0.0142 32.71059,0.1124 34.25,1.81343 2.36213,2.61012 2.08915,6.75375 -0.56752,8.61456 -1.89956,1.3305 -6.8901,1.5567 -34.34501,1.5567 -29.35367,0 -32.25205,-0.15084 -33.62539,-1.75 z M 60.57293,223.43007 c -0.86346,-0.86346 -1.814538,-2.55096 -2.113506,-3.75 -0.298968,-1.19904 -0.412144,-17.62925 -0.251501,-36.51158 0.27776,-32.64869 0.387225,-34.40104 2.233207,-35.75 2.91219,-2.1281 220.20555,-2.1281 223.11774,0 1.84598,1.34896 1.95545,3.10131 2.23321,35.75 0.16064,18.88233 0.0475,35.31254 -0.2515,36.51158 C 284.12726,225.34832 291.56129,225 172,225 73.507776,225 61.980445,224.83759 60.57293,223.43007 Z M 273,185.5 V 158 H 172 71 V 185.5 213 H 172 273 Z M 80.404988,202.89501 C 78.706511,201.01822 78.5,199.1325 78.5,185.5 78.5,165.31202 77.930032,166 94.654988,166 111.60509,166 111,165.27811 111,185.5 c 0,20.22189 0.60509,19.5 -16.345012,19.5 -11.28026,0 -12.509317,-0.18155 -14.25,-2.10499 z M 99,185.5 V 178 h -4 -4 v 7.5 7.5 h 4 4 z m 22,17.5 c -1.8317,-1.8317 -2,-3.33333 -2,-17.84501 C 119,165.0056 118.16037,166 135.17375,166 151.82971,166 151,164.96342 151,185.77204 151,205.86999 151.73401,205 134.77749,205 124.33333,205 122.77358,204.77358 121,203 Z m 18,-17.5 V 178 h -4 -4 v 7.5 7.5 h 4 4 z m 22,17.5 c -1.82796,-1.82796 -2,-3.33333 -2,-17.5 0,-20.23346 -0.61789,-19.5 16.42742,-19.5 12.23447,0 12.4596,0.0409 14.5,2.63486 C 191.80366,171.02011 192,172.6178 192,185.5 c 0,12.8822 -0.19634,14.47989 -2.07258,16.86514 -2.0404,2.59395 -2.26553,2.63486 -14.5,2.63486 -11.09409,0 -12.642,-0.21458 -14.42742,-2 z m 18,-17.5 V 178 h -3.5 -3.5 v 7.5 7.5 h 3.5 3.5 z m 20,0 V 179 h 6.5 6.5 v 6.5 6.5 h -6.5 -6.5 z m 21,0 V 179 h 6 6 v 6.5 6.5 h -6 -6 z m 20,0 V 179 h 6 6 v 6.5 6.5 h -6 -6 z M 39.556704,121.77749 C 38.361688,120.07137 38,116.81858 38,107.77749 38,91.681067 37.822413,91.84676 54.673892,92.220344 c 12.306392,0.272824 12.662411,0.343791 14.57236,2.904778 1.671862,2.241744 1.774977,2.971955 0.70606,4.999998 -1.863928,3.53642 -2.753413,3.84287 -11.202312,3.85957 L 51,104 v 7.06574 c 0,6.79657 -1.065474,10.61034 -3.399704,12.16895 -2.27755,1.52076 -6.492604,0.75715 -8.043592,-1.4572 z m 256.842996,1.4572 C 294.06547,121.67608 293,117.86231 293,111.06574 V 104 h -7.80887 c -4.73235,0 -8.43536,-0.49247 -9.39903,-1.25 -2.72683,-2.14353 -3.00596,-5.208407 -0.73704,-8.092872 C 277.11714,92.035621 277.31176,92 289.57258,92 306.18068,92 306,91.826472 306,107.77749 c 0,13.24527 -1.07084,16.23412 -5.8067,16.2072 -1.48132,-0.008 -3.18843,-0.34592 -3.7936,-0.75 z M 105,44.5 V 24 H 64.5 24 V 44.5 65 H 64.5 105 Z m -67,0 V 38 H 44.5 51 V 44.5 51 H 44.5 38 Z m 20,0 V 38 H 64.5 71 V 44.5 51 H 64.5 58 Z m 20,0 V 38 H 84.5 91 V 44.5 51 H 84.5 78 Z M 320,58.020252 V 51.040504 L 251.41134,50.770252 182.82267,50.5 180.91134,48.139216 c -2.52496,-3.118696 -2.41103,-4.730435 0.54321,-7.684671 L 183.90909,38 H 251.95455 320 V 31 24 H 219 118 V 44.5 65 h 101 101 z"
         id="path1316" />
    </g>
  </g>
</svg>
