<?xml version="1.0" encoding="UTF-8" standalone="no"?>
<!-- Created with Inkscape (http://www.inkscape.org/) -->

<svg
   version="1.1"
   id="svg98"
   width="221.59897"
   height="259.79645"
   viewBox="0 0 221.59897 259.79645"
   sodipodiDocname="linux.svg"
   inkscapeVersion="1.2.1 (9c6d41e410, 2022-07-14)"
   xmlnsInkscape="http://www.inkscape.org/namespaces/inkscape"
   xmlnsSodipodi="http://sodipodi.sourceforge.net/DTD/sodipodi-0.dtd"
   xmlns="http://www.w3.org/2000/svg"
   xmlnsSvg="http://www.w3.org/2000/svg">
  <defs
     id="defs102" />
  <sodipodiNamedview
     id="namedview100"
     pagecolor="#ffffff"
     bordercolor="#000000"
     borderopacity="0.25"
     inkscapeShowpageshadow="2"
     inkscapePageopacity="0.0"
     inkscapePagecheckerboard="0"
     inkscapeDeskcolor="#d1d1d1"
     showgrid="false"
     inkscapeZoom="1.4127907"
     inkscapeCx="111.48148"
     inkscapeCy="139.44033"
     inkscapeWindow-width="1366"
     inkscapeWindow-height="695"
     inkscapeWindow-x="0"
     inkscapeWindow-y="0"
     inkscapeWindow-maximized="1"
     inkscapeCurrent-layer="g104" />
  <g
     inkscapeGroupmode="layer"
     inkscapeLabel="Image"
     id="g104"
     transform="translate(211.76291,-32.480397)">
    <g
       id="g232"
       transform="translate(-276.16394,-9.641052)">
      <path
         style="fill:#fefcf9"
         d="m 95,220.62244 c 0,-0.20765 0.7875,-0.99515 1.75,-1.75 1.586056,-1.24387 1.621426,-1.2085 0.377555,0.37756 C 95.821186,220.91575 95,221.44548 95,220.62244 Z"
         id="path272" />
      <path
         style="fill:#ebeef0"
         d="m 162.74592,270.91433 c -5.92491,-1.3964 -19.34399,-9.03716 -17.73098,-10.09594 0.26678,-0.17511 1.82912,-1.00731 3.47186,-1.84932 3.83854,-1.96752 5.24541,-5.78716 3.59717,-9.76635 -0.7551,-1.82298 -5.97428,-6.80755 -13.41011,-12.8073 -14.14902,-11.41644 -23.26631,-20.19329 -24.58819,-23.67008 -1.37837,-3.62539 1.35617,-22.79332 3.91871,-27.46839 1.13261,-2.06632 1.83669,-2.85695 1.56461,-1.75695 -2.56243,10.36008 -3.41133,21.14133 -1.962,24.91821 0.94174,2.45414 2.39301,1.86538 2.39301,-0.9708 0,-9.08843 6.63591,-27.37678 13.35303,-36.80053 C 142.66458,157.58328 149,142.03282 149,132.24095 v -5.39604 l 5.11795,4.47706 c 4.19617,3.6707 6.06197,4.595 10.35927,5.13192 2.88273,0.36017 6.54215,0.34954 8.13205,-0.0236 3.03716,-0.71285 19.93368,-9.39306 24.64073,-12.65861 1.5125,-1.04931 2.75,-1.41829 2.75,-0.81996 0,1.80748 12.76241,33.81871 17.96012,45.04831 6.83083,14.75798 8.08708,20.10891 8.74526,37.25 0.3115,8.1125 0.90182,14.75 1.31181,14.75 1.3137,0 6.02722,-6.85531 8.64493,-12.57315 4.6437,-10.14318 4.14809,-22.45775 -1.23461,-30.67685 -3.61855,-5.52532 -1.52434,-4.53322 2.76027,1.30764 5.12076,6.98071 6.53366,13.78653 5.01921,24.17715 -0.64083,4.39673 -2.27467,10.41757 -3.63074,13.37963 -2.06238,4.50484 -2.89162,5.38558 -5.07059,5.38558 -1.43274,0 -3.84674,0.64214 -5.36445,1.42698 -1.78177,0.92139 -3.26999,1.10397 -4.20034,0.51531 -2.67246,-1.69091 -8.51604,-1.0692 -10.49406,1.11649 -1.56496,1.72926 -1.98732,4.54244 -2.63887,17.57665 -0.72034,14.41021 -0.93746,15.65319 -3.04182,17.4134 -3.62426,3.03156 -16.78455,9.61451 -22.69762,11.35366 -5.81223,1.70949 -17.1822,1.95902 -23.32258,0.51184 z m 28.9286,-163.67547 c -1.7673,-0.40137 -1.7673,-0.47886 0,-2.43171 2.57541,-2.84578 2.52686,-11.822158 -0.0795,-14.702162 -2.82179,-3.118051 -7.89072,-2.815803 -10.60294,0.632229 -1.66149,2.112231 -2.07763,3.802494 -1.82258,7.402757 0.29629,4.182536 0.14934,4.568436 -1.41949,3.727596 -1.78374,-0.95602 -2.30175,-3.676885 -1.86449,-9.793333 C 176.39263,84.980603 181.7198,79 187.53127,79 c 4.08171,0 8.87133,5.067707 10.49756,11.10706 1.97036,7.317374 -2.03382,18.11301 -6.35431,17.1318 z m -43.14524,-2.55382 c -2.15801,-3.29355 -2.97383,-10.808002 -1.61905,-14.913022 2.51951,-7.634201 9.33587,-10.038923 13.30726,-4.694624 2.37857,3.200855 3.83922,9.389055 3.09476,13.111335 -0.83819,4.190971 -2.79008,3.387671 -2.96389,-1.2198 -0.27833,-7.377985 -5.81708,-11.723859 -9.41567,-7.387823 -1.80232,2.171663 -1.52195,10.589934 0.45309,13.604224 1.52374,2.32553 1.31708,3.81467 -0.52939,3.81467 -0.44566,0 -1.49285,-1.04173 -2.32711,-2.31496 z"
         id="path270" />
      <path
         style="fill:#ecece4"
         d="m 151.87244,129.25 c -1.24387,-1.58606 -1.2085,-1.62143 0.37756,-0.37756 0.9625,0.75485 1.75,1.54235 1.75,1.75 0,0.82304 -0.82119,0.29331 -2.12756,-1.37244 z"
         id="path268" />
      <path
         style="fill:#ede8d3"
         d="m 167.8125,136.31689 c 0.72187,-0.28887 1.58437,-0.25335 1.91667,0.0789 0.33229,0.33229 -0.25834,0.56864 -1.3125,0.52522 -1.16495,-0.048 -1.4019,-0.28494 -0.60417,-0.60416 z"
         id="path266" />
      <path
         style="fill:#d1d4d6"
         d="m 172.75,272.33772 c 0.6875,-0.27741 1.8125,-0.27741 2.5,0 0.6875,0.27741 0.125,0.50439 -1.25,0.50439 -1.375,0 -1.9375,-0.22698 -1.25,-0.50439 z"
         id="path264" />
      <path
         style="fill:#b5babc"
         d="m 191.8125,285.31689 c 0.72187,-0.28887 1.58437,-0.25335 1.91667,0.0789 0.33229,0.33229 -0.25834,0.56864 -1.3125,0.52522 -1.16495,-0.048 -1.4019,-0.28494 -0.60417,-0.60416 z"
         id="path262" />
      <path
         style="fill:#a8abad"
         d="m 187.8125,285.31689 c 0.72187,-0.28887 1.58437,-0.25335 1.91667,0.0789 0.33229,0.33229 -0.25834,0.56864 -1.3125,0.52522 -1.16495,-0.048 -1.4019,-0.28494 -0.60417,-0.60416 z"
         id="path260" />
      <path
         style="fill:#fbc729"
         d="m 212.15789,236 c 0,-1.375 0.22698,-1.9375 0.50439,-1.25 0.27741,0.6875 0.27741,1.8125 0,2.5 -0.27741,0.6875 -0.50439,0.125 -0.50439,-1.25 z"
         id="path258" />
      <path
         style="fill:#fdc51e"
         d="m 212.07895,241.41667 c 0.048,-1.16495 0.28494,-1.4019 0.60416,-0.60417 0.28887,0.72187 0.25335,1.58437 -0.0789,1.91667 -0.3323,0.33229 -0.56864,-0.25834 -0.52522,-1.3125 z"
         id="path256" />
      <path
         style="fill:#93999c"
         d="m 120.87244,222.25 c -1.24387,-1.58606 -1.2085,-1.62143 0.37756,-0.37756 0.9625,0.75485 1.75,1.54235 1.75,1.75 0,0.82304 -0.82119,0.29331 -2.12756,-1.37244 z"
         id="path254" />
      <path
         style="fill:#fec006"
         d="m 124,301.04701 c -1.375,-0.42959 -6.775,-2.44464 -12,-4.47788 -5.225,-2.03324 -16.108317,-5.21642 -24.185149,-7.07375 -8.076831,-1.85732 -16.060093,-4.08796 -17.740582,-4.95697 -6.388899,-3.30383 -7.389588,-8.69424 -2.961942,-15.95509 2.288048,-3.75215 2.443099,-10.43455 0.398497,-17.17439 -3.056731,-10.07623 -1.84269,-11.93113 9.361381,-14.30297 7.575133,-1.60361 10.348547,-3.54566 16.127885,-11.29333 6.129354,-8.21689 9.8627,-10.52632 14.14742,-8.75153 4.33231,1.7945 10.29673,9.14058 19.8534,24.45245 4.6745,7.48956 11.40474,17.97543 14.95609,23.30192 6.21421,9.32038 6.47205,9.95572 6.8574,16.89694 0.53315,9.60355 -1.9941,15.22799 -8.19023,18.22748 -4.37404,2.11744 -11.80625,2.6124 -16.62417,1.10712 z m 97.19157,-1.15886 c -5.52403,-0.71171 -8.5007,-2.63165 -10.6757,-6.88579 -2.52081,-4.93052 -2.63536,-10.36783 -0.50589,-24.0134 1.15777,-7.41893 2.37453,-19.70524 2.70392,-27.30292 C 213.38865,226.12203 214.60881,223 220.01682,223 c 4.86386,0 8.3201,3.91406 8.94409,10.12884 0.51523,5.13163 0.70104,5.42216 4.19833,6.56466 6.71644,2.19414 10.72061,0.18139 18.90155,-9.50109 1.65061,-1.95356 3.93395,-3.2884 6.4242,-3.75557 5.128,-0.96202 6.95218,1.29764 8.51173,10.54373 1.46799,8.70319 4.05965,12.63194 11.0368,16.73087 7.25335,4.26118 7.96648,4.95396 7.96648,7.73909 0,3.03205 -3.505,5.96442 -15.72654,13.15717 -10.51422,6.18795 -25.08863,16.25974 -27.18646,18.78747 -4.16112,5.01384 -13.00962,7.63782 -21.89543,6.49298 z M 162.86734,135.29507 c -3.08053,-0.47421 -17.50871,-12.58978 -18.42284,-15.46994 -1.13315,-3.57023 0.42688,-6.26491 6.41341,-11.07801 10.14524,-8.15665 15.94387,-9.411454 26.14209,-5.65703 3.025,1.11364 8.61992,3.13725 12.43315,4.49691 8.81477,3.14303 9.56685,3.8176 9.56685,8.5809 0,5.33594 -2.2097,7.30212 -15.90503,14.15223 -11.05515,5.52955 -13.19923,6.05688 -20.22763,4.97494 z m 12.34515,-10.30976 c 6.38743,-2.4338 18.98746,-9.99733 19.54976,-11.73531 0.75822,-2.34356 -3.87032,-1.28247 -9.95085,2.28123 -16.39115,9.60659 -24.20869,10.4805 -33.93057,3.79302 -2.78227,-1.91386 -5.3254,-3.21302 -5.6514,-2.88702 -0.91351,0.91351 5.90085,7.63299 9.27057,9.14149 4.54344,2.03394 14.57106,1.74665 20.71249,-0.59341 z M 163.25,107.60795 C 165.51324,105.88991 165.46971,105 163.12244,105 c -2.0866,0 -4.47425,2.31486 -3.4471,3.34201 0.92161,0.9216 1.56863,0.78873 3.57466,-0.73406 z M 175.81311,107.25 c -0.18345,-0.9625 -1.34144,-1.8938 -2.57333,-2.06955 -2.46189,-0.35124 -2.90194,0.75739 -1.03978,2.61955 1.79145,1.79145 3.99543,1.45595 3.61311,-0.55 z"
         id="path252" />
      <path
         style="fill:#82898d"
         d="m 265.07895,207.41667 c 0.048,-1.16495 0.28494,-1.4019 0.60416,-0.60417 0.28887,0.72187 0.25335,1.58437 -0.0789,1.91667 -0.33229,0.33229 -0.56864,-0.25834 -0.52522,-1.3125 z"
         id="path250" />
      <path
         style="fill:#7d8489"
         d="m 175.8125,42.316886 c 0.72187,-0.288871 1.58437,-0.253344 1.91667,0.07895 0.33229,0.332292 -0.25834,0.568641 -1.3125,0.52522 -1.16495,-0.04798 -1.4019,-0.284941 -0.60417,-0.604167 z"
         id="path248" />
      <path
         style="fill:#a67c04"
         d="M 147.40499,119.75 145.5,117.5 l 2.25,1.90499 c 2.11444,1.79022 2.70524,2.59501 1.90499,2.59501 -0.18976,0 -1.20226,-1.0125 -2.25,-2.25 z"
         id="path246" />
      <path
         style="fill:#445962"
         d="m 234.5,239.2512 c -3.4136,-0.79608 -4.5,-2.3507 -4.5,-6.43939 0,-2.16881 -0.49169,-4.86202 -1.09264,-5.98491 -1.43985,-2.69039 -0.18822,-3.84541 4.90775,-4.52893 5.7665,-0.77345 12.61417,0.46526 15.61328,2.82436 l 2.56915,2.0209 -3.05736,4.44372 c -4.31623,6.27342 -9.22722,8.87997 -14.44018,7.66425 z"
         id="path244" />
      <path
         style="fill:#755503"
         d="m 160.25,126.31067 c 0.9625,-0.25152 2.5375,-0.25152 3.5,0 0.9625,0.25153 0.175,0.45733 -1.75,0.45733 -1.925,0 -2.7125,-0.2058 -1.75,-0.45733 z"
         id="path242" />
      <path
         style="fill:#343f45"
         d="m 172.8125,285.31689 c 0.72187,-0.28887 1.58437,-0.25335 1.91667,0.0789 0.33229,0.33229 -0.25834,0.56864 -1.3125,0.52522 -1.16495,-0.048 -1.4019,-0.28494 -0.60417,-0.60416 z"
         id="path240" />
      <path
         style="fill:#624602"
         d="m 153.99895,124.05964 c -1.92557,-1.01859 -4.39735,-2.9112 -5.49284,-4.20581 l -1.9918,-2.35383 2.49284,2.05916 c 4.08401,3.3735 7.69921,4.44084 15.04159,4.44084 6.47654,0 7.68696,-0.37892 17.60766,-5.51195 5.85917,-3.03157 10.81929,-5.3457 11.02248,-5.1425 0.68501,0.68501 -2.20202,2.51716 -11.97136,7.59721 -8.93306,4.64517 -10.27476,5.05364 -16.46651,5.01304 -4.5637,-0.0299 -7.87183,-0.64237 -10.24206,-1.89616 z M 173,107 c -0.90129,-0.58246 -1.02463,-0.97549 -0.30902,-0.98469 0.65504,-0.008 1.4691,0.43469 1.80902,0.98469 0.7673,1.24153 0.42112,1.24153 -1.5,0 z"
         id="path238" />
      <path
         style="fill:#253137"
         d="m 150,280.89022 c 0,-5.78378 -0.35799,-6.6137 -7.50131,-17.39022 -2.91659,-4.4 -9.21199,-14.28539 -13.9898,-21.96753 -13.54347,-21.7763 -19.11041,-27.43781 -25.58188,-26.01644 C 100.10224,216.13645 100,216.02957 100,212.4561 c 0,-4.96275 5.78575,-21.9769 11.83273,-34.79649 5.57432,-11.81755 11.86455,-21.91627 19.66319,-31.5685 6.72135,-8.31888 10.49868,-15.76263 10.52267,-20.73634 0.0102,-2.12012 -0.52936,-12.98131 -1.19907,-24.13597 -2.21295,-36.859032 1.92881,-47.827048 20.89817,-55.34151 8.07619,-3.199275 21.41668,-3.229342 29.38759,-0.06623 12.59995,5.000055 18.60728,11.347769 23.66911,25.010235 2.04688,5.524774 2.60145,9.356773 3.2097,22.17871 1.10862,23.369665 4.46616,31.939725 22.69128,57.919175 20.62981,29.40727 27.95839,52.51084 22.25314,70.15376 -0.9872,3.05283 -1.79436,3.74383 -5.54498,4.74697 -3.89429,1.04156 -4.60011,0.96351 -6.25534,-0.69172 -1.02616,-1.02616 -4.20311,-2.42648 -7.05989,-3.11181 -4.17329,-1.00115 -5.06332,-1.56743 -4.52853,-2.88122 5.24694,-12.88976 6.6627,-24.48699 4.07568,-33.38601 -1.90106,-6.53943 -9.63491,-15.7125 -16.49373,-19.56313 C 224.85477,164.91332 223,164.03284 223,164.22939 c 0,0.19655 2.63739,3.06941 5.86086,6.38413 10.71923,11.02268 12.81488,22.99391 6.40406,36.58258 -1.63572,3.46714 -3.92451,7.4289 -5.08621,8.8039 l -2.11217,2.5 -0.0333,-10.11901 C 227.98612,194.04014 225.68891,182.2379 220.85468,171.5 208.32725,143.67379 200,121.33969 200,115.56672 c 0,-3.6886 -0.44898,-4.8148 -2.43948,-6.11902 l -2.43947,-1.59841 1.91081,-3.14207 C 203.44053,94.169001 197.50926,78 187.23486,78 c -7.67913,0 -12.4514,6.362928 -12.54895,16.731655 -0.047,4.995502 -0.35526,6.225465 -1.45456,5.803625 C 172.46414,100.24088 170.17124,100 168.13602,100 h -3.70041 l -0.0766,-5.301969 C 164.23403,86.05468 160.75611,81 154.93391,81 c -6.76793,0 -10.9382,7.656227 -9.57753,17.583442 0.33409,2.437438 1.35706,5.575778 2.27327,6.974088 1.61901,2.47093 1.57736,2.63367 -1.48191,5.79004 -3.94537,4.07059 -4.16457,8.29055 -0.64774,12.47006 6.01305,7.14611 0.755,25.54396 -13.21531,46.24025 -5.98463,8.86591 -9.90211,18.36517 -12.34809,29.94212 l -1.79588,8.5 -0.0704,-7.0201 c -0.0681,-6.79777 2.06679,-16.77447 5.61772,-26.25219 2.46408,-6.57682 0.88655,-6.08341 -3.02711,0.94679 -6.78932,12.19583 -8.00963,16.35122 -8.08874,27.54373 l -0.0722,10.21823 7,7.10946 c 3.85,3.9102 12.24017,11.36705 18.64483,16.57076 15.39431,12.50771 17.02021,16.68572 8.24528,21.18752 l -3.54814,1.82031 3.94819,3.56695 c 6.51673,5.88747 13.90823,8.21895 26.20984,8.26728 12.34652,0.0485 18.18568,-1.54239 29.65898,-8.08074 l 7.59458,-4.32796 -0.62753,3.72498 c -0.34514,2.04874 -1.13733,7.77498 -1.76042,12.72498 l -1.13289,9 -28.36636,0.20596 -28.36636,0.20597 v -5.02171 z"
         id="path236" />
      <path
         style="fill:#202020"
         d="M 183.25,104.01096 C 180.35586,102.24637 180,101.53506 180,97.514698 180,92.330841 182.51432,89 186.42742,89 189.61895,89 193,93.372544 193,97.5 c 0,3.33018 -3.24049,8.50287 -5.32258,8.49626 -0.64758,-0.002 -2.63992,-0.89544 -4.42742,-1.9853 z m -31.34779,-2.19369 c -3.87841,-7.24686 1.29327,-17.027135 5.56019,-10.514996 2.73531,4.174606 2.98238,8.252948 0.64177,10.593556 -2.69585,2.69585 -4.73094,2.67008 -6.20196,-0.0786 z"
         id="path234" />
    </g>
  </g>
</svg>
